<?xml version="1.0" standalone="no"?>
<!DOCTYPE svg PUBLIC "-//W3C//DTD SVG 20010904//EN"
 "http://www.w3.org/TR/2001/REC-SVG-20010904/DTD/svg10.dtd">
<svg version="1.0" xmlns="http://www.w3.org/2000/svg"
 width="1000.000000pt" height="1000.000000pt" viewBox="0 0 1000.000000 1000.000000"
 preserveAspectRatio="xMidYMid meet">
<metadata>
Created by potrace 1.16, written by Peter Selinger 2001-2019
</metadata>
<g transform="translate(0.000000,1000.000000) scale(0.100000,-0.100000)"
fill="#000000" stroke="none">
<path d="M1597 9989 c-143 -34 -276 -159 -326 -307 l-21 -61 0 -4619 c0 -4202
1 -4623 16 -4673 42 -143 155 -260 302 -310 54 -19 142 -19 3429 -19 l3374 0
61 21 c129 43 214 120 277 249 l36 75 3 3268 2 3267 -1364 0 c-1311 0 -1367 1
-1425 19 -157 49 -286 190 -320 349 -8 38 -11 441 -11 1402 l0 1350 -1997 -1
c-1120 -1 -2015 -5 -2036 -10z m1969 -3440 c140 -19 295 -78 404 -152 74 -51
198 -176 246 -248 112 -169 158 -322 158 -529 0 -249 -76 -443 -242 -621 -164
-175 -345 -269 -578 -300 -150 -20 -350 11 -491 76 -131 59 -268 169 -355 285
-61 79 -141 242 -163 330 -23 88 -34 259 -24 345 64 513 541 884 1045 814z
m3106 -1675 c18 -9 214 -197 436 -417 l402 -402 0 -1087 0 -1088 -2495 0
-2495 0 0 468 0 468 403 401 c271 272 414 407 439 417 50 21 124 20 174 -3 29
-13 160 -138 440 -420 220 -221 404 -401 409 -401 6 0 469 459 1030 1021 561
561 1033 1028 1050 1036 69 37 144 39 207 7z"/>
<path d="M6250 8750 l0 -1250 1251 0 1251 0 -3 123 c-4 119 -5 126 -43 203
-38 78 -51 91 -1040 1080 -550 551 -1020 1013 -1043 1027 -77 48 -152 67 -268
67 l-105 0 0 -1250z"/>
</g>
</svg>
