<?xml version="1.0" standalone="no"?>
<!DOCTYPE svg PUBLIC "-//W3C//DTD SVG 20010904//EN"
 "http://www.w3.org/TR/2001/REC-SVG-20010904/DTD/svg10.dtd">
<svg version="1.0" xmlns="http://www.w3.org/2000/svg"
 width="981.000000pt" height="992.000000pt" viewBox="0 0 981.000000 992.000000"
 preserveAspectRatio="xMidYMid meet">

<g transform="translate(0.000000,992.000000) scale(0.100000,-0.100000)"
fill="#000000" stroke="none">
<path d="M4056 9895 c-226 -43 -445 -153 -615 -310 -50 -47 -3064 -3732 -3209
-3924 -91 -120 -180 -327 -213 -496 -18 -91 -18 -348 0 -440 33 -168 123 -377
212 -495 123 -161 3083 -3786 3143 -3849 181 -187 415 -311 673 -356 111 -19
307 -19 419 0 536 94 946 536 1005 1084 31 284 -50 595 -213 821 -30 41 -592
736 -1251 1543 -658 808 -1197 1470 -1197 1472 0 2 549 678 1221 1502 672 824
1239 1524 1260 1555 80 116 146 272 184 428 25 102 30 335 11 455 -43 262
-170 501 -362 686 -163 155 -333 250 -559 310 -107 28 -391 36 -509 14z"/>
<path d="M8359 9894 c-248 -45 -485 -171 -660 -351 -57 -58 -2930 -3577 -3136
-3840 -119 -153 -193 -310 -239 -508 -28 -119 -26 -397 3 -515 51 -201 120
-345 245 -504 109 -138 3004 -3693 3065 -3763 147 -169 373 -305 613 -370 129
-35 380 -44 515 -18 359 66 658 276 843 591 223 377 219 870 -12 1249 -31 53
-518 659 -1266 1576 -668 820 -1216 1495 -1218 1500 -2 5 547 684 1219 1509
672 825 1242 1530 1267 1567 205 305 256 704 137 1061 -141 420 -486 722 -927
812 -115 24 -331 26 -449 4z"/>
</g>
</svg>
