<svg id="svg" version="1.1" xmlns="http://www.w3.org/2000/svg" xmlns:xlink="http://www.w3.org/1999/xlink" width="400" height="400" viewBox="0, 0, 400,400"><g id="svgg"><path id="path0" d="M197.500 241.076 C 197.115 241.176,196.800 241.404,196.800 241.581 C 196.800 242.060,194.865 242.729,192.600 243.033 C 190.400 243.329,189.464 243.723,188.233 244.870 C 187.784 245.288,186.962 245.745,186.408 245.884 C 185.106 246.211,182.211 249.106,181.884 250.408 C 181.745 250.962,181.288 251.784,180.870 252.233 C 179.710 253.478,179.306 254.413,178.985 256.600 C 178.629 259.019,178.112 260.483,177.475 260.877 C 176.862 261.256,176.831 266.720,177.440 267.115 C 178.212 267.615,178.711 268.938,178.999 271.244 C 179.191 272.790,179.592 273.847,180.287 274.644 C 180.842 275.280,181.748 276.475,182.301 277.300 C 182.854 278.125,183.445 278.800,183.614 278.800 C 184.543 278.800,184.800 282.008,184.800 293.629 L 184.800 305.939 185.742 307.069 C 186.261 307.691,186.814 308.905,186.973 309.766 C 187.389 312.025,191.503 316.263,193.856 316.856 C 194.793 317.092,196.144 317.716,196.857 318.242 C 198.554 319.494,201.434 319.561,202.931 318.383 C 203.502 317.934,204.831 317.310,205.885 316.997 C 208.507 316.217,212.206 312.504,213.005 309.850 C 213.318 308.810,213.940 307.494,214.387 306.926 C 215.164 305.938,215.200 305.351,215.200 293.772 C 215.200 279.678,215.109 280.066,219.582 275.081 C 220.290 274.292,220.727 273.130,221.061 271.148 C 221.329 269.557,221.853 267.983,222.267 267.526 C 223.269 266.418,223.316 261.659,222.334 260.677 C 221.681 260.024,220.800 256.813,220.800 255.080 C 220.799 254.596,220.347 253.675,219.796 253.033 C 219.244 252.391,218.586 251.180,218.335 250.341 C 218.084 249.502,217.578 248.720,217.211 248.604 C 216.845 248.487,216.165 247.879,215.702 247.252 C 215.238 246.625,214.350 246.009,213.729 245.883 C 213.108 245.758,212.229 245.307,211.775 244.882 C 210.463 243.652,209.440 243.235,207.046 242.954 C 205.648 242.789,204.326 242.336,203.526 241.745 C 202.281 240.827,199.595 240.528,197.500 241.076 " stroke="none" fill="#fcfcfc" fill-rule="evenodd"></path><path id="path1" d="M176.462 23.226 C 175.947 23.433,175.431 23.962,175.316 24.401 C 175.133 25.098,174.767 25.201,172.453 25.204 C 167.847 25.212,166.800 25.517,166.800 26.852 L 166.800 28.000 163.900 28.005 C 159.973 28.013,159.207 28.264,158.933 29.634 C 158.718 30.710,158.589 30.770,156.254 30.882 C 153.937 30.993,153.793 31.059,153.678 32.051 C 153.569 32.993,153.340 33.131,151.488 33.377 C 149.166 33.685,148.400 34.150,148.400 35.249 C 148.400 35.836,148.104 36.000,147.043 36.000 C 145.656 36.000,145.200 36.503,145.200 38.033 C 145.200 38.681,144.904 38.801,143.300 38.806 C 141.125 38.813,140.553 39.080,140.344 40.186 C 140.253 40.664,139.695 41.115,138.918 41.338 C 137.970 41.610,137.576 42.000,137.389 42.852 C 137.181 43.796,136.929 44.000,135.968 44.000 C 134.900 44.000,134.800 44.120,134.800 45.400 C 134.800 46.733,134.733 46.800,133.400 46.800 C 132.111 46.800,132.000 46.895,132.000 48.000 C 132.000 48.986,131.836 49.200,131.080 49.200 C 129.908 49.200,129.200 49.908,129.200 51.080 C 129.200 51.836,128.986 52.000,128.000 52.000 C 126.895 52.000,126.800 52.111,126.800 53.400 C 126.800 54.733,126.733 54.800,125.400 54.800 C 124.120 54.800,124.000 54.900,124.000 55.968 C 124.000 56.929,123.796 57.181,122.852 57.389 C 122.000 57.576,121.610 57.970,121.338 58.918 C 121.115 59.695,120.664 60.253,120.186 60.344 C 119.080 60.553,118.813 61.125,118.806 63.300 C 118.801 64.904,118.681 65.200,118.033 65.200 C 116.503 65.200,116.000 65.656,116.000 67.043 C 116.000 68.104,115.836 68.400,115.249 68.400 C 114.150 68.400,113.685 69.166,113.377 71.488 C 113.131 73.340,112.993 73.569,112.051 73.678 C 111.059 73.793,110.993 73.937,110.882 76.254 C 110.770 78.589,110.710 78.718,109.634 78.933 C 108.264 79.207,108.013 79.973,108.005 83.900 L 108.000 86.800 106.850 86.800 C 105.474 86.800,105.200 87.697,105.200 92.203 C 105.200 94.764,105.106 95.131,104.405 95.315 C 102.852 95.721,102.800 96.786,102.800 128.226 L 102.800 158.800 81.431 158.800 L 60.062 158.800 58.862 160.000 C 58.202 160.660,57.302 161.200,56.863 161.200 C 55.387 161.200,54.800 161.660,54.800 162.817 C 54.800 163.802,54.631 163.966,53.500 164.075 C 52.357 164.185,52.185 164.357,52.075 165.500 C 51.966 166.631,51.802 166.800,50.817 166.800 C 49.660 166.800,49.200 167.387,49.200 168.863 C 49.200 169.302,48.660 170.202,48.000 170.862 L 46.800 172.062 46.800 280.031 C 46.800 370.207,46.889 388.000,47.338 388.000 C 48.163 388.000,49.199 389.350,49.205 390.431 C 49.217 392.474,49.641 393.200,50.821 393.200 C 51.802 393.200,51.966 393.370,52.075 394.500 C 52.185 395.643,52.357 395.815,53.500 395.925 C 54.631 396.034,54.800 396.198,54.800 397.183 C 54.800 398.447,55.374 398.800,57.433 398.800 C 58.381 398.800,58.800 398.984,58.800 399.400 C 58.800 399.932,74.756 400.000,200.000 400.000 C 325.244 400.000,341.200 399.932,341.200 399.400 C 341.200 398.984,341.619 398.800,342.567 398.800 C 344.638 398.800,345.200 398.449,345.200 397.157 C 345.200 396.101,345.323 396.000,346.600 396.000 C 347.933 396.000,348.000 395.933,348.000 394.600 C 348.000 393.323,348.101 393.200,349.157 393.200 C 350.439 393.200,350.800 392.636,350.800 390.629 C 350.800 389.341,351.785 388.000,352.731 388.000 C 353.088 388.000,353.200 362.268,353.200 280.031 L 353.200 172.062 352.000 170.862 C 351.340 170.202,350.800 169.302,350.800 168.863 C 350.800 167.387,350.340 166.800,349.183 166.800 C 348.198 166.800,348.034 166.631,347.925 165.500 C 347.815 164.357,347.643 164.185,346.500 164.075 C 345.370 163.966,345.200 163.802,345.200 162.821 C 345.200 161.629,344.475 161.217,342.362 161.205 C 341.310 161.200,340.000 160.126,340.000 159.269 C 340.000 158.916,334.686 158.800,318.600 158.800 L 297.200 158.800 297.200 128.219 C 297.200 96.444,297.172 95.899,295.539 95.381 C 294.909 95.181,294.800 94.715,294.800 92.223 C 294.800 87.697,294.527 86.800,293.150 86.800 C 292.004 86.800,292.000 86.792,292.000 84.250 C 292.000 80.232,291.681 79.196,290.364 78.933 C 289.291 78.718,289.230 78.588,289.118 76.254 C 289.005 73.908,288.952 73.794,287.900 73.673 C 286.976 73.567,286.800 73.357,286.800 72.361 C 286.800 70.467,285.767 68.400,284.820 68.400 C 284.154 68.400,284.000 68.145,284.000 67.043 C 284.000 65.661,283.496 65.200,281.988 65.200 C 281.370 65.200,281.221 64.840,281.121 63.103 C 281.016 61.292,280.857 60.938,279.950 60.506 C 279.297 60.194,278.813 59.565,278.668 58.838 C 278.489 57.943,278.150 57.609,277.217 57.404 C 276.200 57.180,276.000 56.945,276.000 55.968 C 276.000 54.900,275.880 54.800,274.600 54.800 C 273.267 54.800,273.200 54.733,273.200 53.400 C 273.200 52.111,273.105 52.000,272.000 52.000 C 271.014 52.000,270.800 51.836,270.800 51.080 C 270.800 49.908,270.092 49.200,268.920 49.200 C 268.164 49.200,268.000 48.986,268.000 48.000 C 268.000 46.895,267.889 46.800,266.600 46.800 C 265.267 46.800,265.200 46.733,265.200 45.400 C 265.200 44.125,265.098 44.000,264.050 44.000 C 263.100 44.000,262.859 43.797,262.667 42.836 C 262.489 41.945,262.149 41.609,261.224 41.405 C 260.462 41.238,259.826 40.744,259.504 40.070 C 259.060 39.140,258.719 38.984,256.897 38.879 C 255.160 38.779,254.800 38.630,254.800 38.012 C 254.800 36.504,254.339 36.000,252.957 36.000 C 251.875 36.000,251.600 35.841,251.600 35.214 C 251.600 34.238,250.564 33.662,248.238 33.343 C 246.675 33.129,246.428 32.962,246.322 32.049 C 246.207 31.059,246.061 30.993,243.746 30.882 C 241.412 30.770,241.282 30.709,241.067 29.636 C 240.804 28.319,239.768 28.000,235.750 28.000 C 233.209 28.000,233.200 27.996,233.200 26.852 C 233.200 25.516,232.153 25.212,227.527 25.204 C 225.281 25.201,224.816 25.082,224.619 24.461 C 224.490 24.054,223.930 23.514,223.373 23.261 C 222.107 22.684,177.898 22.651,176.462 23.226 M210.394 44.000 L 217.472 44.000 217.916 44.976 C 218.447 46.141,220.462 46.795,223.531 46.798 C 225.363 46.800,225.829 46.968,226.862 48.000 C 227.941 49.080,228.314 49.200,230.586 49.200 L 233.111 49.200 233.374 50.600 L 233.636 52.000 236.193 52.000 L 238.749 52.000 238.875 53.300 C 238.985 54.443,239.157 54.615,240.300 54.725 C 241.267 54.819,241.600 55.046,241.600 55.611 C 241.600 56.643,242.782 57.200,244.974 57.200 C 246.794 57.200,246.800 57.204,246.800 58.600 C 246.800 59.875,246.902 60.000,247.950 60.000 C 248.910 60.000,249.140 60.200,249.342 61.208 C 249.529 62.147,249.848 62.470,250.769 62.654 C 251.678 62.836,251.984 63.138,252.078 63.946 C 252.178 64.807,252.434 65.023,253.476 65.124 C 254.588 65.231,254.769 65.412,254.876 66.524 C 254.977 67.566,255.193 67.822,256.054 67.922 C 256.862 68.016,257.164 68.322,257.346 69.231 C 257.530 70.152,257.853 70.471,258.792 70.658 C 259.800 70.860,260.000 71.090,260.000 72.050 C 260.000 73.098,260.125 73.200,261.400 73.200 L 262.800 73.200 262.800 75.320 C 262.800 77.537,263.271 78.400,264.480 78.400 C 264.923 78.400,265.200 78.695,265.200 79.167 C 265.200 80.623,265.666 81.200,266.843 81.200 C 267.998 81.200,268.000 81.204,268.000 83.757 C 268.000 86.422,268.253 86.800,270.033 86.800 C 270.709 86.800,270.800 87.103,270.800 89.369 C 270.800 91.659,270.924 92.062,271.936 93.075 C 272.940 94.078,273.099 94.585,273.300 97.406 C 273.577 101.284,273.813 101.938,275.044 102.247 L 276.000 102.487 276.004 109.943 C 276.010 119.352,276.165 120.381,277.662 120.946 L 278.800 121.375 278.800 140.088 L 278.800 158.800 200.000 158.800 L 121.200 158.800 121.200 140.088 L 121.200 121.375 122.338 120.946 C 123.835 120.381,123.990 119.353,123.996 109.927 C 124.000 102.698,124.027 102.445,124.837 102.188 C 126.013 101.815,126.800 99.648,126.800 96.782 C 126.800 94.600,126.929 94.210,128.000 93.138 C 129.084 92.054,129.200 91.691,129.200 89.369 C 129.200 87.103,129.291 86.800,129.967 86.800 C 131.744 86.800,132.000 86.420,132.000 83.783 L 132.000 81.251 133.300 81.125 C 134.443 81.015,134.615 80.843,134.725 79.700 C 134.819 78.733,135.046 78.400,135.611 78.400 C 136.643 78.400,137.200 77.218,137.200 75.026 C 137.200 73.206,137.204 73.200,138.600 73.200 C 139.889 73.200,140.000 73.105,140.000 72.000 C 140.000 71.014,140.164 70.800,140.920 70.800 C 142.084 70.800,142.800 70.094,142.800 68.947 C 142.800 68.269,143.066 68.023,143.900 67.927 C 144.812 67.822,145.021 67.582,145.124 66.524 C 145.231 65.412,145.412 65.231,146.524 65.124 C 147.582 65.021,147.822 64.812,147.927 63.900 C 148.023 63.066,148.269 62.800,148.947 62.800 C 150.094 62.800,150.800 62.084,150.800 60.920 C 150.800 60.164,151.014 60.000,152.000 60.000 C 153.105 60.000,153.200 59.889,153.200 58.600 C 153.200 57.204,153.206 57.200,155.026 57.200 C 157.218 57.200,158.400 56.643,158.400 55.611 C 158.400 55.046,158.733 54.819,159.700 54.725 C 160.843 54.615,161.015 54.443,161.125 53.300 L 161.251 52.000 163.783 52.000 C 166.420 52.000,166.800 51.744,166.800 49.967 C 166.800 49.291,167.103 49.200,169.369 49.200 C 171.691 49.200,172.054 49.084,173.138 48.000 C 174.178 46.960,174.629 46.800,176.520 46.800 C 179.104 46.800,181.607 45.860,181.888 44.784 C 182.091 44.007,193.554 43.457,200.959 43.869 C 202.256 43.941,206.502 44.000,210.394 44.000 M203.402 240.484 C 204.104 241.301,204.754 241.518,207.164 241.742 C 210.446 242.047,211.433 242.442,211.800 243.600 C 211.976 244.155,212.405 244.400,213.201 244.400 C 214.924 244.400,216.451 245.110,216.690 246.021 C 216.806 246.467,217.406 247.093,218.022 247.412 C 219.174 248.007,219.356 248.364,219.772 250.839 C 219.936 251.819,220.312 252.414,220.950 252.704 C 221.996 253.181,222.400 254.570,222.400 257.690 C 222.400 259.384,222.578 259.845,223.600 260.800 C 225.570 262.640,225.001 268.000,222.836 268.000 C 222.653 268.000,222.419 269.445,222.317 271.212 C 222.142 274.229,222.048 274.505,220.765 275.769 C 220.014 276.509,219.220 277.321,219.000 277.573 C 218.780 277.826,218.240 278.281,217.800 278.584 C 217.034 279.111,216.992 279.703,216.800 292.667 C 216.596 306.471,216.497 307.388,215.163 307.812 C 214.582 307.996,214.400 308.431,214.400 309.638 C 214.400 311.209,213.863 312.036,210.949 314.949 C 208.036 317.863,207.209 318.400,205.638 318.400 C 204.449 318.400,203.995 318.584,203.819 319.139 C 203.182 321.147,198.531 321.453,196.800 319.600 C 195.948 318.687,195.327 318.400,194.208 318.400 C 192.795 318.400,191.804 317.711,189.112 314.857 C 188.830 314.558,188.024 313.743,187.319 313.046 C 186.437 312.173,185.950 311.229,185.756 310.016 C 185.570 308.850,185.123 307.952,184.437 307.362 L 183.400 306.471 183.172 292.535 C 183.047 284.871,182.912 278.575,182.872 278.543 C 182.832 278.512,182.392 278.384,181.894 278.259 C 181.366 278.127,180.796 277.524,180.528 276.816 C 180.276 276.147,179.827 275.600,179.531 275.600 C 178.607 275.600,178.018 274.133,177.740 271.137 C 177.514 268.711,177.306 268.109,176.436 267.360 C 174.893 266.033,174.900 261.936,176.447 260.662 C 177.338 259.928,177.531 259.374,177.746 256.934 C 178.056 253.419,178.203 253.018,179.366 252.488 C 180.084 252.161,180.336 251.648,180.502 250.174 C 180.638 248.964,180.964 248.140,181.403 247.894 C 182.283 247.402,183.402 246.283,183.894 245.403 C 184.140 244.964,184.964 244.638,186.174 244.502 C 187.648 244.336,188.161 244.084,188.488 243.366 C 189.022 242.194,189.469 242.035,193.077 241.730 C 195.418 241.532,196.122 241.320,196.444 240.717 C 197.419 238.896,201.906 238.746,203.402 240.484 " stroke="none" fill="#040404" fill-rule="evenodd"></path><path id="path2" d="" stroke="none" fill="#c010080" fill-rule="evenodd"></path><path id="path3" d="M196.681 240.546 C 195.963 241.317,195.223 241.545,192.686 241.781 C 189.902 242.040,189.484 242.190,188.743 243.191 C 188.173 243.962,187.421 244.390,186.329 244.565 C 184.104 244.921,180.921 248.104,180.565 250.329 C 180.390 251.421,179.962 252.173,179.191 252.743 C 178.190 253.484,178.040 253.902,177.781 256.686 C 177.545 259.223,177.317 259.963,176.546 260.681 C 175.159 261.973,175.165 266.002,176.557 267.393 C 177.317 268.153,177.571 268.952,177.793 271.275 C 178.036 273.830,178.231 274.363,179.336 275.490 C 180.031 276.199,180.915 277.144,181.300 277.590 C 181.685 278.035,182.202 278.400,182.449 278.400 C 182.695 278.400,182.042 277.399,180.998 276.177 C 179.395 274.300,179.017 273.529,178.581 271.239 C 178.296 269.746,177.690 267.911,177.233 267.162 C 176.165 265.409,176.139 262.634,177.175 260.935 C 177.599 260.239,178.164 258.529,178.430 257.135 C 178.712 255.656,179.473 253.680,180.257 252.392 C 180.996 251.178,181.600 250.030,181.600 249.841 C 181.600 249.365,185.309 245.623,185.792 245.610 C 186.008 245.605,187.178 244.996,188.392 244.257 C 189.680 243.473,191.656 242.712,193.135 242.430 C 194.529 242.164,196.239 241.599,196.935 241.175 C 198.601 240.158,201.410 240.165,203.090 241.190 C 203.800 241.623,205.600 242.196,207.090 242.463 C 208.601 242.735,210.331 243.342,211.000 243.836 C 211.660 244.323,212.877 245.001,213.705 245.342 C 215.522 246.092,218.800 249.313,218.800 250.348 C 218.800 250.757,219.165 251.556,219.611 252.123 C 220.714 253.526,221.447 255.422,221.781 257.741 C 221.935 258.808,222.407 260.248,222.829 260.941 C 223.843 262.603,223.856 265.711,222.856 267.138 C 222.447 267.722,221.882 269.437,221.602 270.948 C 221.259 272.792,220.747 274.108,220.044 274.948 C 215.522 280.355,215.682 279.635,215.634 294.881 C 215.601 305.118,215.349 307.600,214.341 307.600 C 214.158 307.600,213.890 308.365,213.744 309.300 C 213.353 311.803,207.803 317.353,205.300 317.744 C 204.365 317.890,203.600 318.158,203.600 318.341 C 203.600 319.682,198.633 320.013,197.060 318.776 C 196.484 318.323,195.350 317.844,194.541 317.713 C 192.248 317.341,187.396 312.555,186.602 309.883 C 186.273 308.774,185.688 307.518,185.302 307.092 C 184.672 306.397,184.580 304.972,184.400 293.173 C 184.214 280.972,184.146 279.976,183.448 279.314 C 182.720 278.623,182.705 278.633,182.998 279.600 C 183.165 280.150,183.414 286.506,183.551 293.724 C 183.795 306.583,183.818 306.861,184.671 307.524 C 185.249 307.973,185.636 308.854,185.823 310.149 C 186.052 311.725,186.324 312.222,187.250 312.749 C 187.880 313.107,188.396 313.559,188.397 313.753 C 188.405 314.822,192.513 318.091,194.119 318.306 C 195.258 318.459,196.142 318.897,196.860 319.666 C 197.762 320.630,198.233 320.800,200.000 320.800 C 201.767 320.800,202.238 320.630,203.140 319.666 C 203.859 318.896,204.742 318.459,205.884 318.306 C 208.387 317.971,213.979 312.370,214.293 309.884 C 214.440 308.720,214.829 307.934,215.553 307.339 L 216.600 306.477 216.800 292.826 L 217.000 279.176 218.300 278.159 C 219.015 277.600,219.600 276.943,219.600 276.700 C 219.600 276.457,220.149 275.795,220.820 275.229 C 221.922 274.300,222.064 273.910,222.286 271.200 C 222.500 268.585,222.677 268.064,223.666 267.140 C 225.350 265.564,225.318 262.404,223.600 260.800 C 222.587 259.853,222.400 259.377,222.398 257.740 C 222.395 255.013,221.732 252.896,220.788 252.596 C 220.240 252.422,219.920 251.843,219.736 250.689 C 219.541 249.472,219.009 248.563,217.735 247.271 C 216.781 246.303,216.000 245.371,216.000 245.201 C 216.000 245.030,215.166 244.766,214.147 244.613 C 212.811 244.413,212.027 244.018,211.339 243.201 C 210.502 242.205,210.016 242.032,207.361 241.783 C 204.941 241.557,204.146 241.310,203.386 240.550 C 202.002 239.165,197.969 239.163,196.681 240.546 " stroke="none" fill="#408480" fill-rule="evenodd"></path><path id="path4" d="M199.100 239.482 C 199.595 239.578,200.405 239.578,200.900 239.482 C 201.395 239.387,200.990 239.309,200.000 239.309 C 199.010 239.309,198.605 239.387,199.100 239.482 M175.309 264.000 C 175.309 264.990,175.387 265.395,175.482 264.900 C 175.578 264.405,175.578 263.595,175.482 263.100 C 175.387 262.605,175.309 263.010,175.309 264.000 M183.376 294.400 C 183.376 300.670,183.432 303.235,183.499 300.100 C 183.567 296.965,183.567 291.835,183.499 288.700 C 183.432 285.565,183.376 288.130,183.376 294.400 " stroke="none" fill="#400484" fill-rule="evenodd"></path></g></svg>