<svg id="svg" version="1.1" xmlns="http://www.w3.org/2000/svg" xmlns:xlink="http://www.w3.org/1999/xlink" width="400" height="400" viewBox="0, 0, 400,400"><g id="svgg"><path id="path0" d="M333.608 216.743 C 332.754 217.641,331.464 219.236,330.742 220.288 C 330.020 221.340,329.063 222.573,328.615 223.028 C 328.167 223.484,326.990 224.818,326.000 225.994 C 325.010 227.170,324.014 228.328,323.787 228.566 C 323.560 228.805,322.938 229.630,322.406 230.400 C 321.874 231.170,320.577 232.700,319.524 233.800 C 318.396 234.978,317.608 236.173,317.605 236.709 C 317.602 237.209,316.908 238.379,316.062 239.309 C 315.216 240.239,314.237 241.360,313.885 241.800 C 313.534 242.240,312.072 244.068,310.638 245.863 C 309.203 247.657,307.437 249.544,306.714 250.055 C 304.898 251.340,302.325 254.114,300.087 257.200 C 299.050 258.630,297.481 260.532,296.601 261.426 C 295.720 262.321,294.550 263.654,294.000 264.390 C 291.820 267.305,289.048 270.689,287.438 272.400 C 286.507 273.390,285.577 274.494,285.372 274.853 C 284.982 275.536,283.051 277.942,281.346 279.869 C 280.795 280.491,279.238 282.350,277.886 284.000 C 276.535 285.650,275.330 287.090,275.209 287.200 C 275.088 287.310,274.184 288.390,273.200 289.600 C 272.216 290.810,271.314 291.890,271.196 292.000 C 271.077 292.110,269.369 294.180,267.401 296.600 C 265.432 299.020,263.636 301.204,263.410 301.453 C 263.185 301.702,262.382 302.667,261.626 303.597 C 256.774 309.569,253.752 309.965,249.200 305.225 C 248.869 304.881,247.789 303.973,246.800 303.207 C 244.796 301.657,243.719 300.726,242.045 299.100 C 241.423 298.495,240.773 298.000,240.601 298.000 C 240.429 298.000,239.189 297.041,237.844 295.868 C 236.500 294.695,234.975 293.390,234.455 292.968 C 233.936 292.546,233.274 291.975,232.984 291.700 C 232.694 291.425,232.337 291.200,232.189 291.200 C 232.042 291.200,231.444 290.698,230.860 290.085 C 230.277 289.471,229.170 288.533,228.400 288.000 C 227.630 287.467,226.550 286.567,226.000 286.000 C 225.450 285.433,224.370 284.531,223.600 283.995 C 222.830 283.459,221.660 282.466,221.000 281.789 C 220.340 281.111,219.170 280.125,218.400 279.597 C 217.630 279.070,216.709 278.314,216.353 277.919 C 215.997 277.524,215.524 277.200,215.302 277.200 C 215.080 277.200,214.644 276.817,214.333 276.350 C 213.481 275.066,211.704 275.643,210.114 277.720 C 209.406 278.644,208.306 279.949,207.668 280.620 C 207.030 281.292,205.809 282.751,204.954 283.863 C 204.099 284.975,199.668 290.347,195.107 295.801 C 186.480 306.116,185.962 306.993,187.841 308.109 C 188.127 308.279,188.627 308.684,188.952 309.009 C 189.277 309.334,189.660 309.600,189.803 309.600 C 189.946 309.600,190.724 310.281,191.531 311.113 C 192.339 311.945,193.630 313.061,194.400 313.594 C 195.170 314.126,195.890 314.667,196.000 314.796 C 196.375 315.235,205.397 322.651,206.316 323.275 C 206.820 323.618,208.080 324.688,209.116 325.654 C 211.123 327.525,212.635 328.787,214.800 330.400 C 215.538 330.950,217.121 332.296,218.317 333.391 C 219.512 334.487,221.235 335.917,222.145 336.569 C 223.055 337.222,224.533 338.395,225.428 339.178 C 229.151 342.430,231.507 344.399,233.304 345.760 C 234.352 346.553,235.773 347.741,236.464 348.401 C 237.154 349.060,238.036 349.600,238.423 349.600 C 238.811 349.600,240.062 350.365,241.203 351.300 C 242.344 352.235,244.115 353.683,245.139 354.518 C 249.954 358.446,258.535 360.537,262.881 358.842 C 263.387 358.645,264.610 358.250,265.600 357.965 C 268.143 357.233,270.326 355.651,273.259 352.415 C 274.657 350.873,275.980 349.603,276.200 349.592 C 276.420 349.581,277.770 348.118,279.200 346.341 C 280.630 344.563,281.981 342.905,282.202 342.655 C 282.423 342.405,283.413 341.212,284.402 340.004 C 285.391 338.796,286.586 337.356,287.057 336.804 C 287.529 336.252,290.749 332.380,294.214 328.200 C 301.521 319.385,303.202 317.373,304.411 316.000 C 304.895 315.450,305.764 314.370,306.343 313.600 C 306.922 312.830,307.486 312.110,307.598 312.000 C 308.008 311.595,311.925 306.901,314.608 303.600 C 316.129 301.730,317.950 299.570,318.656 298.800 C 319.361 298.030,320.615 296.500,321.442 295.400 C 322.746 293.665,326.806 288.853,328.300 287.272 C 328.575 286.981,328.800 286.424,328.800 286.033 C 328.800 285.643,329.182 284.981,329.649 284.562 C 330.116 284.143,331.322 282.720,332.330 281.400 C 333.338 280.080,334.262 278.910,334.384 278.800 C 334.505 278.690,335.586 277.430,336.785 276.000 C 337.985 274.570,339.964 272.406,341.183 271.190 C 343.656 268.725,345.303 266.857,345.841 265.904 C 346.039 265.556,346.833 264.579,347.607 263.735 C 348.381 262.891,350.175 260.760,351.593 259.000 C 353.011 257.240,354.268 255.710,354.386 255.600 C 354.652 255.351,358.431 250.887,359.294 249.800 C 359.644 249.360,361.296 247.352,362.965 245.338 C 366.395 241.200,366.512 240.808,364.700 239.556 C 363.985 239.062,362.485 237.835,361.366 236.829 C 359.554 235.199,357.660 233.526,352.200 228.731 C 351.320 227.959,350.180 226.983,349.666 226.563 C 349.153 226.143,348.360 225.485,347.905 225.100 C 347.450 224.715,346.949 224.400,346.791 224.400 C 346.634 224.400,345.717 223.630,344.753 222.689 C 342.198 220.196,338.426 217.084,336.681 216.029 L 335.161 215.111 333.608 216.743 " stroke="none" fill="#6de627" fill-rule="evenodd"></path><path id="path1" d="M185.800 16.400 C 185.661 16.625,183.729 16.800,181.376 16.800 C 178.859 16.800,177.200 16.959,177.200 17.200 C 177.200 17.431,175.941 17.600,174.224 17.600 C 172.587 17.600,171.136 17.780,171.000 18.000 C 170.864 18.220,169.773 18.400,168.576 18.400 C 167.379 18.400,166.400 18.580,166.400 18.800 C 166.400 19.020,165.500 19.200,164.400 19.200 C 163.300 19.200,162.400 19.380,162.400 19.600 C 162.400 19.820,161.680 20.000,160.800 20.000 C 159.920 20.000,159.200 20.180,159.200 20.400 C 159.200 20.620,158.480 20.800,157.600 20.800 C 156.720 20.800,156.000 20.980,156.000 21.200 C 156.000 21.420,155.280 21.600,154.400 21.600 C 153.520 21.600,152.800 21.780,152.800 22.000 C 152.800 22.220,152.181 22.400,151.424 22.400 C 150.667 22.400,149.936 22.580,149.800 22.800 C 149.664 23.020,149.124 23.200,148.600 23.200 C 148.076 23.200,147.536 23.380,147.400 23.600 C 147.264 23.820,146.724 24.000,146.200 24.000 C 145.676 24.000,145.136 24.180,145.000 24.400 C 144.864 24.620,144.313 24.800,143.776 24.800 C 143.239 24.800,142.800 24.980,142.800 25.200 C 142.800 25.420,142.361 25.600,141.824 25.600 C 141.287 25.600,140.736 25.780,140.600 26.000 C 140.464 26.220,140.003 26.400,139.576 26.400 C 139.149 26.400,138.800 26.580,138.800 26.800 C 138.800 27.020,138.305 27.201,137.700 27.202 C 137.095 27.203,135.714 27.653,134.632 28.202 C 133.550 28.751,132.425 29.200,132.132 29.200 C 131.839 29.200,131.600 29.380,131.600 29.600 C 131.600 29.820,131.240 30.000,130.800 30.000 C 130.360 30.000,129.999 30.135,129.999 30.300 C 129.998 30.465,129.008 31.050,127.800 31.600 C 126.592 32.150,125.602 32.735,125.601 32.900 C 125.601 33.065,125.240 33.200,124.800 33.200 C 124.360 33.200,124.000 33.380,124.000 33.600 C 124.000 33.820,123.680 34.000,123.288 34.000 C 122.897 34.000,122.317 34.360,122.000 34.800 C 121.683 35.240,121.103 35.600,120.712 35.600 C 120.320 35.600,120.000 35.780,120.000 36.000 C 120.000 36.220,119.775 36.400,119.500 36.401 C 119.225 36.401,118.370 36.941,117.600 37.600 C 116.830 38.259,116.015 38.799,115.788 38.799 C 115.562 38.800,115.117 39.160,114.800 39.600 C 114.483 40.040,114.085 40.400,113.916 40.400 C 113.129 40.400,109.200 44.226,109.200 44.993 C 109.200 45.327,109.020 45.600,108.800 45.600 C 108.580 45.600,108.400 46.039,108.400 46.576 C 108.400 47.113,108.220 47.664,108.000 47.800 C 107.780 47.936,107.600 48.926,107.600 50.000 C 107.600 51.074,107.780 52.064,108.000 52.200 C 108.220 52.336,108.400 53.146,108.400 54.000 C 108.400 54.854,108.580 55.664,108.800 55.800 C 109.020 55.936,109.200 56.656,109.200 57.400 C 109.200 58.144,109.356 58.849,109.548 58.968 C 109.739 59.086,110.021 60.623,110.174 62.384 C 110.328 64.145,110.622 65.690,110.827 65.817 C 111.032 65.943,111.200 66.746,111.200 67.600 C 111.200 68.454,111.380 69.264,111.600 69.400 C 111.820 69.536,112.000 70.346,112.000 71.200 C 112.000 72.054,112.161 72.852,112.358 72.974 C 112.555 73.095,112.825 73.916,112.958 74.797 C 113.091 75.679,113.309 77.121,113.442 78.003 C 113.575 78.884,113.845 79.705,114.042 79.826 C 114.239 79.948,114.400 80.746,114.400 81.600 C 114.400 82.454,114.580 83.264,114.800 83.400 C 115.020 83.536,115.200 84.346,115.200 85.200 C 115.200 86.054,115.380 86.864,115.600 87.000 C 115.820 87.136,116.000 87.856,116.000 88.600 C 116.000 89.344,116.180 90.064,116.400 90.200 C 116.620 90.336,116.800 91.247,116.800 92.224 C 116.800 93.201,116.980 94.000,117.200 94.000 C 117.420 94.000,117.600 94.720,117.600 95.600 C 117.600 96.480,117.780 97.200,118.000 97.200 C 118.220 97.200,118.400 97.999,118.400 98.976 C 118.400 99.953,118.580 100.864,118.800 101.000 C 119.020 101.136,119.200 101.957,119.200 102.824 C 119.200 103.691,119.380 104.400,119.600 104.400 C 119.820 104.400,120.000 105.109,120.000 105.976 C 120.000 106.843,120.180 107.664,120.400 107.800 C 120.620 107.936,120.800 108.757,120.800 109.624 C 120.800 110.491,120.980 111.200,121.200 111.200 C 121.420 111.200,121.600 111.909,121.600 112.776 C 121.600 113.643,121.780 114.464,122.000 114.600 C 122.220 114.736,122.400 115.647,122.400 116.624 C 122.400 117.601,122.580 118.400,122.800 118.400 C 123.020 118.400,123.200 119.120,123.200 120.000 C 123.200 120.880,123.380 121.600,123.600 121.600 C 123.820 121.600,124.000 122.410,124.000 123.400 C 124.000 124.390,124.180 125.200,124.400 125.200 C 124.660 125.200,124.800 131.067,124.800 142.000 C 124.800 152.933,124.940 158.800,125.200 158.800 C 125.425 158.800,125.600 159.925,125.600 161.376 C 125.600 162.793,125.780 164.064,126.000 164.200 C 126.220 164.336,126.400 165.157,126.400 166.024 C 126.400 166.891,126.554 167.600,126.743 167.600 C 126.932 167.600,127.203 168.717,127.346 170.082 C 127.488 171.448,127.784 172.744,128.002 172.962 C 128.221 173.181,128.400 173.763,128.400 174.256 C 128.400 174.749,128.580 175.264,128.800 175.400 C 129.020 175.536,129.200 176.087,129.200 176.624 C 129.200 177.161,129.380 177.600,129.600 177.600 C 129.820 177.600,130.000 177.872,130.000 178.205 C 130.000 178.538,130.180 179.168,130.400 179.605 C 130.620 180.042,130.980 180.758,131.200 181.195 C 131.420 181.632,131.600 182.262,131.600 182.595 C 131.600 182.928,131.780 183.200,132.000 183.200 C 132.220 183.200,132.400 183.560,132.400 184.000 C 132.400 184.440,132.546 184.800,132.725 184.800 C 132.904 184.800,133.298 185.430,133.600 186.200 C 133.902 186.970,134.296 187.600,134.475 187.600 C 134.654 187.600,134.800 187.870,134.800 188.200 C 134.800 188.530,134.936 188.800,135.102 188.800 C 135.269 188.800,135.629 189.306,135.903 189.925 C 136.176 190.544,136.760 191.436,137.200 191.908 C 137.640 192.380,138.000 192.927,138.000 193.124 C 138.000 193.321,138.540 194.046,139.200 194.737 C 139.860 195.428,140.400 196.143,140.400 196.328 C 140.400 196.742,142.780 199.403,147.100 203.817 C 151.052 207.855,151.004 207.600,147.824 207.600 C 146.407 207.600,145.136 207.780,145.000 208.000 C 144.864 208.220,143.334 208.400,141.600 208.400 C 139.866 208.400,138.336 208.580,138.200 208.800 C 138.064 209.020,137.063 209.200,135.976 209.200 C 134.889 209.200,134.000 209.357,134.000 209.548 C 134.000 209.740,132.563 210.022,130.807 210.175 C 129.051 210.328,127.510 210.622,127.383 210.827 C 127.257 211.032,126.623 211.200,125.976 211.200 C 125.329 211.200,124.800 211.380,124.800 211.600 C 124.800 211.820,124.395 212.003,123.900 212.006 C 122.924 212.013,120.185 212.882,119.741 213.326 C 119.590 213.477,119.047 213.600,118.533 213.600 C 118.020 213.600,117.600 213.780,117.600 214.000 C 117.600 214.220,117.161 214.400,116.624 214.400 C 116.087 214.400,115.536 214.580,115.400 214.800 C 115.264 215.020,114.803 215.200,114.376 215.200 C 113.949 215.200,113.600 215.380,113.600 215.600 C 113.600 215.820,113.251 216.000,112.824 216.000 C 112.397 216.000,111.936 216.180,111.800 216.400 C 111.664 216.620,111.203 216.800,110.776 216.800 C 110.349 216.800,110.000 216.980,110.000 217.200 C 110.000 217.420,109.640 217.600,109.200 217.600 C 108.760 217.600,108.400 217.780,108.400 218.000 C 108.400 218.220,108.040 218.400,107.600 218.400 C 107.160 218.400,106.800 218.580,106.800 218.800 C 106.800 219.020,106.440 219.200,106.000 219.200 C 105.560 219.200,105.200 219.380,105.200 219.600 C 105.200 219.820,104.880 220.000,104.488 220.000 C 104.097 220.000,103.517 220.360,103.200 220.800 C 102.883 221.240,102.303 221.600,101.912 221.600 C 101.520 221.600,101.200 221.780,101.200 222.000 C 101.200 222.220,100.880 222.400,100.488 222.400 C 100.097 222.400,99.517 222.760,99.200 223.200 C 98.883 223.640,98.303 224.000,97.912 224.000 C 97.520 224.000,97.200 224.180,97.200 224.400 C 97.200 224.620,96.930 224.800,96.600 224.800 C 96.270 224.800,96.000 224.980,96.000 225.200 C 96.000 225.420,95.730 225.600,95.400 225.600 C 95.070 225.600,94.800 225.752,94.800 225.937 C 94.800 226.122,94.170 226.613,93.400 227.028 C 92.630 227.443,92.000 227.909,92.000 228.064 C 92.000 228.219,91.631 228.463,91.180 228.606 C 90.729 228.749,89.784 229.440,89.080 230.140 C 88.376 230.840,87.170 231.857,86.400 232.400 C 84.737 233.572,74.000 244.474,74.000 244.990 C 74.000 245.105,73.280 245.941,72.400 246.848 C 71.520 247.755,70.800 248.656,70.800 248.852 C 70.800 249.047,70.260 249.772,69.600 250.463 C 68.940 251.154,68.400 251.922,68.400 252.171 C 68.400 252.420,68.040 252.883,67.600 253.200 C 67.160 253.517,66.800 254.014,66.800 254.305 C 66.800 254.596,66.440 255.220,66.000 255.692 C 65.560 256.164,65.200 256.787,65.200 257.075 C 65.200 257.364,65.020 257.600,64.800 257.600 C 64.580 257.600,64.400 257.894,64.400 258.253 C 64.400 258.612,64.077 259.197,63.682 259.553 C 62.821 260.329,60.000 265.981,60.000 266.930 C 60.000 267.298,59.820 267.600,59.600 267.600 C 59.380 267.600,59.200 267.960,59.200 268.400 C 59.200 268.840,59.020 269.200,58.800 269.200 C 58.580 269.200,58.400 269.560,58.400 270.000 C 58.400 270.440,58.220 270.800,58.000 270.800 C 57.780 270.800,57.600 271.340,57.600 272.000 C 57.600 272.660,57.420 273.200,57.200 273.200 C 56.980 273.200,56.800 273.560,56.800 274.000 C 56.800 274.440,56.620 274.800,56.400 274.800 C 56.180 274.800,56.000 275.340,56.000 276.000 C 56.000 276.660,55.820 277.200,55.600 277.200 C 55.380 277.200,55.200 277.650,55.200 278.200 C 55.200 278.750,55.020 279.200,54.800 279.200 C 54.580 279.200,54.400 279.740,54.400 280.400 C 54.400 281.060,54.220 281.600,54.000 281.600 C 53.780 281.600,53.600 282.129,53.600 282.776 C 53.600 283.423,53.420 284.064,53.200 284.200 C 52.980 284.336,52.800 285.067,52.800 285.824 C 52.800 286.581,52.620 287.200,52.400 287.200 C 52.180 287.200,52.000 287.909,52.000 288.776 C 52.000 289.643,51.820 290.464,51.600 290.600 C 51.380 290.736,51.200 291.726,51.200 292.800 C 51.200 293.874,51.020 294.864,50.800 295.000 C 50.580 295.136,50.400 296.306,50.400 297.600 C 50.400 298.894,50.220 300.064,50.000 300.200 C 49.739 300.361,49.600 311.137,49.600 331.224 C 49.600 351.475,49.737 362.000,50.000 362.000 C 50.220 362.000,50.400 362.275,50.400 362.611 C 50.400 363.642,53.860 366.800,54.989 366.800 C 55.545 366.800,56.000 366.980,56.000 367.200 C 56.000 367.466,104.267 367.600,200.000 367.600 C 295.733 367.600,344.000 367.466,344.000 367.200 C 344.000 366.980,344.455 366.800,345.011 366.800 C 346.140 366.800,349.600 363.642,349.600 362.611 C 349.600 362.275,349.780 362.000,350.000 362.000 C 350.263 362.000,350.400 351.475,350.400 331.224 C 350.400 311.137,350.261 300.361,350.000 300.200 C 349.780 300.064,349.600 298.894,349.600 297.600 C 349.600 296.306,349.420 295.136,349.200 295.000 C 348.980 294.864,348.800 293.874,348.800 292.800 C 348.800 291.726,348.620 290.736,348.400 290.600 C 348.180 290.464,348.000 289.643,348.000 288.776 C 348.000 287.909,347.820 287.200,347.600 287.200 C 347.380 287.200,347.200 286.581,347.200 285.824 C 347.200 285.067,347.020 284.336,346.800 284.200 C 346.580 284.064,346.400 283.423,346.400 282.776 C 346.400 282.129,346.220 281.600,346.000 281.600 C 345.780 281.600,345.600 281.060,345.600 280.400 C 345.600 279.740,345.420 279.200,345.200 279.200 C 344.980 279.200,344.800 278.750,344.800 278.200 C 344.800 277.650,344.620 277.200,344.400 277.200 C 344.180 277.200,344.000 276.660,344.000 276.000 C 344.000 275.340,343.820 274.800,343.600 274.800 C 343.380 274.800,343.200 274.551,343.200 274.246 C 343.200 270.769,341.611 271.359,337.666 276.303 C 336.131 278.226,333.690 281.202,332.242 282.915 C 330.793 284.628,329.488 286.518,329.342 287.115 C 329.196 287.712,328.880 288.332,328.638 288.494 C 328.336 288.696,328.356 288.790,328.700 288.794 C 328.975 288.797,329.200 289.239,329.200 289.776 C 329.200 290.313,329.380 290.864,329.600 291.000 C 329.820 291.136,330.000 291.856,330.000 292.600 C 330.000 293.344,330.180 294.064,330.400 294.200 C 330.620 294.336,330.800 295.236,330.800 296.200 C 330.800 297.164,330.980 298.064,331.200 298.200 C 331.420 298.336,331.600 299.596,331.600 301.000 C 331.600 302.404,331.780 303.664,332.000 303.800 C 332.259 303.960,332.400 312.071,332.400 326.824 L 332.400 349.600 304.769 349.600 L 277.138 349.600 276.066 350.700 C 275.476 351.305,274.368 352.569,273.604 353.508 C 268.785 359.432,258.921 362.005,251.800 359.196 C 251.360 359.023,250.370 358.654,249.600 358.376 C 248.309 357.911,245.324 355.866,243.396 354.126 C 241.383 352.308,238.801 350.384,237.750 349.919 C 237.118 349.638,235.939 348.732,235.131 347.904 C 234.324 347.077,233.445 346.400,233.180 346.400 C 232.914 346.400,233.485 347.113,234.449 347.984 L 236.200 349.567 221.163 349.584 L 206.126 349.600 204.417 346.300 C 203.477 344.485,200.954 339.580,198.810 335.400 C 196.666 331.220,194.078 326.180,193.059 324.200 C 192.039 322.220,191.204 320.285,191.203 319.900 C 191.201 319.515,191.020 319.200,190.800 319.200 C 190.580 319.200,190.400 318.840,190.400 318.400 C 190.400 317.960,190.220 317.600,190.000 317.600 C 189.780 317.600,189.600 317.240,189.600 316.800 C 189.600 316.360,189.420 316.000,189.200 316.000 C 188.980 316.000,188.800 315.640,188.800 315.200 C 188.800 314.760,188.620 314.400,188.400 314.400 C 188.180 314.400,188.000 314.040,188.000 313.600 C 188.000 313.160,187.820 312.800,187.600 312.800 C 187.380 312.800,187.200 312.440,187.200 312.000 C 187.200 311.560,187.020 311.200,186.800 311.200 C 186.580 311.200,186.400 310.930,186.400 310.600 C 186.400 310.270,186.192 310.000,185.939 310.000 C 185.685 310.000,185.871 309.659,186.352 309.242 C 187.204 308.502,187.209 308.447,186.543 307.050 C 185.926 305.756,185.920 305.549,186.478 304.909 C 186.818 304.519,189.033 301.860,191.401 299.000 C 193.769 296.140,196.092 293.350,196.563 292.800 C 197.034 292.250,198.670 290.270,200.200 288.400 C 201.729 286.530,204.098 283.702,205.465 282.115 C 206.832 280.529,208.703 278.234,209.623 277.015 C 211.457 274.586,211.967 274.417,213.900 275.596 C 214.615 276.032,215.200 276.211,215.200 275.994 C 215.200 275.777,215.020 275.600,214.800 275.600 C 214.020 275.600,214.416 274.306,215.515 273.260 C 216.129 272.677,217.073 271.570,217.613 270.800 C 218.154 270.030,219.272 268.703,220.098 267.852 C 220.924 267.000,221.600 266.144,221.600 265.948 C 221.600 265.753,222.158 265.009,222.840 264.296 C 223.523 263.583,224.356 262.468,224.693 261.818 C 225.030 261.168,226.002 259.967,226.853 259.149 C 227.704 258.332,228.400 257.559,228.400 257.432 C 228.400 257.305,229.120 256.459,230.000 255.552 C 230.880 254.645,231.600 253.731,231.600 253.520 C 231.600 253.310,232.320 252.446,233.200 251.600 C 234.080 250.754,234.800 249.897,234.800 249.695 C 234.800 249.493,235.610 248.470,236.600 247.422 C 237.590 246.374,238.400 245.370,238.400 245.191 C 238.400 245.012,239.120 244.116,240.000 243.200 C 240.880 242.284,241.600 241.391,241.600 241.216 C 241.600 241.040,242.320 240.155,243.200 239.248 C 244.080 238.341,244.800 237.419,244.800 237.200 C 244.800 236.980,244.980 236.800,245.200 236.800 C 245.420 236.800,245.600 236.620,245.600 236.400 C 245.600 236.181,246.320 235.259,247.200 234.352 C 248.080 233.445,248.800 232.541,248.800 232.341 C 248.800 232.142,249.610 231.169,250.600 230.179 C 251.590 229.189,252.400 228.231,252.400 228.051 C 252.400 226.777,253.971 226.000,256.547 226.000 C 258.049 226.000,259.200 226.174,259.200 226.400 C 259.200 226.620,259.999 226.800,260.976 226.800 C 261.953 226.800,262.864 226.980,263.000 227.200 C 263.136 227.420,263.957 227.600,264.824 227.600 C 265.691 227.600,266.400 227.780,266.400 228.000 C 266.400 228.220,267.030 228.400,267.800 228.400 C 268.570 228.400,269.200 228.580,269.200 228.800 C 269.200 229.020,269.740 229.200,270.400 229.200 C 271.060 229.200,271.600 229.380,271.600 229.600 C 271.600 229.820,272.140 230.000,272.800 230.000 C 273.460 230.000,274.000 230.180,274.000 230.400 C 274.000 230.620,274.540 230.800,275.200 230.800 C 275.860 230.800,276.400 230.980,276.400 231.200 C 276.400 231.420,276.760 231.600,277.200 231.600 C 277.640 231.600,278.000 231.780,278.000 232.000 C 278.000 232.220,278.450 232.400,279.000 232.400 C 279.550 232.400,280.000 232.580,280.000 232.800 C 280.000 233.020,280.360 233.200,280.800 233.200 C 281.240 233.200,281.600 233.380,281.600 233.600 C 281.600 233.820,281.960 234.000,282.400 234.000 C 282.840 234.000,283.200 234.180,283.200 234.400 C 283.200 234.620,283.560 234.800,284.000 234.800 C 284.440 234.800,284.800 234.980,284.800 235.200 C 284.800 235.420,285.160 235.600,285.600 235.600 C 286.040 235.600,286.400 235.780,286.400 236.000 C 286.400 236.220,286.760 236.400,287.200 236.400 C 287.640 236.400,288.000 236.558,288.000 236.751 C 288.000 236.945,288.540 237.327,289.200 237.600 C 289.860 237.873,290.400 238.255,290.400 238.449 C 290.400 238.642,290.745 238.800,291.167 238.800 C 291.588 238.800,291.993 238.935,292.067 239.100 C 292.242 239.496,295.352 241.600,295.761 241.600 C 295.936 241.600,296.583 242.140,297.200 242.800 C 297.817 243.460,298.512 244.000,298.746 244.000 C 298.980 244.000,300.470 245.260,302.056 246.800 C 305.719 250.356,305.964 250.344,309.073 246.477 C 310.433 244.785,312.097 242.770,312.770 242.000 C 315.395 238.997,316.800 237.100,316.800 236.559 C 316.800 236.247,317.342 235.426,318.004 234.733 C 318.666 234.041,319.116 233.383,319.006 233.272 C 318.895 233.161,318.381 233.563,317.865 234.164 L 316.925 235.257 315.230 233.629 C 314.298 232.733,313.384 232.000,313.200 232.000 C 313.016 232.000,312.132 231.325,311.236 230.500 C 309.121 228.553,307.360 227.200,306.937 227.199 C 306.752 227.199,305.970 226.659,305.200 226.000 C 304.430 225.341,303.575 224.801,303.300 224.801 C 303.025 224.800,302.800 224.620,302.800 224.400 C 302.800 224.180,302.564 224.000,302.275 224.000 C 301.987 224.000,301.364 223.640,300.892 223.200 C 300.420 222.760,299.756 222.400,299.417 222.400 C 299.078 222.400,298.800 222.220,298.800 222.000 C 298.800 221.780,298.564 221.600,298.275 221.600 C 297.987 221.600,297.364 221.240,296.892 220.800 C 296.420 220.360,295.756 220.000,295.417 220.000 C 295.078 220.000,294.800 219.820,294.800 219.600 C 294.800 219.380,294.440 219.200,294.000 219.200 C 293.560 219.200,293.200 219.020,293.200 218.800 C 293.200 218.580,292.840 218.400,292.400 218.400 C 291.960 218.400,291.600 218.220,291.600 218.000 C 291.600 217.780,291.240 217.600,290.800 217.600 C 290.360 217.600,290.000 217.420,290.000 217.200 C 290.000 216.980,289.651 216.800,289.224 216.800 C 288.797 216.800,288.336 216.620,288.200 216.400 C 288.064 216.180,287.603 216.000,287.176 216.000 C 286.749 216.000,286.400 215.820,286.400 215.600 C 286.400 215.380,286.051 215.200,285.624 215.200 C 285.197 215.200,284.736 215.020,284.600 214.800 C 284.464 214.580,283.913 214.400,283.376 214.400 C 282.839 214.400,282.399 214.265,282.398 214.100 C 282.397 213.935,281.002 213.380,279.298 212.867 C 277.594 212.353,275.887 211.768,275.505 211.567 C 275.123 211.365,274.394 211.200,273.885 211.200 C 273.376 211.200,272.781 211.021,272.562 210.802 C 272.343 210.583,270.777 210.286,269.082 210.143 C 267.387 210.000,266.000 209.729,266.000 209.541 C 266.000 209.354,265.100 209.200,264.000 209.200 C 262.900 209.200,262.000 209.020,262.000 208.800 C 262.000 208.567,260.667 208.400,258.800 208.400 C 256.933 208.400,255.600 208.233,255.600 208.000 C 255.600 207.769,254.333 207.600,252.600 207.600 C 249.766 207.600,248.703 207.139,250.340 206.619 C 251.072 206.387,255.667 201.711,257.600 199.232 C 258.150 198.527,259.005 197.519,259.500 196.993 C 259.995 196.467,260.400 195.847,260.400 195.615 C 260.400 195.383,260.940 194.628,261.600 193.937 C 262.260 193.246,262.800 192.521,262.800 192.324 C 262.800 192.127,263.160 191.580,263.600 191.108 C 264.040 190.636,264.624 189.744,264.897 189.125 C 265.171 188.506,265.531 188.000,265.698 188.000 C 265.864 188.000,266.000 187.640,266.000 187.200 C 266.000 186.760,266.159 186.400,266.353 186.400 C 266.548 186.400,266.807 186.085,266.929 185.700 C 267.051 185.315,267.459 184.460,267.836 183.800 C 268.929 181.886,269.200 181.251,269.200 180.605 C 269.200 180.272,269.380 180.000,269.600 180.000 C 269.820 180.000,270.000 179.640,270.000 179.200 C 270.000 178.760,270.180 178.400,270.400 178.400 C 270.620 178.400,270.800 177.860,270.800 177.200 C 270.800 176.540,270.980 176.000,271.200 176.000 C 271.420 176.000,271.600 175.561,271.600 175.024 C 271.600 174.487,271.780 173.936,272.000 173.800 C 272.220 173.664,272.400 173.124,272.400 172.600 C 272.400 172.076,272.580 171.536,272.800 171.400 C 273.020 171.264,273.200 170.634,273.200 170.000 C 273.200 169.366,273.380 168.736,273.600 168.600 C 273.820 168.464,274.000 167.679,274.000 166.856 C 274.000 166.033,274.225 165.135,274.500 164.860 C 274.882 164.478,275.031 159.906,275.132 145.480 C 275.207 134.711,275.421 126.437,275.632 126.220 C 275.834 126.011,276.000 125.156,276.000 124.320 C 276.000 123.484,276.180 122.800,276.400 122.800 C 276.620 122.800,276.800 122.091,276.800 121.224 C 276.800 120.357,276.980 119.536,277.200 119.400 C 277.420 119.264,277.600 118.443,277.600 117.576 C 277.600 116.709,277.780 116.000,278.000 116.000 C 278.220 116.000,278.400 115.291,278.400 114.424 C 278.400 113.557,278.580 112.736,278.800 112.600 C 279.020 112.464,279.200 111.553,279.200 110.576 C 279.200 109.599,279.380 108.800,279.600 108.800 C 279.820 108.800,280.000 108.080,280.000 107.200 C 280.000 106.320,280.180 105.600,280.400 105.600 C 280.620 105.600,280.800 104.790,280.800 103.800 C 280.800 102.810,280.980 102.000,281.200 102.000 C 281.420 102.000,281.600 101.280,281.600 100.400 C 281.600 99.520,281.780 98.800,282.000 98.800 C 282.220 98.800,282.400 97.900,282.400 96.800 C 282.400 95.700,282.580 94.800,282.800 94.800 C 283.020 94.800,283.200 94.080,283.200 93.200 C 283.200 92.320,283.380 91.600,283.600 91.600 C 283.820 91.600,284.000 90.790,284.000 89.800 C 284.000 88.810,284.180 88.000,284.400 88.000 C 284.620 88.000,284.800 87.280,284.800 86.400 C 284.800 85.520,284.980 84.800,285.200 84.800 C 285.420 84.800,285.600 84.001,285.600 83.024 C 285.600 82.047,285.780 81.136,286.000 81.000 C 286.220 80.864,286.400 80.043,286.400 79.176 C 286.400 78.309,286.580 77.600,286.800 77.600 C 287.020 77.600,287.200 76.891,287.200 76.024 C 287.200 75.157,287.380 74.336,287.600 74.200 C 287.820 74.064,288.000 73.254,288.000 72.400 C 288.000 71.546,288.161 70.748,288.358 70.626 C 288.555 70.505,288.818 69.729,288.942 68.903 C 289.067 68.076,289.277 66.680,289.409 65.800 C 289.542 64.920,289.806 63.840,289.998 63.400 C 290.394 62.488,290.663 61.100,291.297 56.700 C 291.543 54.995,291.891 53.600,292.072 53.600 C 292.252 53.600,292.400 52.070,292.400 50.200 C 292.400 48.200,292.235 46.800,292.000 46.800 C 291.780 46.800,291.600 46.420,291.600 45.956 C 291.600 45.139,287.123 40.400,286.351 40.400 C 286.154 40.400,285.428 39.860,284.737 39.200 C 284.046 38.540,283.321 38.000,283.124 38.000 C 282.927 38.000,282.380 37.640,281.908 37.200 C 281.436 36.760,280.813 36.400,280.525 36.400 C 280.236 36.400,280.000 36.220,280.000 36.000 C 280.000 35.780,279.764 35.600,279.475 35.600 C 279.187 35.600,278.564 35.240,278.092 34.800 C 277.620 34.360,276.956 34.000,276.617 34.000 C 276.278 34.000,276.000 33.864,276.000 33.698 C 276.000 33.531,275.415 33.141,274.700 32.830 C 273.985 32.519,273.310 32.160,273.200 32.032 C 272.810 31.580,269.516 30.000,268.962 30.000 C 268.653 30.000,268.400 29.820,268.400 29.600 C 268.400 29.380,268.040 29.200,267.600 29.200 C 267.160 29.200,266.800 29.020,266.800 28.800 C 266.800 28.580,266.551 28.400,266.246 28.400 C 265.941 28.400,265.176 28.131,264.546 27.802 C 263.916 27.474,262.905 27.204,262.300 27.202 C 261.695 27.201,261.200 27.020,261.200 26.800 C 261.200 26.580,260.840 26.400,260.400 26.400 C 259.960 26.400,259.600 26.220,259.600 26.000 C 259.600 25.780,259.161 25.600,258.624 25.600 C 258.087 25.600,257.536 25.420,257.400 25.200 C 257.264 24.980,256.713 24.800,256.176 24.800 C 255.639 24.800,255.200 24.620,255.200 24.400 C 255.200 24.180,254.660 24.000,254.000 24.000 C 253.340 24.000,252.800 23.820,252.800 23.600 C 252.800 23.380,252.271 23.200,251.624 23.200 C 250.977 23.200,250.336 23.020,250.200 22.800 C 250.064 22.580,249.333 22.400,248.576 22.400 C 247.819 22.400,247.200 22.220,247.200 22.000 C 247.200 21.780,246.671 21.600,246.024 21.600 C 245.377 21.600,244.736 21.420,244.600 21.200 C 244.464 20.980,243.643 20.800,242.776 20.800 C 241.909 20.800,241.200 20.620,241.200 20.400 C 241.200 20.180,240.491 20.000,239.624 20.000 C 238.757 20.000,237.936 19.820,237.800 19.600 C 237.664 19.380,236.764 19.200,235.800 19.200 C 234.836 19.200,233.936 19.020,233.800 18.800 C 233.664 18.580,232.584 18.400,231.400 18.400 C 230.216 18.400,229.136 18.220,229.000 18.000 C 228.864 17.780,227.413 17.600,225.776 17.600 C 224.059 17.600,222.800 17.431,222.800 17.200 C 222.800 16.959,221.133 16.800,218.600 16.800 C 216.067 16.800,214.400 16.641,214.400 16.400 C 214.400 16.141,209.408 16.000,200.224 16.000 C 191.204 16.000,185.957 16.146,185.800 16.400 M209.200 34.400 C 209.200 34.644,211.059 34.800,213.976 34.800 C 216.729 34.800,218.858 34.969,219.000 35.200 C 219.136 35.420,220.486 35.600,222.000 35.600 C 223.514 35.600,224.864 35.780,225.000 36.000 C 225.136 36.220,226.216 36.400,227.400 36.400 C 228.584 36.400,229.664 36.580,229.800 36.800 C 229.936 37.020,230.836 37.200,231.800 37.200 C 232.764 37.200,233.664 37.380,233.800 37.600 C 233.936 37.820,234.757 38.000,235.624 38.000 C 236.491 38.000,237.200 38.180,237.200 38.400 C 237.200 38.620,237.920 38.800,238.800 38.800 C 239.680 38.800,240.400 38.980,240.400 39.200 C 240.400 39.420,241.019 39.600,241.776 39.600 C 242.533 39.600,243.264 39.780,243.400 40.000 C 243.536 40.220,244.076 40.400,244.600 40.400 C 245.124 40.400,245.656 40.567,245.783 40.772 C 245.909 40.977,247.000 41.267,248.206 41.418 C 249.413 41.569,250.400 41.851,250.400 42.046 C 250.400 42.241,250.850 42.400,251.400 42.400 C 251.950 42.400,252.400 42.580,252.400 42.800 C 252.400 43.020,252.850 43.200,253.400 43.200 C 253.950 43.200,254.400 43.380,254.400 43.600 C 254.400 43.820,254.749 44.000,255.176 44.000 C 255.603 44.000,256.064 44.180,256.200 44.400 C 256.336 44.620,256.887 44.800,257.424 44.800 C 257.961 44.800,258.400 44.980,258.400 45.200 C 258.400 45.420,258.760 45.600,259.200 45.600 C 259.640 45.600,260.000 45.746,260.000 45.925 C 260.000 46.104,260.630 46.498,261.400 46.800 C 262.170 47.102,262.800 47.496,262.800 47.675 C 262.800 47.854,263.160 48.000,263.600 48.000 C 264.040 48.000,264.400 48.180,264.400 48.400 C 264.400 48.620,264.760 48.800,265.200 48.800 C 265.640 48.800,266.000 48.980,266.000 49.200 C 266.000 49.420,266.278 49.600,266.617 49.600 C 266.956 49.600,267.620 49.960,268.092 50.400 C 268.564 50.840,269.187 51.200,269.475 51.200 C 269.764 51.200,270.000 51.350,270.000 51.532 C 270.000 51.715,270.495 52.120,271.100 52.432 C 273.001 53.414,274.234 56.000,272.800 56.000 C 272.580 56.000,272.400 56.720,272.400 57.600 C 272.400 58.480,272.220 59.200,272.000 59.200 C 271.780 59.200,271.600 60.010,271.600 61.000 C 271.600 61.990,271.420 62.800,271.200 62.800 C 270.980 62.800,270.800 63.509,270.800 64.376 C 270.800 65.243,270.620 66.064,270.400 66.200 C 270.180 66.336,270.000 67.247,270.000 68.224 C 270.000 69.201,269.820 70.000,269.600 70.000 C 269.380 70.000,269.200 70.720,269.200 71.600 C 269.200 72.480,269.020 73.200,268.800 73.200 C 268.580 73.200,268.400 74.100,268.400 75.200 C 268.400 76.300,268.220 77.200,268.000 77.200 C 267.780 77.200,267.600 77.920,267.600 78.800 C 267.600 79.680,267.420 80.400,267.200 80.400 C 266.980 80.400,266.800 81.210,266.800 82.200 C 266.800 83.190,266.620 84.000,266.400 84.000 C 266.180 84.000,266.000 84.709,266.000 85.576 C 266.000 86.443,265.820 87.264,265.600 87.400 C 265.380 87.536,265.200 88.447,265.200 89.424 C 265.200 90.401,265.020 91.200,264.800 91.200 C 264.580 91.200,264.400 91.909,264.400 92.776 C 264.400 93.643,264.220 94.464,264.000 94.600 C 263.780 94.736,263.600 95.546,263.600 96.400 C 263.600 97.254,263.439 98.052,263.242 98.174 C 263.045 98.295,262.782 99.071,262.658 99.897 C 262.533 100.724,262.323 102.120,262.191 103.000 C 262.058 103.880,261.794 104.960,261.602 105.400 C 261.235 106.244,261.053 107.155,260.279 112.000 C 260.016 113.650,259.654 115.225,259.476 115.500 C 259.220 115.896,246.887 116.000,200.019 116.000 C 134.835 116.000,140.400 116.225,140.400 113.591 C 140.400 112.962,140.220 112.336,140.000 112.200 C 139.780 112.064,139.600 111.254,139.600 110.400 C 139.600 109.546,139.420 108.736,139.200 108.600 C 138.980 108.464,138.800 107.654,138.800 106.800 C 138.800 105.946,138.620 105.136,138.400 105.000 C 138.180 104.864,138.000 104.054,138.000 103.200 C 138.000 102.346,137.820 101.536,137.600 101.400 C 137.380 101.264,137.200 100.454,137.200 99.600 C 137.200 98.746,137.020 97.936,136.800 97.800 C 136.580 97.664,136.400 96.854,136.400 96.000 C 136.400 95.146,136.220 94.336,136.000 94.200 C 135.780 94.064,135.600 93.254,135.600 92.400 C 135.600 91.546,135.420 90.736,135.200 90.600 C 134.980 90.464,134.800 89.643,134.800 88.776 C 134.800 87.909,134.620 87.200,134.400 87.200 C 134.180 87.200,134.000 86.401,134.000 85.424 C 134.000 84.447,133.820 83.536,133.600 83.400 C 133.380 83.264,133.200 82.454,133.200 81.600 C 133.200 80.746,133.020 79.936,132.800 79.800 C 132.580 79.664,132.400 78.843,132.400 77.976 C 132.400 77.109,132.220 76.400,132.000 76.400 C 131.780 76.400,131.600 75.601,131.600 74.624 C 131.600 73.647,131.420 72.736,131.200 72.600 C 130.980 72.464,130.800 71.643,130.800 70.776 C 130.800 69.909,130.620 69.200,130.400 69.200 C 130.180 69.200,130.000 68.401,130.000 67.424 C 130.000 66.447,129.820 65.536,129.600 65.400 C 129.380 65.264,129.200 64.544,129.200 63.800 C 129.200 63.056,129.020 62.336,128.800 62.200 C 128.580 62.064,128.400 61.153,128.400 60.176 C 128.400 59.199,128.220 58.400,128.000 58.400 C 127.780 58.400,127.600 57.680,127.600 56.800 C 127.600 55.920,127.420 55.200,127.200 55.200 C 126.980 55.200,126.800 54.660,126.800 54.000 C 126.800 53.186,126.998 52.800,127.417 52.800 C 127.756 52.800,128.420 52.440,128.892 52.000 C 129.364 51.560,129.987 51.200,130.275 51.200 C 130.564 51.200,130.800 51.020,130.800 50.800 C 130.800 50.580,131.160 50.400,131.600 50.400 C 132.040 50.400,132.400 50.241,132.400 50.047 C 132.400 49.852,132.715 49.593,133.100 49.471 C 134.036 49.175,136.166 47.876,136.333 47.500 C 136.407 47.335,136.812 47.200,137.233 47.200 C 137.655 47.200,138.000 47.020,138.000 46.800 C 138.000 46.580,138.349 46.400,138.776 46.400 C 139.203 46.400,139.664 46.220,139.800 46.000 C 139.936 45.780,140.397 45.600,140.824 45.600 C 141.251 45.600,141.600 45.420,141.600 45.200 C 141.600 44.980,141.960 44.800,142.400 44.800 C 142.840 44.800,143.200 44.620,143.200 44.400 C 143.200 44.180,143.639 44.000,144.176 44.000 C 144.713 44.000,145.264 43.820,145.400 43.600 C 145.536 43.380,145.997 43.200,146.424 43.200 C 146.851 43.200,147.200 43.020,147.200 42.800 C 147.200 42.580,147.740 42.400,148.400 42.400 C 149.060 42.400,149.600 42.241,149.600 42.046 C 149.600 41.851,150.587 41.569,151.794 41.418 C 153.000 41.267,154.091 40.977,154.217 40.772 C 154.344 40.567,154.876 40.400,155.400 40.400 C 155.924 40.400,156.464 40.220,156.600 40.000 C 156.736 39.780,157.467 39.600,158.224 39.600 C 158.981 39.600,159.600 39.420,159.600 39.200 C 159.600 38.980,160.219 38.800,160.976 38.800 C 161.733 38.800,162.464 38.620,162.600 38.400 C 162.736 38.180,163.557 38.000,164.424 38.000 C 165.291 38.000,166.000 37.820,166.000 37.600 C 166.000 37.380,166.889 37.200,167.976 37.200 C 169.063 37.200,170.064 37.020,170.200 36.800 C 170.336 36.580,171.416 36.400,172.600 36.400 C 173.784 36.400,174.864 36.220,175.000 36.000 C 175.136 35.780,176.497 35.600,178.024 35.600 C 179.608 35.600,180.800 35.428,180.800 35.200 C 180.800 34.956,182.659 34.800,185.576 34.800 C 188.329 34.800,190.458 34.631,190.600 34.400 C 190.753 34.152,194.337 34.000,200.024 34.000 C 205.875 34.000,209.200 34.145,209.200 34.400 M196.600 41.600 C 196.464 41.820,196.093 42.000,195.776 42.000 C 195.027 42.000,192.000 45.027,192.000 45.776 C 192.000 46.093,191.820 46.464,191.600 46.600 C 191.351 46.754,191.200 50.471,191.200 56.424 L 191.200 66.000 181.400 66.000 C 175.133 66.000,171.600 66.144,171.600 66.400 C 171.600 66.620,171.325 66.800,170.989 66.800 C 170.196 66.800,166.800 70.196,166.800 70.989 C 166.800 71.325,166.620 71.600,166.400 71.600 C 166.165 71.600,166.000 73.000,166.000 75.000 C 166.000 77.000,166.165 78.400,166.400 78.400 C 166.620 78.400,166.800 78.675,166.800 79.011 C 166.800 79.804,170.196 83.200,170.989 83.200 C 171.325 83.200,171.600 83.380,171.600 83.600 C 171.600 83.856,175.133 84.000,181.400 84.000 L 191.200 84.000 191.200 93.800 C 191.200 100.067,191.344 103.600,191.600 103.600 C 191.820 103.600,192.000 103.871,192.000 104.201 C 192.000 104.532,192.807 105.657,193.793 106.701 L 195.586 108.600 199.988 108.600 L 204.389 108.600 206.494 106.496 L 208.600 104.392 208.719 94.196 L 208.838 84.000 218.619 84.000 C 224.873 84.000,228.400 83.856,228.400 83.600 C 228.400 83.380,228.675 83.200,229.011 83.200 C 229.804 83.200,233.200 79.804,233.200 79.011 C 233.200 78.675,233.380 78.400,233.600 78.400 C 233.835 78.400,234.000 77.000,234.000 75.000 C 234.000 73.000,233.835 71.600,233.600 71.600 C 233.380 71.600,233.200 71.325,233.200 70.989 C 233.200 70.196,229.804 66.800,229.011 66.800 C 228.675 66.800,228.400 66.620,228.400 66.400 C 228.400 66.144,224.875 66.000,218.625 66.000 L 208.850 66.000 208.725 55.793 L 208.600 45.586 206.701 43.793 C 205.657 42.807,204.532 42.000,204.201 42.000 C 203.871 42.000,203.600 41.820,203.600 41.600 C 203.600 41.365,202.208 41.200,200.224 41.200 C 198.367 41.200,196.736 41.380,196.600 41.600 M257.600 145.800 C 257.600 153.400,257.458 157.600,257.200 157.600 C 256.980 157.600,256.800 158.489,256.800 159.576 C 256.800 160.663,256.620 161.664,256.400 161.800 C 256.180 161.936,256.000 162.656,256.000 163.400 C 256.000 164.144,255.820 164.864,255.600 165.000 C 255.380 165.136,255.200 165.777,255.200 166.424 C 255.200 167.071,255.020 167.600,254.800 167.600 C 254.580 167.600,254.400 168.140,254.400 168.800 C 254.400 169.460,254.220 170.000,254.000 170.000 C 253.780 170.000,253.600 170.360,253.600 170.800 C 253.600 171.240,253.420 171.600,253.200 171.600 C 252.980 171.600,252.800 172.039,252.800 172.576 C 252.800 173.113,252.620 173.664,252.400 173.800 C 252.180 173.936,252.000 174.397,252.000 174.824 C 252.000 175.251,251.820 175.600,251.600 175.600 C 251.380 175.600,251.200 175.878,251.200 176.217 C 251.200 176.556,250.869 177.189,250.464 177.623 C 250.059 178.058,249.474 178.905,249.164 179.507 C 248.854 180.108,248.285 180.949,247.900 181.375 C 247.515 181.802,247.200 182.387,247.200 182.675 C 247.200 182.964,247.065 183.201,246.900 183.203 C 246.735 183.204,246.150 183.879,245.600 184.703 C 244.113 186.930,244.062 186.987,240.544 190.526 C 237.154 193.936,236.140 194.810,234.300 195.913 C 233.695 196.276,233.200 196.714,233.200 196.886 C 233.200 197.059,232.964 197.200,232.675 197.200 C 232.387 197.200,231.802 197.515,231.375 197.900 C 230.949 198.285,230.108 198.854,229.507 199.164 C 228.905 199.474,228.058 200.059,227.623 200.464 C 227.189 200.869,226.556 201.200,226.217 201.200 C 225.878 201.200,225.600 201.380,225.600 201.600 C 225.600 201.820,225.251 202.000,224.824 202.000 C 224.397 202.000,223.936 202.180,223.800 202.400 C 223.664 202.620,223.113 202.800,222.576 202.800 C 222.039 202.800,221.600 202.980,221.600 203.200 C 221.600 203.420,221.240 203.600,220.800 203.600 C 220.360 203.600,220.000 203.780,220.000 204.000 C 220.000 204.220,219.460 204.400,218.800 204.400 C 218.140 204.400,217.600 204.580,217.600 204.800 C 217.600 205.020,217.071 205.200,216.424 205.200 C 215.777 205.200,215.136 205.380,215.000 205.600 C 214.864 205.820,214.144 206.000,213.400 206.000 C 212.656 206.000,211.936 206.180,211.800 206.400 C 211.664 206.620,210.663 206.800,209.576 206.800 C 208.489 206.800,207.600 206.980,207.600 207.200 C 207.600 207.453,204.800 207.600,200.000 207.600 C 195.200 207.600,192.400 207.453,192.400 207.200 C 192.400 206.980,191.511 206.800,190.424 206.800 C 189.337 206.800,188.336 206.620,188.200 206.400 C 188.064 206.180,187.344 206.000,186.600 206.000 C 185.856 206.000,185.136 205.820,185.000 205.600 C 184.864 205.380,184.223 205.200,183.576 205.200 C 182.929 205.200,182.400 205.020,182.400 204.800 C 182.400 204.580,181.860 204.400,181.200 204.400 C 180.540 204.400,180.000 204.220,180.000 204.000 C 180.000 203.780,179.640 203.600,179.200 203.600 C 178.760 203.600,178.400 203.420,178.400 203.200 C 178.400 202.980,178.076 202.800,177.680 202.800 C 176.786 202.800,174.807 201.906,174.803 201.500 C 174.801 201.335,174.440 201.200,174.000 201.200 C 173.560 201.200,173.200 201.041,173.200 200.847 C 173.200 200.652,172.885 200.393,172.500 200.271 C 171.591 199.983,169.647 198.788,168.642 197.900 C 168.206 197.515,167.613 197.200,167.325 197.200 C 167.036 197.200,166.799 197.065,166.797 196.900 C 166.796 196.735,166.121 196.150,165.297 195.600 C 163.145 194.162,162.968 194.015,160.676 191.739 C 157.618 188.703,155.528 186.354,154.400 184.685 C 153.850 183.871,153.265 183.204,153.100 183.203 C 152.935 183.201,152.800 182.964,152.800 182.675 C 152.800 182.387,152.485 181.802,152.100 181.375 C 151.715 180.949,151.146 180.108,150.836 179.507 C 150.526 178.905,149.941 178.058,149.536 177.623 C 149.131 177.189,148.800 176.556,148.800 176.217 C 148.800 175.878,148.620 175.600,148.400 175.600 C 148.180 175.600,148.000 175.251,148.000 174.824 C 148.000 174.397,147.820 173.936,147.600 173.800 C 147.380 173.664,147.200 173.113,147.200 172.576 C 147.200 172.039,147.020 171.600,146.800 171.600 C 146.580 171.600,146.400 171.240,146.400 170.800 C 146.400 170.360,146.220 170.000,146.000 170.000 C 145.780 170.000,145.600 169.460,145.600 168.800 C 145.600 168.140,145.420 167.600,145.200 167.600 C 144.980 167.600,144.800 167.060,144.800 166.400 C 144.800 165.740,144.620 165.200,144.400 165.200 C 144.180 165.200,144.000 164.491,144.000 163.624 C 144.000 162.757,143.820 161.936,143.600 161.800 C 143.380 161.664,143.200 160.663,143.200 159.576 C 143.200 158.489,143.020 157.600,142.800 157.600 C 142.542 157.600,142.400 153.400,142.400 145.800 L 142.400 134.000 200.000 134.000 L 257.600 134.000 257.600 145.800 M332.800 216.091 C 330.811 218.396,330.024 219.672,331.641 217.969 C 334.292 215.176,334.935 214.400,334.570 214.434 C 334.366 214.452,333.570 215.198,332.800 216.091 M344.218 221.439 C 345.229 222.450,346.149 223.184,346.263 223.071 C 346.498 222.835,343.170 219.600,342.692 219.600 C 342.520 219.600,343.206 220.427,344.218 221.439 M230.000 225.705 C 230.000 225.983,229.536 226.558,228.969 226.984 C 228.403 227.410,227.679 228.260,227.362 228.873 C 227.045 229.486,226.159 230.614,225.393 231.380 C 224.627 232.146,224.000 232.959,224.000 233.187 C 224.000 233.414,223.820 233.600,223.600 233.600 C 223.380 233.600,223.200 233.780,223.200 234.000 C 223.200 234.219,222.480 235.141,221.600 236.048 C 220.720 236.955,220.000 237.855,220.000 238.048 C 220.000 238.241,219.280 239.141,218.400 240.048 C 217.520 240.955,216.800 241.858,216.800 242.055 C 216.800 242.253,216.215 243.009,215.500 243.735 C 213.610 245.657,211.087 248.756,210.435 249.958 C 210.124 250.531,209.359 251.477,208.735 252.060 C 208.111 252.644,207.600 253.287,207.600 253.490 C 207.600 253.693,206.700 254.822,205.600 256.000 C 204.500 257.178,203.600 258.303,203.600 258.499 C 203.600 258.858,203.314 259.167,201.724 260.529 C 200.869 261.261,198.800 260.254,198.800 259.106 C 198.800 258.913,197.720 257.696,196.400 256.400 C 195.080 255.104,194.000 253.890,194.000 253.700 C 194.000 253.511,193.415 252.712,192.700 251.924 C 191.985 251.137,190.680 249.630,189.800 248.575 C 188.920 247.520,187.255 245.688,186.100 244.503 C 184.945 243.318,184.000 242.193,184.000 242.005 C 184.000 241.816,182.740 240.386,181.200 238.828 C 179.660 237.269,178.400 235.837,178.400 235.645 C 178.400 235.453,177.725 234.593,176.900 233.733 C 176.075 232.873,174.684 231.276,173.808 230.185 C 172.932 229.093,171.523 227.525,170.675 226.700 L 169.135 225.200 199.567 225.200 C 223.809 225.200,230.000 225.303,230.000 225.705 M324.200 226.533 C 322.431 228.489,322.160 229.016,323.451 227.992 C 324.752 226.960,325.830 225.582,325.303 225.624 C 325.137 225.638,324.640 226.047,324.200 226.533 M147.631 227.633 C 148.494 228.531,149.200 229.427,149.200 229.624 C 149.200 229.821,150.190 230.973,151.400 232.183 C 152.610 233.393,153.600 234.551,153.600 234.756 C 153.600 234.962,154.680 236.227,156.000 237.568 C 157.320 238.908,158.400 240.101,158.400 240.217 C 158.400 240.431,158.720 240.802,161.604 243.933 C 162.482 244.886,163.200 245.803,163.200 245.970 C 163.200 246.138,164.190 247.298,165.400 248.547 C 166.610 249.796,167.600 250.959,167.600 251.131 C 167.600 251.303,168.680 252.565,170.000 253.935 C 171.320 255.305,172.400 256.535,172.400 256.669 C 172.400 256.803,173.480 257.956,174.800 259.231 C 176.120 260.507,177.200 261.788,177.200 262.077 C 177.200 262.366,178.190 263.642,179.400 264.911 C 180.610 266.180,181.600 267.359,181.600 267.531 C 181.600 267.703,182.680 268.965,184.000 270.335 C 185.320 271.705,186.400 272.938,186.400 273.075 C 186.400 273.212,187.083 273.974,187.919 274.768 L 189.437 276.213 187.925 277.607 C 187.093 278.373,186.409 279.153,186.406 279.340 C 186.403 279.526,185.898 280.156,185.285 280.740 C 184.671 281.323,183.727 282.430,183.187 283.200 C 182.646 283.970,181.528 285.297,180.702 286.148 C 179.876 287.000,179.200 287.863,179.200 288.066 C 179.200 288.270,178.795 288.876,178.300 289.414 C 177.805 289.951,176.995 290.837,176.500 291.381 C 176.005 291.926,175.600 292.636,175.600 292.959 C 175.600 293.282,175.269 293.651,174.864 293.780 C 174.459 293.908,173.889 294.460,173.596 295.007 C 173.304 295.553,172.915 296.000,172.732 296.000 C 172.550 296.000,172.400 296.194,172.400 296.431 C 172.400 296.669,171.680 297.554,170.800 298.400 C 169.920 299.246,169.200 300.105,169.200 300.309 C 169.200 300.514,168.660 301.246,168.000 301.937 C 167.340 302.628,166.800 303.464,166.800 303.796 C 166.800 304.128,166.620 304.400,166.400 304.400 C 166.165 304.400,166.000 305.800,166.000 307.800 C 166.000 309.800,166.165 311.200,166.400 311.200 C 166.620 311.200,166.800 311.560,166.800 312.000 C 166.800 312.440,166.980 312.800,167.200 312.800 C 167.420 312.800,167.600 313.160,167.600 313.600 C 167.600 314.040,167.780 314.400,168.000 314.400 C 168.220 314.400,168.400 314.760,168.400 315.200 C 168.400 315.640,168.580 316.000,168.800 316.000 C 169.020 316.000,169.200 316.360,169.200 316.800 C 169.200 317.240,169.380 317.600,169.600 317.600 C 169.820 317.600,169.999 317.825,169.998 318.100 C 169.996 318.739,176.483 331.755,176.893 331.933 C 177.062 332.007,177.200 332.367,177.201 332.733 C 177.201 333.100,178.876 336.730,180.922 340.800 C 182.968 344.870,184.763 348.515,184.909 348.900 C 185.161 349.565,182.210 349.600,126.387 349.600 L 67.600 349.600 67.600 326.824 C 67.600 312.071,67.741 303.960,68.000 303.800 C 68.220 303.664,68.400 302.404,68.400 301.000 C 68.400 299.596,68.580 298.336,68.800 298.200 C 69.020 298.064,69.200 297.063,69.200 295.976 C 69.200 294.889,69.380 294.000,69.600 294.000 C 69.820 294.000,70.000 293.381,70.000 292.624 C 70.000 291.867,70.180 291.136,70.400 291.000 C 70.620 290.864,70.800 290.234,70.800 289.600 C 70.800 288.966,70.980 288.336,71.200 288.200 C 71.420 288.064,71.600 287.423,71.600 286.776 C 71.600 286.129,71.780 285.600,72.000 285.600 C 72.220 285.600,72.400 285.238,72.400 284.795 C 72.400 284.352,72.559 283.677,72.753 283.295 C 72.948 282.913,73.329 282.060,73.600 281.400 C 73.871 280.740,74.240 279.907,74.419 279.549 C 74.599 279.191,74.868 278.246,75.017 277.449 C 75.167 276.652,75.404 275.999,75.545 275.999 C 75.685 275.998,76.250 275.008,76.800 273.800 C 77.350 272.592,77.935 271.602,78.100 271.601 C 78.265 271.601,78.400 271.240,78.400 270.800 C 78.400 270.360,78.580 270.000,78.800 270.000 C 79.020 270.000,79.200 269.730,79.200 269.400 C 79.200 269.070,79.380 268.800,79.600 268.800 C 79.820 268.800,80.000 268.530,80.000 268.200 C 80.000 267.870,80.180 267.600,80.400 267.600 C 80.620 267.600,80.800 267.280,80.800 266.888 C 80.800 266.497,81.160 265.917,81.600 265.600 C 82.040 265.283,82.400 264.743,82.400 264.400 C 82.400 264.057,82.760 263.517,83.200 263.200 C 83.640 262.883,84.000 262.396,84.000 262.118 C 84.000 261.841,84.622 260.935,85.382 260.107 C 86.142 259.278,87.604 257.610,88.632 256.400 C 89.659 255.190,90.928 253.707,91.450 253.103 C 91.973 252.500,92.401 251.870,92.403 251.703 C 92.404 251.537,92.989 251.000,93.703 250.512 C 94.416 250.024,96.335 248.359,97.966 246.812 C 99.597 245.265,101.100 244.000,101.305 244.000 C 101.511 244.000,102.183 243.460,102.800 242.800 C 103.417 242.140,104.118 241.600,104.360 241.600 C 104.601 241.600,105.675 240.970,106.747 240.200 C 107.819 239.430,108.899 238.800,109.148 238.800 C 109.396 238.800,109.600 238.642,109.600 238.449 C 109.600 238.255,110.140 237.873,110.800 237.600 C 111.460 237.327,112.000 236.945,112.000 236.751 C 112.000 236.558,112.360 236.400,112.800 236.400 C 113.240 236.400,113.600 236.220,113.600 236.000 C 113.600 235.780,113.960 235.600,114.400 235.600 C 114.840 235.600,115.200 235.420,115.200 235.200 C 115.200 234.980,115.560 234.800,116.000 234.800 C 116.440 234.800,116.800 234.620,116.800 234.400 C 116.800 234.180,117.160 234.000,117.600 234.000 C 118.040 234.000,118.400 233.820,118.400 233.600 C 118.400 233.380,118.760 233.200,119.200 233.200 C 119.640 233.200,120.000 233.020,120.000 232.800 C 120.000 232.580,120.450 232.400,121.000 232.400 C 121.550 232.400,122.000 232.220,122.000 232.000 C 122.000 231.780,122.349 231.600,122.776 231.600 C 123.203 231.600,123.664 231.420,123.800 231.200 C 123.936 230.980,124.487 230.800,125.024 230.800 C 125.561 230.800,126.000 230.620,126.000 230.400 C 126.000 230.180,126.540 230.000,127.200 230.000 C 127.860 230.000,128.400 229.820,128.400 229.600 C 128.400 229.380,128.940 229.200,129.600 229.200 C 130.260 229.200,130.800 229.020,130.800 228.800 C 130.800 228.580,131.419 228.400,132.176 228.400 C 132.933 228.400,133.664 228.220,133.800 228.000 C 133.936 227.780,134.757 227.600,135.624 227.600 C 136.491 227.600,137.200 227.420,137.200 227.200 C 137.200 226.980,137.999 226.800,138.976 226.800 C 139.953 226.800,140.864 226.620,141.000 226.400 C 141.757 225.176,146.035 225.971,147.631 227.633 M353.200 228.600 C 353.946 229.370,354.647 230.000,354.757 230.000 C 354.867 230.000,354.346 229.370,353.600 228.600 C 352.854 227.830,352.153 227.200,352.043 227.200 C 351.933 227.200,352.454 227.830,353.200 228.600 M362.162 236.183 C 363.204 237.225,364.150 237.984,364.264 237.870 C 364.481 237.653,361.411 234.715,360.686 234.445 C 360.456 234.359,361.121 235.142,362.162 236.183 M363.293 246.400 C 363.018 246.840,362.931 247.200,363.100 247.200 C 363.269 247.200,363.632 246.840,363.907 246.400 C 364.182 245.960,364.269 245.600,364.100 245.600 C 363.931 245.600,363.568 245.960,363.293 246.400 M302.000 253.251 C 300.109 255.378,299.192 256.878,300.841 255.148 C 303.846 251.995,304.519 251.201,304.178 251.213 C 303.970 251.221,302.990 252.137,302.000 253.251 M286.895 271.482 C 285.738 272.715,284.872 273.805,284.971 273.904 C 285.070 274.004,285.567 273.648,286.076 273.113 C 289.070 269.966,289.718 269.202,289.378 269.220 C 289.170 269.231,288.053 270.249,286.895 271.482 M282.683 276.600 C 281.603 277.953,281.527 278.530,282.565 277.492 C 283.079 276.979,284.125 275.200,283.914 275.200 C 283.851 275.200,283.297 275.830,282.683 276.600 M280.200 279.600 C 279.568 280.260,279.187 280.800,279.354 280.800 C 279.671 280.800,280.223 280.277,281.149 279.098 C 282.021 277.990,281.458 278.287,280.200 279.600 M275.400 285.320 C 274.150 286.851,273.936 287.198,274.251 287.178 C 274.443 287.166,275.019 286.626,275.530 285.978 C 276.042 285.330,276.312 284.807,276.130 284.815 C 275.949 284.824,275.620 285.051,275.400 285.320 M270.925 290.708 C 269.199 292.640,268.828 293.641,270.476 291.919 C 272.581 289.719,273.319 288.801,272.970 288.816 C 272.766 288.825,271.846 289.676,270.925 290.708 M263.215 300.100 C 261.894 301.695,260.809 303.142,260.806 303.316 C 260.803 303.489,261.642 302.589,262.671 301.316 C 263.700 300.042,264.645 298.910,264.771 298.800 C 265.311 298.328,266.078 297.200,265.858 297.200 C 265.727 297.200,264.537 298.505,263.215 300.100 M246.400 302.167 C 246.400 302.588,247.605 303.728,247.821 303.512 C 247.922 303.411,247.644 303.002,247.202 302.602 C 246.761 302.203,246.400 302.007,246.400 302.167 M259.633 304.315 C 259.321 304.692,258.691 305.445,258.233 305.988 C 257.442 306.925,257.441 306.946,258.200 306.389 C 259.287 305.591,260.400 304.351,260.400 303.939 C 260.400 303.471,260.286 303.527,259.633 304.315 M254.400 308.000 C 254.400 308.220,254.749 308.400,255.176 308.400 C 255.603 308.400,256.064 308.220,256.200 308.000 C 256.340 307.773,256.004 307.600,255.424 307.600 C 254.861 307.600,254.400 307.780,254.400 308.000 M189.600 310.653 C 189.600 311.010,191.731 312.802,191.925 312.608 C 192.102 312.431,190.164 310.400,189.818 310.400 C 189.698 310.400,189.600 310.514,189.600 310.653 M194.422 314.700 C 194.434 314.865,195.019 315.446,195.722 315.992 C 196.704 316.754,196.861 316.801,196.400 316.194 C 195.153 314.550,194.367 313.957,194.422 314.700 M203.046 322.091 C 203.681 322.582,204.438 323.212,204.729 323.491 C 205.019 323.771,205.450 324.000,205.686 324.000 C 205.922 324.000,205.290 323.370,204.282 322.600 C 203.273 321.830,202.323 321.200,202.170 321.200 C 202.017 321.200,202.411 321.601,203.046 322.091 M207.600 325.443 C 207.600 325.789,211.346 329.187,211.528 329.006 C 211.695 328.838,208.141 325.200,207.811 325.200 C 207.695 325.200,207.600 325.310,207.600 325.443 M296.093 327.600 C 295.818 328.040,295.731 328.400,295.900 328.400 C 296.069 328.400,296.432 328.040,296.707 327.600 C 296.982 327.160,297.069 326.800,296.900 326.800 C 296.731 326.800,296.368 327.160,296.093 327.600 M215.600 332.330 C 216.589 333.212,217.466 333.868,217.547 333.786 C 217.759 333.574,216.819 332.718,215.200 331.649 C 214.025 330.874,214.089 330.983,215.600 332.330 M222.000 337.722 C 222.000 337.979,224.996 340.000,225.377 340.000 C 225.561 340.000,225.102 339.587,224.356 339.083 C 222.420 337.773,222.000 337.531,222.000 337.722 M227.600 342.400 C 228.307 343.060,228.989 343.600,229.117 343.600 C 229.245 343.600,228.832 343.060,228.200 342.400 C 227.568 341.740,226.885 341.200,226.683 341.200 C 226.481 341.200,226.893 341.740,227.600 342.400 " stroke="none" fill="#040404" fill-rule="evenodd"></path><path id="path2" d="M333.429 216.300 C 331.384 218.455,327.983 222.916,328.211 223.144 C 328.439 223.373,329.295 222.409,330.747 220.288 C 331.466 219.236,332.754 217.641,333.608 216.743 L 335.161 215.111 336.681 216.029 C 338.426 217.084,342.198 220.196,344.753 222.689 C 345.717 223.630,346.634 224.400,346.791 224.400 C 346.949 224.400,347.450 224.715,347.905 225.100 C 348.360 225.485,349.153 226.143,349.666 226.563 C 350.180 226.983,351.320 227.959,352.200 228.731 C 357.660 233.526,359.554 235.199,361.366 236.829 C 362.485 237.835,363.985 239.062,364.700 239.556 C 366.512 240.808,366.395 241.200,362.965 245.338 C 361.296 247.352,359.644 249.360,359.294 249.800 C 358.431 250.887,354.652 255.351,354.386 255.600 C 354.268 255.710,353.011 257.240,351.593 259.000 C 350.175 260.760,348.381 262.891,347.607 263.735 C 346.833 264.579,346.039 265.556,345.841 265.904 C 345.303 266.857,343.656 268.725,341.183 271.190 C 339.964 272.406,337.985 274.570,336.785 276.000 C 335.586 277.430,334.505 278.690,334.384 278.800 C 334.262 278.910,333.338 280.080,332.330 281.400 C 331.322 282.720,330.116 284.143,329.649 284.562 C 329.182 284.981,328.800 285.593,328.800 285.922 C 328.800 286.251,329.318 285.818,329.951 284.960 C 330.584 284.102,331.439 283.037,331.851 282.592 C 332.263 282.148,333.760 280.348,335.177 278.592 C 338.991 273.869,340.839 271.865,341.945 271.252 C 343.199 270.557,346.374 267.162,346.389 266.500 C 346.395 266.225,346.550 266.000,346.732 266.000 C 346.915 266.000,347.320 265.508,347.632 264.907 C 347.945 264.306,349.280 262.713,350.600 261.367 C 351.920 260.021,353.762 257.858,354.694 256.560 C 355.625 255.262,357.470 253.043,358.794 251.628 C 360.117 250.213,361.200 248.884,361.200 248.675 C 361.200 248.465,361.524 248.003,361.919 247.647 C 362.314 247.291,363.074 246.370,363.606 245.600 C 364.139 244.830,365.255 243.539,366.087 242.731 C 367.884 240.987,367.989 240.215,366.500 239.692 C 365.895 239.480,364.500 238.459,363.400 237.425 C 362.300 236.390,360.455 234.815,359.300 233.924 C 358.145 233.033,357.200 232.158,357.200 231.979 C 357.200 231.800,356.885 231.552,356.500 231.428 C 356.115 231.304,355.158 230.616,354.373 229.901 C 352.681 228.359,349.629 225.684,348.438 224.700 C 347.972 224.315,347.404 224.000,347.176 224.000 C 346.948 224.000,345.519 222.740,344.000 221.200 C 342.481 219.660,341.082 218.400,340.891 218.400 C 340.700 218.400,340.166 217.965,339.704 217.434 C 339.242 216.903,338.220 216.162,337.432 215.789 C 336.645 215.415,336.000 214.949,336.000 214.754 C 336.000 213.977,335.147 214.490,333.429 216.300 M323.800 227.849 C 323.140 228.636,322.375 229.520,322.100 229.812 C 321.825 230.104,321.600 230.536,321.600 230.771 C 321.600 231.007,321.420 231.200,321.200 231.200 C 320.980 231.200,320.800 231.380,320.800 231.600 C 320.800 232.366,321.432 231.992,322.128 230.815 C 322.513 230.163,323.047 229.389,323.314 229.097 C 325.282 226.939,325.694 226.401,325.370 226.409 C 325.166 226.413,324.460 227.062,323.800 227.849 M318.700 234.057 C 317.875 234.947,317.200 236.082,317.200 236.581 C 317.200 237.079,316.480 238.305,315.600 239.305 C 314.720 240.305,314.000 241.236,314.000 241.375 C 314.000 241.513,314.810 240.715,315.800 239.600 C 316.790 238.485,317.600 237.181,317.600 236.702 C 317.600 236.216,318.345 235.071,319.283 234.115 C 320.209 233.172,320.794 232.409,320.583 232.420 C 320.372 232.431,319.525 233.168,318.700 234.057 M309.973 246.100 C 308.136 248.355,306.960 249.936,307.361 249.614 C 307.761 249.292,309.181 247.672,310.515 246.014 C 313.609 242.171,313.737 242.000,313.506 242.000 C 313.400 242.000,311.810 243.845,309.973 246.100 M302.200 253.746 C 300.242 255.811,298.000 258.953,298.000 259.632 C 298.000 259.907,298.738 259.068,299.639 257.766 C 300.541 256.465,302.018 254.635,302.922 253.700 C 303.827 252.765,304.394 252.013,304.183 252.029 C 303.972 252.045,303.080 252.817,302.200 253.746 M292.500 265.398 C 292.225 265.711,292.000 266.088,292.000 266.236 C 292.000 266.385,291.685 266.799,291.300 267.157 C 290.915 267.516,290.368 268.257,290.084 268.804 C 289.517 269.896,291.350 267.977,292.856 265.900 C 293.675 264.771,293.397 264.380,292.500 265.398 M286.859 272.340 C 285.681 273.609,284.527 274.997,284.295 275.424 C 284.062 275.851,283.361 276.697,282.736 277.303 C 282.111 277.910,281.600 278.560,281.600 278.748 C 281.600 278.936,280.617 280.149,279.415 281.445 C 278.213 282.740,277.230 283.980,277.231 284.200 C 277.232 284.594,277.644 284.160,281.200 280.010 C 282.190 278.855,283.492 277.345,284.094 276.655 C 284.695 275.965,285.190 275.278,285.194 275.129 C 285.201 274.825,285.445 274.540,287.983 271.873 C 288.964 270.843,289.594 270.007,289.383 270.016 C 289.172 270.025,288.036 271.070,286.859 272.340 M211.524 275.700 C 210.558 276.468,206.338 281.602,206.690 281.582 C 206.860 281.573,207.990 280.335,209.200 278.832 C 210.520 277.192,211.880 275.936,212.600 275.691 C 213.515 275.379,213.604 275.272,212.976 275.241 C 212.524 275.218,211.870 275.425,211.524 275.700 M216.000 277.402 C 216.000 277.763,216.779 278.474,218.400 279.592 C 219.170 280.122,220.340 281.111,221.000 281.789 C 221.660 282.466,222.830 283.465,223.600 284.008 C 224.370 284.552,225.701 285.676,226.558 286.507 C 227.414 287.338,228.202 287.932,228.308 287.826 C 228.538 287.595,225.868 284.998,223.963 283.600 C 223.213 283.050,221.997 282.015,221.260 281.300 C 220.523 280.585,219.822 280.000,219.701 280.000 C 219.581 280.000,218.699 279.358,217.741 278.573 C 216.784 277.788,216.000 277.261,216.000 277.402 M202.528 286.300 C 197.938 291.911,190.906 300.358,189.874 301.500 C 189.427 301.995,189.177 302.400,189.319 302.400 C 189.583 302.400,202.192 287.458,204.894 283.943 C 207.570 280.462,206.130 281.896,202.528 286.300 M275.660 285.851 C 275.143 286.402,274.828 286.961,274.960 287.093 C 275.092 287.225,275.245 287.258,275.300 287.167 C 275.355 287.075,275.836 286.505,276.370 285.900 C 277.580 284.527,276.943 284.483,275.660 285.851 M328.200 287.319 C 327.980 287.588,326.708 289.066,325.372 290.604 C 324.037 292.142,322.269 294.300,321.442 295.400 C 320.615 296.500,319.361 298.030,318.656 298.800 C 317.950 299.570,316.129 301.730,314.608 303.600 C 311.925 306.901,308.008 311.595,307.598 312.000 C 307.486 312.110,306.922 312.830,306.343 313.600 C 305.764 314.370,304.895 315.450,304.411 316.000 C 303.202 317.373,301.521 319.385,294.214 328.200 C 290.749 332.380,287.529 336.252,287.057 336.804 C 286.231 337.771,283.296 341.327,281.948 342.994 C 281.589 343.437,280.268 345.029,279.012 346.531 C 277.756 348.032,276.825 349.358,276.944 349.477 C 277.202 349.736,281.200 345.705,281.200 345.187 C 281.200 344.989,281.830 344.197,282.600 343.427 C 283.370 342.657,284.000 341.856,284.000 341.647 C 284.000 341.438,284.135 341.207,284.300 341.133 C 284.689 340.960,287.515 337.771,288.800 336.055 C 289.350 335.320,290.205 334.296,290.700 333.778 C 291.195 333.260,291.600 332.648,291.600 332.418 C 291.600 332.188,291.780 332.000,292.000 332.000 C 292.220 332.000,292.400 331.806,292.400 331.569 C 292.400 331.331,293.120 330.446,294.000 329.600 C 294.880 328.754,295.600 327.858,295.600 327.608 C 295.600 327.358,295.780 327.264,296.000 327.400 C 296.220 327.536,296.400 327.362,296.400 327.013 C 296.400 326.664,297.165 325.594,298.100 324.635 C 299.035 323.675,300.610 321.870,301.600 320.622 C 303.814 317.832,304.559 316.936,305.940 315.400 C 306.533 314.740,307.456 313.570,307.990 312.800 C 308.525 312.030,309.286 311.109,309.681 310.753 C 310.076 310.397,310.400 309.812,310.400 309.453 C 310.400 309.094,310.536 308.800,310.702 308.800 C 311.161 308.800,314.025 305.968,315.585 303.972 C 316.347 302.997,317.112 302.140,317.285 302.067 C 317.458 301.993,317.600 301.674,317.600 301.358 C 317.600 301.042,318.545 299.825,319.700 298.655 C 322.504 295.814,323.430 294.689,324.220 293.161 C 324.585 292.456,325.765 290.997,326.842 289.920 C 327.919 288.843,328.800 287.700,328.800 287.381 C 328.800 286.687,328.724 286.679,328.200 287.319 M230.000 289.018 C 230.000 289.432,232.049 291.284,232.267 291.067 C 232.387 290.947,232.024 290.388,231.461 289.824 C 230.465 288.828,230.000 288.572,230.000 289.018 M271.300 291.100 C 270.585 291.910,270.000 292.748,270.000 292.962 C 270.000 293.176,270.390 292.912,270.867 292.375 C 271.343 291.839,272.095 290.995,272.536 290.500 C 272.978 290.005,273.173 289.606,272.970 289.614 C 272.766 289.621,272.015 290.290,271.300 291.100 M232.800 291.586 C 232.800 291.814,232.951 292.000,233.135 292.000 C 233.320 292.000,234.445 292.883,235.635 293.963 C 238.353 296.427,238.765 296.290,236.144 293.793 C 233.956 291.710,232.800 290.946,232.800 291.586 M267.400 295.849 C 266.740 296.636,266.020 297.492,265.800 297.750 C 263.871 300.014,261.676 303.238,263.042 301.800 C 264.887 299.859,269.238 294.401,268.935 294.409 C 268.751 294.413,268.060 295.062,267.400 295.849 M239.170 296.946 C 239.703 297.526,240.310 298.000,240.519 298.000 C 241.056 298.000,240.028 296.840,239.033 296.324 C 238.290 295.938,238.304 296.005,239.170 296.946 M241.419 298.504 C 241.532 298.800,241.998 299.302,242.455 299.621 C 242.911 299.939,244.115 300.955,245.131 301.878 C 246.147 302.800,247.053 303.481,247.144 303.389 C 247.322 303.211,242.686 298.810,241.766 298.284 C 241.389 298.068,241.278 298.139,241.419 298.504 M187.641 304.214 C 186.493 305.522,186.196 306.000,186.533 306.000 C 186.606 306.000,187.245 305.280,187.952 304.400 C 189.542 302.421,189.328 302.293,187.641 304.214 M258.863 305.859 C 257.687 307.069,256.820 308.154,256.936 308.269 C 257.133 308.467,258.518 307.168,260.770 304.674 C 262.575 302.675,261.015 303.644,258.863 305.859 M248.800 304.629 C 248.800 304.953,249.593 305.681,251.100 306.740 C 251.815 307.243,252.400 307.462,252.400 307.227 C 252.400 306.992,252.209 306.800,251.976 306.800 C 251.743 306.800,251.651 306.641,251.771 306.446 C 251.891 306.252,251.452 305.870,250.795 305.598 C 250.138 305.326,249.600 304.945,249.600 304.751 C 249.600 304.558,249.420 304.400,249.200 304.400 C 248.980 304.400,248.800 304.503,248.800 304.629 M187.951 308.840 C 188.447 309.302,188.963 309.570,189.097 309.436 C 189.232 309.302,188.995 308.929,188.571 308.609 C 187.393 307.718,186.931 307.890,187.951 308.840 M189.600 309.846 C 189.600 310.214,192.518 312.816,192.712 312.621 C 192.893 312.440,190.168 309.600,189.813 309.600 C 189.696 309.600,189.600 309.711,189.600 309.846 M193.200 313.173 C 193.200 313.408,193.345 313.600,193.522 313.600 C 193.699 313.600,194.484 314.185,195.266 314.900 C 196.048 315.615,197.281 316.650,198.005 317.200 C 198.729 317.750,199.970 318.792,200.761 319.516 C 201.552 320.240,203.370 321.677,204.800 322.709 C 206.230 323.742,208.243 325.445,209.274 326.494 C 210.305 327.542,211.300 328.400,211.486 328.400 C 211.671 328.400,212.083 328.760,212.400 329.200 C 212.717 329.640,213.174 330.000,213.415 330.000 C 213.656 330.000,214.756 330.855,215.861 331.900 C 218.814 334.695,221.936 337.271,224.186 338.767 C 226.767 340.485,225.667 339.155,222.745 337.025 C 221.505 336.122,219.512 334.486,218.316 333.391 C 217.121 332.296,215.538 330.950,214.800 330.400 C 212.635 328.787,211.123 327.525,209.116 325.654 C 208.080 324.688,206.820 323.618,206.316 323.275 C 205.397 322.651,196.375 315.235,196.000 314.796 C 195.388 314.079,193.200 312.811,193.200 313.173 M228.179 342.200 C 229.169 343.190,230.124 344.000,230.301 344.000 C 230.478 344.000,230.883 344.360,231.200 344.800 C 231.517 345.240,231.989 345.600,232.248 345.600 C 232.507 345.600,233.638 346.500,234.761 347.600 C 235.885 348.700,237.010 349.600,237.261 349.600 C 237.863 349.600,235.991 347.831,232.621 345.216 C 231.127 344.057,229.258 342.498,228.469 341.754 C 226.335 339.742,226.093 340.114,228.179 342.200 M272.600 352.958 C 270.840 354.778,268.950 356.576,268.400 356.952 C 267.850 357.329,268.181 357.226,269.135 356.725 C 270.739 355.882,271.452 355.209,275.110 351.079 C 277.533 348.342,275.829 349.619,272.600 352.958 M239.600 350.116 C 239.600 350.633,247.000 356.488,248.814 357.407 C 249.906 357.961,250.800 358.324,250.800 358.215 C 250.800 358.106,250.035 357.627,249.100 357.151 C 247.443 356.309,244.745 354.302,241.300 351.352 C 240.365 350.552,239.600 349.995,239.600 350.116 M265.400 357.985 C 262.328 359.254,255.936 359.563,252.400 358.613 C 251.556 358.387,251.510 358.415,252.103 358.794 C 254.615 360.399,263.482 359.916,266.765 357.995 C 267.604 357.505,266.580 357.497,265.400 357.985 " stroke="none" fill="#6aff00" fill-rule="evenodd"></path><path id="path3" d="M327.600 222.703 C 327.600 222.942,327.134 223.692,326.564 224.369 C 325.995 225.046,325.648 225.600,325.793 225.600 C 326.498 225.600,328.258 222.924,327.832 222.499 C 327.705 222.371,327.600 222.463,327.600 222.703 M316.800 236.362 C 316.800 236.781,316.170 237.878,315.400 238.800 C 313.483 241.094,313.627 241.390,315.589 239.186 C 316.915 237.695,317.740 235.600,317.000 235.600 C 316.890 235.600,316.800 235.943,316.800 236.362 M309.600 245.793 C 307.948 247.860,306.286 249.559,305.900 249.574 C 305.515 249.588,305.200 249.763,305.200 249.963 C 305.200 250.162,305.535 250.238,305.944 250.131 C 306.672 249.940,313.501 241.982,312.904 242.019 C 312.737 242.029,311.250 243.727,309.600 245.793 M365.802 243.198 C 365.403 243.639,365.207 244.000,365.367 244.000 C 365.788 244.000,366.928 242.795,366.712 242.579 C 366.611 242.478,366.202 242.756,365.802 243.198 M360.200 250.132 C 359.980 250.407,359.440 251.063,359.000 251.589 L 358.200 252.545 359.262 251.773 C 360.378 250.961,361.421 249.589,360.903 249.615 C 360.737 249.624,360.420 249.856,360.200 250.132 M354.433 257.100 C 353.980 257.705,353.409 258.437,353.164 258.726 C 352.919 259.016,352.810 259.343,352.921 259.454 C 353.032 259.565,353.689 258.834,354.381 257.828 C 355.741 255.850,355.781 255.302,354.433 257.100 M350.700 261.381 C 348.687 263.671,348.774 264.167,350.800 261.951 C 351.680 260.988,352.400 260.065,352.400 259.900 C 352.400 259.463,352.343 259.512,350.700 261.381 M344.886 268.624 C 344.383 269.161,344.127 269.600,344.316 269.600 C 344.506 269.600,345.083 269.150,345.600 268.600 C 346.117 268.050,346.373 267.611,346.170 267.624 C 345.966 267.638,345.389 268.088,344.886 268.624 M339.442 273.700 C 331.644 282.760,328.786 286.572,328.818 287.874 C 328.827 288.273,329.075 287.928,329.368 287.108 C 329.661 286.287,331.228 284.058,332.850 282.155 C 334.473 280.252,336.913 277.294,338.274 275.582 C 339.634 273.870,341.074 272.279,341.474 272.047 C 341.873 271.814,341.986 271.619,341.725 271.612 C 341.464 271.605,340.437 272.545,339.442 273.700 M209.623 277.015 C 208.703 278.234,206.832 280.529,205.465 282.115 C 201.717 286.465,197.552 291.600,197.772 291.600 C 197.879 291.600,201.030 287.924,204.774 283.431 C 208.518 278.938,211.901 275.179,212.291 275.078 C 212.865 274.928,212.838 274.884,212.148 274.846 C 211.555 274.814,210.788 275.473,209.623 277.015 M192.882 297.127 C 190.618 299.917,188.117 302.968,187.325 303.907 C 186.068 305.397,185.943 305.729,186.344 306.507 C 186.768 307.330,186.788 307.334,186.595 306.563 C 186.467 306.051,186.733 305.273,187.279 304.563 C 188.342 303.179,195.788 294.187,196.936 292.900 C 197.378 292.405,197.573 292.012,197.370 292.027 C 197.166 292.042,195.147 294.337,192.882 297.127 M321.093 297.308 C 320.712 297.778,320.400 298.330,320.400 298.535 C 320.400 298.740,320.781 298.424,321.246 297.833 C 321.711 297.242,322.023 296.689,321.939 296.606 C 321.855 296.522,321.475 296.838,321.093 297.308 M306.870 314.526 C 306.391 315.035,306.000 315.588,306.000 315.754 C 306.000 316.069,306.603 315.502,307.549 314.298 C 308.343 313.289,307.889 313.440,306.870 314.526 M304.000 318.000 C 303.303 318.880,302.823 319.600,302.933 319.600 C 303.043 319.600,303.703 318.880,304.400 318.000 C 305.097 317.120,305.577 316.400,305.467 316.400 C 305.357 316.400,304.697 317.120,304.000 318.000 M279.323 347.497 C 278.409 348.625,278.375 349.304,279.281 348.346 C 280.359 347.205,280.886 346.400,280.549 346.408 C 280.357 346.412,279.805 346.902,279.323 347.497 M239.669 351.076 C 241.926 352.899,242.331 353.070,240.677 351.500 C 239.808 350.675,238.926 350.000,238.718 350.000 C 238.509 350.000,238.937 350.484,239.669 351.076 M273.203 353.310 C 270.630 356.136,270.208 357.061,272.607 354.621 C 273.651 353.557,276.541 349.997,276.348 350.010 C 276.267 350.016,274.852 351.501,273.203 353.310 M242.815 353.495 C 242.838 353.979,247.762 357.652,249.194 358.254 C 251.375 359.171,251.531 358.853,249.388 357.855 C 248.282 357.340,246.347 356.080,245.088 355.055 C 243.830 354.030,242.807 353.328,242.815 353.495 M268.600 357.200 C 267.940 357.637,267.580 357.992,267.800 357.988 C 268.201 357.982,270.376 356.423,270.000 356.412 C 269.890 356.408,269.260 356.763,268.600 357.200 M264.000 359.068 C 261.769 359.888,260.860 360.001,257.600 359.867 C 255.500 359.780,254.158 359.852,254.600 360.027 C 256.944 360.956,265.463 359.810,266.980 358.363 C 267.525 357.843,266.986 357.970,264.000 359.068 " stroke="none" fill="#55ff00" fill-rule="evenodd"></path><path id="path4" d="M364.093 244.800 C 363.818 245.240,363.698 245.600,363.825 245.600 C 364.125 245.600,365.200 244.527,365.200 244.229 C 365.200 243.720,364.562 244.049,364.093 244.800 M357.029 253.562 L 355.858 255.000 357.209 253.713 C 357.951 253.005,358.478 252.358,358.379 252.275 C 358.281 252.192,357.673 252.771,357.029 253.562 M263.036 300.831 C 262.466 301.508,262.005 302.273,262.012 302.531 C 262.019 302.789,262.223 302.640,262.467 302.200 C 262.710 301.760,263.276 300.995,263.724 300.500 C 264.173 300.005,264.434 299.600,264.305 299.600 C 264.176 299.600,263.605 300.154,263.036 300.831 M311.243 308.423 C 310.717 308.861,310.391 309.325,310.519 309.452 C 310.647 309.580,311.221 309.216,311.794 308.642 C 313.016 307.421,312.631 307.268,311.243 308.423 " stroke="none" fill="#4dff00" fill-rule="evenodd"></path></g></svg>