<?xml version="1.0" standalone="no"?>
<!DOCTYPE svg PUBLIC "-//W3C//DTD SVG 20010904//EN"
 "http://www.w3.org/TR/2001/REC-SVG-20010904/DTD/svg10.dtd">
<svg version="1.0" xmlns="http://www.w3.org/2000/svg"
 width="512.000000pt" height="512.000000pt" viewBox="0 0 512.000000 512.000000"
 preserveAspectRatio="xMidYMid meet">

<g transform="translate(0.000000,512.000000) scale(0.100000,-0.100000)"
fill="#000000" stroke="none">
<path d="M2425 4904 c-384 -29 -676 -117 -908 -272 -88 -58 -127 -103 -127
-144 0 -18 47 -241 104 -497 l105 -466 4 -230 c4 -189 9 -245 26 -313 44 -176
135 -336 261 -460 l73 -72 -64 0 c-197 0 -466 -90 -664 -222 -103 -69 -250
-209 -331 -317 -69 -92 -159 -264 -195 -371 -57 -173 -62 -218 -66 -635 -4
-352 -3 -393 12 -421 9 -18 28 -37 41 -43 35 -16 3693 -16 3728 0 13 6 32 25
41 43 15 28 16 69 12 421 -3 346 -6 400 -24 480 -30 130 -57 206 -118 330
-126 254 -354 481 -610 605 -157 77 -362 130 -496 130 -33 0 -59 2 -59 4 0 2
31 35 68 72 82 83 141 168 193 279 67 143 80 216 89 500 l7 250 106 462 c58
255 103 473 100 485 -18 74 -230 210 -448 288 -122 43 -267 77 -400 95 -115
15 -374 26 -460 19z m416 -229 c126 -16 251 -45 357 -81 80 -27 251 -111 289
-142 l22 -17 -70 -310 c-38 -170 -78 -352 -90 -402 l-21 -93 -768 0 -769 0
-16 73 c-8 39 -48 222 -88 405 -84 377 -86 335 23 395 142 78 356 144 559 172
131 18 441 18 572 0z m466 -1427 c-3 -93 -12 -190 -21 -225 -67 -268 -284
-484 -554 -550 -88 -21 -256 -21 -344 0 -270 66 -487 282 -554 550 -9 35 -18
132 -21 225 l-6 162 753 0 753 0 -6 -162z m-350 -1012 c-9 -23 -380 -477 -387
-474 -9 4 -420 477 -420 483 0 3 183 5 406 5 339 0 405 -2 401 -14z m-804
-320 c152 -179 277 -328 277 -331 0 -3 -65 -85 -145 -182 -83 -103 -147 -189
-151 -207 -5 -25 15 -72 125 -293 l131 -263 -771 0 -771 0 5 313 c4 234 9 330
21 382 82 356 297 635 613 794 102 51 287 106 368 110 15 1 95 -86 298 -323z
m1197 308 c223 -42 431 -155 592 -322 159 -165 251 -337 304 -567 12 -52 17
-148 21 -382 l5 -313 -823 0 -824 0 -129 259 -129 259 19 25 c91 121 862 1057
870 1057 7 0 49 -7 94 -16z"/>
<path d="M2513 4574 c-50 -25 -63 -65 -63 -193 l0 -111 -111 0 c-129 0 -169
-13 -193 -65 -20 -41 -20 -49 0 -90 24 -52 64 -65 193 -65 l111 0 0 -111 c0
-129 13 -169 65 -193 41 -20 49 -20 90 0 52 24 65 64 65 193 l0 111 111 0
c129 0 169 13 193 65 9 18 16 38 16 45 0 7 -7 27 -16 45 -24 52 -64 65 -193
65 l-111 0 0 111 c0 129 -13 169 -65 193 -41 20 -52 20 -92 0z"/>
</g>
</svg>
