<?xml version="1.0" standalone="no"?>
<!DOCTYPE svg PUBLIC "-//W3C//DTD SVG 20010904//EN"
 "http://www.w3.org/TR/2001/REC-SVG-20010904/DTD/svg10.dtd">
<svg version="1.0" xmlns="http://www.w3.org/2000/svg"
 width="2346.000000pt" height="2400.000000pt" viewBox="0 0 2346.000000 2400.000000"
 preserveAspectRatio="xMidYMid meet">

<g transform="translate(0.000000,2400.000000) scale(0.100000,-0.100000)"
fill="#000000" stroke="none">
<path d="M21476 22431 l-1960 -1558 -180 145 c-1891 1525 -4153 2426 -6556
2612 -559 43 -1260 41 -1830 -5 -3180 -259 -6117 -1790 -8185 -4270 -1059
-1270 -1846 -2750 -2299 -4322 -336 -1166 -481 -2303 -455 -3568 53 -2526 966
-5013 2574 -7010 295 -367 488 -580 874 -965 303 -303 451 -440 711 -661 1523
-1290 3356 -2182 5307 -2583 1230 -252 2507 -310 3763 -170 3269 364 6243
2065 8217 4699 618 825 1124 1729 1508 2695 52 129 96 246 100 260 l6 25
-2113 514 c-1162 283 -2120 516 -2128 518 -11 3 -25 -18 -50 -74 -259 -597
-642 -1223 -1065 -1738 -1177 -1435 -2856 -2381 -4695 -2645 -449 -65 -778
-85 -1250 -77 -358 6 -471 13 -775 48 -1668 190 -3238 944 -4421 2124 -584
582 -1041 1218 -1409 1960 -256 516 -420 955 -559 1500 -157 618 -230 1216
-229 1885 0 347 10 547 43 855 366 3342 2850 6057 6098 6664 1332 250 2715
130 3976 -344 475 -178 1016 -452 1439 -728 76 -49 136 -93 135 -97 -2 -4
-876 -702 -1942 -1551 -1571 -1250 -1936 -1544 -1920 -1550 10 -4 2537 -474
5614 -1044 3077 -570 5603 -1038 5613 -1041 16 -5 17 263 17 5525 0 3042 -3
5531 -7 5530 -5 0 -890 -701 -1967 -1558z"/>
</g>
</svg>
