<svg id="svg" version="1.1" xmlns="http://www.w3.org/2000/svg" xmlns:xlink="http://www.w3.org/1999/xlink" width="400" height="400" viewBox="0, 0, 400,400"><g id="svgg"><path id="path0" d="M132.200 0.276 C 130.880 0.369,129.629 0.614,129.420 0.822 C 129.211 1.030,128.007 1.200,126.744 1.200 C 125.481 1.200,124.336 1.380,124.200 1.600 C 124.064 1.820,122.883 2.000,121.576 2.000 C 120.259 2.000,119.200 2.178,119.200 2.400 C 119.200 2.620,118.480 2.800,117.600 2.800 C 116.720 2.800,116.000 2.980,116.000 3.200 C 116.000 3.420,115.381 3.600,114.624 3.600 C 113.867 3.600,113.136 3.780,113.000 4.000 C 112.864 4.220,112.133 4.400,111.376 4.400 C 110.619 4.400,110.000 4.580,110.000 4.800 C 110.000 5.020,109.381 5.200,108.624 5.200 C 107.867 5.200,107.136 5.380,107.000 5.600 C 106.864 5.820,106.223 6.000,105.576 6.000 C 104.929 6.000,104.400 6.180,104.400 6.400 C 104.400 6.620,103.860 6.800,103.200 6.800 C 102.540 6.800,102.000 6.980,102.000 7.200 C 102.000 7.420,101.550 7.600,101.000 7.600 C 100.450 7.600,100.000 7.780,100.000 8.000 C 100.000 8.220,99.550 8.400,99.000 8.400 C 98.450 8.400,98.000 8.580,98.000 8.800 C 98.000 9.020,97.561 9.200,97.024 9.200 C 96.487 9.200,95.949 9.359,95.829 9.554 C 95.708 9.748,94.798 10.029,93.805 10.178 C 92.812 10.327,92.000 10.618,92.000 10.825 C 92.000 11.031,91.716 11.200,91.370 11.200 C 90.520 11.200,77.602 17.581,76.625 18.484 C 76.198 18.878,75.613 19.200,75.325 19.200 C 75.036 19.200,74.800 19.380,74.800 19.600 C 74.800 19.820,74.480 20.000,74.088 20.000 C 73.697 20.000,73.117 20.360,72.800 20.800 C 72.483 21.240,71.903 21.600,71.512 21.600 C 71.120 21.600,70.800 21.780,70.800 22.000 C 70.800 22.220,70.480 22.400,70.088 22.400 C 69.697 22.400,69.117 22.760,68.800 23.200 C 68.483 23.640,67.903 24.000,67.512 24.000 C 67.120 24.000,66.800 24.180,66.800 24.400 C 66.800 24.620,66.557 24.800,66.259 24.800 C 65.962 24.800,65.154 25.340,64.463 26.000 C 63.772 26.660,63.043 27.200,62.841 27.200 C 62.486 27.200,59.910 29.158,58.114 30.794 C 57.627 31.237,57.064 31.600,56.863 31.600 C 56.661 31.600,55.800 32.276,54.948 33.102 C 54.097 33.928,52.770 35.051,52.000 35.596 C 50.180 36.887,36.887 50.180,35.596 52.000 C 35.051 52.770,33.928 54.097,33.102 54.948 C 32.276 55.800,31.600 56.661,31.600 56.863 C 31.600 57.064,31.237 57.627,30.794 58.114 C 29.158 59.910,27.200 62.486,27.200 62.841 C 27.200 63.043,26.660 63.772,26.000 64.463 C 25.340 65.154,24.800 65.962,24.800 66.259 C 24.800 66.557,24.620 66.800,24.400 66.800 C 24.180 66.800,24.000 67.120,24.000 67.512 C 24.000 67.903,23.640 68.483,23.200 68.800 C 22.760 69.117,22.400 69.697,22.400 70.088 C 22.400 70.480,22.220 70.800,22.000 70.800 C 21.780 70.800,21.600 71.120,21.600 71.512 C 21.600 71.903,21.240 72.483,20.800 72.800 C 20.360 73.117,20.000 73.697,20.000 74.088 C 20.000 74.480,19.820 74.800,19.600 74.800 C 19.380 74.800,19.200 75.036,19.200 75.325 C 19.200 75.613,18.878 76.198,18.484 76.625 C 17.581 77.602,11.200 90.520,11.200 91.370 C 11.200 91.716,11.031 92.000,10.825 92.000 C 10.618 92.000,10.327 92.812,10.178 93.805 C 10.029 94.798,9.748 95.708,9.554 95.829 C 9.359 95.949,9.200 96.487,9.200 97.024 C 9.200 97.561,9.020 98.000,8.800 98.000 C 8.580 98.000,8.400 98.450,8.400 99.000 C 8.400 99.550,8.220 100.000,8.000 100.000 C 7.780 100.000,7.600 100.450,7.600 101.000 C 7.600 101.550,7.420 102.000,7.200 102.000 C 6.980 102.000,6.800 102.540,6.800 103.200 C 6.800 103.860,6.620 104.400,6.400 104.400 C 6.180 104.400,6.000 104.929,6.000 105.576 C 6.000 106.223,5.820 106.864,5.600 107.000 C 5.380 107.136,5.200 107.867,5.200 108.624 C 5.200 109.381,5.020 110.000,4.800 110.000 C 4.580 110.000,4.400 110.619,4.400 111.376 C 4.400 112.133,4.220 112.864,4.000 113.000 C 3.780 113.136,3.600 113.867,3.600 114.624 C 3.600 115.381,3.420 116.000,3.200 116.000 C 2.980 116.000,2.800 116.720,2.800 117.600 C 2.800 118.480,2.620 119.200,2.400 119.200 C 2.178 119.200,2.000 120.259,2.000 121.576 C 2.000 122.883,1.820 124.064,1.600 124.200 C 1.380 124.336,1.200 125.481,1.200 126.744 C 1.200 128.047,0.984 129.256,0.700 129.540 C -0.029 130.269,-0.029 170.457,0.700 170.700 C 1.024 170.808,1.200 171.691,1.200 173.210 C 1.200 174.498,1.380 175.664,1.600 175.800 C 1.820 175.936,2.000 177.117,2.000 178.424 C 2.000 179.741,2.178 180.800,2.400 180.800 C 2.620 180.800,2.800 181.520,2.800 182.400 C 2.800 183.280,2.980 184.000,3.200 184.000 C 3.420 184.000,3.600 184.619,3.600 185.376 C 3.600 186.133,3.780 186.864,4.000 187.000 C 4.220 187.136,4.400 187.867,4.400 188.624 C 4.400 189.381,4.580 190.000,4.800 190.000 C 5.020 190.000,5.200 190.619,5.200 191.376 C 5.200 192.133,5.380 192.864,5.600 193.000 C 5.820 193.136,6.000 193.777,6.000 194.424 C 6.000 195.071,6.180 195.600,6.400 195.600 C 6.620 195.600,6.800 196.140,6.800 196.800 C 6.800 197.460,6.980 198.000,7.200 198.000 C 7.420 198.000,7.600 198.450,7.600 199.000 C 7.600 199.550,7.780 200.000,8.000 200.000 C 8.220 200.000,8.400 200.450,8.400 201.000 C 8.400 201.550,8.580 202.000,8.800 202.000 C 9.020 202.000,9.200 202.540,9.200 203.200 C 9.200 203.860,9.357 204.400,9.549 204.400 C 9.741 204.400,10.006 205.079,10.139 205.909 C 10.359 207.286,11.552 210.111,13.613 214.138 C 14.046 214.984,14.400 215.929,14.400 216.238 C 14.400 216.547,14.580 216.800,14.800 216.800 C 15.020 216.800,15.200 217.160,15.200 217.600 C 15.200 218.040,15.380 218.400,15.600 218.400 C 15.820 218.400,16.000 218.760,16.000 219.200 C 16.000 219.640,16.180 220.000,16.400 220.000 C 16.620 220.000,16.800 220.360,16.800 220.800 C 16.800 221.240,16.980 221.600,17.200 221.600 C 17.420 221.600,17.600 221.836,17.600 222.125 C 17.600 222.413,17.960 223.036,18.400 223.508 C 18.840 223.980,19.200 224.554,19.200 224.783 C 19.200 225.012,19.380 225.200,19.600 225.200 C 19.820 225.200,20.000 225.520,20.000 225.912 C 20.000 226.303,20.360 226.883,20.800 227.200 C 21.240 227.517,21.600 228.097,21.600 228.488 C 21.600 228.880,21.780 229.200,22.000 229.200 C 22.220 229.200,22.400 229.520,22.400 229.912 C 22.400 230.303,22.760 230.883,23.200 231.200 C 23.640 231.517,24.000 232.097,24.000 232.488 C 24.000 232.880,24.180 233.200,24.400 233.200 C 24.620 233.200,24.800 233.443,24.800 233.741 C 24.800 234.038,25.295 234.816,25.900 235.470 C 26.505 236.123,27.287 237.185,27.637 237.829 C 27.987 238.473,28.482 238.955,28.737 238.900 C 28.992 238.845,29.179 238.935,29.153 239.100 C 29.031 239.872,29.287 240.373,30.400 241.537 C 31.060 242.228,31.600 242.953,31.600 243.148 C 31.600 243.344,32.276 244.200,33.102 245.052 C 33.928 245.903,35.050 247.230,35.594 248.000 C 36.891 249.834,50.193 263.139,52.000 264.411 C 52.770 264.953,54.097 266.072,54.948 266.898 C 55.800 267.724,56.656 268.400,56.852 268.400 C 57.047 268.400,57.772 268.940,58.463 269.600 C 59.642 270.727,60.137 270.975,60.930 270.837 C 61.111 270.806,61.151 270.955,61.019 271.169 C 60.735 271.629,63.578 273.661,64.077 273.353 C 64.265 273.236,64.370 273.362,64.310 273.633 C 64.249 273.905,64.740 274.413,65.400 274.763 C 66.060 275.113,66.660 275.535,66.733 275.700 C 66.807 275.865,67.172 276.000,67.545 276.000 C 67.918 276.000,68.483 276.360,68.800 276.800 C 69.117 277.240,69.697 277.600,70.088 277.600 C 70.480 277.600,70.800 277.780,70.800 278.000 C 70.800 278.220,71.120 278.400,71.512 278.400 C 71.903 278.400,72.483 278.760,72.800 279.200 C 73.117 279.640,73.697 280.000,74.088 280.000 C 74.480 280.000,74.800 280.180,74.800 280.400 C 74.800 280.620,75.036 280.800,75.325 280.800 C 75.613 280.800,76.198 281.125,76.625 281.522 C 77.051 281.920,77.985 282.503,78.700 282.820 C 79.415 283.136,80.000 283.531,80.000 283.698 C 80.000 283.864,80.360 284.000,80.800 284.000 C 81.240 284.000,81.600 284.180,81.600 284.400 C 81.600 284.620,81.960 284.800,82.400 284.800 C 82.840 284.800,83.200 284.980,83.200 285.200 C 83.200 285.420,83.426 285.600,83.702 285.600 C 83.978 285.600,85.688 286.320,87.502 287.200 C 89.316 288.080,91.070 288.800,91.400 288.800 C 91.730 288.800,92.000 288.947,92.000 289.128 C 92.000 289.308,92.911 289.704,94.025 290.007 C 95.139 290.310,96.133 290.692,96.235 290.856 C 96.336 291.020,97.224 291.275,98.209 291.422 C 99.194 291.570,100.000 291.850,100.000 292.045 C 100.000 292.240,100.450 292.400,101.000 292.400 C 101.550 292.400,102.000 292.580,102.000 292.800 C 102.000 293.020,102.540 293.200,103.200 293.200 C 103.860 293.200,104.400 293.380,104.400 293.600 C 104.400 293.820,104.929 294.000,105.576 294.000 C 106.223 294.000,106.864 294.180,107.000 294.400 C 107.136 294.620,107.867 294.800,108.624 294.800 C 109.381 294.800,110.000 294.980,110.000 295.200 C 110.000 295.420,110.619 295.600,111.376 295.600 C 112.133 295.600,112.864 295.780,113.000 296.000 C 113.136 296.220,113.867 296.400,114.624 296.400 C 115.381 296.400,116.000 296.580,116.000 296.800 C 116.000 297.020,116.720 297.200,117.600 297.200 C 118.480 297.200,119.200 297.380,119.200 297.600 C 119.200 297.822,120.259 298.000,121.576 298.000 C 122.883 298.000,124.064 298.180,124.200 298.400 C 124.336 298.620,125.506 298.800,126.800 298.800 C 128.094 298.800,129.264 298.980,129.400 299.200 C 129.536 299.420,130.706 299.600,132.000 299.600 C 133.294 299.600,134.464 299.780,134.600 300.000 C 134.938 300.547,164.662 300.547,165.000 300.000 C 165.136 299.780,166.497 299.600,168.024 299.600 C 169.608 299.600,170.800 299.428,170.800 299.200 C 170.800 298.969,172.067 298.800,173.800 298.800 C 175.533 298.800,176.800 298.631,176.800 298.400 C 176.800 298.180,177.520 298.000,178.400 298.000 C 179.280 298.000,180.000 297.820,180.000 297.600 C 180.000 297.380,180.799 297.200,181.776 297.200 C 182.753 297.200,183.664 297.020,183.800 296.800 C 183.936 296.580,184.757 296.400,185.624 296.400 C 186.491 296.400,187.200 296.220,187.200 296.000 C 187.200 295.780,187.920 295.600,188.800 295.600 C 189.680 295.600,190.400 295.420,190.400 295.200 C 190.400 294.980,190.850 294.800,191.400 294.800 C 191.950 294.800,192.400 294.620,192.400 294.400 C 192.400 294.180,193.019 294.000,193.776 294.000 C 194.533 294.000,195.264 293.820,195.400 293.600 C 195.536 293.380,196.177 293.200,196.824 293.200 C 197.471 293.200,198.000 293.020,198.000 292.800 C 198.000 292.580,198.540 292.400,199.200 292.400 C 199.860 292.400,200.400 292.220,200.400 292.000 C 200.400 291.780,200.868 291.600,201.440 291.600 C 202.011 291.600,203.136 291.312,203.940 290.959 C 204.743 290.607,205.760 290.172,206.200 289.993 C 206.640 289.814,207.585 289.428,208.300 289.136 C 209.015 288.844,209.600 288.469,209.600 288.302 C 209.600 288.136,210.039 288.000,210.576 288.000 C 211.113 288.000,211.664 287.820,211.800 287.600 C 211.936 287.380,212.397 287.200,212.824 287.200 C 213.251 287.200,213.600 287.020,213.600 286.800 C 213.600 286.580,213.960 286.400,214.400 286.400 C 214.840 286.400,215.200 286.220,215.200 286.000 C 215.200 285.780,215.560 285.600,216.000 285.600 C 216.440 285.600,216.800 285.420,216.800 285.200 C 216.800 284.980,217.145 284.800,217.567 284.800 C 217.988 284.800,218.393 284.665,218.467 284.500 C 218.587 284.230,220.689 283.022,223.097 281.840 C 223.590 281.598,223.995 281.265,223.997 281.100 C 223.999 280.935,224.270 280.800,224.600 280.800 C 224.930 280.800,225.200 280.620,225.200 280.400 C 225.200 280.180,225.520 280.000,225.912 280.000 C 226.303 280.000,226.883 279.640,227.200 279.200 C 227.517 278.760,228.057 278.400,228.400 278.400 C 228.743 278.400,229.283 278.040,229.600 277.600 C 229.917 277.160,230.457 276.800,230.800 276.800 C 231.143 276.800,231.683 276.440,232.000 276.000 C 232.317 275.560,232.884 275.200,233.260 275.200 C 233.635 275.200,234.184 274.959,234.479 274.664 C 234.773 274.370,235.209 274.055,235.446 273.964 C 236.096 273.717,239.111 271.220,241.079 269.300 C 243.397 267.038,243.873 267.100,244.150 269.700 C 244.665 274.534,244.859 275.841,245.173 276.600 C 245.355 277.040,245.840 278.210,246.250 279.200 C 246.788 280.497,248.507 282.483,252.398 286.304 C 255.369 289.221,258.340 292.149,259.000 292.810 C 259.958 293.770,267.452 301.265,276.094 309.906 C 276.695 310.508,280.337 314.150,284.187 318.000 C 288.037 321.850,291.727 325.540,292.387 326.200 C 293.047 326.860,296.761 330.574,300.641 334.453 C 304.520 338.332,308.210 342.022,308.840 342.653 C 310.332 344.145,324.655 358.468,326.147 359.960 C 326.778 360.590,330.444 364.256,334.294 368.106 C 338.144 371.956,341.834 375.646,342.494 376.306 C 343.154 376.966,346.824 380.677,350.650 384.553 C 354.475 388.429,357.859 391.600,358.169 391.600 C 358.479 391.600,359.242 392.140,359.865 392.800 C 360.488 393.460,361.223 394.000,361.499 394.000 C 361.774 394.000,362.000 394.180,362.000 394.400 C 362.000 394.620,362.360 394.800,362.800 394.800 C 363.240 394.800,363.600 394.980,363.600 395.200 C 363.600 395.420,363.960 395.600,364.400 395.600 C 364.840 395.600,365.200 395.799,365.200 396.043 C 365.200 396.286,365.453 396.389,365.761 396.270 C 366.070 396.152,366.655 396.307,367.061 396.615 C 367.468 396.923,368.295 397.180,368.900 397.187 C 369.505 397.194,370.000 397.380,370.000 397.600 C 370.000 397.845,371.933 398.000,375.000 398.000 C 378.067 398.000,380.000 397.845,380.000 397.600 C 380.000 397.380,380.529 397.200,381.176 397.200 C 381.823 397.200,382.464 397.020,382.600 396.800 C 382.736 396.580,383.287 396.400,383.824 396.400 C 384.361 396.400,384.800 396.220,384.800 396.000 C 384.800 395.780,385.160 395.600,385.600 395.600 C 386.040 395.600,386.400 395.420,386.400 395.200 C 386.400 394.980,386.760 394.800,387.200 394.800 C 387.640 394.800,388.000 394.620,388.000 394.400 C 388.000 394.180,388.288 394.000,388.640 394.000 C 388.991 394.000,389.783 393.460,390.400 392.800 C 391.017 392.140,391.709 391.600,391.938 391.600 C 392.500 391.600,397.200 386.960,397.200 386.405 C 397.200 386.164,397.560 385.580,398.000 385.108 C 398.440 384.636,398.800 383.959,398.800 383.605 C 398.800 383.250,399.025 382.735,399.300 382.460 C 399.665 382.095,399.800 379.914,399.800 374.399 C 399.800 368.885,399.665 366.704,399.300 366.340 C 399.025 366.065,398.800 365.516,398.800 365.120 C 398.800 364.724,398.620 364.400,398.400 364.400 C 398.180 364.400,398.000 364.040,398.000 363.600 C 398.000 363.160,397.820 362.800,397.600 362.800 C 397.380 362.800,397.200 362.564,397.200 362.275 C 397.200 361.987,396.840 361.364,396.400 360.892 C 395.960 360.420,395.600 359.932,395.600 359.809 C 395.600 359.514,392.692 356.485,385.651 349.445 C 382.489 346.284,378.822 342.618,377.502 341.298 C 376.182 339.978,372.492 336.288,369.302 333.098 C 366.112 329.908,362.399 326.195,361.051 324.846 C 357.885 321.680,346.900 310.695,343.800 307.595 C 342.480 306.275,338.836 302.631,335.702 299.498 C 332.569 296.364,328.925 292.720,327.605 291.400 C 311.697 275.492,313.596 277.392,302.503 266.298 C 299.149 262.944,295.279 259.080,293.903 257.711 C 292.526 256.342,290.410 254.148,289.200 252.835 C 287.990 251.522,286.802 250.437,286.559 250.424 C 286.317 250.411,285.554 249.860,284.863 249.200 C 284.172 248.540,283.461 248.000,283.282 248.000 C 283.103 248.000,281.996 247.521,280.822 246.936 C 278.663 245.860,277.040 245.400,273.400 244.832 C 269.928 244.290,269.138 243.469,270.720 242.047 C 271.116 241.691,272.061 240.502,272.820 239.405 C 273.579 238.308,274.408 237.187,274.663 236.914 C 274.917 236.641,275.366 235.874,275.660 235.209 C 275.954 234.544,276.331 234.000,276.498 234.000 C 276.664 234.000,276.800 233.722,276.800 233.383 C 276.800 233.044,277.160 232.380,277.600 231.908 C 278.040 231.436,278.400 230.813,278.400 230.525 C 278.400 230.236,278.580 230.000,278.800 230.000 C 279.020 230.000,279.200 229.640,279.200 229.200 C 279.200 228.760,279.350 228.400,279.532 228.400 C 279.715 228.400,280.120 227.905,280.432 227.300 C 280.744 226.695,281.093 226.110,281.207 226.000 C 281.322 225.890,282.042 224.540,282.806 223.000 C 283.571 221.460,284.332 220.140,284.498 220.067 C 284.664 219.993,284.800 219.588,284.800 219.167 C 284.800 218.745,284.980 218.400,285.200 218.400 C 285.420 218.400,285.600 218.040,285.600 217.600 C 285.600 217.160,285.780 216.800,286.000 216.800 C 286.220 216.800,286.400 216.564,286.400 216.275 C 286.400 215.986,286.760 215.005,287.200 214.094 C 287.640 213.184,288.000 212.160,288.000 211.819 C 288.000 211.479,288.141 211.200,288.313 211.200 C 288.485 211.200,288.875 210.345,289.180 209.300 C 289.485 208.255,289.869 207.130,290.034 206.800 C 291.036 204.789,291.600 203.147,291.600 202.240 C 291.600 201.668,291.780 201.200,292.000 201.200 C 292.220 201.200,292.400 200.660,292.400 200.000 C 292.400 199.340,292.580 198.800,292.800 198.800 C 293.020 198.800,293.200 198.271,293.200 197.624 C 293.200 196.977,293.380 196.336,293.600 196.200 C 293.820 196.064,294.000 195.333,294.000 194.576 C 294.000 193.819,294.180 193.200,294.400 193.200 C 294.620 193.200,294.800 192.761,294.800 192.224 C 294.800 191.687,294.980 191.136,295.200 191.000 C 295.420 190.864,295.600 190.144,295.600 189.400 C 295.600 188.656,295.780 187.936,296.000 187.800 C 296.220 187.664,296.400 186.753,296.400 185.776 C 296.400 184.799,296.580 184.000,296.800 184.000 C 297.020 184.000,297.200 183.291,297.200 182.424 C 297.200 181.557,297.380 180.736,297.600 180.600 C 297.820 180.464,298.000 179.553,298.000 178.576 C 298.000 177.599,298.180 176.800,298.400 176.800 C 298.628 176.800,298.800 175.608,298.800 174.024 C 298.800 172.497,298.980 171.136,299.200 171.000 C 299.420 170.864,299.600 169.514,299.600 168.000 C 299.600 166.486,299.780 165.136,300.000 165.000 C 300.255 164.842,300.400 159.337,300.400 149.800 C 300.400 140.263,300.255 134.758,300.000 134.600 C 299.780 134.464,299.600 133.294,299.600 132.000 C 299.600 130.706,299.420 129.536,299.200 129.400 C 298.980 129.264,298.800 128.094,298.800 126.800 C 298.800 125.506,298.620 124.336,298.400 124.200 C 298.180 124.064,298.000 122.883,298.000 121.576 C 298.000 120.259,297.822 119.200,297.600 119.200 C 297.380 119.200,297.200 118.480,297.200 117.600 C 297.200 116.720,297.020 116.000,296.800 116.000 C 296.580 116.000,296.400 115.381,296.400 114.624 C 296.400 113.867,296.220 113.136,296.000 113.000 C 295.780 112.864,295.600 112.133,295.600 111.376 C 295.600 110.619,295.420 110.000,295.200 110.000 C 294.980 110.000,294.800 109.381,294.800 108.624 C 294.800 107.867,294.620 107.136,294.400 107.000 C 294.180 106.864,294.000 106.223,294.000 105.576 C 294.000 104.929,293.820 104.400,293.600 104.400 C 293.380 104.400,293.200 103.860,293.200 103.200 C 293.200 102.540,293.020 102.000,292.800 102.000 C 292.580 102.000,292.400 101.550,292.400 101.000 C 292.400 100.450,292.240 100.000,292.045 100.000 C 291.850 100.000,291.570 99.194,291.422 98.209 C 291.275 97.224,291.020 96.336,290.856 96.235 C 290.692 96.133,290.310 95.139,290.007 94.025 C 289.704 92.911,289.308 92.000,289.128 92.000 C 288.947 92.000,288.800 91.730,288.800 91.400 C 288.800 91.070,288.080 89.316,287.200 87.502 C 286.320 85.688,285.600 83.978,285.600 83.702 C 285.600 83.426,285.420 83.200,285.200 83.200 C 284.980 83.200,284.800 82.840,284.800 82.400 C 284.800 81.960,284.620 81.600,284.400 81.600 C 284.180 81.600,284.000 81.240,284.000 80.800 C 284.000 80.360,283.864 80.000,283.698 80.000 C 283.531 80.000,283.136 79.415,282.820 78.700 C 282.503 77.985,281.920 77.051,281.522 76.625 C 281.125 76.198,280.800 75.613,280.800 75.325 C 280.800 75.036,280.620 74.800,280.400 74.800 C 280.180 74.800,280.000 74.480,280.000 74.088 C 280.000 73.697,279.640 73.117,279.200 72.800 C 278.760 72.483,278.400 71.903,278.400 71.512 C 278.400 71.120,278.220 70.800,278.000 70.800 C 277.780 70.800,277.600 70.480,277.600 70.088 C 277.600 69.697,277.240 69.117,276.800 68.800 C 276.360 68.483,276.000 67.918,276.000 67.545 C 276.000 67.172,275.865 66.807,275.700 66.733 C 275.535 66.660,275.113 66.060,274.763 65.400 C 274.413 64.740,273.905 64.249,273.633 64.310 C 273.362 64.370,273.236 64.265,273.353 64.077 C 273.661 63.578,271.629 60.735,271.169 61.019 C 270.955 61.151,270.806 61.111,270.837 60.930 C 270.975 60.137,270.727 59.642,269.600 58.463 C 268.940 57.772,268.400 57.047,268.400 56.852 C 268.400 56.656,267.724 55.800,266.898 54.948 C 266.072 54.097,264.953 52.770,264.411 52.000 C 263.139 50.193,249.834 36.891,248.000 35.594 C 247.230 35.050,245.903 33.928,245.052 33.102 C 244.200 32.276,243.344 31.600,243.148 31.600 C 242.953 31.600,242.228 31.060,241.537 30.400 C 240.373 29.287,239.872 29.031,239.100 29.153 C 238.935 29.179,238.845 28.992,238.900 28.737 C 238.955 28.482,238.473 27.987,237.829 27.637 C 237.185 27.287,236.123 26.505,235.470 25.900 C 234.816 25.295,234.038 24.800,233.741 24.800 C 233.443 24.800,233.200 24.620,233.200 24.400 C 233.200 24.180,232.880 24.000,232.488 24.000 C 232.097 24.000,231.517 23.640,231.200 23.200 C 230.883 22.760,230.303 22.400,229.912 22.400 C 229.520 22.400,229.200 22.220,229.200 22.000 C 229.200 21.780,228.880 21.600,228.488 21.600 C 228.097 21.600,227.517 21.240,227.200 20.800 C 226.883 20.360,226.303 20.000,225.912 20.000 C 225.520 20.000,225.200 19.820,225.200 19.600 C 225.200 19.380,225.012 19.200,224.783 19.200 C 224.554 19.200,223.980 18.840,223.508 18.400 C 223.036 17.960,222.413 17.600,222.125 17.600 C 221.836 17.600,221.600 17.420,221.600 17.200 C 221.600 16.980,221.240 16.800,220.800 16.800 C 220.360 16.800,220.000 16.620,220.000 16.400 C 220.000 16.180,219.640 16.000,219.200 16.000 C 218.760 16.000,218.400 15.820,218.400 15.600 C 218.400 15.380,218.040 15.200,217.600 15.200 C 217.160 15.200,216.800 15.020,216.800 14.800 C 216.800 14.580,216.547 14.400,216.238 14.400 C 215.929 14.400,214.984 14.046,214.138 13.613 C 210.111 11.552,207.286 10.359,205.909 10.139 C 205.079 10.006,204.400 9.741,204.400 9.549 C 204.400 9.357,203.860 9.200,203.200 9.200 C 202.540 9.200,202.000 9.020,202.000 8.800 C 202.000 8.580,201.550 8.400,201.000 8.400 C 200.450 8.400,200.000 8.220,200.000 8.000 C 200.000 7.780,199.550 7.600,199.000 7.600 C 198.450 7.600,198.000 7.420,198.000 7.200 C 198.000 6.980,197.460 6.800,196.800 6.800 C 196.140 6.800,195.600 6.620,195.600 6.400 C 195.600 6.180,195.071 6.000,194.424 6.000 C 193.777 6.000,193.136 5.820,193.000 5.600 C 192.864 5.380,192.133 5.200,191.376 5.200 C 190.619 5.200,190.000 5.020,190.000 4.800 C 190.000 4.580,189.381 4.400,188.624 4.400 C 187.867 4.400,187.136 4.220,187.000 4.000 C 186.864 3.780,186.133 3.600,185.376 3.600 C 184.619 3.600,184.000 3.420,184.000 3.200 C 184.000 2.980,183.280 2.800,182.400 2.800 C 181.520 2.800,180.800 2.620,180.800 2.400 C 180.800 2.178,179.741 2.000,178.424 2.000 C 177.117 2.000,175.936 1.820,175.800 1.600 C 175.664 1.380,174.498 1.200,173.210 1.200 C 171.691 1.200,170.808 1.024,170.700 0.700 C 170.535 0.205,138.302 -0.149,132.200 0.276 M162.600 39.193 C 163.040 39.397,164.390 39.653,165.600 39.762 C 166.810 39.871,168.880 40.146,170.200 40.374 C 171.520 40.602,173.995 41.006,175.700 41.273 C 177.405 41.540,178.800 41.903,178.800 42.079 C 178.800 42.256,179.430 42.400,180.200 42.400 C 180.970 42.400,181.600 42.580,181.600 42.800 C 181.600 43.020,182.129 43.200,182.776 43.200 C 183.423 43.200,184.064 43.380,184.200 43.600 C 184.336 43.820,184.887 44.000,185.424 44.000 C 185.961 44.000,186.400 44.180,186.400 44.400 C 186.400 44.620,186.940 44.800,187.600 44.800 C 188.260 44.800,188.800 44.980,188.800 45.200 C 188.800 45.420,189.340 45.600,190.000 45.600 C 190.660 45.600,191.200 45.780,191.200 46.000 C 191.200 46.220,191.560 46.400,192.000 46.400 C 192.440 46.400,192.800 46.580,192.800 46.800 C 192.800 47.020,193.250 47.200,193.800 47.200 C 194.350 47.200,194.800 47.380,194.800 47.600 C 194.800 47.820,195.160 48.000,195.600 48.000 C 196.040 48.000,196.400 48.180,196.400 48.400 C 196.400 48.620,196.760 48.800,197.200 48.800 C 197.640 48.800,198.000 48.980,198.000 49.200 C 198.000 49.420,198.360 49.600,198.800 49.600 C 199.240 49.600,199.600 49.780,199.600 50.000 C 199.600 50.220,199.960 50.400,200.400 50.400 C 200.840 50.400,201.200 50.580,201.200 50.800 C 201.200 51.020,201.560 51.200,202.000 51.200 C 202.440 51.200,202.800 51.380,202.800 51.600 C 202.800 51.820,203.078 52.000,203.417 52.000 C 203.756 52.000,204.420 52.360,204.892 52.800 C 205.364 53.240,205.987 53.600,206.275 53.600 C 206.564 53.600,206.800 53.780,206.800 54.000 C 206.800 54.220,207.078 54.400,207.417 54.400 C 207.756 54.400,208.389 54.731,208.823 55.136 C 209.258 55.541,210.105 56.121,210.707 56.426 C 211.308 56.731,212.309 57.389,212.931 57.890 C 213.553 58.390,214.278 58.800,214.542 58.800 C 214.807 58.800,215.283 59.160,215.600 59.600 C 215.917 60.040,216.407 60.400,216.688 60.400 C 216.970 60.400,217.200 60.580,217.200 60.800 C 217.200 61.020,217.430 61.200,217.712 61.200 C 217.993 61.200,218.483 61.560,218.800 62.000 C 219.117 62.440,219.580 62.800,219.829 62.800 C 220.291 62.800,226.236 68.265,229.550 71.738 C 230.568 72.805,232.705 75.028,234.300 76.679 C 235.895 78.331,237.200 79.894,237.200 80.153 C 237.200 80.412,237.560 80.883,238.000 81.200 C 238.440 81.517,238.800 81.980,238.800 82.229 C 238.800 82.478,239.340 83.246,240.000 83.937 C 240.660 84.628,241.200 85.374,241.200 85.596 C 241.200 85.818,241.380 86.000,241.600 86.000 C 241.820 86.000,242.000 86.204,242.000 86.453 C 242.000 86.702,242.331 87.197,242.736 87.553 C 243.141 87.909,243.584 88.654,243.721 89.208 C 243.857 89.762,244.336 90.610,244.785 91.091 C 245.233 91.573,245.600 92.244,245.600 92.583 C 245.600 92.922,245.758 93.200,245.951 93.200 C 246.145 93.200,246.527 93.740,246.800 94.400 C 247.073 95.060,247.455 95.600,247.649 95.600 C 247.842 95.600,248.000 95.960,248.000 96.400 C 248.000 96.840,248.180 97.200,248.400 97.200 C 248.620 97.200,248.800 97.560,248.800 98.000 C 248.800 98.440,248.980 98.800,249.200 98.800 C 249.420 98.800,249.600 99.160,249.600 99.600 C 249.600 100.040,249.780 100.400,250.000 100.400 C 250.220 100.400,250.400 100.760,250.400 101.200 C 250.400 101.640,250.580 102.000,250.800 102.000 C 251.020 102.000,251.200 102.360,251.200 102.800 C 251.200 103.240,251.380 103.600,251.600 103.600 C 251.820 103.600,252.000 103.949,252.000 104.376 C 252.000 104.803,252.180 105.264,252.400 105.400 C 252.620 105.536,252.800 105.997,252.800 106.424 C 252.800 106.851,252.980 107.200,253.200 107.200 C 253.420 107.200,253.600 107.560,253.600 108.000 C 253.600 108.440,253.780 108.800,254.000 108.800 C 254.220 108.800,254.400 109.340,254.400 110.000 C 254.400 110.660,254.580 111.200,254.800 111.200 C 255.020 111.200,255.200 111.740,255.200 112.400 C 255.200 113.060,255.380 113.600,255.600 113.600 C 255.820 113.600,256.000 114.140,256.000 114.800 C 256.000 115.460,256.180 116.000,256.400 116.000 C 256.620 116.000,256.800 116.540,256.800 117.200 C 256.800 117.860,256.980 118.400,257.200 118.400 C 257.420 118.400,257.600 119.019,257.600 119.776 C 257.600 120.533,257.780 121.264,258.000 121.400 C 258.220 121.536,258.400 122.267,258.400 123.024 C 258.400 123.781,258.580 124.400,258.800 124.400 C 259.020 124.400,259.200 125.120,259.200 126.000 C 259.200 126.880,259.350 127.600,259.533 127.600 C 260.453 127.600,261.534 147.231,261.120 156.400 C 260.790 163.717,259.989 172.117,259.595 172.400 C 259.442 172.510,259.301 173.226,259.282 173.992 C 259.264 174.758,259.057 175.448,258.824 175.525 C 258.591 175.603,258.400 176.372,258.400 177.233 C 258.400 178.095,258.220 178.800,258.000 178.800 C 257.780 178.800,257.600 179.430,257.600 180.200 C 257.600 180.970,257.420 181.600,257.200 181.600 C 256.980 181.600,256.800 182.129,256.800 182.776 C 256.800 183.423,256.620 184.064,256.400 184.200 C 256.180 184.336,256.000 184.887,256.000 185.424 C 256.000 185.961,255.820 186.400,255.600 186.400 C 255.380 186.400,255.200 186.940,255.200 187.600 C 255.200 188.260,255.020 188.800,254.800 188.800 C 254.580 188.800,254.400 189.340,254.400 190.000 C 254.400 190.660,254.220 191.200,254.000 191.200 C 253.780 191.200,253.600 191.560,253.600 192.000 C 253.600 192.440,253.420 192.800,253.200 192.800 C 252.980 192.800,252.800 193.250,252.800 193.800 C 252.800 194.350,252.620 194.800,252.400 194.800 C 252.180 194.800,252.000 195.160,252.000 195.600 C 252.000 196.040,251.820 196.400,251.600 196.400 C 251.380 196.400,251.200 196.760,251.200 197.200 C 251.200 197.640,251.020 198.000,250.800 198.000 C 250.580 198.000,250.400 198.360,250.400 198.800 C 250.400 199.240,250.220 199.600,250.000 199.600 C 249.780 199.600,249.600 199.960,249.600 200.400 C 249.600 200.840,249.420 201.200,249.200 201.200 C 248.980 201.200,248.800 201.560,248.800 202.000 C 248.800 202.440,248.620 202.800,248.400 202.800 C 248.180 202.800,248.000 203.160,248.000 203.600 C 248.000 204.040,247.865 204.400,247.699 204.400 C 247.534 204.400,246.953 205.255,246.409 206.300 C 245.865 207.345,245.321 208.290,245.201 208.400 C 244.668 208.886,243.600 210.820,243.600 211.298 C 243.600 211.587,243.240 212.083,242.800 212.400 C 242.360 212.717,242.000 213.207,242.000 213.488 C 242.000 213.770,241.820 214.000,241.600 214.000 C 241.380 214.000,241.200 214.230,241.200 214.512 C 241.200 214.793,240.840 215.283,240.400 215.600 C 239.960 215.917,239.600 216.407,239.600 216.688 C 239.600 216.970,239.420 217.200,239.200 217.200 C 238.980 217.200,238.800 217.430,238.800 217.712 C 238.800 217.993,238.440 218.483,238.000 218.800 C 237.560 219.117,237.200 219.580,237.200 219.829 C 237.200 220.291,231.735 226.236,228.262 229.550 C 227.195 230.568,224.972 232.705,223.321 234.300 C 221.669 235.895,220.106 237.200,219.847 237.200 C 219.588 237.200,219.117 237.560,218.800 238.000 C 218.483 238.440,217.993 238.800,217.712 238.800 C 217.430 238.800,217.200 238.980,217.200 239.200 C 217.200 239.420,216.970 239.600,216.688 239.600 C 216.407 239.600,215.917 239.960,215.600 240.400 C 215.283 240.840,214.793 241.200,214.512 241.200 C 214.230 241.200,214.000 241.380,214.000 241.600 C 214.000 241.820,213.770 242.000,213.488 242.000 C 213.207 242.000,212.717 242.360,212.400 242.800 C 212.083 243.240,211.587 243.600,211.298 243.600 C 210.820 243.600,208.886 244.668,208.400 245.201 C 208.290 245.321,207.345 245.865,206.300 246.409 C 205.255 246.953,204.400 247.534,204.400 247.699 C 204.400 247.865,204.040 248.000,203.600 248.000 C 203.160 248.000,202.800 248.180,202.800 248.400 C 202.800 248.620,202.440 248.800,202.000 248.800 C 201.560 248.800,201.200 248.980,201.200 249.200 C 201.200 249.420,200.840 249.600,200.400 249.600 C 199.960 249.600,199.600 249.780,199.600 250.000 C 199.600 250.220,199.240 250.400,198.800 250.400 C 198.360 250.400,198.000 250.580,198.000 250.800 C 198.000 251.020,197.640 251.200,197.200 251.200 C 196.760 251.200,196.400 251.380,196.400 251.600 C 196.400 251.820,196.040 252.000,195.600 252.000 C 195.160 252.000,194.800 252.180,194.800 252.400 C 194.800 252.620,194.350 252.800,193.800 252.800 C 193.250 252.800,192.800 252.980,192.800 253.200 C 192.800 253.420,192.440 253.600,192.000 253.600 C 191.560 253.600,191.200 253.780,191.200 254.000 C 191.200 254.220,190.660 254.400,190.000 254.400 C 189.340 254.400,188.800 254.580,188.800 254.800 C 188.800 255.020,188.260 255.200,187.600 255.200 C 186.940 255.200,186.400 255.380,186.400 255.600 C 186.400 255.820,185.961 256.000,185.424 256.000 C 184.887 256.000,184.336 256.180,184.200 256.400 C 184.064 256.620,183.423 256.800,182.776 256.800 C 182.129 256.800,181.600 256.980,181.600 257.200 C 181.600 257.420,180.970 257.600,180.200 257.600 C 179.430 257.600,178.800 257.780,178.800 258.000 C 178.800 258.220,178.095 258.400,177.233 258.400 C 176.372 258.400,175.603 258.591,175.525 258.824 C 175.448 259.057,174.758 259.264,173.992 259.282 C 173.226 259.301,172.510 259.442,172.400 259.595 C 172.117 259.989,163.717 260.790,156.400 261.120 C 147.231 261.534,127.600 260.453,127.600 259.533 C 127.600 259.350,126.880 259.200,126.000 259.200 C 125.120 259.200,124.400 259.020,124.400 258.800 C 124.400 258.580,123.781 258.400,123.024 258.400 C 122.267 258.400,121.536 258.220,121.400 258.000 C 121.264 257.780,120.533 257.600,119.776 257.600 C 119.019 257.600,118.400 257.420,118.400 257.200 C 118.400 256.980,117.860 256.800,117.200 256.800 C 116.540 256.800,116.000 256.620,116.000 256.400 C 116.000 256.180,115.460 256.000,114.800 256.000 C 114.140 256.000,113.600 255.820,113.600 255.600 C 113.600 255.380,113.060 255.200,112.400 255.200 C 111.740 255.200,111.200 255.020,111.200 254.800 C 111.200 254.580,110.660 254.400,110.000 254.400 C 109.340 254.400,108.800 254.220,108.800 254.000 C 108.800 253.780,108.440 253.600,108.000 253.600 C 107.560 253.600,107.200 253.420,107.200 253.200 C 107.200 252.980,106.851 252.800,106.424 252.800 C 105.997 252.800,105.536 252.620,105.400 252.400 C 105.264 252.180,104.803 252.000,104.376 252.000 C 103.949 252.000,103.600 251.820,103.600 251.600 C 103.600 251.380,103.240 251.200,102.800 251.200 C 102.360 251.200,102.000 251.020,102.000 250.800 C 102.000 250.580,101.640 250.400,101.200 250.400 C 100.760 250.400,100.400 250.220,100.400 250.000 C 100.400 249.780,100.040 249.600,99.600 249.600 C 99.160 249.600,98.800 249.420,98.800 249.200 C 98.800 248.980,98.440 248.800,98.000 248.800 C 97.560 248.800,97.200 248.620,97.200 248.400 C 97.200 248.180,96.840 248.000,96.400 248.000 C 95.960 248.000,95.600 247.842,95.600 247.649 C 95.600 247.455,95.060 247.073,94.400 246.800 C 93.740 246.527,93.200 246.145,93.200 245.951 C 93.200 245.758,92.922 245.600,92.583 245.600 C 92.244 245.600,91.573 245.233,91.091 244.785 C 90.610 244.336,89.762 243.857,89.208 243.721 C 88.654 243.584,87.909 243.141,87.553 242.736 C 87.197 242.331,86.702 242.000,86.453 242.000 C 86.204 242.000,86.000 241.820,86.000 241.600 C 86.000 241.380,85.818 241.200,85.596 241.200 C 85.374 241.200,84.628 240.660,83.937 240.000 C 83.246 239.340,82.478 238.800,82.229 238.800 C 81.980 238.800,81.517 238.440,81.200 238.000 C 80.883 237.560,80.412 237.200,80.153 237.200 C 79.894 237.200,78.331 235.895,76.679 234.300 C 75.028 232.705,72.805 230.568,71.738 229.550 C 68.265 226.236,62.800 220.291,62.800 219.829 C 62.800 219.580,62.440 219.117,62.000 218.800 C 61.560 218.483,61.200 217.993,61.200 217.712 C 61.200 217.430,61.020 217.200,60.800 217.200 C 60.580 217.200,60.400 216.970,60.400 216.688 C 60.400 216.407,60.040 215.917,59.600 215.600 C 59.160 215.283,58.800 214.807,58.800 214.542 C 58.800 214.278,58.390 213.553,57.890 212.931 C 57.389 212.309,56.731 211.308,56.426 210.707 C 56.121 210.105,55.541 209.258,55.136 208.823 C 54.731 208.389,54.400 207.756,54.400 207.417 C 54.400 207.078,54.220 206.800,54.000 206.800 C 53.780 206.800,53.600 206.564,53.600 206.275 C 53.600 205.987,53.240 205.364,52.800 204.892 C 52.360 204.420,52.000 203.756,52.000 203.417 C 52.000 203.078,51.820 202.800,51.600 202.800 C 51.380 202.800,51.200 202.440,51.200 202.000 C 51.200 201.560,51.020 201.200,50.800 201.200 C 50.580 201.200,50.400 200.840,50.400 200.400 C 50.400 199.960,50.220 199.600,50.000 199.600 C 49.780 199.600,49.600 199.240,49.600 198.800 C 49.600 198.360,49.420 198.000,49.200 198.000 C 48.980 198.000,48.800 197.640,48.800 197.200 C 48.800 196.760,48.620 196.400,48.400 196.400 C 48.180 196.400,48.000 196.040,48.000 195.600 C 48.000 195.160,47.820 194.800,47.600 194.800 C 47.380 194.800,47.200 194.350,47.200 193.800 C 47.200 193.250,47.020 192.800,46.800 192.800 C 46.580 192.800,46.400 192.440,46.400 192.000 C 46.400 191.560,46.220 191.200,46.000 191.200 C 45.780 191.200,45.600 190.660,45.600 190.000 C 45.600 189.340,45.420 188.800,45.200 188.800 C 44.980 188.800,44.800 188.260,44.800 187.600 C 44.800 186.940,44.620 186.400,44.400 186.400 C 44.180 186.400,44.000 185.961,44.000 185.424 C 44.000 184.887,43.820 184.336,43.600 184.200 C 43.380 184.064,43.200 183.423,43.200 182.776 C 43.200 182.129,43.020 181.600,42.800 181.600 C 42.580 181.600,42.400 180.970,42.400 180.200 C 42.400 179.430,42.256 178.800,42.079 178.800 C 41.903 178.800,41.540 177.405,41.273 175.700 C 41.006 173.995,40.601 171.520,40.372 170.200 C 40.143 168.880,39.858 166.720,39.740 165.400 C 39.621 164.080,39.357 162.796,39.152 162.548 C 38.663 161.951,38.663 138.049,39.152 137.452 C 39.357 137.204,39.621 135.920,39.740 134.600 C 40.104 130.553,41.665 121.796,42.100 121.365 C 42.265 121.201,42.400 120.467,42.400 119.733 C 42.400 119.000,42.580 118.400,42.800 118.400 C 43.020 118.400,43.200 117.860,43.200 117.200 C 43.200 116.540,43.380 116.000,43.600 116.000 C 43.820 116.000,44.000 115.460,44.000 114.800 C 44.000 114.140,44.180 113.600,44.400 113.600 C 44.620 113.600,44.800 113.060,44.800 112.400 C 44.800 111.740,44.980 111.200,45.200 111.200 C 45.420 111.200,45.600 110.660,45.600 110.000 C 45.600 109.340,45.780 108.800,46.000 108.800 C 46.220 108.800,46.400 108.440,46.400 108.000 C 46.400 107.560,46.580 107.200,46.800 107.200 C 47.020 107.200,47.200 106.851,47.200 106.424 C 47.200 105.997,47.380 105.536,47.600 105.400 C 47.820 105.264,48.000 104.803,48.000 104.376 C 48.000 103.949,48.180 103.600,48.400 103.600 C 48.620 103.600,48.800 103.240,48.800 102.800 C 48.800 102.360,48.980 102.000,49.200 102.000 C 49.420 102.000,49.600 101.640,49.600 101.200 C 49.600 100.760,49.780 100.400,50.000 100.400 C 50.220 100.400,50.400 100.040,50.400 99.600 C 50.400 99.160,50.580 98.800,50.800 98.800 C 51.020 98.800,51.200 98.440,51.200 98.000 C 51.200 97.560,51.380 97.200,51.600 97.200 C 51.820 97.200,52.000 96.922,52.000 96.583 C 52.000 96.244,52.360 95.580,52.800 95.108 C 53.240 94.636,53.600 94.013,53.600 93.725 C 53.600 93.436,53.780 93.200,54.000 93.200 C 54.220 93.200,54.400 92.922,54.400 92.583 C 54.400 92.244,54.731 91.611,55.136 91.177 C 55.541 90.742,56.121 89.895,56.426 89.293 C 56.731 88.692,57.389 87.691,57.890 87.069 C 58.390 86.447,58.800 85.771,58.800 85.566 C 58.800 85.361,59.340 84.628,60.000 83.937 C 60.660 83.246,61.200 82.478,61.200 82.229 C 61.200 81.980,61.560 81.517,62.000 81.200 C 62.440 80.883,62.800 80.413,62.800 80.155 C 62.800 79.159,79.159 62.800,80.155 62.800 C 80.413 62.800,80.883 62.440,81.200 62.000 C 81.517 61.560,81.980 61.200,82.229 61.200 C 82.478 61.200,83.246 60.660,83.937 60.000 C 84.628 59.340,85.361 58.800,85.566 58.800 C 85.771 58.800,86.447 58.390,87.069 57.890 C 87.691 57.389,88.692 56.731,89.293 56.426 C 89.895 56.121,90.742 55.541,91.177 55.136 C 91.611 54.731,92.244 54.400,92.583 54.400 C 92.922 54.400,93.200 54.220,93.200 54.000 C 93.200 53.780,93.436 53.600,93.725 53.600 C 94.013 53.600,94.636 53.240,95.108 52.800 C 95.580 52.360,96.244 52.000,96.583 52.000 C 96.922 52.000,97.200 51.820,97.200 51.600 C 97.200 51.380,97.560 51.200,98.000 51.200 C 98.440 51.200,98.800 51.020,98.800 50.800 C 98.800 50.580,99.160 50.400,99.600 50.400 C 100.040 50.400,100.400 50.220,100.400 50.000 C 100.400 49.780,100.760 49.600,101.200 49.600 C 101.640 49.600,102.000 49.420,102.000 49.200 C 102.000 48.980,102.360 48.800,102.800 48.800 C 103.240 48.800,103.600 48.620,103.600 48.400 C 103.600 48.180,103.949 48.000,104.376 48.000 C 104.803 48.000,105.264 47.820,105.400 47.600 C 105.536 47.380,105.997 47.200,106.424 47.200 C 106.851 47.200,107.200 47.020,107.200 46.800 C 107.200 46.580,107.560 46.400,108.000 46.400 C 108.440 46.400,108.800 46.220,108.800 46.000 C 108.800 45.780,109.340 45.600,110.000 45.600 C 110.660 45.600,111.200 45.420,111.200 45.200 C 111.200 44.980,111.740 44.800,112.400 44.800 C 113.060 44.800,113.600 44.620,113.600 44.400 C 113.600 44.180,114.140 44.000,114.800 44.000 C 115.460 44.000,116.000 43.820,116.000 43.600 C 116.000 43.380,116.540 43.200,117.200 43.200 C 117.860 43.200,118.400 43.020,118.400 42.800 C 118.400 42.580,119.000 42.400,119.733 42.400 C 120.467 42.400,121.201 42.265,121.365 42.100 C 121.786 41.676,130.503 40.113,134.400 39.762 C 135.610 39.653,136.960 39.392,137.400 39.182 C 138.897 38.468,161.058 38.477,162.600 39.193 " stroke="none" fill="#444444" fill-rule="evenodd"></path><path id="path1" d="" stroke="none" fill="#484444" fill-rule="evenodd"></path><path id="path2" d="" stroke="none" fill="#484444" fill-rule="evenodd"></path><path id="path3" d="" stroke="none" fill="#484444" fill-rule="evenodd"></path><path id="path4" d="" stroke="none" fill="#484444" fill-rule="evenodd"></path></g></svg>