<svg id="svg" version="1.1" xmlns="http://www.w3.org/2000/svg" xmlns:xlink="http://www.w3.org/1999/xlink" width="400" height="400" viewBox="0, 0, 400,400"><g id="svgg"><path id="path0" d="M197.500 241.076 C 197.115 241.176,196.800 241.404,196.800 241.581 C 196.800 242.060,194.865 242.729,192.600 243.033 C 190.400 243.329,189.464 243.723,188.233 244.870 C 187.784 245.288,186.962 245.745,186.408 245.884 C 185.106 246.211,182.211 249.106,181.884 250.408 C 181.745 250.962,181.288 251.784,180.870 252.233 C 179.710 253.478,179.306 254.413,178.985 256.600 C 178.629 259.019,178.112 260.483,177.475 260.877 C 176.862 261.256,176.831 266.720,177.440 267.115 C 178.212 267.615,178.711 268.938,178.999 271.244 C 179.191 272.790,179.592 273.847,180.287 274.644 C 180.842 275.280,181.748 276.475,182.301 277.300 C 182.854 278.125,183.445 278.800,183.614 278.800 C 184.543 278.800,184.800 282.008,184.800 293.629 L 184.800 305.939 185.742 307.069 C 186.261 307.691,186.814 308.905,186.973 309.766 C 187.389 312.025,191.503 316.263,193.856 316.856 C 194.793 317.092,196.144 317.716,196.857 318.242 C 198.554 319.494,201.434 319.561,202.931 318.383 C 203.502 317.934,204.831 317.310,205.885 316.997 C 208.507 316.217,212.206 312.504,213.005 309.850 C 213.318 308.810,213.940 307.494,214.387 306.926 C 215.164 305.938,215.200 305.351,215.200 293.772 C 215.200 279.678,215.109 280.066,219.582 275.081 C 220.290 274.292,220.727 273.130,221.061 271.148 C 221.329 269.557,221.853 267.983,222.267 267.526 C 223.269 266.418,223.316 261.659,222.334 260.677 C 221.681 260.024,220.800 256.813,220.800 255.080 C 220.799 254.596,220.347 253.675,219.796 253.033 C 219.244 252.391,218.586 251.180,218.335 250.341 C 218.084 249.502,217.578 248.720,217.211 248.604 C 216.845 248.487,216.165 247.879,215.702 247.252 C 215.238 246.625,214.350 246.009,213.729 245.883 C 213.108 245.758,212.229 245.307,211.775 244.882 C 210.463 243.652,209.440 243.235,207.046 242.954 C 205.648 242.789,204.326 242.336,203.526 241.745 C 202.281 240.827,199.595 240.528,197.500 241.076 " stroke="none" fill="#fcfcfc" fill-rule="evenodd"></path><path id="path1" d="M158.800 0.600 C 158.800 1.082,158.184 1.200,155.656 1.200 C 150.272 1.200,148.780 1.538,148.319 2.860 C 147.938 3.953,147.817 4.000,145.361 4.000 C 143.501 4.000,142.800 4.145,142.800 4.530 C 142.800 5.626,140.998 6.800,139.317 6.800 C 138.055 6.800,137.393 7.073,136.400 8.000 C 135.693 8.660,134.699 9.200,134.190 9.200 C 132.582 9.200,132.000 9.632,132.000 10.824 C 132.000 11.940,131.953 11.964,129.500 12.081 C 127.000 12.200,127.000 12.200,126.875 13.500 C 126.760 14.690,126.633 14.800,125.375 14.800 C 124.128 14.800,124.000 14.907,124.000 15.948 C 124.000 17.031,123.880 17.113,121.910 17.374 C 119.567 17.685,118.800 18.147,118.800 19.249 C 118.800 19.766,118.513 20.000,117.880 20.000 C 116.708 20.000,116.000 20.708,116.000 21.880 C 116.000 22.630,115.784 22.800,114.832 22.800 C 113.865 22.800,113.619 23.002,113.406 23.974 C 113.212 24.856,112.856 25.212,111.974 25.406 C 111.009 25.618,110.800 25.867,110.800 26.806 C 110.800 27.803,110.634 27.965,109.500 28.075 C 108.363 28.184,108.185 28.360,108.076 29.476 C 107.975 30.525,107.762 30.773,106.876 30.876 C 106.029 30.974,105.772 31.241,105.670 32.131 C 105.576 32.955,105.234 33.369,104.411 33.656 C 103.193 34.081,102.814 34.942,102.805 37.300 C 102.800 38.747,102.750 38.800,101.400 38.800 C 100.072 38.800,100.000 38.870,100.000 40.173 C 100.000 41.374,99.862 41.563,98.900 41.673 C 97.878 41.791,97.774 41.977,97.430 44.300 C 97.076 46.689,97.010 46.800,95.930 46.800 C 94.807 46.800,94.800 46.816,94.800 49.375 L 94.800 51.949 93.500 52.075 L 92.200 52.200 92.081 54.714 C 91.966 57.120,91.912 57.238,90.822 57.456 C 89.498 57.720,89.200 58.665,89.200 62.600 C 89.200 65.058,89.180 65.104,88.000 65.340 L 86.800 65.580 86.800 69.540 L 86.800 73.500 85.631 73.734 C 83.986 74.063,83.942 74.750,84.081 98.175 L 84.200 118.149 85.488 118.483 L 86.776 118.817 86.888 123.908 L 87.000 129.000 88.100 129.127 C 89.180 129.251,89.200 129.303,89.200 131.977 C 89.200 136.282,89.487 137.200,90.836 137.200 L 91.971 137.200 92.086 141.100 L 92.200 145.000 93.500 145.125 L 94.800 145.251 94.800 149.183 C 94.800 153.000,94.835 153.153,96.000 154.400 C 96.908 155.372,97.200 156.064,97.200 157.242 L 97.200 158.800 78.631 158.800 L 60.062 158.800 58.862 160.000 C 58.202 160.660,57.302 161.200,56.863 161.200 C 55.387 161.200,54.800 161.660,54.800 162.817 C 54.800 163.802,54.631 163.966,53.500 164.075 C 52.357 164.185,52.185 164.357,52.075 165.500 C 51.966 166.631,51.802 166.800,50.817 166.800 C 49.660 166.800,49.200 167.387,49.200 168.863 C 49.200 169.302,48.660 170.202,48.000 170.862 L 46.800 172.062 46.800 280.031 C 46.800 370.207,46.889 388.000,47.338 388.000 C 48.163 388.000,49.199 389.350,49.205 390.431 C 49.217 392.474,49.641 393.200,50.821 393.200 C 51.802 393.200,51.966 393.370,52.075 394.500 C 52.185 395.643,52.357 395.815,53.500 395.925 C 54.631 396.034,54.800 396.198,54.800 397.183 C 54.800 398.447,55.374 398.800,57.433 398.800 C 58.381 398.800,58.800 398.984,58.800 399.400 C 58.800 399.932,74.756 400.000,200.000 400.000 C 325.244 400.000,341.200 399.932,341.200 399.400 C 341.200 398.984,341.619 398.800,342.567 398.800 C 344.638 398.800,345.200 398.449,345.200 397.157 C 345.200 396.101,345.323 396.000,346.600 396.000 C 347.933 396.000,348.000 395.933,348.000 394.600 C 348.000 393.323,348.101 393.200,349.157 393.200 C 350.439 393.200,350.800 392.636,350.800 390.629 C 350.800 389.341,351.785 388.000,352.731 388.000 C 353.088 388.000,353.200 362.268,353.200 280.031 L 353.200 172.062 352.000 170.862 C 351.340 170.202,350.800 169.302,350.800 168.863 C 350.800 167.387,350.340 166.800,349.183 166.800 C 348.198 166.800,348.034 166.631,347.925 165.500 C 347.815 164.357,347.643 164.185,346.500 164.075 C 345.370 163.966,345.200 163.802,345.200 162.821 C 345.200 161.629,344.475 161.217,342.362 161.205 C 341.310 161.200,340.000 160.126,340.000 159.269 C 340.000 158.912,313.937 158.800,230.625 158.800 L 121.251 158.800 121.125 157.500 C 121.021 156.417,120.817 156.179,119.900 156.073 C 118.802 155.947,118.800 155.940,118.800 152.747 C 118.800 149.089,118.387 148.000,117.000 148.000 C 116.046 148.000,116.027 147.931,115.914 144.100 L 115.800 140.200 114.500 140.075 L 113.200 139.949 113.200 135.975 C 113.200 132.912,113.077 132.000,112.662 132.000 C 111.443 132.000,110.800 130.584,110.800 127.901 C 110.800 124.971,110.556 124.000,109.819 124.000 C 108.486 124.000,108.030 122.607,107.914 118.188 L 107.800 113.806 106.600 113.599 L 105.400 113.392 105.296 96.180 L 105.192 78.968 106.496 78.584 L 107.800 78.200 107.915 74.529 L 108.029 70.857 109.174 70.606 C 110.448 70.326,110.786 69.553,110.795 66.900 C 110.799 65.532,110.940 65.200,111.520 65.200 C 112.729 65.200,113.200 64.337,113.200 62.120 C 113.200 60.293,113.307 60.000,113.971 60.000 C 115.306 60.000,116.000 58.895,116.000 56.771 C 116.000 54.981,116.084 54.800,116.920 54.800 C 118.064 54.800,118.800 54.098,118.800 53.008 C 118.800 52.450,119.196 52.026,120.000 51.722 C 121.134 51.294,121.200 51.148,121.200 49.060 C 121.200 46.860,121.205 46.850,122.500 46.725 C 123.638 46.616,123.815 46.440,123.924 45.324 C 124.031 44.212,124.212 44.031,125.324 43.924 C 126.440 43.815,126.616 43.638,126.725 42.500 C 126.836 41.357,126.992 41.200,128.025 41.200 C 129.058 41.200,129.200 41.058,129.200 40.025 C 129.200 38.992,129.357 38.836,130.500 38.725 C 131.643 38.615,131.815 38.443,131.925 37.300 C 132.043 36.079,132.145 36.000,133.599 36.000 C 135.962 36.000,137.200 35.393,137.200 34.235 C 137.200 33.417,137.419 33.230,138.500 33.125 C 139.567 33.023,139.822 32.811,139.922 31.949 C 140.034 30.981,140.233 30.877,142.436 30.628 C 144.656 30.377,144.845 30.276,145.055 29.226 C 145.265 28.177,145.455 28.075,147.655 27.826 C 149.881 27.574,150.043 27.484,150.264 26.379 C 150.496 25.221,150.546 25.200,153.060 25.200 C 155.584 25.200,155.623 25.183,155.860 24.000 L 156.100 22.800 159.024 22.800 C 162.749 22.800,164.000 22.350,164.000 21.010 L 164.000 20.000 181.392 20.000 L 198.785 20.000 199.028 20.971 C 199.344 22.229,199.923 22.433,203.919 22.697 C 206.863 22.890,207.377 23.045,208.462 24.058 C 209.540 25.065,209.984 25.200,212.217 25.200 L 214.749 25.200 214.875 26.500 C 215.000 27.800,215.000 27.800,217.500 27.919 C 219.953 28.036,220.000 28.060,220.000 29.176 C 220.000 30.335,220.585 30.800,222.043 30.800 C 222.492 30.800,222.972 31.199,223.179 31.745 C 223.562 32.752,224.608 33.186,226.675 33.195 C 227.819 33.199,227.962 33.333,228.075 34.500 C 228.185 35.643,228.357 35.815,229.500 35.925 C 230.638 36.035,230.800 36.195,230.800 37.207 C 230.800 38.209,230.985 38.398,232.177 38.622 C 233.289 38.831,233.578 39.085,233.677 39.940 C 233.771 40.749,234.050 41.029,234.854 41.122 C 235.662 41.216,235.964 41.522,236.146 42.431 C 236.330 43.352,236.653 43.671,237.592 43.858 C 238.585 44.057,238.800 44.296,238.800 45.200 C 238.800 46.095,239.017 46.343,239.964 46.533 C 240.857 46.711,241.191 47.050,241.396 47.983 C 241.618 48.993,241.858 49.200,242.806 49.200 C 243.803 49.200,243.965 49.366,244.075 50.500 C 244.184 51.639,244.359 51.815,245.482 51.924 C 246.757 52.047,246.764 52.059,246.882 54.524 C 246.994 56.864,247.058 57.007,248.051 57.122 C 248.993 57.231,249.131 57.460,249.377 59.312 C 249.685 61.634,250.150 62.400,251.249 62.400 C 251.865 62.400,252.001 62.706,252.005 64.100 C 252.014 66.762,252.351 67.526,253.641 67.809 C 254.773 68.058,254.800 68.123,254.800 70.632 L 254.800 73.200 256.000 73.200 L 257.200 73.200 257.223 76.700 C 257.257 81.852,257.592 83.315,258.804 83.600 C 259.762 83.825,259.804 83.971,259.917 87.396 C 260.042 91.219,260.367 92.000,261.834 92.000 C 262.745 92.000,262.774 92.110,262.886 95.900 L 263.000 99.800 264.100 99.927 C 265.200 100.053,265.200 100.054,265.202 103.327 C 265.205 107.491,265.747 109.502,267.024 110.084 C 267.775 110.426,268.000 110.836,268.000 111.864 C 268.000 113.119,268.083 113.200,269.375 113.200 C 270.633 113.200,270.760 113.310,270.875 114.500 L 271.000 115.800 276.946 115.911 C 283.297 116.029,284.000 115.854,284.000 114.151 C 284.000 113.369,284.205 113.200,285.157 113.200 C 286.751 113.200,286.800 112.942,286.800 104.617 C 286.800 95.511,286.682 94.800,285.164 94.800 L 284.029 94.800 283.914 90.900 L 283.800 87.000 282.500 86.875 L 281.200 86.749 281.160 82.875 C 281.112 78.223,280.854 77.125,279.687 76.605 C 278.938 76.272,278.800 75.892,278.800 74.161 C 278.800 69.861,278.414 68.467,277.148 68.189 L 276.000 67.936 276.000 64.448 C 276.000 60.730,275.692 60.000,274.120 60.000 C 273.254 60.000,273.200 59.846,273.200 57.400 L 273.200 54.800 272.019 54.800 C 270.850 54.800,270.837 54.775,270.719 52.300 C 270.603 49.869,270.565 49.790,269.317 49.422 C 268.076 49.056,268.030 48.966,267.917 46.622 C 267.800 44.210,267.795 44.199,266.500 44.075 C 265.229 43.952,265.200 43.906,265.200 42.003 C 265.200 40.069,264.508 38.800,263.454 38.800 C 263.185 38.800,262.793 38.215,262.583 37.500 C 262.287 36.497,261.949 36.171,261.100 36.073 C 260.189 35.969,260.000 35.752,260.000 34.816 C 260.000 33.667,259.412 33.200,257.967 33.200 C 257.381 33.200,257.200 32.916,257.200 32.000 C 257.200 30.933,257.067 30.800,256.000 30.800 C 254.938 30.800,254.800 30.664,254.800 29.622 C 254.800 28.734,254.532 28.315,253.712 27.922 C 253.113 27.635,252.412 26.976,252.154 26.458 C 251.896 25.940,251.260 25.307,250.742 25.051 C 250.224 24.795,249.622 24.184,249.405 23.693 C 249.137 23.087,248.663 22.800,247.930 22.800 C 247.005 22.800,246.833 22.615,246.725 21.500 C 246.615 20.357,246.443 20.185,245.300 20.075 C 244.169 19.966,244.000 19.802,244.000 18.817 C 244.000 17.674,243.412 17.200,241.994 17.200 C 241.483 17.200,241.214 16.858,241.127 16.100 C 241.005 15.047,240.894 14.995,238.524 14.882 C 236.059 14.764,236.047 14.757,235.924 13.482 C 235.816 12.365,235.636 12.184,234.524 12.076 C 233.475 11.975,233.227 11.762,233.124 10.876 C 233.009 9.882,232.811 9.773,230.521 9.447 C 228.253 9.124,228.033 9.006,227.921 8.047 C 227.805 7.047,227.679 6.995,225.100 6.882 C 222.429 6.765,222.400 6.751,222.400 5.628 C 222.400 4.245,221.736 4.013,217.750 4.005 C 214.934 4.000,214.897 3.986,214.670 2.852 C 214.390 1.449,213.649 1.213,209.500 1.205 C 207.014 1.201,206.400 1.081,206.400 0.600 C 206.400 0.073,203.489 0.000,182.600 0.000 C 161.711 0.000,158.800 0.073,158.800 0.600 M203.402 240.484 C 204.104 241.301,204.754 241.518,207.164 241.742 C 210.446 242.047,211.433 242.442,211.800 243.600 C 211.976 244.155,212.405 244.400,213.201 244.400 C 214.924 244.400,216.451 245.110,216.690 246.021 C 216.806 246.467,217.406 247.093,218.022 247.412 C 219.174 248.007,219.356 248.364,219.772 250.839 C 219.936 251.819,220.312 252.414,220.950 252.704 C 221.996 253.181,222.400 254.570,222.400 257.690 C 222.400 259.384,222.578 259.845,223.600 260.800 C 225.570 262.640,225.001 268.000,222.836 268.000 C 222.653 268.000,222.419 269.445,222.317 271.212 C 222.142 274.229,222.048 274.505,220.765 275.769 C 220.014 276.509,219.220 277.321,219.000 277.573 C 218.780 277.826,218.240 278.281,217.800 278.584 C 217.034 279.111,216.992 279.703,216.800 292.667 C 216.596 306.471,216.497 307.388,215.163 307.812 C 214.582 307.996,214.400 308.431,214.400 309.638 C 214.400 311.209,213.863 312.036,210.949 314.949 C 208.036 317.863,207.209 318.400,205.638 318.400 C 204.449 318.400,203.995 318.584,203.819 319.139 C 203.182 321.147,198.531 321.453,196.800 319.600 C 195.948 318.687,195.327 318.400,194.208 318.400 C 192.795 318.400,191.804 317.711,189.112 314.857 C 188.830 314.558,188.024 313.743,187.319 313.046 C 186.437 312.173,185.950 311.229,185.756 310.016 C 185.570 308.850,185.123 307.952,184.437 307.362 L 183.400 306.471 183.172 292.535 C 183.047 284.871,182.912 278.575,182.872 278.543 C 182.832 278.512,182.392 278.384,181.894 278.259 C 181.366 278.127,180.796 277.524,180.528 276.816 C 180.276 276.147,179.827 275.600,179.531 275.600 C 178.607 275.600,178.018 274.133,177.740 271.137 C 177.514 268.711,177.306 268.109,176.436 267.360 C 174.893 266.033,174.900 261.936,176.447 260.662 C 177.338 259.928,177.531 259.374,177.746 256.934 C 178.056 253.419,178.203 253.018,179.366 252.488 C 180.084 252.161,180.336 251.648,180.502 250.174 C 180.638 248.964,180.964 248.140,181.403 247.894 C 182.283 247.402,183.402 246.283,183.894 245.403 C 184.140 244.964,184.964 244.638,186.174 244.502 C 187.648 244.336,188.161 244.084,188.488 243.366 C 189.022 242.194,189.469 242.035,193.077 241.730 C 195.418 241.532,196.122 241.320,196.444 240.717 C 197.419 238.896,201.906 238.746,203.402 240.484 " stroke="none" fill="#040404" fill-rule="evenodd"></path><path id="path2" d="" stroke="none" fill="#c010080" fill-rule="evenodd"></path><path id="path3" d="M196.681 240.546 C 195.963 241.317,195.223 241.545,192.686 241.781 C 189.902 242.040,189.484 242.190,188.743 243.191 C 188.173 243.962,187.421 244.390,186.329 244.565 C 184.104 244.921,180.921 248.104,180.565 250.329 C 180.390 251.421,179.962 252.173,179.191 252.743 C 178.190 253.484,178.040 253.902,177.781 256.686 C 177.545 259.223,177.317 259.963,176.546 260.681 C 175.159 261.973,175.165 266.002,176.557 267.393 C 177.317 268.153,177.571 268.952,177.793 271.275 C 178.036 273.830,178.231 274.363,179.336 275.490 C 180.031 276.199,180.915 277.144,181.300 277.590 C 181.685 278.035,182.202 278.400,182.449 278.400 C 182.695 278.400,182.042 277.399,180.998 276.177 C 179.395 274.300,179.017 273.529,178.581 271.239 C 178.296 269.746,177.690 267.911,177.233 267.162 C 176.165 265.409,176.139 262.634,177.175 260.935 C 177.599 260.239,178.164 258.529,178.430 257.135 C 178.712 255.656,179.473 253.680,180.257 252.392 C 180.996 251.178,181.600 250.030,181.600 249.841 C 181.600 249.365,185.309 245.623,185.792 245.610 C 186.008 245.605,187.178 244.996,188.392 244.257 C 189.680 243.473,191.656 242.712,193.135 242.430 C 194.529 242.164,196.239 241.599,196.935 241.175 C 198.601 240.158,201.410 240.165,203.090 241.190 C 203.800 241.623,205.600 242.196,207.090 242.463 C 208.601 242.735,210.331 243.342,211.000 243.836 C 211.660 244.323,212.877 245.001,213.705 245.342 C 215.522 246.092,218.800 249.313,218.800 250.348 C 218.800 250.757,219.165 251.556,219.611 252.123 C 220.714 253.526,221.447 255.422,221.781 257.741 C 221.935 258.808,222.407 260.248,222.829 260.941 C 223.843 262.603,223.856 265.711,222.856 267.138 C 222.447 267.722,221.882 269.437,221.602 270.948 C 221.259 272.792,220.747 274.108,220.044 274.948 C 215.522 280.355,215.682 279.635,215.634 294.881 C 215.601 305.118,215.349 307.600,214.341 307.600 C 214.158 307.600,213.890 308.365,213.744 309.300 C 213.353 311.803,207.803 317.353,205.300 317.744 C 204.365 317.890,203.600 318.158,203.600 318.341 C 203.600 319.682,198.633 320.013,197.060 318.776 C 196.484 318.323,195.350 317.844,194.541 317.713 C 192.248 317.341,187.396 312.555,186.602 309.883 C 186.273 308.774,185.688 307.518,185.302 307.092 C 184.672 306.397,184.580 304.972,184.400 293.173 C 184.214 280.972,184.146 279.976,183.448 279.314 C 182.720 278.623,182.705 278.633,182.998 279.600 C 183.165 280.150,183.414 286.506,183.551 293.724 C 183.795 306.583,183.818 306.861,184.671 307.524 C 185.249 307.973,185.636 308.854,185.823 310.149 C 186.052 311.725,186.324 312.222,187.250 312.749 C 187.880 313.107,188.396 313.559,188.397 313.753 C 188.405 314.822,192.513 318.091,194.119 318.306 C 195.258 318.459,196.142 318.897,196.860 319.666 C 197.762 320.630,198.233 320.800,200.000 320.800 C 201.767 320.800,202.238 320.630,203.140 319.666 C 203.859 318.896,204.742 318.459,205.884 318.306 C 208.387 317.971,213.979 312.370,214.293 309.884 C 214.440 308.720,214.829 307.934,215.553 307.339 L 216.600 306.477 216.800 292.826 L 217.000 279.176 218.300 278.159 C 219.015 277.600,219.600 276.943,219.600 276.700 C 219.600 276.457,220.149 275.795,220.820 275.229 C 221.922 274.300,222.064 273.910,222.286 271.200 C 222.500 268.585,222.677 268.064,223.666 267.140 C 225.350 265.564,225.318 262.404,223.600 260.800 C 222.587 259.853,222.400 259.377,222.398 257.740 C 222.395 255.013,221.732 252.896,220.788 252.596 C 220.240 252.422,219.920 251.843,219.736 250.689 C 219.541 249.472,219.009 248.563,217.735 247.271 C 216.781 246.303,216.000 245.371,216.000 245.201 C 216.000 245.030,215.166 244.766,214.147 244.613 C 212.811 244.413,212.027 244.018,211.339 243.201 C 210.502 242.205,210.016 242.032,207.361 241.783 C 204.941 241.557,204.146 241.310,203.386 240.550 C 202.002 239.165,197.969 239.163,196.681 240.546 " stroke="none" fill="#408480" fill-rule="evenodd"></path><path id="path4" d="M199.100 239.482 C 199.595 239.578,200.405 239.578,200.900 239.482 C 201.395 239.387,200.990 239.309,200.000 239.309 C 199.010 239.309,198.605 239.387,199.100 239.482 M175.309 264.000 C 175.309 264.990,175.387 265.395,175.482 264.900 C 175.578 264.405,175.578 263.595,175.482 263.100 C 175.387 262.605,175.309 263.010,175.309 264.000 M183.376 294.400 C 183.376 300.670,183.432 303.235,183.499 300.100 C 183.567 296.965,183.567 291.835,183.499 288.700 C 183.432 285.565,183.376 288.130,183.376 294.400 " stroke="none" fill="#400484" fill-rule="evenodd"></path></g></svg>