<svg id="svg" version="1.1" xmlns="http://www.w3.org/2000/svg" xmlns:xlink="http://www.w3.org/1999/xlink" width="400" height="400" viewBox="0, 0, 400,400"><g id="svgg"><path id="path0" d="M341.373 238.328 C 341.162 238.478,340.184 239.590,339.200 240.800 C 338.216 242.010,337.308 243.090,337.182 243.200 C 337.056 243.310,335.286 245.425,333.247 247.900 C 331.208 250.375,329.324 252.400,329.059 252.400 C 328.794 252.400,328.240 252.805,327.828 253.300 C 327.415 253.795,326.340 255.018,325.439 256.018 C 322.919 258.813,321.872 260.076,320.811 261.600 C 320.276 262.370,318.883 264.003,317.717 265.230 C 316.551 266.456,314.887 268.436,314.020 269.630 C 313.152 270.823,312.118 272.160,311.721 272.600 C 311.325 273.040,310.010 274.564,308.800 275.987 C 307.590 277.409,306.285 278.928,305.900 279.362 C 305.515 279.796,305.200 280.299,305.200 280.479 C 305.200 280.660,304.639 281.391,303.953 282.104 C 301.839 284.303,298.590 288.129,297.590 289.600 C 297.066 290.370,296.359 291.270,296.019 291.600 C 295.062 292.528,292.709 295.286,291.600 296.780 C 291.050 297.520,290.420 298.328,290.200 298.573 C 289.980 298.818,288.815 300.185,287.610 301.610 C 286.406 303.034,285.319 304.290,285.193 304.400 C 285.068 304.510,284.121 305.680,283.089 307.000 C 282.057 308.320,280.894 309.761,280.506 310.203 C 280.118 310.644,278.990 311.994,278.000 313.202 C 277.010 314.409,275.840 315.772,275.400 316.229 C 274.960 316.687,274.150 317.665,273.600 318.402 C 272.305 320.138,270.806 321.977,269.800 323.062 C 269.360 323.537,268.721 324.294,268.381 324.744 C 263.142 331.675,260.821 332.060,255.384 326.900 C 255.094 326.625,254.757 326.400,254.635 326.400 C 254.404 326.400,253.490 325.607,249.682 322.100 C 248.427 320.945,247.240 320.000,247.044 320.000 C 246.847 320.000,246.172 319.462,245.543 318.804 C 244.914 318.146,244.400 317.718,244.400 317.854 C 244.400 318.094,241.341 315.307,240.060 313.900 C 239.709 313.515,239.259 313.200,239.060 313.200 C 238.733 313.200,237.942 312.564,234.293 309.369 C 233.684 308.836,233.082 308.400,232.954 308.400 C 232.826 308.400,232.244 307.904,231.660 307.299 C 231.077 306.693,229.970 305.728,229.200 305.154 C 228.430 304.580,227.196 303.545,226.458 302.855 C 225.719 302.165,224.999 301.597,224.858 301.594 C 224.612 301.588,223.339 300.525,220.511 297.967 C 218.469 296.120,217.674 296.378,215.178 299.699 C 213.980 301.293,212.370 303.290,211.600 304.137 C 210.830 304.984,209.840 306.136,209.400 306.698 C 208.960 307.260,208.195 308.134,207.700 308.642 C 207.205 309.149,206.800 309.752,206.800 309.982 C 206.800 310.212,206.620 310.400,206.400 310.400 C 206.180 310.400,206.000 310.582,206.000 310.804 C 206.000 311.026,205.435 311.791,204.744 312.504 C 203.715 313.566,198.412 319.901,197.297 321.400 C 196.227 322.839,193.348 326.223,193.100 326.333 C 192.935 326.407,192.800 326.722,192.800 327.033 C 192.800 327.345,192.620 327.600,192.400 327.600 C 192.180 327.600,192.000 327.870,192.000 328.200 C 192.000 328.530,192.152 328.800,192.337 328.800 C 192.523 328.800,193.288 329.334,194.037 329.986 C 194.787 330.639,196.750 332.281,198.400 333.635 C 200.050 334.990,201.940 336.572,202.600 337.151 C 203.260 337.730,204.610 338.830,205.600 339.594 C 206.590 340.359,207.877 341.483,208.460 342.092 C 209.044 342.701,209.627 343.200,209.756 343.200 C 209.987 343.200,210.637 343.707,212.734 345.524 C 215.754 348.143,217.627 349.709,219.833 351.464 C 222.094 353.264,225.919 356.460,226.952 357.413 C 227.199 357.640,228.030 358.265,228.800 358.802 C 230.095 359.704,231.312 360.753,234.552 363.758 C 235.238 364.395,236.790 365.638,238.000 366.521 C 239.210 367.404,241.200 369.043,242.423 370.163 C 244.858 372.395,245.513 372.930,247.600 374.393 C 248.370 374.932,249.238 375.605,249.529 375.887 C 249.819 376.169,250.327 376.400,250.657 376.400 C 250.986 376.400,252.008 376.915,252.928 377.544 C 260.208 382.524,271.239 382.380,276.683 377.235 C 277.169 376.776,277.928 376.400,278.369 376.400 C 278.811 376.400,279.387 375.999,279.649 375.508 C 279.912 375.018,280.323 374.394,280.563 374.122 C 280.803 373.850,281.184 373.397,281.410 373.114 C 281.635 372.831,282.985 371.236,284.410 369.568 C 285.834 367.901,287.567 365.831,288.260 364.968 C 288.954 364.106,289.854 363.010,290.260 362.534 C 290.667 362.057,291.344 361.247,291.764 360.734 C 292.185 360.220,292.995 359.248,293.564 358.573 C 294.134 357.898,295.320 356.462,296.200 355.381 C 298.774 352.219,304.141 345.818,304.400 345.600 C 304.531 345.490,305.076 344.770,305.611 344.000 C 306.145 343.230,306.947 342.223,307.391 341.761 C 308.626 340.481,309.961 338.904,312.779 335.400 C 314.194 333.640,315.993 331.470,316.776 330.578 C 319.412 327.576,320.210 326.606,321.199 325.200 C 321.740 324.430,322.547 323.430,322.991 322.977 C 323.436 322.525,325.240 320.388,327.000 318.228 C 328.760 316.068,331.462 312.836,333.005 311.045 C 334.548 309.255,336.256 307.162,336.801 306.395 C 337.346 305.628,338.558 304.190,339.494 303.200 C 340.430 302.210,341.202 301.130,341.210 300.800 C 341.228 300.112,341.635 299.537,344.141 296.668 C 345.135 295.531,346.814 293.504,347.874 292.165 C 352.620 286.164,359.181 278.472,361.132 276.622 C 362.305 275.510,364.579 272.980,366.186 271.000 C 367.793 269.020,369.509 266.950,369.999 266.400 C 371.488 264.730,372.921 262.785,372.756 262.660 C 372.670 262.594,371.970 262.107,371.200 261.576 C 370.430 261.045,369.068 259.888,368.174 259.005 C 367.279 258.122,365.941 256.950,365.201 256.400 C 364.460 255.850,363.372 254.950,362.783 254.400 C 356.412 248.454,353.344 246.000,352.281 246.000 C 351.973 246.000,349.758 244.367,347.360 242.371 C 342.499 238.325,341.924 237.937,341.373 238.328 " stroke="none" fill="#5eff00" fill-rule="evenodd"></path><path id="path1" d="M182.400 0.273 C 180.970 0.366,179.629 0.613,179.420 0.821 C 179.211 1.030,178.266 1.200,177.320 1.200 C 176.374 1.200,175.600 1.380,175.600 1.600 C 175.600 1.820,174.891 2.000,174.024 2.000 C 173.157 2.000,172.336 2.180,172.200 2.400 C 172.064 2.620,171.254 2.800,170.400 2.800 C 169.546 2.800,168.736 2.980,168.600 3.200 C 168.464 3.420,167.913 3.600,167.376 3.600 C 166.839 3.600,166.400 3.780,166.400 4.000 C 166.400 4.220,165.950 4.400,165.400 4.400 C 164.850 4.400,164.400 4.580,164.400 4.800 C 164.400 5.020,163.860 5.200,163.200 5.200 C 162.540 5.200,162.000 5.380,162.000 5.600 C 162.000 5.820,161.550 6.000,161.000 6.000 C 160.450 6.000,160.000 6.180,160.000 6.400 C 160.000 6.620,159.640 6.800,159.200 6.800 C 158.760 6.800,158.400 6.980,158.400 7.200 C 158.400 7.420,158.040 7.600,157.600 7.600 C 157.160 7.600,156.800 7.780,156.800 8.000 C 156.800 8.220,156.440 8.400,156.000 8.400 C 155.560 8.400,155.200 8.580,155.200 8.800 C 155.200 9.020,154.750 9.200,154.200 9.200 C 153.650 9.200,153.200 9.360,153.200 9.555 C 153.200 9.751,152.570 10.029,151.800 10.174 C 151.030 10.318,150.400 10.587,150.400 10.771 C 150.400 10.956,150.085 11.207,149.700 11.329 C 149.013 11.546,146.794 12.805,146.400 13.201 C 146.290 13.311,145.693 13.663,145.074 13.982 C 144.455 14.302,143.421 15.066,142.778 15.681 C 142.134 16.297,141.408 16.800,141.164 16.800 C 140.920 16.800,140.217 17.340,139.600 18.000 C 138.983 18.660,138.270 19.200,138.014 19.200 C 137.758 19.200,136.671 20.100,135.600 21.200 C 134.529 22.300,133.552 23.200,133.431 23.200 C 132.638 23.200,124.000 31.838,124.000 32.631 C 124.000 32.752,123.100 33.729,122.000 34.800 C 120.900 35.871,120.000 36.958,120.000 37.214 C 120.000 37.470,119.460 38.183,118.800 38.800 C 118.140 39.417,117.600 40.143,117.600 40.414 C 117.600 40.684,117.285 41.198,116.900 41.554 C 116.101 42.294,114.400 44.646,114.400 45.012 C 114.400 45.146,113.860 46.041,113.200 47.000 C 112.540 47.959,112.000 48.864,112.000 49.010 C 112.000 49.157,111.655 49.760,111.234 50.352 C 110.813 50.943,110.343 52.096,110.190 52.914 C 110.036 53.731,109.751 54.400,109.555 54.400 C 109.360 54.400,109.200 54.760,109.200 55.200 C 109.200 55.640,109.020 56.000,108.800 56.000 C 108.580 56.000,108.400 56.360,108.400 56.800 C 108.400 57.240,108.220 57.600,108.000 57.600 C 107.780 57.600,107.600 57.960,107.600 58.400 C 107.600 58.840,107.420 59.200,107.200 59.200 C 106.980 59.200,106.800 59.639,106.800 60.176 C 106.800 60.713,106.620 61.264,106.400 61.400 C 106.180 61.536,106.000 62.087,106.000 62.624 C 106.000 63.161,105.820 63.600,105.600 63.600 C 105.380 63.600,105.200 64.039,105.200 64.576 C 105.200 65.113,105.020 65.664,104.800 65.800 C 104.580 65.936,104.400 66.577,104.400 67.224 C 104.400 67.871,104.220 68.400,104.000 68.400 C 103.780 68.400,103.600 69.120,103.600 70.000 C 103.600 70.880,103.420 71.600,103.200 71.600 C 102.980 71.600,102.800 72.320,102.800 73.200 C 102.800 74.080,102.620 74.800,102.400 74.800 C 102.180 74.800,102.000 75.700,102.000 76.800 C 102.000 77.900,101.820 78.800,101.600 78.800 C 101.374 78.800,101.200 79.933,101.200 81.400 C 101.200 82.867,101.026 84.000,100.800 84.000 C 100.542 84.000,100.400 88.400,100.400 96.400 C 100.400 104.400,100.542 108.800,100.800 108.800 C 101.025 108.800,101.200 109.925,101.200 111.376 C 101.200 112.793,101.380 114.064,101.600 114.200 C 101.820 114.336,102.000 115.337,102.000 116.424 C 102.000 117.511,102.180 118.400,102.400 118.400 C 102.620 118.400,102.800 119.019,102.800 119.776 C 102.800 120.533,102.980 121.264,103.200 121.400 C 103.420 121.536,103.600 122.256,103.600 123.000 C 103.600 123.744,103.780 124.464,104.000 124.600 C 104.220 124.736,104.400 125.287,104.400 125.824 C 104.400 126.361,104.580 126.800,104.800 126.800 C 105.020 126.800,105.200 127.340,105.200 128.000 C 105.200 128.660,105.380 129.200,105.600 129.200 C 105.820 129.200,106.000 129.740,106.000 130.400 C 106.000 131.060,106.180 131.600,106.400 131.600 C 106.620 131.600,106.800 132.039,106.800 132.576 C 106.800 133.113,106.980 133.664,107.200 133.800 C 107.420 133.936,107.600 134.397,107.600 134.824 C 107.600 135.251,107.780 135.600,108.000 135.600 C 108.220 135.600,108.400 135.960,108.400 136.400 C 108.400 136.840,108.580 137.200,108.800 137.200 C 109.020 137.200,109.200 137.560,109.200 138.000 C 109.200 138.440,109.360 138.800,109.555 138.800 C 109.751 138.800,110.029 139.430,110.174 140.200 C 110.318 140.970,110.608 141.600,110.818 141.600 C 111.028 141.600,111.200 141.960,111.200 142.400 C 111.200 142.840,111.358 143.200,111.551 143.200 C 111.745 143.200,112.127 143.740,112.400 144.400 C 112.673 145.060,113.055 145.600,113.249 145.600 C 113.442 145.600,113.600 145.878,113.600 146.217 C 113.600 146.556,113.960 147.220,114.400 147.692 C 114.840 148.164,115.200 148.787,115.200 149.075 C 115.200 149.364,115.380 149.600,115.600 149.600 C 115.820 149.600,116.000 149.843,116.000 150.141 C 116.000 150.438,116.540 151.246,117.200 151.937 C 117.860 152.628,118.400 153.348,118.400 153.537 C 118.400 153.726,118.940 154.446,119.600 155.137 C 120.260 155.828,120.800 156.497,120.800 156.625 C 120.800 156.753,122.240 158.293,124.000 160.048 C 125.760 161.804,127.204 163.456,127.209 163.720 C 127.213 163.984,127.867 164.740,128.660 165.400 C 129.454 166.060,131.205 167.682,132.552 169.004 C 133.898 170.326,135.630 171.851,136.400 172.393 C 137.170 172.935,138.147 173.696,138.571 174.085 C 138.994 174.473,139.691 174.902,140.118 175.038 C 140.546 175.173,141.434 175.799,142.093 176.429 C 142.751 177.058,143.810 177.803,144.445 178.084 C 145.080 178.365,145.600 178.731,145.600 178.898 C 145.600 179.064,145.870 179.200,146.200 179.200 C 146.530 179.200,146.800 179.380,146.800 179.600 C 146.800 179.820,147.070 180.000,147.400 180.000 C 147.730 180.000,148.000 180.180,148.000 180.400 C 148.000 180.620,148.320 180.800,148.712 180.800 C 149.103 180.800,149.683 181.160,150.000 181.600 C 150.317 182.040,150.897 182.400,151.288 182.400 C 151.680 182.400,152.000 182.580,152.000 182.800 C 152.000 183.020,152.253 183.200,152.562 183.200 C 153.047 183.200,154.320 183.752,157.295 185.250 C 157.677 185.443,158.262 185.600,158.595 185.600 C 158.928 185.600,159.201 185.735,159.203 185.900 C 159.207 186.301,161.181 187.200,162.056 187.200 C 162.439 187.200,162.864 187.380,163.000 187.600 C 163.136 187.820,163.687 188.000,164.224 188.000 C 164.761 188.000,165.200 188.180,165.200 188.400 C 165.200 188.620,165.639 188.800,166.176 188.800 C 166.713 188.800,167.264 188.980,167.400 189.200 C 167.536 189.420,168.166 189.600,168.800 189.600 C 169.434 189.600,170.052 189.761,170.174 189.958 C 170.295 190.155,171.071 190.410,171.897 190.525 C 172.724 190.640,174.210 190.922,175.200 191.150 C 176.190 191.378,177.945 191.573,179.100 191.583 C 180.255 191.592,181.200 191.780,181.200 192.000 C 181.200 192.225,182.325 192.400,183.776 192.400 C 185.193 192.400,186.464 192.580,186.600 192.800 C 186.755 193.050,190.737 193.200,197.224 193.200 C 203.875 193.200,207.600 193.056,207.600 192.800 C 207.600 192.574,208.733 192.400,210.200 192.400 C 211.667 192.400,212.800 192.226,212.800 192.000 C 212.800 191.780,213.835 191.592,215.100 191.583 C 217.289 191.566,218.642 191.344,222.500 190.371 C 223.435 190.135,224.785 189.846,225.500 189.727 C 226.215 189.609,226.800 189.352,226.800 189.156 C 226.800 188.960,227.340 188.800,228.000 188.800 C 228.660 188.800,229.200 188.620,229.200 188.400 C 229.200 188.180,229.639 188.000,230.176 188.000 C 230.713 188.000,231.264 187.820,231.400 187.600 C 231.536 187.380,232.076 187.200,232.600 187.200 C 233.124 187.200,233.664 187.020,233.800 186.800 C 233.936 186.580,234.397 186.400,234.824 186.400 C 235.251 186.400,235.600 186.220,235.600 186.000 C 235.600 185.780,235.960 185.600,236.400 185.600 C 236.840 185.600,237.200 185.420,237.200 185.200 C 237.200 184.980,237.560 184.800,238.000 184.800 C 238.440 184.800,238.800 184.620,238.800 184.400 C 238.800 184.180,239.160 184.000,239.600 184.000 C 240.040 184.000,240.400 183.856,240.400 183.680 C 240.400 183.505,241.030 183.133,241.800 182.854 C 242.570 182.576,243.200 182.180,243.200 181.974 C 243.200 181.768,243.560 181.600,244.000 181.600 C 244.440 181.600,244.800 181.420,244.800 181.200 C 244.800 180.980,245.120 180.800,245.512 180.800 C 245.903 180.800,246.483 180.440,246.800 180.000 C 247.117 179.560,247.697 179.200,248.088 179.200 C 248.480 179.200,248.800 179.020,248.800 178.800 C 248.800 178.580,249.036 178.400,249.325 178.400 C 249.613 178.400,250.236 178.040,250.708 177.600 C 251.180 177.160,251.754 176.800,251.983 176.800 C 252.212 176.800,252.400 176.620,252.400 176.400 C 252.400 176.180,252.588 176.000,252.817 176.000 C 253.046 176.000,253.451 175.821,253.717 175.601 C 253.983 175.382,255.349 174.359,256.753 173.327 C 261.162 170.089,275.200 155.648,275.200 154.350 C 275.200 154.154,275.740 153.428,276.400 152.737 C 277.060 152.046,277.600 151.278,277.600 151.029 C 277.600 150.780,277.960 150.317,278.400 150.000 C 278.840 149.683,279.200 149.103,279.200 148.712 C 279.200 148.320,279.380 148.000,279.600 148.000 C 279.820 148.000,280.000 147.680,280.000 147.288 C 280.000 146.897,280.360 146.317,280.800 146.000 C 281.240 145.683,281.600 145.103,281.600 144.712 C 281.600 144.320,281.780 144.000,282.000 144.000 C 282.220 144.000,282.400 143.722,282.400 143.383 C 282.400 143.044,282.760 142.380,283.200 141.908 C 283.640 141.436,284.000 140.723,284.000 140.325 C 284.000 139.926,284.180 139.600,284.400 139.600 C 284.620 139.600,284.800 139.240,284.800 138.800 C 284.800 138.360,284.980 138.000,285.200 138.000 C 285.420 138.000,285.600 137.640,285.600 137.200 C 285.600 136.760,285.780 136.400,286.000 136.400 C 286.220 136.400,286.400 136.040,286.400 135.600 C 286.400 135.160,286.580 134.800,286.800 134.800 C 287.020 134.800,287.200 134.451,287.200 134.024 C 287.200 133.597,287.380 133.136,287.600 133.000 C 287.820 132.864,288.000 132.324,288.000 131.800 C 288.000 131.276,288.180 130.736,288.400 130.600 C 288.620 130.464,288.800 129.913,288.800 129.376 C 288.800 128.839,288.980 128.400,289.200 128.400 C 289.420 128.400,289.600 127.860,289.600 127.200 C 289.600 126.540,289.780 126.000,290.000 126.000 C 290.220 126.000,290.400 125.471,290.400 124.824 C 290.400 124.177,290.570 123.542,290.777 123.414 C 290.984 123.286,291.277 121.926,291.428 120.391 C 291.580 118.856,291.860 117.600,292.052 117.600 C 292.243 117.600,292.400 116.520,292.400 115.200 C 292.400 113.867,292.578 112.800,292.800 112.800 C 293.028 112.800,293.200 111.608,293.200 110.024 C 293.200 108.497,293.380 107.136,293.600 107.000 C 293.850 106.845,294.000 102.796,294.000 96.176 C 294.000 89.392,293.857 85.600,293.600 85.600 C 293.371 85.600,293.200 84.400,293.200 82.800 C 293.200 81.200,293.029 80.000,292.800 80.000 C 292.580 80.000,292.400 79.010,292.400 77.800 C 292.400 76.590,292.241 75.600,292.047 75.600 C 291.853 75.600,291.568 74.251,291.413 72.603 C 291.259 70.954,290.967 69.504,290.766 69.379 C 290.565 69.255,290.400 68.634,290.400 68.000 C 290.400 67.366,290.220 66.736,290.000 66.600 C 289.780 66.464,289.600 65.913,289.600 65.376 C 289.600 64.839,289.420 64.400,289.200 64.400 C 288.980 64.400,288.800 63.961,288.800 63.424 C 288.800 62.887,288.620 62.336,288.400 62.200 C 288.180 62.064,288.000 61.513,288.000 60.976 C 288.000 60.439,287.820 60.000,287.600 60.000 C 287.380 60.000,287.200 59.728,287.200 59.395 C 287.200 59.062,287.020 58.432,286.800 57.995 C 286.580 57.558,286.220 56.842,286.000 56.405 C 285.780 55.968,285.600 55.338,285.600 55.005 C 285.600 54.672,285.420 54.400,285.200 54.400 C 284.980 54.400,284.800 54.040,284.800 53.600 C 284.800 53.160,284.620 52.800,284.400 52.800 C 284.180 52.800,284.000 52.440,284.000 52.000 C 284.000 51.560,283.820 51.200,283.600 51.200 C 283.380 51.200,283.200 50.922,283.200 50.583 C 283.200 50.244,282.840 49.580,282.400 49.108 C 281.960 48.636,281.600 48.013,281.600 47.725 C 281.600 47.436,281.420 47.200,281.200 47.200 C 280.980 47.200,280.800 46.930,280.800 46.600 C 280.800 46.270,280.620 46.000,280.400 46.000 C 280.180 46.000,280.000 45.730,280.000 45.400 C 280.000 45.070,279.820 44.800,279.600 44.800 C 279.380 44.800,279.200 44.530,279.200 44.200 C 279.200 43.870,279.020 43.600,278.800 43.600 C 278.580 43.600,278.400 43.312,278.400 42.960 C 278.400 42.609,277.860 41.817,277.200 41.200 C 276.540 40.583,276.000 39.874,276.000 39.623 C 276.000 39.372,275.817 38.949,275.593 38.683 C 274.079 36.888,273.600 36.244,273.600 36.004 C 273.600 35.748,270.754 32.647,265.979 27.700 C 264.865 26.545,263.775 25.600,263.557 25.600 C 263.339 25.600,261.919 24.340,260.400 22.800 C 258.881 21.260,257.538 20.000,257.416 20.000 C 257.293 20.000,256.628 19.460,255.937 18.800 C 255.246 18.140,254.526 17.600,254.337 17.600 C 254.148 17.600,253.428 17.060,252.737 16.400 C 252.046 15.740,251.238 15.200,250.941 15.200 C 250.643 15.200,250.400 15.042,250.400 14.849 C 250.400 14.655,249.860 14.273,249.200 14.000 C 248.540 13.727,248.000 13.345,248.000 13.151 C 248.000 12.958,247.640 12.800,247.200 12.800 C 246.760 12.800,246.400 12.642,246.400 12.449 C 246.400 12.255,245.860 11.873,245.200 11.600 C 244.540 11.327,244.000 10.965,244.000 10.796 C 244.000 10.627,243.370 10.371,242.600 10.226 C 241.830 10.082,241.200 9.792,241.200 9.582 C 241.200 9.372,240.840 9.200,240.400 9.200 C 239.960 9.200,239.600 9.020,239.600 8.800 C 239.600 8.580,239.240 8.400,238.800 8.400 C 238.360 8.400,238.000 8.220,238.000 8.000 C 238.000 7.780,237.640 7.600,237.200 7.600 C 236.760 7.600,236.400 7.420,236.400 7.200 C 236.400 6.980,236.051 6.800,235.624 6.800 C 235.197 6.800,234.736 6.620,234.600 6.400 C 234.464 6.180,233.913 6.000,233.376 6.000 C 232.839 6.000,232.400 5.820,232.400 5.600 C 232.400 5.380,231.860 5.200,231.200 5.200 C 230.540 5.200,230.000 5.020,230.000 4.800 C 230.000 4.580,229.460 4.400,228.800 4.400 C 228.140 4.400,227.600 4.220,227.600 4.000 C 227.600 3.780,227.060 3.600,226.400 3.600 C 225.740 3.600,225.200 3.420,225.200 3.200 C 225.200 2.980,224.570 2.800,223.800 2.800 C 223.030 2.800,222.400 2.620,222.400 2.400 C 222.400 2.180,221.680 2.000,220.800 2.000 C 219.920 2.000,219.200 1.820,219.200 1.600 C 219.200 1.380,218.315 1.200,217.233 1.200 C 216.067 1.200,215.202 1.006,215.108 0.723 C 214.948 0.243,188.464 -0.121,182.400 0.273 M207.300 25.038 C 210.105 25.171,212.400 25.442,212.400 25.640 C 212.400 25.838,213.019 26.000,213.776 26.000 C 214.533 26.000,215.264 26.180,215.400 26.400 C 215.536 26.620,216.267 26.800,217.024 26.800 C 217.781 26.800,218.400 26.980,218.400 27.200 C 218.400 27.420,218.940 27.600,219.600 27.600 C 220.260 27.600,220.800 27.780,220.800 28.000 C 220.800 28.220,221.340 28.400,222.000 28.400 C 222.660 28.400,223.200 28.580,223.200 28.800 C 223.200 29.020,223.560 29.200,224.000 29.200 C 224.440 29.200,224.800 29.380,224.800 29.600 C 224.800 29.820,225.149 30.000,225.576 30.000 C 226.003 30.000,226.464 30.180,226.600 30.400 C 226.736 30.620,227.197 30.800,227.624 30.800 C 228.051 30.800,228.400 30.980,228.400 31.200 C 228.400 31.420,228.760 31.600,229.200 31.600 C 229.640 31.600,230.000 31.780,230.000 32.000 C 230.000 32.220,230.278 32.400,230.617 32.400 C 230.956 32.400,231.620 32.760,232.092 33.200 C 232.564 33.640,233.187 34.000,233.475 34.000 C 233.764 34.000,234.000 34.180,234.000 34.400 C 234.000 34.620,234.236 34.800,234.525 34.800 C 234.813 34.800,235.436 35.160,235.908 35.600 C 236.380 36.040,236.919 36.400,237.105 36.400 C 237.291 36.400,238.131 37.030,238.972 37.800 C 239.813 38.570,240.639 39.200,240.808 39.200 C 240.977 39.200,241.652 39.695,242.308 40.300 C 242.964 40.905,244.355 42.120,245.398 43.000 C 248.024 45.215,249.200 46.379,249.200 46.763 C 249.200 46.943,250.370 48.289,251.800 49.755 C 253.230 51.221,254.400 52.569,254.400 52.751 C 254.400 52.932,254.940 53.646,255.600 54.337 C 256.260 55.028,256.800 55.774,256.800 55.996 C 256.800 56.218,256.980 56.400,257.200 56.400 C 257.420 56.400,257.600 56.670,257.600 57.000 C 257.600 57.330,257.780 57.600,258.000 57.600 C 258.220 57.600,258.400 57.830,258.400 58.112 C 258.400 58.393,258.760 58.883,259.200 59.200 C 259.640 59.517,260.000 59.999,260.000 60.272 C 260.000 60.544,260.990 62.794,262.200 65.272 C 263.410 67.750,264.400 70.010,264.400 70.294 C 264.400 70.578,264.559 71.123,264.753 71.505 C 264.948 71.887,265.285 72.650,265.504 73.200 C 265.722 73.750,266.103 74.703,266.350 75.319 C 266.598 75.934,266.800 77.059,266.800 77.819 C 266.800 78.578,266.980 79.200,267.200 79.200 C 267.420 79.200,267.600 79.920,267.600 80.800 C 267.600 81.680,267.780 82.400,268.000 82.400 C 268.225 82.400,268.400 83.525,268.400 84.976 C 268.400 86.393,268.580 87.664,268.800 87.800 C 269.046 87.952,269.200 91.263,269.200 96.400 C 269.200 101.537,269.046 104.848,268.800 105.000 C 268.580 105.136,268.400 106.396,268.400 107.800 C 268.400 109.204,268.220 110.464,268.000 110.600 C 267.780 110.736,267.600 111.456,267.600 112.200 C 267.600 112.944,267.420 113.664,267.200 113.800 C 266.980 113.936,266.800 114.656,266.800 115.400 C 266.800 116.144,266.620 116.864,266.400 117.000 C 266.180 117.136,266.000 117.687,266.000 118.224 C 266.000 118.761,265.820 119.200,265.600 119.200 C 265.380 119.200,265.200 119.740,265.200 120.400 C 265.200 121.060,265.020 121.600,264.800 121.600 C 264.580 121.600,264.400 122.140,264.400 122.800 C 264.400 123.460,264.220 124.000,264.000 124.000 C 263.780 124.000,263.600 124.360,263.600 124.800 C 263.600 125.240,263.420 125.600,263.200 125.600 C 262.980 125.600,262.800 125.960,262.800 126.400 C 262.800 126.840,262.665 127.200,262.500 127.201 C 262.335 127.201,261.666 128.371,261.014 129.801 C 260.361 131.230,259.686 132.400,259.514 132.400 C 259.341 132.400,259.200 132.760,259.200 133.200 C 259.200 133.640,259.020 134.000,258.800 134.000 C 258.580 134.000,258.400 134.288,258.400 134.640 C 258.400 134.991,257.860 135.783,257.200 136.400 C 256.540 137.017,256.000 137.737,256.000 138.000 C 256.000 138.263,255.460 138.983,254.800 139.600 C 254.140 140.217,253.600 140.937,253.600 141.200 C 253.600 141.463,253.015 142.218,252.300 142.877 C 249.395 145.556,243.762 151.190,243.212 151.968 C 242.888 152.426,242.375 152.800,242.072 152.800 C 241.769 152.800,241.017 153.340,240.400 154.000 C 239.783 154.660,239.031 155.200,238.728 155.200 C 238.425 155.200,237.917 155.560,237.600 156.000 C 237.283 156.440,236.793 156.800,236.512 156.800 C 236.230 156.800,236.000 156.980,236.000 157.200 C 236.000 157.420,235.730 157.600,235.400 157.600 C 235.070 157.600,234.800 157.780,234.800 158.000 C 234.800 158.220,234.480 158.400,234.088 158.400 C 233.697 158.400,233.117 158.760,232.800 159.200 C 232.483 159.640,231.966 160.000,231.652 160.000 C 230.939 160.000,226.648 162.057,226.467 162.485 C 226.393 162.658,225.999 162.800,225.590 162.800 C 225.182 162.800,224.736 162.980,224.600 163.200 C 224.464 163.420,223.913 163.600,223.376 163.600 C 222.839 163.600,222.400 163.780,222.400 164.000 C 222.400 164.220,221.860 164.400,221.200 164.400 C 220.540 164.400,220.000 164.580,220.000 164.800 C 220.000 165.020,219.460 165.200,218.800 165.200 C 218.140 165.200,217.600 165.380,217.600 165.600 C 217.600 165.820,216.880 166.000,216.000 166.000 C 215.120 166.000,214.400 166.180,214.400 166.400 C 214.400 166.620,213.691 166.800,212.824 166.800 C 211.957 166.800,211.136 166.980,211.000 167.200 C 210.864 167.420,209.604 167.600,208.200 167.600 C 206.796 167.600,205.536 167.780,205.400 168.000 C 205.248 168.246,201.996 168.400,196.976 168.400 C 191.792 168.400,188.800 168.254,188.800 168.000 C 188.800 167.771,187.600 167.600,186.000 167.600 C 184.400 167.600,183.200 167.429,183.200 167.200 C 183.200 166.980,182.480 166.800,181.600 166.800 C 180.720 166.800,180.000 166.620,180.000 166.400 C 180.000 166.180,179.291 166.000,178.424 166.000 C 177.557 166.000,176.736 165.820,176.600 165.600 C 176.464 165.380,175.913 165.200,175.376 165.200 C 174.839 165.200,174.400 165.020,174.400 164.800 C 174.400 164.580,173.961 164.400,173.424 164.400 C 172.887 164.400,172.336 164.220,172.200 164.000 C 172.064 163.780,171.513 163.600,170.976 163.600 C 170.439 163.600,170.000 163.420,170.000 163.200 C 170.000 162.980,169.774 162.800,169.499 162.800 C 169.223 162.800,167.699 162.170,166.111 161.400 C 164.524 160.630,162.950 160.000,162.613 160.000 C 162.276 160.000,162.000 159.820,162.000 159.600 C 162.000 159.380,161.764 159.200,161.475 159.200 C 161.187 159.200,160.564 158.840,160.092 158.400 C 159.620 157.960,159.046 157.600,158.817 157.600 C 158.588 157.600,158.400 157.420,158.400 157.200 C 158.400 156.980,158.130 156.800,157.800 156.800 C 157.470 156.800,157.200 156.620,157.200 156.400 C 157.200 156.180,157.018 156.000,156.796 156.000 C 156.574 156.000,155.828 155.460,155.137 154.800 C 154.446 154.140,153.732 153.600,153.551 153.600 C 153.369 153.600,152.009 152.419,150.530 150.975 C 149.050 149.531,147.335 148.053,146.720 147.689 C 146.104 147.325,145.600 146.875,145.600 146.688 C 145.600 146.501,144.655 145.376,143.500 144.189 C 140.941 141.558,140.644 141.203,140.003 140.005 C 139.725 139.486,139.085 138.648,138.580 138.143 C 138.075 137.639,137.546 136.860,137.404 136.413 C 137.262 135.966,136.978 135.600,136.773 135.600 C 136.568 135.600,136.400 135.364,136.400 135.075 C 136.400 134.787,136.040 134.164,135.600 133.692 C 135.160 133.220,134.800 132.638,134.800 132.400 C 134.800 132.162,134.440 131.580,134.000 131.108 C 133.560 130.636,133.200 130.013,133.200 129.725 C 133.200 129.436,133.020 129.200,132.800 129.200 C 132.580 129.200,132.400 128.851,132.400 128.424 C 132.400 127.997,132.220 127.536,132.000 127.400 C 131.780 127.264,131.600 126.803,131.600 126.376 C 131.600 125.949,131.420 125.600,131.200 125.600 C 130.980 125.600,130.800 125.240,130.800 124.800 C 130.800 124.360,130.620 124.000,130.400 124.000 C 130.180 124.000,130.000 123.640,130.000 123.200 C 130.000 122.760,129.820 122.400,129.600 122.400 C 129.380 122.400,129.200 121.860,129.200 121.200 C 129.200 120.540,129.020 120.000,128.800 120.000 C 128.580 120.000,128.400 119.460,128.400 118.800 C 128.400 118.140,128.220 117.600,128.000 117.600 C 127.780 117.600,127.600 116.880,127.600 116.000 C 127.600 115.120,127.420 114.400,127.200 114.400 C 126.980 114.400,126.800 113.781,126.800 113.024 C 126.800 112.267,126.620 111.536,126.400 111.400 C 126.180 111.264,126.000 110.173,126.000 108.976 C 126.000 107.779,125.820 106.800,125.600 106.800 C 125.344 106.800,125.200 103.133,125.200 96.600 C 125.200 90.067,125.344 86.400,125.600 86.400 C 125.822 86.400,126.000 85.341,126.000 84.024 C 126.000 82.717,126.180 81.536,126.400 81.400 C 126.620 81.264,126.800 80.544,126.800 79.800 C 126.800 79.056,126.980 78.336,127.200 78.200 C 127.420 78.064,127.600 77.333,127.600 76.576 C 127.600 75.819,127.780 75.200,128.000 75.200 C 128.220 75.200,128.400 74.660,128.400 74.000 C 128.400 73.340,128.580 72.800,128.800 72.800 C 129.020 72.800,129.200 72.350,129.200 71.800 C 129.200 71.250,129.380 70.800,129.600 70.800 C 129.820 70.800,130.000 70.260,130.000 69.600 C 130.000 68.940,130.180 68.400,130.400 68.400 C 130.620 68.400,130.800 68.040,130.800 67.600 C 130.800 67.160,130.980 66.800,131.200 66.800 C 131.420 66.800,131.600 66.440,131.600 66.000 C 131.600 65.560,131.780 65.200,132.000 65.200 C 132.220 65.200,132.400 64.840,132.400 64.400 C 132.400 63.960,132.580 63.600,132.800 63.600 C 133.020 63.600,133.200 63.240,133.200 62.800 C 133.200 62.360,133.358 62.000,133.551 62.000 C 133.745 62.000,134.127 61.460,134.400 60.800 C 134.673 60.140,135.011 59.600,135.151 59.600 C 135.290 59.600,135.629 59.094,135.903 58.475 C 136.176 57.856,136.720 57.001,137.111 56.575 C 137.502 56.149,138.257 55.170,138.789 54.400 C 139.321 53.630,140.351 52.293,141.078 51.428 C 141.805 50.563,142.400 49.706,142.400 49.523 C 142.400 48.996,149.704 41.859,150.854 41.262 C 151.424 40.965,152.321 40.335,152.846 39.862 C 153.372 39.388,154.881 38.190,156.201 37.200 C 157.520 36.210,158.660 35.265,158.733 35.100 C 158.807 34.935,159.129 34.800,159.450 34.800 C 159.771 34.800,160.420 34.440,160.892 34.000 C 161.364 33.560,161.987 33.200,162.275 33.200 C 162.564 33.200,162.800 33.020,162.800 32.800 C 162.800 32.580,163.160 32.400,163.600 32.400 C 164.040 32.400,164.400 32.220,164.400 32.000 C 164.400 31.780,164.760 31.600,165.200 31.600 C 165.640 31.600,166.000 31.420,166.000 31.200 C 166.000 30.980,166.360 30.800,166.800 30.800 C 167.240 30.800,167.600 30.620,167.600 30.400 C 167.600 30.180,167.960 30.000,168.400 30.000 C 168.840 30.000,169.200 29.820,169.200 29.600 C 169.200 29.380,169.740 29.200,170.400 29.200 C 171.060 29.200,171.600 29.020,171.600 28.800 C 171.600 28.580,172.050 28.400,172.600 28.400 C 173.150 28.400,173.600 28.220,173.600 28.000 C 173.600 27.780,174.140 27.600,174.800 27.600 C 175.460 27.600,176.000 27.420,176.000 27.200 C 176.000 26.980,176.540 26.800,177.200 26.800 C 177.860 26.800,178.400 26.620,178.400 26.400 C 178.400 26.180,179.174 26.000,180.120 26.000 C 181.066 26.000,182.022 25.818,182.245 25.595 C 182.716 25.124,194.809 24.455,199.200 24.657 C 200.850 24.733,204.495 24.904,207.300 25.038 M111.438 193.139 C 111.323 193.325,109.304 193.587,106.953 193.720 C 104.602 193.853,102.489 194.151,102.259 194.381 C 102.029 194.611,101.394 194.800,100.848 194.800 C 99.826 194.800,97.527 195.432,96.305 196.049 C 95.923 196.242,95.259 196.400,94.829 196.400 C 94.399 196.400,93.958 196.544,93.849 196.721 C 93.740 196.897,92.739 197.290,91.625 197.593 C 90.511 197.896,89.600 198.292,89.600 198.472 C 89.600 198.653,89.240 198.800,88.800 198.800 C 88.360 198.800,88.000 198.980,88.000 199.200 C 88.000 199.420,87.640 199.600,87.200 199.600 C 86.760 199.600,86.400 199.780,86.400 200.000 C 86.400 200.220,86.040 200.400,85.600 200.400 C 85.160 200.400,84.800 200.580,84.800 200.800 C 84.800 201.020,84.440 201.200,84.000 201.200 C 83.560 201.200,83.200 201.380,83.200 201.600 C 83.200 201.820,82.840 202.000,82.400 202.000 C 81.960 202.000,81.600 202.180,81.600 202.400 C 81.600 202.620,81.364 202.800,81.075 202.800 C 80.787 202.800,80.164 203.160,79.692 203.600 C 79.220 204.040,78.647 204.400,78.420 204.400 C 78.193 204.400,77.782 204.760,77.507 205.200 C 77.232 205.640,76.731 206.000,76.392 206.000 C 76.054 206.000,75.517 206.360,75.200 206.800 C 74.883 207.240,74.388 207.600,74.100 207.600 C 73.495 207.600,72.459 208.534,66.187 214.734 C 63.664 217.228,61.600 219.406,61.600 219.573 C 61.600 219.841,61.143 220.463,59.607 222.283 C 59.383 222.549,59.200 222.972,59.200 223.223 C 59.200 223.474,58.660 224.183,58.000 224.800 C 57.340 225.417,56.800 226.117,56.800 226.356 C 56.800 226.762,56.072 227.782,54.900 229.016 C 54.625 229.306,54.400 229.743,54.400 229.988 C 54.400 230.233,54.040 230.820,53.600 231.292 C 53.160 231.764,52.800 232.387,52.800 232.675 C 52.800 232.964,52.620 233.200,52.400 233.200 C 52.180 233.200,52.000 233.560,52.000 234.000 C 52.000 234.440,51.820 234.800,51.600 234.800 C 51.380 234.800,51.200 235.160,51.200 235.600 C 51.200 236.040,51.020 236.400,50.800 236.400 C 50.580 236.400,50.400 236.760,50.400 237.200 C 50.400 237.640,50.220 238.000,50.000 238.000 C 49.780 238.000,49.600 238.360,49.600 238.800 C 49.600 239.240,49.420 239.600,49.200 239.600 C 48.980 239.600,48.800 239.960,48.800 240.400 C 48.800 240.840,48.620 241.200,48.400 241.200 C 48.180 241.200,48.000 241.560,48.000 242.000 C 48.000 242.440,47.820 242.800,47.600 242.800 C 47.380 242.800,47.200 243.160,47.200 243.600 C 47.200 244.040,47.020 244.400,46.800 244.400 C 46.580 244.400,46.400 244.762,46.400 245.205 C 46.400 245.648,46.241 246.323,46.047 246.705 C 45.852 247.087,45.471 247.940,45.200 248.600 C 44.929 249.260,44.570 250.077,44.403 250.415 C 44.236 250.754,43.971 251.789,43.814 252.715 C 43.658 253.642,43.366 254.400,43.165 254.400 C 42.964 254.400,42.800 254.940,42.800 255.600 C 42.800 256.260,42.620 256.800,42.400 256.800 C 42.180 256.800,42.000 257.419,42.000 258.176 C 42.000 258.933,41.820 259.664,41.600 259.800 C 41.380 259.936,41.200 260.577,41.200 261.224 C 41.200 261.871,41.020 262.400,40.800 262.400 C 40.580 262.400,40.400 263.030,40.400 263.800 C 40.400 264.570,40.220 265.200,40.000 265.200 C 39.780 265.200,39.600 265.729,39.600 266.376 C 39.600 267.023,39.420 267.664,39.200 267.800 C 38.980 267.936,38.800 268.847,38.800 269.824 C 38.800 270.801,38.620 271.600,38.400 271.600 C 38.180 271.600,38.000 272.399,38.000 273.376 C 38.000 274.353,37.820 275.264,37.600 275.400 C 37.380 275.536,37.200 276.357,37.200 277.224 C 37.200 278.091,37.020 278.800,36.800 278.800 C 36.580 278.800,36.400 279.689,36.400 280.776 C 36.400 281.863,36.220 282.864,36.000 283.000 C 35.780 283.136,35.600 284.317,35.600 285.624 C 35.600 286.941,35.422 288.000,35.200 288.000 C 34.978 288.000,34.800 289.059,34.800 290.376 C 34.800 291.683,34.620 292.864,34.400 293.000 C 34.180 293.136,34.000 294.666,34.000 296.400 C 34.000 298.134,33.820 299.664,33.600 299.800 C 33.377 299.938,33.200 301.796,33.200 304.000 C 33.200 306.204,33.023 308.062,32.800 308.200 C 32.252 308.539,32.252 342.261,32.800 342.600 C 33.020 342.736,33.200 344.007,33.200 345.424 C 33.200 346.875,33.375 348.000,33.600 348.000 C 33.820 348.000,34.000 348.709,34.000 349.576 C 34.000 350.443,34.180 351.264,34.400 351.400 C 34.620 351.536,34.800 352.267,34.800 353.024 C 34.800 353.781,34.980 354.400,35.200 354.400 C 35.420 354.400,35.600 354.940,35.600 355.600 C 35.600 356.260,35.780 356.800,36.000 356.800 C 36.220 356.800,36.400 357.250,36.400 357.800 C 36.400 358.350,36.580 358.800,36.800 358.800 C 37.020 358.800,37.200 359.340,37.200 360.000 C 37.200 360.660,37.380 361.200,37.600 361.200 C 37.820 361.200,38.000 361.560,38.000 362.000 C 38.000 362.440,38.180 362.800,38.400 362.800 C 38.620 362.800,38.800 363.160,38.800 363.600 C 38.800 364.040,38.980 364.400,39.200 364.400 C 39.420 364.400,39.600 364.760,39.600 365.200 C 39.600 365.640,39.780 366.000,40.000 366.000 C 40.220 366.000,40.400 366.360,40.400 366.800 C 40.400 367.240,40.580 367.600,40.800 367.600 C 41.020 367.600,41.200 367.920,41.200 368.312 C 41.200 368.703,41.560 369.283,42.000 369.600 C 42.440 369.917,42.800 370.497,42.800 370.888 C 42.800 371.280,42.980 371.600,43.200 371.600 C 43.420 371.600,43.600 371.851,43.600 372.157 C 43.600 373.291,55.338 386.000,56.386 386.000 C 56.594 386.000,57.214 386.450,57.764 387.000 C 58.314 387.550,59.042 388.000,59.382 388.000 C 59.722 388.000,60.000 388.167,60.000 388.372 C 60.000 388.941,63.552 391.210,64.850 391.470 C 65.482 391.596,66.000 391.858,66.000 392.050 C 66.000 392.243,66.360 392.400,66.800 392.400 C 67.240 392.400,67.600 392.580,67.600 392.800 C 67.600 393.020,67.960 393.200,68.400 393.200 C 68.840 393.200,69.200 393.380,69.200 393.600 C 69.200 393.820,69.560 394.000,70.000 394.000 C 70.440 394.000,70.800 394.180,70.800 394.400 C 70.800 394.620,71.160 394.800,71.600 394.800 C 72.040 394.800,72.400 394.980,72.400 395.200 C 72.400 395.420,72.940 395.600,73.600 395.600 C 74.260 395.600,74.800 395.780,74.800 396.000 C 74.800 396.220,75.340 396.400,76.000 396.400 C 76.660 396.400,77.200 396.580,77.200 396.800 C 77.200 397.020,77.639 397.200,78.176 397.200 C 78.713 397.200,79.264 397.380,79.400 397.600 C 79.536 397.820,80.267 398.000,81.024 398.000 C 81.781 398.000,82.400 398.180,82.400 398.400 C 82.400 398.620,83.285 398.800,84.367 398.800 C 85.584 398.800,86.397 398.990,86.500 399.300 C 86.633 399.698,109.592 399.800,199.513 399.800 C 289.257 399.800,312.462 399.698,312.860 399.300 C 313.135 399.025,314.134 398.800,315.080 398.800 C 316.026 398.800,316.800 398.620,316.800 398.400 C 316.800 398.180,317.520 398.000,318.400 398.000 C 319.280 398.000,320.000 397.820,320.000 397.600 C 320.000 397.380,320.540 397.200,321.200 397.200 C 321.860 397.200,322.400 397.020,322.400 396.800 C 322.400 396.580,322.940 396.400,323.600 396.400 C 324.260 396.400,324.800 396.220,324.800 396.000 C 324.800 395.780,325.250 395.600,325.800 395.600 C 326.350 395.600,326.800 395.420,326.800 395.200 C 326.800 394.980,327.160 394.800,327.600 394.800 C 328.040 394.800,328.400 394.620,328.400 394.400 C 328.400 394.180,328.839 394.000,329.376 394.000 C 329.913 394.000,330.464 393.820,330.600 393.600 C 330.736 393.380,331.130 393.200,331.477 393.200 C 331.823 393.200,332.397 392.869,332.753 392.464 C 333.109 392.059,333.929 391.597,334.576 391.437 C 335.222 391.278,336.240 390.799,336.837 390.373 C 337.435 389.948,338.106 389.600,338.328 389.600 C 338.551 389.600,338.793 389.458,338.867 389.284 C 338.940 389.110,339.896 388.345,340.992 387.584 C 342.088 386.823,343.798 385.381,344.792 384.379 C 345.786 383.378,346.915 382.439,347.300 382.292 C 347.685 382.145,348.000 381.831,348.000 381.593 C 348.000 381.356,349.260 379.919,350.800 378.400 C 352.340 376.881,353.600 375.542,353.600 375.424 C 353.600 375.208,354.566 373.968,355.500 372.984 C 355.775 372.694,356.000 372.363,356.000 372.249 C 356.000 372.134,356.517 371.266,357.150 370.320 C 357.782 369.374,358.424 368.195,358.577 367.700 C 358.729 367.205,359.022 366.800,359.227 366.800 C 359.432 366.800,359.600 366.451,359.600 366.024 C 359.600 365.597,359.780 365.136,360.000 365.000 C 360.220 364.864,360.400 364.313,360.400 363.776 C 360.400 363.239,360.580 362.800,360.800 362.800 C 361.020 362.800,361.200 362.440,361.200 362.000 C 361.200 361.560,361.380 361.200,361.600 361.200 C 361.820 361.200,362.000 360.840,362.000 360.400 C 362.000 359.960,362.180 359.600,362.400 359.600 C 362.620 359.600,362.800 359.060,362.800 358.400 C 362.800 357.740,362.980 357.200,363.200 357.200 C 363.420 357.200,363.600 356.761,363.600 356.224 C 363.600 355.687,363.780 355.136,364.000 355.000 C 364.220 354.864,364.400 354.133,364.400 353.376 C 364.400 352.619,364.580 352.000,364.800 352.000 C 365.020 352.000,365.200 351.291,365.200 350.424 C 365.200 349.557,365.380 348.736,365.600 348.600 C 365.820 348.464,366.000 347.384,366.000 346.200 C 366.000 345.016,366.180 343.936,366.400 343.800 C 366.628 343.659,366.800 341.623,366.800 339.056 C 366.800 336.415,366.975 334.385,367.225 334.135 C 367.505 333.855,367.569 332.088,367.413 328.955 C 367.282 326.340,367.084 320.242,366.972 315.405 C 366.861 310.567,366.596 306.436,366.385 306.225 C 366.173 306.013,366.000 304.267,366.000 302.344 C 366.000 300.421,365.820 298.736,365.600 298.600 C 365.380 298.464,365.200 297.024,365.200 295.400 C 365.200 293.776,365.020 292.336,364.800 292.200 C 364.580 292.064,364.400 290.883,364.400 289.576 C 364.400 288.259,364.222 287.200,364.000 287.200 C 363.774 287.200,363.600 286.067,363.600 284.600 C 363.600 283.133,363.426 282.000,363.200 282.000 C 362.980 282.000,362.800 281.201,362.800 280.224 C 362.800 279.247,362.611 278.331,362.381 278.188 C 362.094 278.011,362.109 277.750,362.430 277.364 C 363.422 276.169,361.911 276.809,360.660 278.114 C 359.478 279.347,347.781 293.342,345.605 296.127 C 345.058 296.827,343.843 298.362,342.905 299.537 C 341.201 301.672,340.225 308.000,341.600 308.000 C 341.856 308.000,342.000 311.533,342.000 317.800 C 342.000 324.067,342.144 327.600,342.400 327.600 C 342.635 327.600,342.800 329.000,342.800 331.000 C 342.800 333.000,342.635 334.400,342.400 334.400 C 342.161 334.400,342.000 335.933,342.000 338.200 C 342.000 340.467,341.839 342.000,341.600 342.000 C 341.380 342.000,341.200 342.720,341.200 343.600 C 341.200 344.480,341.020 345.200,340.800 345.200 C 340.580 345.200,340.400 345.830,340.400 346.600 C 340.400 347.370,340.220 348.000,340.000 348.000 C 339.780 348.000,339.600 348.540,339.600 349.200 C 339.600 349.860,339.420 350.400,339.200 350.400 C 338.980 350.400,338.800 350.760,338.800 351.200 C 338.800 351.640,338.620 352.000,338.400 352.000 C 338.180 352.000,338.000 352.360,338.000 352.800 C 338.000 353.240,337.820 353.600,337.600 353.600 C 337.380 353.600,337.200 353.960,337.200 354.400 C 337.200 354.840,337.020 355.200,336.800 355.200 C 336.580 355.200,336.400 355.520,336.400 355.912 C 336.400 356.303,336.040 356.883,335.600 357.200 C 335.160 357.517,334.800 357.992,334.800 358.255 C 334.800 358.764,326.991 366.799,326.494 366.801 C 326.333 366.801,325.570 367.341,324.800 368.000 C 324.030 368.659,323.175 369.199,322.900 369.199 C 322.625 369.200,322.400 369.380,322.400 369.600 C 322.400 369.820,322.040 370.000,321.600 370.000 C 321.160 370.000,320.800 370.180,320.800 370.400 C 320.800 370.620,320.440 370.800,320.000 370.800 C 319.560 370.800,319.200 370.980,319.200 371.200 C 319.200 371.420,318.840 371.600,318.400 371.600 C 317.960 371.600,317.600 371.780,317.600 372.000 C 317.600 372.220,317.060 372.400,316.400 372.400 C 315.740 372.400,315.200 372.580,315.200 372.800 C 315.200 373.020,314.660 373.200,314.000 373.200 C 313.340 373.200,312.800 373.380,312.800 373.600 C 312.800 373.820,312.170 374.000,311.400 374.000 C 310.630 374.000,310.000 374.180,310.000 374.400 C 310.000 374.620,309.100 374.800,308.000 374.800 C 306.900 374.800,306.000 374.980,306.000 375.200 C 306.000 375.445,304.067 375.600,301.000 375.600 C 297.778 375.600,296.000 375.749,296.000 376.020 C 296.000 376.301,293.285 376.418,287.767 376.375 L 279.535 376.311 277.867 377.497 C 269.221 383.646,259.817 383.750,251.721 377.786 L 249.800 376.371 176.726 376.389 C 128.041 376.400,103.568 376.272,103.402 376.003 C 103.256 375.767,101.088 375.600,98.176 375.600 C 95.125 375.600,93.200 375.445,93.200 375.200 C 93.200 374.980,92.401 374.800,91.424 374.800 C 90.447 374.800,89.536 374.620,89.400 374.400 C 89.264 374.180,88.533 374.000,87.776 374.000 C 87.019 374.000,86.400 373.820,86.400 373.600 C 86.400 373.380,85.860 373.200,85.200 373.200 C 84.540 373.200,84.000 373.020,84.000 372.800 C 84.000 372.580,83.561 372.400,83.024 372.400 C 82.487 372.400,81.936 372.220,81.800 372.000 C 81.664 371.780,81.203 371.600,80.776 371.600 C 80.349 371.600,80.000 371.420,80.000 371.200 C 80.000 370.980,79.640 370.800,79.200 370.800 C 78.760 370.800,78.400 370.620,78.400 370.400 C 78.400 370.180,78.080 370.000,77.688 370.000 C 77.297 370.000,76.717 369.640,76.400 369.200 C 76.083 368.760,75.593 368.400,75.312 368.400 C 75.030 368.400,74.800 368.220,74.800 368.000 C 74.800 367.780,74.530 367.600,74.200 367.600 C 73.870 367.600,73.600 367.420,73.600 367.200 C 73.600 366.980,73.411 366.800,73.179 366.800 C 72.947 366.800,71.200 365.270,69.296 363.400 C 67.392 361.530,65.692 360.000,65.517 360.000 C 65.343 360.000,65.200 359.680,65.200 359.288 C 65.200 358.897,64.840 358.317,64.400 358.000 C 63.960 357.683,63.600 357.186,63.600 356.895 C 63.600 356.604,63.240 355.980,62.800 355.508 C 62.360 355.036,62.000 354.413,62.000 354.125 C 62.000 353.836,61.820 353.600,61.600 353.600 C 61.380 353.600,61.200 353.251,61.200 352.824 C 61.200 352.397,61.020 351.936,60.800 351.800 C 60.580 351.664,60.400 351.113,60.400 350.576 C 60.400 350.039,60.220 349.600,60.000 349.600 C 59.780 349.600,59.600 349.060,59.600 348.400 C 59.600 347.740,59.434 347.200,59.232 347.200 C 59.029 347.200,58.737 345.985,58.583 344.500 C 58.429 343.015,58.124 341.576,57.905 341.303 C 57.380 340.647,57.464 310.285,57.995 308.622 C 58.209 307.950,58.497 304.745,58.634 301.500 C 58.771 298.255,59.044 295.600,59.242 295.600 C 59.439 295.600,59.600 294.430,59.600 293.000 C 59.600 291.533,59.774 290.400,60.000 290.400 C 60.220 290.400,60.400 289.421,60.400 288.224 C 60.400 287.027,60.580 285.936,60.800 285.800 C 61.020 285.664,61.200 284.854,61.200 284.000 C 61.200 283.146,61.380 282.336,61.600 282.200 C 61.820 282.064,62.000 281.153,62.000 280.176 C 62.000 279.199,62.180 278.400,62.400 278.400 C 62.620 278.400,62.800 277.590,62.800 276.600 C 62.800 275.610,62.980 274.800,63.200 274.800 C 63.420 274.800,63.600 274.271,63.600 273.624 C 63.600 272.977,63.780 272.336,64.000 272.200 C 64.220 272.064,64.400 271.333,64.400 270.576 C 64.400 269.819,64.580 269.200,64.800 269.200 C 65.020 269.200,65.200 268.671,65.200 268.024 C 65.200 267.377,65.380 266.736,65.600 266.600 C 65.820 266.464,66.000 265.733,66.000 264.976 C 66.000 264.219,66.180 263.600,66.400 263.600 C 66.620 263.600,66.800 263.240,66.800 262.800 C 66.800 262.360,66.980 262.000,67.200 262.000 C 67.420 262.000,67.600 261.460,67.600 260.800 C 67.600 260.140,67.780 259.600,68.000 259.600 C 68.220 259.600,68.400 259.328,68.400 258.995 C 68.400 258.662,68.580 258.032,68.800 257.595 C 69.020 257.158,69.380 256.442,69.600 256.005 C 69.820 255.568,70.000 254.953,70.000 254.639 C 70.000 254.324,70.135 254.007,70.300 253.933 C 70.659 253.774,75.200 244.563,75.200 243.995 C 75.200 243.778,75.380 243.600,75.600 243.600 C 75.820 243.600,76.000 243.330,76.000 243.000 C 76.000 242.670,76.180 242.400,76.400 242.400 C 76.620 242.400,76.800 242.130,76.800 241.800 C 76.800 241.470,76.950 241.200,77.132 241.200 C 77.315 241.200,77.719 240.705,78.030 240.100 C 78.340 239.495,78.911 238.709,79.297 238.353 C 79.684 237.997,80.000 237.502,80.000 237.253 C 80.000 237.004,80.180 236.800,80.400 236.800 C 80.620 236.800,80.800 236.616,80.800 236.391 C 80.800 235.854,89.843 226.800,90.380 226.800 C 90.607 226.800,91.018 226.440,91.293 226.000 C 91.568 225.560,92.036 225.200,92.335 225.200 C 92.966 225.200,95.338 223.940,95.533 223.500 C 95.607 223.335,96.012 223.200,96.433 223.200 C 96.855 223.200,97.200 223.020,97.200 222.800 C 97.200 222.580,97.472 222.400,97.805 222.400 C 98.138 222.400,98.723 222.241,99.105 222.047 C 99.487 221.852,100.340 221.471,101.000 221.200 C 101.660 220.929,102.513 220.548,102.895 220.353 C 103.277 220.159,103.941 220.000,104.371 220.000 C 104.801 220.000,105.264 219.820,105.400 219.600 C 105.536 219.380,106.256 219.200,107.000 219.200 C 107.744 219.200,108.464 219.020,108.600 218.800 C 108.736 218.580,109.726 218.400,110.800 218.400 C 111.874 218.400,112.864 218.220,113.000 218.000 C 113.136 217.780,114.587 217.600,116.224 217.600 C 117.941 217.600,119.200 217.769,119.200 218.000 C 119.200 218.220,119.560 218.400,120.000 218.400 C 120.440 218.400,120.800 218.558,120.800 218.751 C 120.800 218.945,121.340 219.327,122.000 219.600 C 122.660 219.873,123.200 220.255,123.200 220.449 C 123.200 220.642,123.520 220.800,123.912 220.800 C 124.303 220.800,124.883 221.160,125.200 221.600 C 125.517 222.040,126.014 222.400,126.305 222.400 C 126.596 222.400,127.194 222.736,127.635 223.147 C 128.076 223.558,129.104 224.233,129.919 224.647 C 130.733 225.061,131.460 225.535,131.533 225.700 C 131.607 225.865,131.922 226.000,132.233 226.000 C 132.545 226.000,132.800 226.180,132.800 226.400 C 132.800 226.620,133.070 226.800,133.400 226.800 C 133.730 226.800,134.000 226.980,134.000 227.200 C 134.000 227.420,134.320 227.600,134.712 227.600 C 135.103 227.600,135.683 227.960,136.000 228.400 C 136.317 228.840,136.857 229.200,137.200 229.200 C 137.543 229.200,138.083 229.560,138.400 230.000 C 138.717 230.440,139.297 230.800,139.688 230.800 C 140.080 230.800,140.400 230.980,140.400 231.200 C 140.400 231.420,140.694 231.600,141.053 231.600 C 141.412 231.600,141.997 231.918,142.353 232.307 C 142.709 232.696,143.900 233.461,145.000 234.007 C 146.100 234.553,147.060 235.135,147.133 235.300 C 147.207 235.465,147.612 235.600,148.033 235.600 C 148.455 235.600,148.800 235.780,148.800 236.000 C 148.800 236.220,149.160 236.400,149.600 236.400 C 150.040 236.400,150.400 236.580,150.400 236.800 C 150.400 237.020,150.749 237.200,151.176 237.200 C 151.603 237.200,152.064 237.380,152.200 237.600 C 152.336 237.820,152.887 238.000,153.424 238.000 C 153.961 238.000,154.400 238.180,154.400 238.400 C 154.400 238.620,154.760 238.800,155.200 238.800 C 155.640 238.800,156.000 238.980,156.000 239.200 C 156.000 239.420,156.362 239.600,156.805 239.600 C 157.248 239.600,157.923 239.774,158.305 239.987 C 159.364 240.578,162.729 241.600,163.614 241.600 C 164.046 241.600,164.400 241.780,164.400 242.000 C 164.400 242.220,164.940 242.400,165.600 242.400 C 166.260 242.400,166.800 242.580,166.800 242.800 C 166.800 243.020,167.520 243.200,168.400 243.200 C 169.280 243.200,170.000 243.380,170.000 243.600 C 170.000 243.820,170.540 244.000,171.200 244.000 C 171.860 244.000,172.400 244.180,172.400 244.400 C 172.400 244.620,173.120 244.800,174.000 244.800 C 174.880 244.800,175.600 244.980,175.600 245.200 C 175.600 245.420,176.399 245.600,177.376 245.600 C 178.353 245.600,179.264 245.780,179.400 246.000 C 179.536 246.220,180.627 246.400,181.824 246.400 C 183.021 246.400,184.000 246.580,184.000 246.800 C 184.000 247.033,185.333 247.200,187.200 247.200 C 189.067 247.200,190.400 247.367,190.400 247.600 C 190.400 247.855,193.733 248.000,199.600 248.000 C 205.467 248.000,208.800 247.855,208.800 247.600 C 208.800 247.367,210.133 247.200,212.000 247.200 C 213.867 247.200,215.200 247.033,215.200 246.800 C 215.200 246.578,216.267 246.400,217.600 246.400 C 218.933 246.400,220.000 246.222,220.000 246.000 C 220.000 245.780,220.810 245.600,221.800 245.600 C 222.790 245.600,223.600 245.420,223.600 245.200 C 223.600 244.980,224.320 244.800,225.200 244.800 C 226.080 244.800,226.800 244.620,226.800 244.400 C 226.800 244.180,227.419 244.000,228.176 244.000 C 228.933 244.000,229.664 243.820,229.800 243.600 C 229.936 243.380,230.577 243.200,231.224 243.200 C 231.871 243.200,232.400 243.020,232.400 242.800 C 232.400 242.580,232.940 242.400,233.600 242.400 C 234.260 242.400,234.800 242.259,234.800 242.086 C 234.800 241.913,235.745 241.581,236.900 241.348 C 239.284 240.866,242.933 239.550,243.133 239.100 C 243.207 238.935,243.601 238.800,244.010 238.800 C 244.418 238.800,244.864 238.620,245.000 238.400 C 245.136 238.180,245.687 238.000,246.224 238.000 C 246.761 238.000,247.200 237.820,247.200 237.600 C 247.200 237.380,247.560 237.200,248.000 237.200 C 248.440 237.200,248.800 237.020,248.800 236.800 C 248.800 236.580,249.160 236.400,249.600 236.400 C 250.040 236.400,250.400 236.220,250.400 236.000 C 250.400 235.780,250.760 235.600,251.200 235.600 C 251.640 235.600,252.000 235.420,252.000 235.200 C 252.000 234.980,252.360 234.800,252.800 234.800 C 253.240 234.800,253.600 234.620,253.600 234.400 C 253.600 234.180,253.960 234.000,254.400 234.000 C 254.840 234.000,255.200 233.864,255.200 233.698 C 255.200 233.531,255.785 233.140,256.500 232.828 C 257.215 232.516,258.091 231.932,258.447 231.530 C 258.803 231.129,259.388 230.800,259.747 230.800 C 260.106 230.800,260.400 230.620,260.400 230.400 C 260.400 230.180,260.636 230.000,260.925 230.000 C 261.213 230.000,261.836 229.640,262.308 229.200 C 262.780 228.760,263.404 228.400,263.695 228.400 C 263.986 228.400,264.483 228.040,264.800 227.600 C 265.117 227.160,265.631 226.800,265.941 226.800 C 266.252 226.800,266.797 226.469,267.153 226.064 C 267.509 225.659,268.295 225.206,268.900 225.056 C 269.505 224.907,270.000 224.608,270.000 224.392 C 270.000 224.177,270.248 224.000,270.551 224.000 C 270.854 224.000,271.329 223.727,271.606 223.393 C 271.883 223.059,272.691 222.510,273.401 222.173 C 274.111 221.836,275.069 221.209,275.529 220.780 C 275.990 220.351,276.604 220.000,276.895 220.000 C 277.186 220.000,277.683 219.640,278.000 219.200 C 278.317 218.760,278.897 218.400,279.288 218.400 C 279.680 218.400,280.000 218.220,280.000 218.000 C 280.000 217.767,281.333 217.600,283.200 217.600 C 285.067 217.600,286.400 217.767,286.400 218.000 C 286.400 218.220,287.379 218.400,288.576 218.400 C 289.773 218.400,290.864 218.580,291.000 218.800 C 291.136 219.020,291.856 219.200,292.600 219.200 C 293.344 219.200,294.064 219.380,294.200 219.600 C 294.336 219.820,294.887 220.000,295.424 220.000 C 295.961 220.000,296.400 220.180,296.400 220.400 C 296.400 220.620,296.839 220.800,297.376 220.800 C 297.913 220.800,298.464 220.980,298.600 221.200 C 298.736 221.420,299.197 221.600,299.624 221.600 C 300.051 221.600,300.400 221.780,300.400 222.000 C 300.400 222.220,300.634 222.400,300.920 222.400 C 301.656 222.400,303.593 223.341,303.597 223.700 C 303.599 223.865,303.960 224.000,304.400 224.000 C 304.840 224.000,305.200 224.166,305.200 224.368 C 305.200 224.571,305.705 224.847,306.322 224.983 C 306.940 225.119,307.699 225.583,308.011 226.015 C 308.322 226.447,308.885 226.800,309.261 226.800 C 309.638 226.800,310.051 227.131,310.180 227.536 C 310.308 227.941,310.815 228.488,311.307 228.753 C 311.798 229.018,312.650 229.767,313.200 230.418 C 313.750 231.069,315.325 232.768,316.700 234.194 C 318.075 235.619,319.200 236.969,319.200 237.193 C 319.200 237.417,319.380 237.600,319.600 237.600 C 319.820 237.600,320.000 237.870,320.000 238.200 C 320.000 238.530,320.180 238.800,320.400 238.800 C 320.620 238.800,320.800 239.070,320.800 239.400 C 320.800 239.730,320.980 240.000,321.200 240.000 C 321.420 240.000,321.600 240.270,321.600 240.600 C 321.600 240.930,321.780 241.200,322.000 241.200 C 322.220 241.200,322.400 241.430,322.400 241.712 C 322.400 241.993,322.760 242.483,323.200 242.800 C 323.640 243.117,324.000 243.614,324.000 243.905 C 324.000 244.196,324.360 244.820,324.800 245.292 C 325.240 245.764,325.600 246.387,325.600 246.675 C 325.600 246.964,325.780 247.200,326.000 247.200 C 326.220 247.200,326.400 247.560,326.400 248.000 C 326.400 248.440,326.560 248.800,326.755 248.800 C 327.482 248.800,327.673 251.628,327.015 252.633 C 326.667 253.165,326.554 253.600,326.764 253.600 C 326.974 253.600,327.260 253.240,327.400 252.801 C 327.539 252.361,328.046 251.893,328.527 251.759 C 329.007 251.626,331.470 248.988,334.000 245.897 C 342.496 235.518,340.905 236.155,346.707 240.813 C 349.181 242.800,352.060 244.868,353.103 245.409 L 355.000 246.393 353.500 245.158 C 352.675 244.478,352.000 243.670,352.000 243.361 C 352.000 243.053,351.820 242.800,351.600 242.800 C 351.380 242.800,351.200 242.440,351.200 242.000 C 351.200 241.560,351.020 241.200,350.800 241.200 C 350.580 241.200,350.400 240.840,350.400 240.400 C 350.400 239.960,350.220 239.600,350.000 239.600 C 349.780 239.600,349.600 239.240,349.600 238.800 C 349.600 238.360,349.420 238.000,349.200 238.000 C 348.980 238.000,348.800 237.640,348.800 237.200 C 348.800 236.760,348.620 236.400,348.400 236.400 C 348.180 236.400,348.000 236.040,348.000 235.600 C 348.000 235.160,347.820 234.800,347.600 234.800 C 347.380 234.800,347.200 234.440,347.200 234.000 C 347.200 233.560,347.020 233.200,346.800 233.200 C 346.580 233.200,346.400 232.922,346.400 232.583 C 346.400 232.244,346.040 231.580,345.600 231.108 C 345.160 230.636,344.800 230.013,344.800 229.725 C 344.800 229.436,344.620 229.200,344.400 229.200 C 344.180 229.200,344.000 228.970,344.000 228.688 C 344.000 228.407,343.640 227.917,343.200 227.600 C 342.760 227.283,342.400 226.703,342.400 226.312 C 342.400 225.920,342.242 225.600,342.049 225.600 C 341.855 225.600,341.488 225.095,341.233 224.479 C 340.977 223.862,340.365 222.917,339.873 222.379 C 339.380 221.840,338.535 220.770,337.994 220.000 C 337.453 219.230,336.288 217.856,335.405 216.947 C 334.522 216.037,332.978 214.417,331.974 213.347 C 330.970 212.276,329.729 211.130,329.216 210.800 C 328.703 210.470,327.686 209.615,326.955 208.900 C 326.225 208.185,325.441 207.600,325.213 207.600 C 324.986 207.600,324.800 207.459,324.800 207.286 C 324.800 207.114,324.305 206.679,323.700 206.321 C 323.095 205.963,322.060 205.204,321.400 204.635 C 320.740 204.066,319.975 203.601,319.700 203.600 C 319.425 203.600,319.200 203.420,319.200 203.200 C 319.200 202.980,318.840 202.800,318.400 202.800 C 317.960 202.800,317.600 202.620,317.600 202.400 C 317.600 202.180,317.322 202.000,316.983 202.000 C 316.644 202.000,315.980 201.640,315.508 201.200 C 315.036 200.760,314.334 200.400,313.948 200.400 C 313.563 200.400,313.136 200.220,313.000 200.000 C 312.864 199.780,312.403 199.600,311.976 199.600 C 311.549 199.600,311.200 199.420,311.200 199.200 C 311.200 198.980,310.840 198.800,310.400 198.800 C 309.960 198.800,309.600 198.620,309.600 198.400 C 309.600 198.180,309.328 198.000,308.995 198.000 C 308.662 198.000,308.077 197.841,307.695 197.647 C 306.467 197.022,305.044 196.503,303.200 196.007 C 302.210 195.740,301.087 195.360,300.705 195.161 C 300.323 194.962,299.414 194.800,298.685 194.800 C 297.956 194.800,297.171 194.611,296.941 194.381 C 296.711 194.151,294.605 193.853,292.261 193.721 C 289.917 193.588,288.000 193.327,288.000 193.140 C 288.000 192.953,285.030 192.800,281.400 192.800 C 277.770 192.800,274.800 192.956,274.800 193.146 C 274.800 193.336,273.972 193.605,272.960 193.743 C 271.250 193.978,266.368 196.211,266.067 196.897 C 265.993 197.063,265.712 197.200,265.442 197.200 C 265.172 197.200,264.602 197.515,264.175 197.900 C 263.749 198.285,262.908 198.854,262.307 199.164 C 261.705 199.474,260.858 200.059,260.423 200.464 C 259.989 200.869,259.396 201.200,259.105 201.200 C 258.814 201.200,258.317 201.560,258.000 202.000 C 257.683 202.440,257.143 202.800,256.800 202.800 C 256.457 202.800,255.917 203.160,255.600 203.600 C 255.283 204.040,254.786 204.400,254.495 204.400 C 254.204 204.400,253.580 204.760,253.108 205.200 C 252.636 205.640,252.013 206.000,251.725 206.000 C 251.436 206.000,251.200 206.180,251.200 206.400 C 251.200 206.620,250.964 206.800,250.675 206.800 C 250.387 206.800,249.802 207.115,249.375 207.500 C 248.949 207.885,248.105 208.455,247.500 208.768 C 246.895 209.080,246.400 209.470,246.400 209.636 C 246.400 209.801,245.884 210.050,245.254 210.188 C 244.624 210.327,243.731 210.791,243.271 211.220 C 242.810 211.649,242.156 212.000,241.817 212.000 C 241.478 212.000,241.200 212.180,241.200 212.400 C 241.200 212.620,240.840 212.800,240.400 212.800 C 239.960 212.800,239.600 212.980,239.600 213.200 C 239.600 213.420,239.328 213.600,238.995 213.600 C 238.662 213.600,238.077 213.759,237.695 213.953 C 237.313 214.148,236.460 214.529,235.800 214.800 C 235.140 215.071,234.287 215.452,233.905 215.647 C 233.523 215.841,232.848 216.000,232.405 216.000 C 231.962 216.000,231.600 216.180,231.600 216.400 C 231.600 216.620,231.161 216.800,230.624 216.800 C 230.087 216.800,229.536 216.980,229.400 217.200 C 229.264 217.420,228.803 217.600,228.376 217.600 C 227.949 217.600,227.600 217.780,227.600 218.000 C 227.600 218.220,227.150 218.400,226.600 218.400 C 226.050 218.400,225.600 218.580,225.600 218.800 C 225.600 219.020,225.071 219.200,224.424 219.200 C 223.777 219.200,223.136 219.380,223.000 219.600 C 222.864 219.820,222.133 220.000,221.376 220.000 C 220.619 220.000,220.000 220.180,220.000 220.400 C 220.000 220.620,219.280 220.800,218.400 220.800 C 217.520 220.800,216.800 220.980,216.800 221.200 C 216.800 221.420,215.900 221.600,214.800 221.600 C 213.700 221.600,212.800 221.780,212.800 222.000 C 212.800 222.228,211.608 222.400,210.024 222.400 C 208.497 222.400,207.136 222.580,207.000 222.800 C 206.850 223.043,203.929 223.200,199.576 223.200 C 195.059 223.200,192.400 223.052,192.400 222.800 C 192.400 222.569,191.133 222.400,189.400 222.400 C 187.667 222.400,186.400 222.231,186.400 222.000 C 186.400 221.780,185.500 221.600,184.400 221.600 C 183.300 221.600,182.400 221.420,182.400 221.200 C 182.400 220.980,181.680 220.800,180.800 220.800 C 179.920 220.800,179.200 220.620,179.200 220.400 C 179.200 220.180,178.671 220.000,178.024 220.000 C 177.377 220.000,176.736 219.820,176.600 219.600 C 176.464 219.380,175.911 219.200,175.371 219.200 C 174.831 219.200,174.032 219.020,173.595 218.800 C 173.158 218.580,172.442 218.220,172.005 218.000 C 171.568 217.780,170.938 217.600,170.605 217.600 C 170.272 217.600,170.000 217.420,170.000 217.200 C 170.000 216.980,169.460 216.800,168.800 216.800 C 168.140 216.800,167.600 216.620,167.600 216.400 C 167.600 216.180,167.251 216.000,166.824 216.000 C 166.397 216.000,165.936 215.820,165.800 215.600 C 165.664 215.380,165.113 215.200,164.576 215.200 C 164.039 215.200,163.600 215.020,163.600 214.800 C 163.600 214.580,163.325 214.400,162.989 214.400 C 162.332 214.400,157.891 212.275,155.600 210.865 C 154.830 210.391,153.925 210.002,153.588 210.001 C 153.252 210.001,152.717 209.640,152.400 209.200 C 152.083 208.760,151.543 208.400,151.200 208.400 C 150.857 208.400,150.317 208.040,150.000 207.600 C 149.683 207.160,149.143 206.800,148.800 206.800 C 148.457 206.800,147.917 206.440,147.600 206.000 C 147.283 205.560,146.786 205.200,146.495 205.200 C 146.204 205.200,145.580 204.840,145.108 204.400 C 144.636 203.960,144.013 203.600,143.725 203.600 C 143.436 203.600,143.200 203.420,143.200 203.200 C 143.200 202.980,142.883 202.800,142.496 202.800 C 142.109 202.800,141.568 202.440,141.293 202.000 C 141.018 201.560,140.607 201.200,140.380 201.200 C 140.153 201.200,139.580 200.840,139.108 200.400 C 138.636 199.960,138.013 199.600,137.725 199.600 C 137.436 199.600,137.200 199.420,137.200 199.200 C 137.200 198.980,136.964 198.800,136.675 198.800 C 136.387 198.800,135.764 198.440,135.292 198.000 C 134.820 197.560,134.156 197.200,133.817 197.200 C 133.478 197.200,133.200 197.048,133.200 196.863 C 133.200 196.380,127.135 193.600,126.082 193.600 C 125.597 193.600,125.200 193.420,125.200 193.200 C 125.200 192.706,111.742 192.646,111.438 193.139 M360.213 251.440 C 361.005 252.232,361.749 252.785,361.865 252.668 C 362.099 252.434,359.585 250.030,359.087 250.012 C 358.914 250.005,359.421 250.648,360.213 251.440 M322.109 258.290 C 320.665 259.927,320.637 260.613,322.076 259.135 C 323.509 257.663,324.131 256.799,323.749 256.814 C 323.557 256.821,322.819 257.485,322.109 258.290 M369.200 258.625 C 369.200 258.925,370.273 260.000,370.571 260.000 C 371.080 260.000,370.751 259.362,370.000 258.893 C 369.560 258.618,369.200 258.498,369.200 258.625 M319.200 261.969 C 319.200 262.172,318.134 263.476,316.831 264.866 C 315.528 266.257,314.534 267.467,314.621 267.555 C 314.805 267.738,318.037 264.344,319.246 262.700 C 319.691 262.095,319.862 261.600,319.627 261.600 C 319.392 261.600,319.200 261.766,319.200 261.969 M368.575 269.868 C 367.959 270.676,367.659 271.211,367.909 271.056 C 368.421 270.740,370.153 268.400,369.875 268.400 C 369.776 268.400,369.191 269.061,368.575 269.868 M307.660 275.851 C 307.143 276.402,306.819 276.952,306.941 277.074 C 307.162 277.295,307.717 276.812,308.749 275.498 C 309.584 274.435,308.728 274.713,307.660 275.851 M300.931 283.918 C 298.932 286.117,298.198 287.487,300.076 285.513 C 303.070 282.366,303.718 281.602,303.378 281.620 C 303.170 281.631,302.069 282.665,300.931 283.918 M294.379 292.222 C 293.851 292.784,293.688 293.141,294.018 293.014 C 294.539 292.815,295.834 291.200,295.473 291.200 C 295.400 291.200,294.907 291.660,294.379 292.222 M289.445 297.788 C 289.080 298.344,288.922 298.800,289.095 298.800 C 289.484 298.800,290.519 297.186,290.282 296.949 C 290.186 296.853,289.810 297.231,289.445 297.788 M285.331 302.718 C 282.862 305.435,282.820 306.011,285.272 303.527 C 287.462 301.309,288.191 300.395,287.749 300.420 C 287.557 300.431,286.469 301.465,285.331 302.718 M282.075 306.687 C 281.121 307.872,280.871 308.786,281.737 307.920 C 282.304 307.353,283.326 305.600,283.089 305.600 C 283.012 305.600,282.555 306.089,282.075 306.687 M199.670 316.422 C 199.158 317.070,198.888 317.590,199.070 317.578 C 199.251 317.566,199.819 317.026,200.330 316.378 C 200.842 315.730,201.112 315.210,200.930 315.222 C 200.749 315.234,200.181 315.774,199.670 316.422 M274.600 315.720 C 273.296 317.318,273.190 317.654,274.315 316.625 C 275.022 315.979,275.600 315.394,275.600 315.325 C 275.600 315.022,274.965 315.274,274.600 315.720 M328.893 317.600 C 328.618 318.040,328.531 318.400,328.700 318.400 C 328.869 318.400,329.232 318.040,329.507 317.600 C 329.782 317.160,329.869 316.800,329.700 316.800 C 329.531 316.800,329.168 317.160,328.893 317.600 M269.733 321.516 C 269.036 322.332,268.528 323.061,268.603 323.137 C 268.748 323.281,271.600 320.454,271.600 320.166 C 271.600 319.666,270.852 320.206,269.733 321.516 M266.961 325.112 C 265.477 326.500,263.711 328.660,264.769 327.794 C 265.882 326.882,268.000 324.749,268.000 324.541 C 268.000 324.255,267.703 324.418,266.961 325.112 M321.100 327.014 C 320.101 328.350,320.231 328.723,321.246 327.433 C 321.711 326.842,322.026 326.295,321.946 326.218 C 321.866 326.141,321.485 326.500,321.100 327.014 M192.022 329.500 C 192.049 329.869,194.400 331.759,194.400 331.412 C 194.400 331.106,192.520 329.200,192.218 329.200 C 192.098 329.200,192.010 329.335,192.022 329.500 M260.200 329.600 C 260.336 329.820,260.876 330.000,261.400 330.000 C 261.924 330.000,262.464 329.820,262.600 329.600 C 262.747 329.361,262.263 329.200,261.400 329.200 C 260.537 329.200,260.053 329.361,260.200 329.600 M196.800 333.325 C 196.800 333.394,197.385 333.979,198.100 334.625 L 199.400 335.800 198.225 334.500 C 197.130 333.288,196.800 333.016,196.800 333.325 M203.000 338.573 C 203.880 339.384,204.870 340.247,205.200 340.490 C 205.530 340.734,206.205 341.295,206.700 341.737 C 207.195 342.178,207.592 342.373,207.581 342.170 C 207.571 341.966,206.842 341.260,205.960 340.600 C 205.079 339.940,203.692 338.882,202.879 338.249 C 201.424 337.117,201.426 337.122,203.000 338.573 M210.000 344.184 C 210.000 344.616,212.116 346.418,212.349 346.184 C 212.451 346.083,212.458 345.955,212.367 345.900 C 212.275 345.845,211.705 345.364,211.100 344.830 C 210.495 344.297,210.000 344.006,210.000 344.184 M221.800 354.168 C 222.680 354.949,223.548 355.591,223.729 355.594 C 224.172 355.602,223.277 354.799,221.589 353.674 C 220.269 352.794,220.279 352.819,221.800 354.168 M225.821 357.784 C 226.450 358.325,227.047 358.686,227.147 358.586 C 227.386 358.347,225.593 356.800,225.077 356.800 C 224.856 356.800,225.191 357.243,225.821 357.784 M295.293 358.000 C 295.018 358.440,294.931 358.800,295.100 358.800 C 295.269 358.800,295.632 358.440,295.907 358.000 C 296.182 357.560,296.269 357.200,296.100 357.200 C 295.931 357.200,295.568 357.560,295.293 358.000 M230.800 361.395 C 230.800 361.696,233.779 364.354,233.939 364.195 C 234.016 364.117,233.438 363.411,232.653 362.627 C 231.309 361.283,230.800 360.944,230.800 361.395 M237.200 367.100 C 237.200 367.269,237.560 367.632,238.000 367.907 C 238.440 368.182,238.800 368.269,238.800 368.100 C 238.800 367.931,238.440 367.568,238.000 367.293 C 237.560 367.018,237.200 366.931,237.200 367.100 M241.061 370.184 C 243.588 372.509,244.142 372.521,241.821 370.200 C 240.831 369.210,239.819 368.400,239.572 368.400 C 239.325 368.400,239.995 369.203,241.061 370.184 M245.688 374.226 C 246.286 374.849,246.869 375.264,246.983 375.150 C 247.097 375.036,246.607 374.527,245.895 374.019 L 244.600 373.095 245.688 374.226 " stroke="none" fill="#040404" fill-rule="evenodd"></path><path id="path2" d="M339.028 240.400 C 337.784 241.940,336.908 243.194,337.083 243.188 C 337.257 243.181,337.973 242.416,338.673 241.488 C 341.846 237.282,341.161 237.212,347.360 242.371 C 349.758 244.367,351.973 246.000,352.281 246.000 C 353.344 246.000,356.412 248.454,362.783 254.400 C 363.372 254.950,364.460 255.850,365.201 256.400 C 365.941 256.950,367.279 258.122,368.174 259.005 C 369.068 259.888,370.430 261.045,371.200 261.576 C 371.970 262.107,372.670 262.594,372.756 262.660 C 372.921 262.785,371.488 264.730,369.999 266.400 C 369.509 266.950,367.772 269.055,366.139 271.077 C 364.507 273.099,362.637 275.202,361.985 275.751 C 360.645 276.879,360.469 277.300,361.500 276.910 C 362.397 276.570,363.224 275.757,362.951 275.484 C 362.835 275.368,363.113 275.154,363.570 275.010 C 364.026 274.865,364.400 274.575,364.400 274.366 C 364.400 274.157,364.986 273.404,365.703 272.693 C 366.420 271.982,367.635 270.611,368.403 269.646 C 369.171 268.682,370.729 266.794,371.864 265.453 C 374.112 262.796,374.147 262.225,372.131 261.185 C 371.129 260.668,368.990 258.864,366.104 256.100 C 365.587 255.605,364.992 255.200,364.782 255.200 C 364.572 255.200,364.399 255.065,364.397 254.900 C 364.396 254.735,363.727 254.150,362.911 253.600 C 362.095 253.050,360.341 251.554,359.014 250.275 C 356.183 247.548,353.799 245.818,352.400 245.478 C 351.850 245.344,349.291 243.517,346.714 241.417 C 341.126 236.866,341.810 236.956,339.028 240.400 M332.824 247.825 C 330.968 250.121,329.200 252.000,328.896 252.000 C 328.177 252.000,327.023 253.156,327.382 253.516 C 327.535 253.668,327.835 253.480,328.050 253.097 C 328.264 252.714,328.687 252.400,328.990 252.400 C 329.293 252.400,331.179 250.420,333.182 248.000 C 335.185 245.580,336.684 243.611,336.512 243.625 C 336.340 243.639,334.681 245.529,332.824 247.825 M321.700 259.420 C 320.765 260.389,320.006 261.501,320.013 261.891 C 320.024 262.531,320.083 262.522,320.620 261.800 C 321.491 260.629,322.400 259.519,323.324 258.500 C 324.829 256.839,323.420 257.637,321.700 259.420 M316.551 266.017 C 315.265 267.346,314.064 268.700,313.882 269.025 C 313.700 269.351,313.377 269.510,313.166 269.379 C 312.954 269.248,312.814 269.289,312.855 269.470 C 312.896 269.652,312.720 270.307,312.465 270.926 C 311.714 272.745,311.918 272.661,313.296 270.581 C 314.009 269.505,315.649 267.494,316.942 266.112 C 318.234 264.730,319.201 263.600,319.090 263.600 C 318.979 263.600,317.837 264.688,316.551 266.017 M306.500 277.816 C 305.785 278.565,305.200 279.362,305.200 279.589 C 305.200 279.815,305.020 280.000,304.800 280.000 C 304.580 280.000,304.400 280.270,304.400 280.600 C 304.400 280.930,304.580 281.200,304.800 281.200 C 305.020 281.200,305.200 280.964,305.200 280.675 C 305.200 280.387,305.590 279.712,306.067 279.175 C 306.543 278.639,307.295 277.795,307.736 277.300 C 309.019 275.862,307.933 276.316,306.500 277.816 M359.157 278.533 C 358.584 279.230,356.244 282.032,353.958 284.760 C 349.126 290.524,344.566 296.344,346.247 294.600 C 346.883 293.940,348.133 292.500,349.024 291.400 C 349.915 290.300,352.859 286.735,355.566 283.478 C 358.273 280.220,360.423 277.490,360.343 277.410 C 360.264 277.330,359.730 277.835,359.157 278.533 M301.112 284.513 C 300.073 285.661,298.903 287.026,298.512 287.547 C 298.120 288.069,297.516 288.802,297.169 289.178 C 296.420 289.990,295.907 291.200,296.313 291.199 C 296.471 291.199,297.087 290.434,297.683 289.499 C 298.278 288.565,299.868 286.585,301.215 285.100 C 302.562 283.615,303.514 282.406,303.332 282.413 C 303.149 282.420,302.150 283.365,301.112 284.513 M291.420 296.225 C 290.996 296.789,290.369 297.584,290.025 297.992 C 289.681 298.399,289.072 299.125,288.671 299.604 C 288.271 300.084,288.023 300.556,288.121 300.654 C 288.219 300.752,288.907 300.084,289.649 299.169 C 290.392 298.254,291.180 297.301,291.400 297.051 C 292.479 295.825,292.865 295.200,292.544 295.200 C 292.349 295.200,291.843 295.661,291.420 296.225 M344.196 296.540 C 342.733 298.202,341.200 300.232,341.200 300.507 C 341.200 300.685,342.025 299.819,343.032 298.581 C 344.563 296.702,345.500 295.058,344.196 296.540 M216.191 297.324 C 215.746 297.806,214.576 299.368,213.591 300.795 C 212.606 302.222,211.395 303.805,210.900 304.313 C 210.405 304.821,210.002 305.363,210.004 305.518 C 210.012 305.990,212.873 302.773,215.180 299.700 C 217.674 296.378,218.469 296.119,220.511 297.967 C 223.462 300.637,224.617 301.588,224.918 301.594 C 225.317 301.602,223.974 300.300,221.313 298.100 C 218.975 296.167,217.471 295.940,216.191 297.324 M286.194 302.527 C 285.531 303.227,284.562 304.430,284.042 305.200 L 283.096 306.600 284.415 305.200 C 287.706 301.707,288.134 301.202,287.778 301.227 C 287.570 301.243,286.857 301.828,286.194 302.527 M339.361 303.319 C 338.486 304.264,337.329 305.657,336.790 306.413 C 336.252 307.170,334.548 309.255,333.005 311.045 C 331.462 312.836,328.760 316.068,327.000 318.228 C 325.240 320.388,323.436 322.525,322.991 322.977 C 322.547 323.430,321.740 324.430,321.199 325.200 C 320.210 326.606,319.412 327.576,316.776 330.578 C 315.993 331.470,314.194 333.640,312.779 335.400 C 309.961 338.904,308.626 340.481,307.391 341.761 C 306.947 342.223,306.145 343.230,305.611 344.000 C 305.076 344.770,304.531 345.490,304.400 345.600 C 304.141 345.818,298.774 352.219,296.200 355.381 C 295.320 356.462,294.134 357.898,293.564 358.573 C 292.995 359.248,292.185 360.220,291.764 360.734 C 291.344 361.247,290.667 362.057,290.260 362.534 C 289.854 363.010,288.954 364.106,288.260 364.968 C 287.567 365.831,285.836 367.901,284.412 369.568 C 281.323 373.187,281.128 373.418,280.554 374.111 C 279.751 375.082,279.164 376.400,279.534 376.400 C 279.734 376.400,280.325 375.771,280.848 375.003 C 281.372 374.234,281.935 373.604,282.100 373.603 C 282.265 373.601,282.400 373.414,282.400 373.188 C 282.400 372.961,283.480 371.692,284.800 370.368 C 286.120 369.044,287.200 367.802,287.200 367.609 C 287.200 367.415,288.008 366.414,288.996 365.383 C 289.983 364.352,290.704 363.368,290.598 363.196 C 290.492 363.025,290.674 362.781,291.002 362.654 C 291.331 362.528,291.600 362.235,291.600 362.002 C 291.600 361.769,292.365 360.794,293.300 359.835 C 294.235 358.875,295.810 357.060,296.800 355.802 C 297.790 354.543,299.143 352.947,299.807 352.256 C 300.470 351.565,301.454 350.378,301.993 349.617 C 302.532 348.856,303.744 347.429,304.687 346.445 C 305.629 345.462,306.400 344.537,306.400 344.390 C 306.400 344.243,306.771 343.690,307.224 343.161 C 307.678 342.633,308.398 341.794,308.824 341.297 C 309.251 340.800,309.600 340.301,309.600 340.186 C 309.600 340.072,310.387 339.192,311.348 338.231 C 312.309 337.269,313.612 335.789,314.244 334.941 C 314.875 334.094,315.708 333.109,316.096 332.753 C 316.483 332.397,316.800 331.898,316.800 331.644 C 316.800 331.390,317.771 330.212,318.958 329.025 C 320.144 327.838,321.708 325.997,322.432 324.934 C 323.157 323.870,324.076 322.709,324.475 322.353 C 324.874 321.997,325.200 321.598,325.200 321.466 C 325.200 321.334,326.280 320.105,327.600 318.735 C 328.920 317.365,330.000 316.009,330.000 315.722 C 330.000 315.435,330.180 315.200,330.400 315.200 C 330.620 315.200,330.800 314.930,330.800 314.600 C 330.800 314.270,330.980 314.000,331.200 314.000 C 331.420 314.000,331.600 313.811,331.600 313.581 C 331.600 313.350,332.815 311.948,334.300 310.464 C 336.842 307.924,338.800 305.541,338.800 304.985 C 338.800 304.850,339.340 304.198,340.000 303.538 C 341.019 302.519,341.529 301.600,341.076 301.600 C 341.007 301.600,340.236 302.373,339.361 303.319 M226.000 302.239 C 226.000 302.572,228.959 305.174,229.136 304.997 C 229.301 304.833,226.538 302.000,226.213 302.000 C 226.096 302.000,226.000 302.108,226.000 302.239 M230.800 306.218 C 230.800 306.612,232.844 308.490,233.048 308.285 C 233.158 308.175,232.779 307.616,232.206 307.042 C 231.177 306.013,230.800 305.792,230.800 306.218 M207.300 308.216 C 206.585 308.965,206.000 309.728,206.000 309.913 C 206.000 310.098,205.622 310.655,205.160 311.151 C 204.698 311.647,204.419 312.152,204.541 312.274 C 204.824 312.558,206.000 311.393,206.000 310.829 C 206.000 310.593,206.180 310.400,206.400 310.400 C 206.620 310.400,206.800 310.196,206.800 309.947 C 206.800 309.698,207.115 309.203,207.501 308.847 C 208.582 307.849,209.336 306.797,208.949 306.827 C 208.757 306.843,208.015 307.467,207.300 308.216 M282.190 307.315 C 281.964 307.582,280.947 308.880,279.929 310.200 C 278.912 311.520,277.683 313.017,277.199 313.526 C 276.715 314.036,276.402 314.536,276.503 314.637 C 276.604 314.738,277.386 313.961,278.241 312.910 C 279.096 311.860,280.113 310.640,280.501 310.200 C 282.141 308.341,283.248 306.801,282.936 306.815 C 282.751 306.824,282.415 307.049,282.190 307.315 M236.849 311.584 C 237.812 312.455,238.773 313.175,238.986 313.184 C 239.198 313.193,238.568 312.485,237.586 311.611 C 236.603 310.738,235.642 310.018,235.449 310.011 C 235.255 310.005,235.885 310.713,236.849 311.584 M201.909 314.913 C 200.870 316.061,199.610 317.523,199.109 318.163 C 198.609 318.803,197.723 319.826,197.140 320.436 C 196.557 321.047,196.149 321.616,196.234 321.701 C 196.319 321.786,195.806 322.500,195.095 323.287 C 194.383 324.075,193.535 325.097,193.212 325.559 C 192.888 326.022,192.405 326.400,192.139 326.400 C 191.621 326.400,190.981 327.914,191.344 328.278 C 191.616 328.549,192.800 327.398,192.800 326.862 C 192.800 326.645,192.935 326.407,193.100 326.333 C 193.349 326.222,196.260 322.800,197.296 321.400 C 198.530 319.732,201.996 315.529,203.152 314.300 C 203.928 313.475,204.391 312.806,204.181 312.813 C 203.972 312.820,202.949 313.765,201.909 314.913 M239.600 313.313 C 239.600 313.658,242.543 316.392,242.918 316.397 C 243.093 316.398,242.815 315.995,242.300 315.500 C 240.680 313.942,239.600 313.067,239.600 313.313 M273.693 317.600 C 273.418 318.040,273.331 318.400,273.500 318.400 C 273.669 318.400,274.032 318.040,274.307 317.600 C 274.582 317.160,274.669 316.800,274.500 316.800 C 274.331 316.800,273.968 317.160,273.693 317.600 M245.745 319.054 C 246.364 319.628,247.014 319.939,247.196 319.747 C 247.378 319.556,246.873 319.088,246.075 318.707 L 244.624 318.015 245.745 319.054 M249.969 322.345 C 251.382 323.692,252.605 324.729,252.685 324.648 C 252.918 324.415,250.335 321.886,248.800 320.845 C 247.940 320.262,248.391 320.841,249.969 322.345 M270.100 321.886 C 269.165 322.904,268.405 324.021,268.412 324.369 C 268.421 324.850,268.533 324.810,268.880 324.200 C 269.131 323.760,269.620 323.126,269.968 322.791 C 271.387 321.425,272.517 320.001,272.170 320.017 C 271.966 320.027,271.035 320.868,270.100 321.886 M265.266 327.461 C 262.834 329.897,260.000 331.048,260.000 329.600 C 260.000 329.380,259.756 329.200,259.458 329.200 C 259.161 329.200,258.396 328.745,257.758 328.189 C 255.764 326.447,255.554 326.312,255.277 326.590 C 255.128 326.738,255.311 327.030,255.684 327.239 C 256.056 327.447,256.599 327.839,256.891 328.109 C 259.718 330.726,262.661 331.191,264.433 329.300 C 268.596 324.855,269.202 323.517,265.266 327.461 M192.882 329.709 C 193.387 330.208,194.430 331.061,195.200 331.602 C 195.970 332.144,197.151 333.130,197.825 333.793 C 198.499 334.457,199.554 335.360,200.169 335.800 C 200.785 336.240,201.494 336.783,201.744 337.006 C 201.995 337.229,203.007 338.039,203.994 338.806 C 204.981 339.573,206.492 340.879,207.352 341.709 C 208.212 342.539,208.998 343.135,209.100 343.033 C 209.337 342.797,207.892 341.379,205.600 339.601 C 204.610 338.833,203.260 337.730,202.600 337.151 C 201.940 336.572,200.050 334.990,198.400 333.635 C 196.750 332.281,194.787 330.639,194.037 329.986 C 192.442 328.598,191.540 328.381,192.882 329.709 M210.800 344.300 C 210.800 344.469,211.160 344.832,211.600 345.107 C 212.040 345.382,212.400 345.469,212.400 345.300 C 212.400 345.131,212.040 344.768,211.600 344.493 C 211.160 344.218,210.800 344.131,210.800 344.300 M212.800 345.768 C 212.800 346.221,215.701 348.833,215.939 348.595 C 216.046 348.488,216.056 348.355,215.962 348.300 C 215.868 348.245,215.118 347.580,214.296 346.822 C 213.473 346.063,212.800 345.589,212.800 345.768 M216.400 349.091 C 216.400 349.288,216.985 349.880,217.700 350.407 C 219.383 351.647,219.400 351.659,222.094 353.788 C 225.251 356.281,225.409 356.072,222.323 353.487 C 218.288 350.108,216.400 348.706,216.400 349.091 M226.007 357.206 C 226.717 357.870,227.816 358.719,228.449 359.093 C 229.082 359.467,229.600 359.914,229.600 360.086 C 229.600 360.259,229.780 360.400,230.000 360.400 C 230.750 360.400,230.402 359.774,229.288 359.115 C 228.676 358.754,227.551 357.908,226.788 357.235 C 224.990 355.652,224.316 355.626,226.007 357.206 M230.800 360.541 C 230.800 360.952,234.511 364.423,234.723 364.210 C 234.818 364.115,234.638 363.805,234.324 363.519 C 234.010 363.234,233.088 362.380,232.276 361.622 C 231.464 360.863,230.800 360.377,230.800 360.541 M235.200 364.809 C 235.200 365.024,235.335 365.201,235.500 365.202 C 235.665 365.203,236.375 365.743,237.078 366.402 C 237.781 367.061,238.518 367.600,238.715 367.600 C 238.912 367.600,239.930 368.410,240.978 369.400 C 243.055 371.362,243.923 371.831,242.370 370.152 C 240.981 368.651,235.200 364.343,235.200 364.809 M245.000 372.976 C 246.758 374.568,249.200 376.141,249.200 375.681 C 249.200 375.520,248.480 374.944,247.600 374.400 C 246.720 373.856,246.000 373.312,246.000 373.192 C 246.000 373.071,245.415 372.647,244.700 372.249 C 243.456 371.557,243.469 371.588,245.000 372.976 M252.022 377.432 C 253.475 378.519,256.955 380.405,257.487 380.393 C 257.659 380.389,256.876 379.876,255.747 379.253 C 254.617 378.630,253.150 377.734,252.485 377.260 C 250.769 376.039,250.363 376.189,252.022 377.432 M276.600 377.278 C 273.613 380.378,264.401 382.103,258.800 380.611 C 257.877 380.366,257.861 380.383,258.589 380.842 C 259.940 381.693,267.097 381.803,269.811 381.014 C 273.292 380.002,279.791 376.349,277.978 376.424 C 277.660 376.437,277.040 376.821,276.600 377.278 " stroke="none" fill="#66ff00" fill-rule="evenodd"></path><path id="path3" d="M340.166 238.500 C 339.511 239.215,338.711 240.170,338.388 240.622 C 338.064 241.074,338.643 240.534,339.674 239.422 C 341.888 237.034,341.239 236.824,347.610 241.991 C 350.058 243.976,352.255 245.600,352.491 245.600 C 352.727 245.600,352.218 245.085,351.360 244.455 C 350.502 243.825,348.090 241.935,346.000 240.256 C 341.633 236.747,341.742 236.780,340.166 238.500 M335.349 244.284 C 334.277 245.540,333.609 246.439,333.864 246.283 C 334.423 245.939,337.754 242.000,337.486 242.000 C 337.382 242.000,336.420 243.028,335.349 244.284 M331.313 249.165 C 330.261 250.465,329.130 251.614,328.800 251.718 C 328.267 251.886,328.267 251.912,328.800 251.948 C 329.130 251.971,330.356 250.822,331.524 249.395 C 332.692 247.968,333.553 246.800,333.437 246.800 C 333.321 246.800,332.365 247.864,331.313 249.165 M325.723 254.697 C 325.241 255.292,324.915 255.848,324.999 255.932 C 325.171 256.104,327.200 254.156,327.200 253.818 C 327.200 253.300,326.535 253.695,325.723 254.697 M371.563 265.900 C 369.888 267.769,368.914 269.141,370.225 267.786 C 371.893 266.062,372.955 264.800,372.737 264.800 C 372.634 264.800,372.106 265.295,371.563 265.900 M310.000 273.800 C 309.483 274.350,309.227 274.794,309.430 274.787 C 309.772 274.776,311.421 272.800,311.088 272.800 C 311.006 272.800,310.517 273.250,310.000 273.800 M355.346 283.900 C 352.116 287.805,348.565 292.080,347.454 293.400 C 346.344 294.720,345.818 295.470,346.286 295.067 C 346.753 294.664,349.895 290.979,353.268 286.880 C 356.641 282.780,359.967 278.834,360.660 278.113 C 361.353 277.391,361.762 276.800,361.570 276.800 C 361.377 276.800,358.577 279.995,355.346 283.900 M343.401 298.219 C 342.358 299.440,341.591 300.524,341.696 300.629 C 341.853 300.787,343.505 298.905,345.321 296.500 C 346.380 295.097,345.055 296.283,343.401 298.219 M214.323 299.100 C 213.618 299.921,213.090 300.800,213.301 300.800 C 213.383 300.800,213.849 300.260,214.337 299.600 C 215.301 298.296,215.292 297.972,214.323 299.100 M208.134 306.730 C 206.997 307.979,206.127 309.060,206.200 309.133 C 206.390 309.324,210.400 305.113,210.400 304.724 C 210.400 304.246,210.376 304.268,208.134 306.730 M334.700 310.184 C 334.095 310.913,333.600 311.644,333.600 311.809 C 333.600 312.196,335.985 309.497,335.994 309.100 C 336.003 308.652,335.897 308.740,334.700 310.184 M202.600 313.600 C 201.741 314.480,201.209 315.185,201.419 315.166 C 201.786 315.134,204.665 312.000,204.328 312.000 C 204.237 312.000,203.459 312.720,202.600 313.600 M197.919 318.900 C 196.483 320.813,196.154 321.581,197.361 320.200 C 198.470 318.932,199.341 317.600,199.062 317.600 C 198.970 317.600,198.456 318.185,197.919 318.900 M324.001 322.998 C 323.486 323.548,323.139 324.064,323.232 324.146 C 323.324 324.228,323.819 323.778,324.330 323.147 C 325.476 321.735,325.274 321.644,324.001 322.998 M193.400 324.546 C 192.219 325.918,191.996 326.461,193.003 325.512 C 193.638 324.914,194.077 324.347,193.979 324.252 C 193.880 324.158,193.620 324.290,193.400 324.546 M319.200 329.000 C 318.683 329.550,318.406 330.000,318.583 330.000 C 318.884 330.000,320.400 328.447,320.400 328.139 C 320.400 327.829,320.094 328.049,319.200 329.000 M315.800 332.920 C 314.170 334.918,314.147 334.961,315.041 334.405 C 315.939 333.846,317.009 332.390,316.503 332.415 C 316.337 332.424,316.020 332.651,315.800 332.920 M308.656 341.709 L 307.511 343.400 308.756 342.046 C 309.794 340.916,310.324 339.972,309.900 340.009 C 309.845 340.013,309.285 340.778,308.656 341.709 M299.626 352.522 L 298.651 353.800 299.926 352.625 C 301.251 351.403,301.403 351.185,300.900 351.222 C 300.735 351.234,300.162 351.819,299.626 352.522 M220.909 353.200 C 221.469 353.640,222.057 354.000,222.217 354.000 C 222.377 354.000,222.050 353.640,221.491 353.200 C 220.931 352.760,220.343 352.400,220.183 352.400 C 220.023 352.400,220.350 352.760,220.909 353.200 M293.693 359.600 C 293.418 360.040,293.298 360.400,293.425 360.400 C 293.725 360.400,294.800 359.327,294.800 359.029 C 294.800 358.520,294.162 358.849,293.693 359.600 M284.472 370.809 C 281.978 373.611,281.994 374.053,284.492 371.355 C 286.051 369.672,287.023 368.386,286.720 368.409 C 286.654 368.414,285.642 369.494,284.472 370.809 M251.748 377.781 C 253.763 379.319,256.495 380.805,257.284 380.791 C 257.568 380.786,257.012 380.425,256.049 379.988 C 255.086 379.551,253.442 378.565,252.396 377.797 C 249.931 375.988,249.381 375.974,251.748 377.781 M277.275 377.399 C 275.571 378.832,271.588 380.725,268.907 381.374 C 267.596 381.692,267.044 381.948,267.629 381.967 C 268.941 382.009,272.086 380.946,274.400 379.677 C 276.739 378.395,279.483 376.400,278.909 376.400 C 278.663 376.400,277.927 376.849,277.275 377.399 M259.800 381.570 C 260.240 381.742,261.680 381.987,263.000 382.114 C 264.343 382.244,264.959 382.210,264.400 382.038 C 263.021 381.612,258.810 381.184,259.800 381.570 " stroke="none" fill="#7bff00" fill-rule="evenodd"></path><path id="path4" d="M264.300 381.882 C 264.795 381.978,265.605 381.978,266.100 381.882 C 266.595 381.787,266.190 381.709,265.200 381.709 C 264.210 381.709,263.805 381.787,264.300 381.882 " stroke="none" fill="#6fff00" fill-rule="evenodd"></path></g></svg>