<svg id="svg" version="1.1" xmlns="http://www.w3.org/2000/svg" xmlns:xlink="http://www.w3.org/1999/xlink" width="400" height="400" viewBox="0, 0, 400,400"><g id="svgg"><path id="path0" d="M298.300 116.276 C 297.871 116.388,297.600 116.842,297.600 117.449 C 297.600 117.993,297.240 119.184,296.800 120.094 C 296.360 121.005,296.000 121.986,296.000 122.275 C 296.000 122.564,295.719 122.800,295.375 122.800 C 294.104 122.800,290.800 124.109,290.800 124.613 C 290.800 125.622,291.877 125.557,295.100 124.353 C 295.595 124.168,296.000 123.764,296.000 123.454 C 296.000 122.885,296.618 122.702,300.973 121.983 C 302.279 121.767,303.660 121.307,304.044 120.961 C 305.092 120.012,313.013 119.074,317.400 119.380 C 324.719 119.890,325.336 119.988,326.175 120.772 C 326.730 121.290,327.851 121.625,329.600 121.795 C 333.501 122.173,333.996 122.337,334.394 123.384 C 334.679 124.135,335.159 124.405,336.587 124.619 C 337.838 124.807,338.659 125.204,339.188 125.876 C 339.614 126.417,340.854 127.304,341.945 127.847 C 343.036 128.391,344.029 129.098,344.152 129.418 C 344.274 129.738,344.646 130.000,344.977 130.000 C 345.761 130.000,352.800 137.039,352.800 137.823 C 352.800 138.154,353.062 138.526,353.382 138.648 C 353.702 138.771,354.409 139.764,354.953 140.855 C 355.496 141.946,356.383 143.186,356.924 143.612 C 357.596 144.141,357.993 144.962,358.181 146.213 C 358.395 147.641,358.665 148.121,359.416 148.406 C 360.460 148.803,360.627 149.301,361.001 153.143 C 361.161 154.778,361.510 155.967,361.980 156.471 C 362.461 156.987,362.796 158.166,362.962 159.927 C 363.100 161.397,363.324 163.770,363.460 165.200 C 363.809 168.875,362.911 176.659,361.944 178.347 C 361.519 179.087,361.073 180.527,360.953 181.547 C 360.669 183.952,360.074 185.531,358.927 186.931 C 358.417 187.553,358.000 188.465,358.000 188.959 C 358.000 189.452,357.446 190.473,356.768 191.228 C 356.091 191.983,355.296 193.171,355.002 193.868 C 354.708 194.565,354.113 195.325,353.680 195.557 C 353.247 195.789,352.781 196.422,352.645 196.963 C 352.509 197.504,352.028 198.064,351.576 198.208 C 351.124 198.351,350.588 198.905,350.385 199.439 C 350.182 199.973,349.566 200.615,349.016 200.866 C 348.466 201.116,347.908 201.659,347.777 202.071 C 347.646 202.484,347.067 203.131,346.489 203.510 C 345.911 203.888,345.033 204.603,344.537 205.099 C 344.042 205.594,343.270 206.000,342.822 206.000 C 342.373 206.000,341.780 206.373,341.503 206.828 C 341.043 207.586,338.161 209.200,337.269 209.200 C 337.062 209.200,336.810 209.515,336.709 209.900 C 336.588 210.359,335.621 210.872,333.895 211.390 C 330.910 212.288,330.774 212.803,333.524 212.795 C 336.198 212.787,337.210 212.427,337.625 211.335 C 338.017 210.303,338.229 210.190,340.500 209.813 C 341.403 209.663,342.000 209.340,342.000 209.002 C 342.000 208.693,342.900 208.027,344.000 207.522 C 345.308 206.922,346.000 206.358,346.000 205.892 C 346.000 205.417,346.409 205.098,347.231 204.934 C 348.011 204.778,348.591 204.350,348.812 203.768 C 349.528 201.886,353.200 201.437,353.200 203.232 C 353.200 203.767,353.479 204.000,354.120 204.000 C 355.290 204.000,356.000 203.293,356.000 202.128 C 356.000 201.490,356.299 201.140,356.993 200.966 C 358.001 200.713,358.793 198.930,358.798 196.900 C 358.800 196.167,359.023 196.000,360.000 196.000 L 361.200 196.000 361.200 193.425 L 361.200 190.851 362.500 190.725 L 363.800 190.600 363.918 187.925 C 364.031 185.359,364.079 185.245,365.102 185.125 C 366.748 184.932,366.871 183.436,366.697 165.800 C 366.531 148.980,366.474 148.400,364.975 148.400 C 364.095 148.400,364.029 148.233,363.918 145.700 L 363.800 143.000 362.500 142.875 C 361.292 142.758,361.200 142.645,361.195 141.275 C 361.186 138.981,360.790 138.013,359.752 137.752 C 359.188 137.611,358.800 137.218,358.800 136.789 C 358.800 135.377,358.323 134.800,357.157 134.800 C 356.101 134.800,356.000 134.677,356.000 133.400 C 356.000 132.072,355.930 132.000,354.625 132.000 C 353.367 132.000,353.240 131.890,353.125 130.700 C 353.021 129.617,352.817 129.379,351.900 129.273 C 350.979 129.167,350.800 128.956,350.800 127.973 C 350.800 126.903,350.679 126.800,349.425 126.800 C 348.167 126.800,348.040 126.690,347.925 125.500 C 347.815 124.357,347.643 124.185,346.501 124.075 C 345.514 123.980,345.144 123.718,344.960 122.982 C 344.714 122.005,342.907 121.207,340.927 121.202 C 340.272 121.201,340.021 120.925,339.927 120.100 C 339.804 119.037,339.711 118.996,337.147 118.883 C 334.593 118.770,334.485 118.723,334.268 117.639 C 334.080 116.702,333.785 116.469,332.521 116.260 C 330.809 115.977,299.388 115.992,298.300 116.276 M287.752 126.213 C 287.065 126.514,286.412 127.110,286.300 127.538 C 286.178 128.006,285.603 128.424,284.856 128.588 C 284.062 128.762,283.431 129.246,283.104 129.930 C 282.412 131.382,279.270 131.754,278.922 130.425 C 278.556 129.022,276.442 129.291,276.144 130.778 C 275.969 131.656,275.624 132.019,274.791 132.202 C 273.764 132.427,273.651 132.640,273.400 134.801 C 273.148 136.969,273.043 137.164,272.063 137.277 C 271.043 137.395,270.995 137.509,270.882 140.100 L 270.763 142.800 269.382 142.800 C 268.069 142.800,268.000 142.870,268.000 144.200 C 268.000 145.303,267.841 145.600,267.249 145.600 C 265.220 145.600,264.118 156.934,265.899 159.477 C 266.332 160.094,266.862 161.140,267.076 161.800 C 267.291 162.460,267.632 162.962,267.833 162.915 C 268.223 162.824,269.119 157.265,269.170 154.626 C 269.188 153.690,269.501 152.717,269.943 152.226 C 270.352 151.772,271.015 150.410,271.417 149.200 C 271.818 147.990,272.464 146.709,272.852 146.353 C 273.241 145.997,273.674 145.245,273.815 144.683 C 273.956 144.121,274.685 142.943,275.436 142.067 C 276.186 141.190,276.800 140.211,276.800 139.891 C 276.800 139.571,277.212 138.880,277.716 138.355 C 278.220 137.830,278.935 136.919,279.305 136.330 C 279.676 135.742,280.298 135.157,280.689 135.031 C 281.080 134.905,281.707 134.262,282.081 133.601 C 282.456 132.940,283.031 132.400,283.360 132.400 C 283.688 132.400,284.193 131.905,284.482 131.300 C 284.785 130.666,285.397 130.145,285.926 130.069 C 286.432 129.997,287.038 129.516,287.273 129.000 C 287.508 128.484,288.172 127.943,288.748 127.799 C 290.051 127.472,290.800 126.870,290.800 126.151 C 290.800 125.460,289.403 125.489,287.752 126.213 M314.500 128.307 L 312.800 129.260 312.800 145.568 C 312.800 160.592,312.745 161.926,312.100 162.507 C 311.503 163.045,309.626 163.160,299.400 163.287 C 287.295 163.436,286.000 163.574,286.000 164.711 C 286.000 165.055,285.702 165.666,285.338 166.069 C 284.722 166.749,284.722 166.851,285.338 167.531 C 285.702 167.934,286.000 168.560,286.000 168.924 C 286.000 169.976,286.941 170.029,303.600 169.911 L 319.400 169.800 319.521 152.400 C 319.674 130.313,319.618 129.577,317.669 128.310 L 316.200 127.354 314.500 128.307 M267.400 172.461 C 267.249 173.467,267.322 175.889,267.562 177.845 C 267.802 179.800,267.998 181.535,267.999 181.700 C 267.999 181.865,268.204 182.000,268.454 182.000 C 269.037 182.000,268.721 172.503,268.102 171.396 C 267.735 170.741,267.635 170.892,267.400 172.461 M269.794 183.500 C 269.890 184.105,270.080 185.476,270.216 186.546 C 270.387 187.897,270.669 188.545,271.139 188.668 C 271.551 188.776,272.110 189.769,272.572 191.216 C 273.038 192.674,273.602 193.674,274.037 193.812 C 274.426 193.935,274.853 194.529,274.985 195.131 C 275.117 195.734,275.850 196.928,276.613 197.786 C 277.376 198.644,278.000 199.464,278.000 199.608 C 278.000 199.753,278.450 200.077,279.000 200.327 C 279.550 200.578,280.000 200.980,280.000 201.220 C 280.000 201.785,281.015 202.800,281.580 202.800 C 281.820 202.800,282.222 203.250,282.473 203.800 C 282.723 204.350,283.047 204.800,283.192 204.800 C 283.336 204.800,284.156 205.424,285.014 206.187 C 285.872 206.950,287.066 207.683,287.669 207.815 C 288.271 207.947,288.865 208.374,288.988 208.763 C 289.126 209.198,290.126 209.762,291.584 210.228 C 293.031 210.690,294.024 211.249,294.132 211.661 C 294.255 212.131,294.903 212.413,296.254 212.584 C 297.324 212.720,298.695 212.910,299.300 213.006 C 300.068 213.127,300.400 213.008,300.400 212.608 C 300.400 212.259,299.816 211.938,298.900 211.784 C 296.020 211.301,294.800 210.769,294.800 209.997 C 294.800 209.421,294.308 209.155,292.578 208.795 C 290.817 208.430,290.279 208.133,289.987 207.367 C 289.785 206.835,289.418 206.400,289.170 206.400 C 288.398 206.400,286.000 205.128,286.000 204.719 C 286.000 204.215,284.345 202.831,283.722 202.813 C 283.459 202.806,283.007 202.307,282.718 201.704 C 282.429 201.101,281.699 200.371,281.096 200.082 C 280.493 199.793,279.994 199.341,279.987 199.078 C 279.969 198.455,278.585 196.800,278.081 196.800 C 277.672 196.800,276.400 194.402,276.400 193.630 C 276.400 193.382,275.965 193.015,275.433 192.813 C 274.667 192.521,274.370 191.983,274.005 190.222 C 273.645 188.492,273.379 188.000,272.803 188.000 C 272.031 188.000,271.499 186.780,271.016 183.900 C 270.862 182.984,270.541 182.400,270.192 182.400 C 269.792 182.400,269.673 182.732,269.794 183.500 M323.400 214.079 C 321.640 214.292,320.034 214.626,319.832 214.821 C 319.262 215.371,321.255 215.953,322.326 215.549 C 322.835 215.357,324.275 215.197,325.526 215.194 C 326.777 215.191,328.065 215.020,328.388 214.816 C 329.788 213.931,327.464 213.588,323.400 214.079 M300.800 214.346 C 300.800 214.596,300.935 214.801,301.100 214.801 C 301.265 214.802,303.000 214.998,304.955 215.238 C 308.991 215.733,312.699 215.423,311.404 214.698 C 310.297 214.079,300.800 213.763,300.800 214.346 M196.731 241.568 C 196.194 241.991,194.599 242.546,193.188 242.802 C 190.727 243.248,189.228 243.796,188.800 244.404 C 188.486 244.850,186.100 246.000,185.487 246.000 C 185.184 246.000,184.705 246.430,184.424 246.956 C 184.142 247.482,183.482 248.142,182.956 248.424 C 182.430 248.705,182.000 249.184,182.000 249.487 C 182.000 250.100,180.850 252.486,180.404 252.800 C 179.796 253.228,179.248 254.727,178.802 257.188 C 178.546 258.599,177.991 260.194,177.568 260.731 C 176.469 262.129,176.498 265.909,177.620 267.335 C 178.078 267.917,178.619 269.489,178.842 270.889 C 179.063 272.270,179.459 273.697,179.722 274.061 C 179.985 274.424,181.065 275.835,182.123 277.196 C 184.848 280.701,184.800 280.404,184.800 293.853 L 184.800 306.053 185.800 307.364 C 186.350 308.086,186.800 309.092,186.800 309.600 C 186.800 311.621,191.462 316.259,194.501 317.261 C 195.603 317.624,196.616 318.078,196.752 318.269 C 197.984 319.996,201.736 319.922,203.522 318.135 C 203.819 317.839,204.864 317.394,205.844 317.147 C 208.336 316.520,212.513 312.362,213.135 309.891 C 213.477 308.535,214.649 306.540,215.282 306.239 C 215.326 306.217,215.461 300.256,215.582 292.991 L 215.800 279.783 217.200 278.045 C 217.970 277.089,219.084 275.773,219.675 275.120 C 220.444 274.271,220.829 273.304,221.026 271.727 C 221.178 270.514,221.819 268.553,222.451 267.368 C 223.858 264.731,223.890 263.465,222.609 261.056 C 222.064 260.031,221.398 257.994,221.128 256.530 C 220.821 254.862,220.283 253.447,219.688 252.740 C 219.166 252.119,218.562 250.970,218.345 250.186 C 218.107 249.325,217.583 248.593,217.020 248.336 C 216.507 248.103,215.903 247.505,215.676 247.007 C 215.449 246.510,214.755 245.980,214.132 245.831 C 213.509 245.681,212.262 245.036,211.360 244.398 C 210.290 243.640,208.858 243.098,207.238 242.837 C 205.872 242.617,204.158 242.069,203.430 241.619 C 201.646 240.516,198.103 240.489,196.731 241.568 " stroke="none" fill="#f2f2f2" fill-rule="evenodd"></path><path id="path1" d="M296.000 119.496 C 295.450 119.855,294.543 120.563,293.985 121.068 C 293.426 121.574,292.101 122.248,291.041 122.568 C 289.980 122.887,288.851 123.520,288.533 123.974 C 288.215 124.428,287.706 124.800,287.402 124.800 C 286.907 124.800,284.567 126.548,282.112 128.751 C 281.623 129.189,280.633 129.621,279.912 129.710 C 278.730 129.856,278.764 129.878,280.257 129.936 C 281.384 129.979,281.986 129.814,282.138 129.418 C 282.260 129.098,282.979 128.423,283.734 127.918 C 284.489 127.413,286.481 126.055,288.161 124.900 C 289.841 123.745,291.510 122.800,291.871 122.800 C 292.480 122.800,296.562 119.909,297.036 119.142 C 297.322 118.679,297.169 118.731,296.000 119.496 M310.620 120.451 C 309.751 120.654,308.761 121.059,308.420 121.350 C 308.079 121.642,305.910 122.108,303.600 122.387 C 300.456 122.766,299.098 123.115,298.200 123.775 C 297.540 124.260,296.190 124.973,295.200 125.360 C 294.210 125.747,293.040 126.389,292.600 126.787 C 292.160 127.184,291.080 127.897,290.200 128.371 C 286.276 130.483,281.245 135.306,278.518 139.570 C 277.592 141.016,276.422 142.712,275.918 143.338 C 275.413 143.965,274.728 145.045,274.395 145.738 C 274.062 146.432,273.468 147.477,273.074 148.061 C 272.681 148.644,272.020 150.534,271.606 152.261 C 271.191 153.987,270.499 156.210,270.067 157.200 C 268.238 161.396,268.628 173.274,270.804 179.610 C 271.462 181.527,272.000 183.667,272.000 184.366 C 272.000 185.196,272.355 185.991,273.023 186.660 C 273.586 187.223,274.476 188.655,275.001 189.842 C 275.526 191.029,276.131 192.000,276.345 192.000 C 276.558 192.000,276.883 192.425,277.067 192.944 C 278.006 195.603,287.197 204.794,289.856 205.733 C 290.375 205.917,290.800 206.242,290.800 206.455 C 290.800 206.669,291.771 207.274,292.958 207.799 C 294.145 208.324,295.577 209.214,296.140 209.777 C 296.809 210.445,297.604 210.800,298.434 210.800 C 299.133 210.800,301.276 211.339,303.196 211.999 C 309.572 214.188,321.389 214.576,325.600 212.735 C 326.590 212.302,328.813 211.609,330.539 211.194 C 332.266 210.780,334.156 210.119,334.739 209.726 C 335.323 209.332,336.368 208.738,337.062 208.405 C 337.755 208.072,338.835 207.387,339.462 206.882 C 340.088 206.378,341.784 205.208,343.230 204.282 C 347.494 201.555,352.317 196.524,354.429 192.600 C 354.903 191.720,355.616 190.640,356.013 190.200 C 356.411 189.760,357.053 188.590,357.440 187.600 C 357.827 186.610,358.540 185.260,359.025 184.600 C 359.685 183.702,360.034 182.344,360.413 179.200 C 360.692 176.890,361.137 174.730,361.404 174.400 C 362.969 172.459,363.286 165.066,361.954 161.600 C 361.488 160.390,360.875 158.140,360.590 156.600 C 360.138 154.154,360.068 154.012,360.036 155.480 C 359.986 157.822,360.763 161.256,361.545 162.145 C 362.645 163.396,362.429 171.328,361.242 173.283 C 360.567 174.394,360.247 175.796,359.962 178.883 C 359.676 181.990,359.387 183.245,358.786 184.000 C 358.054 184.919,357.727 185.530,356.434 188.400 C 356.186 188.950,355.582 189.965,355.091 190.656 C 354.242 191.852,353.182 193.544,352.108 195.417 C 351.471 196.529,347.661 200.400,347.205 200.400 C 347.012 200.400,346.735 200.773,346.591 201.230 C 346.443 201.693,345.590 202.376,344.658 202.775 C 343.740 203.169,342.744 203.785,342.445 204.145 C 342.147 204.505,341.699 204.803,341.451 204.806 C 341.203 204.809,340.204 205.529,339.232 206.406 C 338.260 207.283,337.166 208.000,336.801 208.000 C 336.436 208.000,335.327 208.536,334.338 209.192 C 333.104 210.009,331.710 210.501,329.900 210.757 C 328.221 210.995,326.801 211.471,325.997 212.066 C 323.914 213.606,308.514 213.500,304.997 211.921 C 303.606 211.297,301.424 210.722,299.816 210.558 C 297.547 210.325,296.853 210.079,296.019 209.212 C 295.459 208.629,294.235 207.820,293.300 207.415 C 292.365 207.010,291.600 206.546,291.600 206.385 C 291.600 206.223,290.944 205.780,290.142 205.399 C 288.581 204.659,287.497 203.729,283.284 199.516 C 279.071 195.303,278.141 194.219,277.401 192.658 C 277.020 191.856,276.577 191.200,276.415 191.200 C 276.254 191.200,275.790 190.435,275.385 189.500 C 274.980 188.565,274.171 187.341,273.588 186.781 C 272.721 185.947,272.475 185.253,272.242 182.984 C 272.078 181.376,271.503 179.194,270.879 177.803 C 269.300 174.286,269.194 158.886,270.734 156.803 C 271.329 155.999,271.805 154.579,272.043 152.900 C 272.299 151.090,272.791 149.696,273.608 148.462 C 274.264 147.473,274.800 146.364,274.800 145.999 C 274.800 145.634,275.517 144.540,276.394 143.568 C 277.271 142.596,277.991 141.597,277.994 141.349 C 277.997 141.101,278.295 140.653,278.655 140.355 C 279.015 140.056,279.631 139.060,280.025 138.142 C 280.424 137.210,281.107 136.357,281.570 136.209 C 282.027 136.065,282.400 135.788,282.400 135.595 C 282.400 135.139,286.271 131.329,287.383 130.692 C 289.256 129.618,290.948 128.558,292.144 127.709 C 292.835 127.218,293.850 126.614,294.400 126.366 C 297.270 125.073,297.881 124.746,298.800 124.014 C 299.555 123.413,300.810 123.124,303.917 122.838 C 307.004 122.553,308.406 122.233,309.517 121.558 C 311.472 120.371,319.404 120.155,320.655 121.255 C 321.544 122.037,324.978 122.814,327.320 122.764 C 328.788 122.732,328.646 122.662,326.200 122.210 C 324.660 121.925,322.410 121.312,321.200 120.846 C 318.811 119.928,313.672 119.735,310.620 120.451 M330.991 123.095 C 331.645 123.192,332.861 123.885,333.692 124.635 C 334.697 125.544,335.600 126.000,336.392 126.000 C 337.206 126.000,337.780 126.303,338.210 126.960 C 338.556 127.487,339.377 128.142,340.035 128.415 C 340.693 128.687,341.450 129.219,341.716 129.596 C 341.982 129.972,342.795 130.587,343.521 130.962 C 345.231 131.843,350.957 137.569,351.838 139.279 C 352.213 140.005,352.828 140.818,353.204 141.084 C 353.581 141.350,354.113 142.107,354.385 142.765 C 354.658 143.423,355.313 144.244,355.840 144.590 C 356.497 145.020,356.800 145.594,356.800 146.408 C 356.800 147.200,357.256 148.103,358.165 149.108 C 358.915 149.939,359.608 151.155,359.705 151.809 C 359.865 152.900,359.885 152.876,359.940 151.529 C 359.987 150.382,359.772 149.879,358.965 149.244 C 358.385 148.787,357.683 147.607,357.366 146.553 C 357.055 145.521,356.446 144.427,356.012 144.124 C 355.579 143.820,354.928 142.948,354.566 142.186 C 354.205 141.424,353.753 140.800,353.563 140.800 C 353.372 140.800,352.845 140.073,352.392 139.183 C 351.326 137.095,345.705 131.474,343.617 130.408 C 342.727 129.955,342.000 129.428,342.000 129.237 C 342.000 129.047,341.376 128.595,340.614 128.234 C 339.852 127.872,338.980 127.221,338.676 126.788 C 338.373 126.354,337.279 125.745,336.247 125.434 C 335.193 125.117,334.013 124.415,333.556 123.835 C 332.921 123.028,332.418 122.813,331.271 122.860 C 329.924 122.915,329.900 122.935,330.991 123.095 M314.043 126.841 C 312.919 127.736,312.006 128.678,312.013 128.934 C 312.021 129.220,312.214 129.168,312.513 128.800 C 313.099 128.079,315.840 126.000,316.206 126.000 C 316.349 126.000,317.261 126.652,318.233 127.448 L 320.000 128.896 320.000 149.368 C 320.000 164.757,319.881 169.959,319.520 170.320 C 319.199 170.641,319.185 170.800,319.477 170.800 C 320.335 170.800,320.400 169.286,320.400 149.177 L 320.400 128.819 319.009 127.554 C 316.223 125.019,316.316 125.032,314.043 126.841 M311.695 145.420 C 311.625 157.237,311.474 161.566,311.120 161.920 C 310.768 162.272,307.404 162.400,298.477 162.400 L 286.313 162.400 284.561 164.300 C 283.597 165.345,282.807 166.436,282.804 166.724 C 282.799 167.344,285.612 170.800,286.122 170.800 C 286.316 170.800,285.721 169.900,284.800 168.800 L 283.126 166.800 284.800 164.800 L 286.474 162.800 298.537 162.787 C 307.972 162.777,310.754 162.658,311.305 162.240 C 311.960 161.742,312.002 160.582,311.900 145.553 L 311.791 129.400 311.695 145.420 M264.469 166.300 C 264.582 172.752,264.702 173.950,265.328 174.872 C 265.815 175.591,266.177 177.228,266.424 179.842 C 266.709 182.860,266.975 183.935,267.600 184.600 C 268.044 185.072,268.680 186.526,269.015 187.830 C 269.349 189.133,269.981 190.650,270.419 191.200 C 270.857 191.750,271.571 192.976,272.004 193.925 C 272.438 194.874,273.065 195.922,273.397 196.254 C 273.728 196.586,274.000 197.041,274.000 197.265 C 274.000 197.896,283.601 207.537,285.189 208.501 C 285.965 208.972,286.694 209.491,286.808 209.654 C 286.922 209.816,287.822 210.317,288.808 210.767 C 289.794 211.216,291.050 211.943,291.600 212.381 C 292.150 212.819,293.667 213.451,294.970 213.785 C 296.274 214.120,297.728 214.756,298.200 215.200 C 298.865 215.825,299.940 216.091,302.958 216.376 C 305.572 216.623,307.209 216.985,307.928 217.472 C 309.763 218.718,320.925 218.798,322.227 217.575 C 323.035 216.816,323.870 216.620,327.643 216.310 C 331.218 216.016,332.391 215.758,333.552 215.014 C 334.348 214.503,335.676 213.967,336.503 213.824 C 337.489 213.652,338.236 213.211,338.675 212.542 C 339.043 211.980,339.716 211.370,340.172 211.186 C 340.830 210.919,340.860 210.846,340.316 210.825 C 339.940 210.811,339.200 211.267,338.671 211.837 C 337.104 213.527,329.589 215.999,326.013 216.001 C 324.508 216.003,323.381 216.258,322.490 216.801 C 320.751 217.862,311.754 217.960,308.600 216.952 C 307.500 216.601,305.142 216.184,303.360 216.027 C 301.063 215.823,299.779 215.497,298.951 214.907 C 298.308 214.450,296.706 213.766,295.391 213.388 C 294.076 213.010,292.290 212.183,291.421 211.550 C 290.553 210.918,289.640 210.400,289.392 210.400 C 289.145 210.400,288.235 209.865,287.371 209.211 C 286.507 208.557,285.605 208.017,285.367 208.011 C 284.801 207.997,274.803 197.999,274.789 197.433 C 274.783 197.195,274.243 196.293,273.589 195.429 C 272.935 194.565,272.400 193.655,272.400 193.408 C 272.400 193.160,271.882 192.247,271.250 191.379 C 270.617 190.510,269.790 188.724,269.412 187.409 C 269.034 186.094,268.350 184.492,267.893 183.849 C 267.303 183.021,266.977 181.737,266.773 179.440 C 266.616 177.658,266.199 175.300,265.848 174.200 C 265.368 172.700,265.208 170.525,265.204 165.500 C 265.201 160.980,265.060 158.800,264.769 158.800 C 264.471 158.800,264.378 161.124,264.469 166.300 M294.700 171.100 C 299.155 171.164,306.445 171.164,310.900 171.100 C 315.355 171.035,311.710 170.982,302.800 170.982 C 293.890 170.982,290.245 171.035,294.700 171.100 M348.600 205.440 C 347.280 206.651,345.660 207.904,345.000 208.224 C 342.768 209.307,340.970 210.800,341.899 210.800 C 342.348 210.800,343.140 210.343,343.658 209.784 C 344.176 209.226,345.140 208.524,345.800 208.226 C 346.460 207.927,347.886 206.854,348.969 205.841 C 350.419 204.486,351.263 203.998,352.169 203.994 C 353.111 203.989,353.259 203.897,352.800 203.600 C 351.723 202.904,351.034 203.205,348.600 205.440 M200.200 239.963 C 201.300 240.101,202.470 240.359,202.800 240.537 C 203.130 240.714,203.051 240.576,202.624 240.230 C 202.140 239.837,201.160 239.621,200.024 239.656 L 198.200 239.713 200.200 239.963 M189.600 242.600 C 188.322 243.330,188.596 243.334,190.600 242.612 C 191.480 242.295,191.840 242.034,191.400 242.032 C 190.960 242.030,190.150 242.286,189.600 242.600 M209.098 242.390 C 209.811 242.559,210.630 242.856,210.916 243.049 C 211.203 243.242,211.094 243.085,210.675 242.700 C 210.255 242.315,209.436 242.018,208.856 242.041 C 207.888 242.078,207.908 242.107,209.098 242.390 M182.865 247.012 C 181.691 248.210,180.822 249.418,180.934 249.695 C 181.093 250.092,181.144 250.089,181.168 249.681 C 181.205 249.088,184.748 245.435,185.621 245.091 C 186.112 244.898,186.109 244.861,185.600 244.848 C 185.270 244.839,184.039 245.813,182.865 247.012 M214.400 245.082 C 214.730 245.203,215.445 245.684,215.988 246.151 C 216.899 246.934,216.930 246.938,216.388 246.200 C 215.608 245.139,215.124 244.807,214.400 244.838 C 213.867 244.860,213.867 244.888,214.400 245.082 M217.671 248.006 C 218.260 248.456,218.862 249.372,219.009 250.041 C 219.156 250.710,219.367 251.166,219.478 251.055 C 219.992 250.541,218.701 248.086,217.688 247.652 L 216.600 247.187 217.671 248.006 M220.594 252.701 C 221.759 254.993,221.995 255.337,221.998 254.744 C 221.999 254.384,221.626 253.664,221.170 253.144 C 220.713 252.625,220.454 252.426,220.594 252.701 M178.465 253.817 C 178.209 254.378,178.008 255.144,178.018 255.519 C 178.027 255.893,178.289 255.487,178.600 254.615 C 179.245 252.804,179.159 252.294,178.465 253.817 M224.074 263.969 C 224.027 265.338,223.756 266.407,223.338 266.869 C 222.965 267.281,222.871 267.600,223.124 267.600 C 223.940 267.600,224.443 266.005,224.294 263.888 L 224.148 261.800 224.074 263.969 M175.656 264.078 C 175.613 265.529,175.804 266.169,176.500 266.897 C 176.995 267.415,177.134 267.500,176.808 267.086 C 176.482 266.672,176.103 265.404,175.964 264.267 L 175.713 262.200 175.656 264.078 M222.093 270.000 C 222.093 270.770,222.175 271.085,222.276 270.700 C 222.376 270.315,222.376 269.685,222.276 269.300 C 222.175 268.915,222.093 269.230,222.093 270.000 M178.054 272.600 C 178.024 273.879,178.419 274.525,180.007 275.794 C 180.857 276.473,180.835 276.406,179.856 275.326 C 179.227 274.632,178.570 273.465,178.397 272.732 L 178.082 271.400 178.054 272.600 M221.600 273.158 C 221.600 273.575,221.143 274.340,220.584 274.858 C 220.025 275.376,219.368 276.160,219.123 276.600 C 218.879 277.040,219.426 276.635,220.339 275.700 C 221.724 274.282,222.557 272.400,221.800 272.400 C 221.690 272.400,221.600 272.741,221.600 273.158 M183.386 280.400 C 183.498 280.950,183.592 286.910,183.595 293.645 L 183.600 305.890 184.800 307.400 C 185.460 308.231,186.000 308.776,186.000 308.613 C 186.000 308.449,185.550 307.781,185.000 307.127 L 184.000 305.939 183.972 293.469 C 183.956 286.485,183.777 280.648,183.564 280.200 C 183.232 279.503,183.210 279.528,183.386 280.400 M216.250 281.250 C 216.113 281.938,216.000 287.846,216.000 294.380 L 216.000 306.261 215.000 307.200 C 214.386 307.777,214.021 308.537,214.054 309.170 L 214.109 310.200 214.288 309.200 C 214.387 308.650,214.889 307.750,215.404 307.200 L 216.340 306.200 216.470 293.100 C 216.542 285.895,216.578 280.000,216.550 280.000 C 216.523 280.000,216.388 280.563,216.250 281.250 M186.000 310.689 C 186.000 310.921,186.371 311.536,186.824 312.056 L 187.647 313.000 186.945 311.800 C 186.020 310.221,186.000 310.197,186.000 310.689 M212.425 312.569 L 211.050 314.200 212.605 312.713 C 213.460 311.896,214.079 311.162,213.980 311.083 C 213.881 311.003,213.181 311.672,212.425 312.569 M208.306 316.611 C 207.484 317.375,206.954 318.000,207.127 318.000 C 207.301 318.000,208.054 317.370,208.800 316.600 C 210.541 314.803,210.243 314.810,208.306 316.611 M191.688 317.026 C 192.286 317.649,192.869 318.064,192.983 317.950 C 193.097 317.836,192.607 317.327,191.895 316.819 L 190.600 315.895 191.688 317.026 M195.000 318.295 C 195.440 318.406,196.309 318.925,196.931 319.449 C 198.561 320.821,201.879 320.806,203.180 319.422 C 203.685 318.884,204.571 318.371,205.149 318.282 L 206.200 318.120 205.170 318.060 C 204.532 318.023,203.782 318.381,203.200 319.000 C 202.429 319.820,201.883 320.000,200.161 320.000 C 198.505 320.000,197.810 319.789,196.873 319.000 C 196.219 318.450,195.350 318.021,194.942 318.046 C 194.276 318.088,194.282 318.114,195.000 318.295 " stroke="none" fill="#646464" fill-rule="evenodd"></path><path id="path2" d="M294.800 121.014 C 293.590 121.994,292.288 122.797,291.908 122.798 C 291.527 122.799,289.841 123.745,288.161 124.900 C 286.481 126.055,284.489 127.413,283.734 127.918 C 282.979 128.423,282.260 129.098,282.138 129.418 C 281.994 129.792,281.347 130.000,280.324 130.000 C 279.229 130.000,278.785 130.156,278.900 130.500 C 279.252 131.556,282.536 131.111,283.102 129.930 C 283.429 129.247,284.064 128.762,284.856 128.588 C 285.600 128.424,286.178 128.005,286.299 127.542 C 286.651 126.198,290.800 124.916,290.800 126.151 C 290.800 126.870,290.051 127.472,288.748 127.799 C 288.172 127.943,287.508 128.484,287.273 129.000 C 287.038 129.516,286.432 129.997,285.926 130.069 C 285.397 130.145,284.785 130.666,284.482 131.300 C 284.193 131.905,283.688 132.400,283.360 132.400 C 283.031 132.400,282.456 132.940,282.081 133.601 C 281.707 134.262,281.080 134.905,280.689 135.031 C 280.298 135.157,279.676 135.742,279.305 136.330 C 278.935 136.919,278.220 137.830,277.716 138.355 C 277.212 138.880,276.800 139.571,276.800 139.891 C 276.800 140.211,276.186 141.190,275.436 142.067 C 274.685 142.943,273.956 144.121,273.815 144.683 C 273.674 145.245,273.241 145.997,272.852 146.353 C 272.464 146.709,271.818 147.990,271.417 149.200 C 271.015 150.410,270.382 151.760,270.010 152.200 C 269.536 152.760,269.183 154.441,268.835 157.800 C 268.292 163.031,266.928 165.083,266.791 160.874 C 266.786 160.723,266.430 160.150,266.000 159.600 L 265.218 158.600 265.213 165.400 C 265.210 170.537,265.365 172.689,265.848 174.200 C 266.199 175.300,266.616 177.658,266.773 179.440 C 266.977 181.737,267.303 183.021,267.893 183.849 C 268.350 184.492,269.034 186.094,269.412 187.409 C 269.790 188.724,270.617 190.510,271.250 191.379 C 271.882 192.247,272.400 193.160,272.400 193.408 C 272.400 193.655,272.935 194.565,273.589 195.429 C 274.243 196.293,274.783 197.195,274.789 197.433 C 274.803 197.999,284.801 207.997,285.367 208.011 C 285.605 208.017,286.507 208.557,287.371 209.211 C 288.235 209.865,289.145 210.400,289.392 210.400 C 289.640 210.400,290.553 210.918,291.421 211.550 C 292.290 212.183,294.076 213.010,295.391 213.388 C 296.706 213.766,298.308 214.450,298.951 214.907 C 299.779 215.497,301.063 215.823,303.360 216.027 C 305.142 216.184,307.500 216.601,308.600 216.952 C 311.754 217.960,320.751 217.862,322.490 216.801 C 323.381 216.258,324.508 216.003,326.013 216.001 C 329.441 215.999,337.282 213.480,338.486 211.994 C 338.865 211.526,339.789 210.973,340.539 210.766 C 341.290 210.558,342.580 209.851,343.407 209.194 C 344.234 208.538,345.095 208.000,345.321 208.000 C 345.546 208.000,346.967 206.902,348.477 205.560 C 350.735 203.552,351.399 203.163,352.212 203.367 C 352.920 203.545,353.200 203.452,353.200 203.039 C 353.200 201.418,349.470 202.037,348.812 203.768 C 348.591 204.350,348.011 204.778,347.231 204.934 C 346.409 205.098,346.000 205.417,346.000 205.892 C 346.000 206.358,345.308 206.922,344.000 207.522 C 342.900 208.027,342.000 208.693,342.000 209.002 C 342.000 209.340,341.403 209.663,340.500 209.813 C 338.229 210.190,338.017 210.303,337.625 211.335 C 337.210 212.427,336.198 212.787,333.524 212.795 C 330.774 212.803,330.910 212.288,333.895 211.390 C 335.621 210.872,336.588 210.359,336.709 209.900 C 336.810 209.515,337.062 209.200,337.269 209.200 C 338.161 209.200,341.043 207.586,341.503 206.828 C 341.780 206.373,342.373 206.000,342.822 206.000 C 343.270 206.000,344.042 205.594,344.537 205.099 C 345.033 204.603,345.911 203.888,346.489 203.510 C 347.067 203.131,347.646 202.484,347.777 202.071 C 347.908 201.659,348.466 201.116,349.016 200.866 C 349.566 200.615,350.182 199.973,350.385 199.439 C 350.588 198.905,351.124 198.351,351.576 198.208 C 352.028 198.064,352.509 197.504,352.645 196.963 C 352.781 196.422,353.247 195.789,353.680 195.557 C 354.113 195.325,354.708 194.565,355.002 193.868 C 355.296 193.171,356.091 191.983,356.768 191.228 C 357.446 190.473,358.000 189.452,358.000 188.959 C 358.000 188.465,358.417 187.553,358.927 186.931 C 360.074 185.531,360.669 183.952,360.953 181.547 C 361.073 180.527,361.519 179.087,361.944 178.347 C 362.921 176.642,363.807 168.868,363.453 165.100 C 363.314 163.615,363.090 161.242,362.955 159.827 C 362.796 158.159,362.454 156.979,361.980 156.471 C 361.510 155.967,361.161 154.778,361.001 153.143 C 360.627 149.301,360.460 148.803,359.416 148.406 C 358.665 148.121,358.395 147.641,358.181 146.213 C 357.993 144.962,357.596 144.141,356.924 143.612 C 356.383 143.186,355.496 141.946,354.953 140.855 C 354.409 139.764,353.702 138.771,353.382 138.648 C 353.062 138.526,352.800 138.154,352.800 137.823 C 352.800 137.039,345.761 130.000,344.977 130.000 C 344.646 130.000,344.274 129.738,344.152 129.418 C 344.029 129.098,343.036 128.391,341.945 127.847 C 340.854 127.304,339.614 126.417,339.188 125.876 C 338.659 125.204,337.838 124.807,336.587 124.619 C 335.159 124.405,334.679 124.135,334.394 123.384 C 333.996 122.337,333.501 122.173,329.600 121.795 C 327.851 121.625,326.730 121.290,326.175 120.772 C 325.336 119.988,324.719 119.890,317.400 119.380 C 313.013 119.074,305.092 120.012,304.044 120.961 C 303.660 121.307,302.279 121.767,300.973 121.983 C 296.618 122.702,296.000 122.885,296.000 123.454 C 296.000 123.764,295.595 124.168,295.100 124.353 C 291.877 125.557,290.800 125.622,290.800 124.613 C 290.800 124.109,294.104 122.800,295.375 122.800 C 295.727 122.800,296.000 122.461,296.000 122.024 C 296.000 121.597,296.158 121.149,296.352 121.030 C 296.632 120.857,297.298 119.158,297.063 119.215 C 297.028 119.224,296.010 120.033,294.800 121.014 M321.200 120.844 C 323.701 121.803,328.591 122.765,331.071 122.786 C 332.382 122.797,332.917 123.023,333.556 123.835 C 334.013 124.415,335.193 125.117,336.247 125.434 C 337.279 125.745,338.373 126.354,338.676 126.788 C 338.980 127.221,339.852 127.872,340.614 128.234 C 341.376 128.595,342.000 129.047,342.000 129.237 C 342.000 129.428,342.727 129.955,343.617 130.408 C 345.705 131.474,351.326 137.095,352.392 139.183 C 352.845 140.073,353.372 140.800,353.563 140.800 C 353.753 140.800,354.205 141.424,354.566 142.186 C 354.928 142.948,355.579 143.820,356.012 144.124 C 356.446 144.427,357.055 145.521,357.366 146.553 C 357.683 147.607,358.385 148.787,358.965 149.244 C 359.777 149.883,360.003 150.418,360.014 151.729 C 360.035 154.209,360.997 159.099,361.956 161.600 C 363.286 165.068,362.967 172.461,361.404 174.400 C 361.137 174.730,360.692 176.890,360.413 179.200 C 360.034 182.344,359.685 183.702,359.025 184.600 C 358.540 185.260,357.827 186.610,357.440 187.600 C 357.053 188.590,356.411 189.760,356.013 190.200 C 355.616 190.640,354.903 191.720,354.429 192.600 C 352.317 196.524,347.494 201.555,343.230 204.282 C 341.784 205.208,340.088 206.378,339.462 206.882 C 338.835 207.387,337.755 208.072,337.062 208.405 C 336.368 208.738,335.323 209.332,334.739 209.726 C 334.156 210.119,332.266 210.780,330.539 211.194 C 328.813 211.609,326.590 212.302,325.600 212.735 C 321.389 214.576,309.572 214.188,303.196 211.999 C 301.276 211.339,299.133 210.800,298.434 210.800 C 297.604 210.800,296.809 210.445,296.140 209.777 C 295.577 209.214,294.145 208.324,292.958 207.799 C 291.771 207.274,290.800 206.669,290.800 206.455 C 290.800 206.242,290.375 205.917,289.856 205.733 C 287.197 204.794,278.006 195.603,277.067 192.944 C 276.883 192.425,276.558 192.000,276.345 192.000 C 276.131 192.000,275.526 191.029,275.001 189.842 C 274.476 188.655,273.586 187.223,273.023 186.660 C 272.355 185.991,272.000 185.196,272.000 184.366 C 272.000 183.667,271.462 181.527,270.804 179.610 C 268.628 173.274,268.238 161.396,270.067 157.200 C 270.499 156.210,271.191 153.987,271.606 152.261 C 272.020 150.534,272.681 148.644,273.074 148.061 C 273.468 147.477,274.062 146.432,274.395 145.738 C 274.728 145.045,275.413 143.965,275.918 143.338 C 276.422 142.712,277.592 141.016,278.518 139.570 C 281.245 135.306,286.276 130.483,290.200 128.371 C 291.080 127.897,292.160 127.184,292.600 126.787 C 293.040 126.389,294.210 125.747,295.200 125.360 C 296.190 124.973,297.540 124.260,298.200 123.775 C 299.098 123.115,300.456 122.766,303.600 122.387 C 305.910 122.108,308.079 121.642,308.420 121.350 C 310.191 119.837,317.790 119.536,321.200 120.844 M314.800 126.826 C 314.250 127.266,313.395 127.999,312.900 128.455 L 312.000 129.284 312.000 145.498 C 312.000 160.471,311.946 161.752,311.300 162.243 C 310.755 162.657,307.934 162.777,298.537 162.787 L 286.474 162.800 284.800 164.800 L 283.126 166.800 284.800 168.800 L 286.474 170.800 302.757 170.800 C 314.888 170.800,319.162 170.678,319.520 170.320 C 319.881 169.959,320.000 164.757,320.000 149.368 L 320.000 128.896 318.233 127.448 C 316.190 125.775,316.129 125.764,314.800 126.826 M319.390 132.133 C 319.528 133.710,319.587 142.830,319.521 152.400 L 319.400 169.800 303.600 169.911 C 286.941 170.029,286.000 169.976,286.000 168.924 C 286.000 168.560,285.702 167.934,285.338 167.531 C 284.722 166.851,284.722 166.749,285.338 166.069 C 285.702 165.666,286.000 165.055,286.000 164.711 C 286.000 163.574,287.295 163.436,299.400 163.287 C 309.626 163.160,311.503 163.045,312.100 162.507 C 312.745 161.926,312.800 160.592,312.800 145.568 L 312.800 129.260 314.500 128.307 L 316.200 127.354 317.669 128.310 C 319.081 129.228,319.148 129.377,319.390 132.133 M268.718 177.080 C 268.854 180.595,268.778 182.000,268.454 182.000 C 268.204 182.000,267.999 181.865,267.999 181.700 C 267.998 181.535,267.802 179.800,267.562 177.845 C 267.067 173.809,267.377 170.101,268.102 171.396 C 268.337 171.816,268.614 174.373,268.718 177.080 M271.016 183.900 C 271.499 186.780,272.031 188.000,272.803 188.000 C 273.379 188.000,273.645 188.492,274.005 190.222 C 274.370 191.983,274.667 192.521,275.433 192.813 C 275.965 193.015,276.400 193.382,276.400 193.630 C 276.400 194.402,277.672 196.800,278.081 196.800 C 278.585 196.800,279.969 198.455,279.987 199.078 C 279.994 199.341,280.493 199.793,281.096 200.082 C 281.699 200.371,282.429 201.101,282.718 201.704 C 283.007 202.307,283.459 202.806,283.722 202.813 C 284.345 202.831,286.000 204.215,286.000 204.719 C 286.000 205.128,288.398 206.400,289.170 206.400 C 289.418 206.400,289.785 206.835,289.987 207.367 C 290.279 208.133,290.817 208.430,292.578 208.795 C 294.308 209.155,294.800 209.421,294.800 209.997 C 294.800 210.769,296.020 211.301,298.900 211.784 C 299.816 211.938,300.400 212.259,300.400 212.608 C 300.400 213.008,300.068 213.127,299.300 213.006 C 298.695 212.910,297.324 212.720,296.254 212.584 C 294.903 212.413,294.255 212.131,294.132 211.661 C 294.024 211.249,293.031 210.690,291.584 210.228 C 290.126 209.762,289.126 209.198,288.988 208.763 C 288.865 208.374,288.271 207.947,287.669 207.815 C 287.066 207.683,285.872 206.950,285.014 206.187 C 284.156 205.424,283.336 204.800,283.192 204.800 C 283.047 204.800,282.723 204.350,282.473 203.800 C 282.222 203.250,281.820 202.800,281.580 202.800 C 281.015 202.800,280.000 201.785,280.000 201.220 C 280.000 200.980,279.550 200.578,279.000 200.327 C 278.450 200.077,278.000 199.753,278.000 199.608 C 278.000 199.464,277.376 198.644,276.613 197.786 C 275.850 196.928,275.117 195.734,274.985 195.131 C 274.853 194.529,274.426 193.935,274.037 193.812 C 273.602 193.674,273.038 192.674,272.572 191.216 C 272.110 189.769,271.551 188.776,271.139 188.668 C 270.669 188.545,270.387 187.897,270.216 186.546 C 270.080 185.476,269.890 184.105,269.794 183.500 C 269.673 182.732,269.792 182.400,270.192 182.400 C 270.541 182.400,270.862 182.984,271.016 183.900 M328.788 214.254 C 329.249 214.716,327.611 215.188,325.526 215.194 C 324.275 215.197,322.835 215.357,322.326 215.549 C 321.255 215.953,319.262 215.371,319.832 214.821 C 320.657 214.025,328.089 213.555,328.788 214.254 M311.404 214.698 C 312.699 215.423,308.991 215.733,304.955 215.238 C 303.000 214.998,301.265 214.802,301.100 214.801 C 300.935 214.801,300.800 214.596,300.800 214.346 C 300.800 213.763,310.297 214.079,311.404 214.698 M196.800 241.000 C 195.896 241.667,194.904 242.006,193.822 242.018 C 191.823 242.039,189.174 242.946,188.715 243.766 C 188.527 244.101,187.638 244.574,186.740 244.816 C 184.545 245.407,181.407 248.545,180.816 250.740 C 180.574 251.638,180.101 252.527,179.766 252.715 C 178.946 253.174,178.039 255.823,178.018 257.822 C 178.006 258.904,177.667 259.896,177.000 260.800 C 176.274 261.784,176.000 262.661,176.000 264.000 C 176.000 265.339,176.274 266.216,177.000 267.200 C 177.550 267.945,178.004 269.105,178.010 269.778 C 178.030 272.409,178.738 274.040,180.952 276.562 C 184.075 280.120,184.000 279.699,184.000 293.595 L 184.000 305.939 185.000 307.127 C 185.550 307.781,186.000 308.706,186.000 309.184 C 186.000 311.689,192.098 318.000,194.518 318.000 C 195.179 318.000,196.200 318.434,196.873 319.000 C 197.810 319.789,198.505 320.000,200.161 320.000 C 201.883 320.000,202.429 319.820,203.200 319.000 C 203.828 318.332,204.570 318.000,205.437 318.000 C 207.835 318.000,214.000 311.841,214.000 309.445 C 214.000 308.570,214.329 307.830,215.000 307.200 L 216.000 306.261 216.002 294.230 C 216.005 281.307,216.196 279.690,217.938 277.921 C 221.281 274.524,221.891 273.406,221.960 270.556 C 221.985 269.513,222.366 268.372,223.000 267.438 C 224.304 265.517,224.403 262.281,223.198 260.998 C 222.652 260.416,222.281 259.224,222.034 257.256 C 221.766 255.126,221.394 254.005,220.614 252.983 C 220.033 252.221,219.355 251.013,219.107 250.299 C 218.486 248.511,215.277 245.280,213.804 244.960 C 213.142 244.816,212.030 244.200,211.334 243.591 C 210.440 242.810,209.442 242.407,207.934 242.221 C 204.724 241.825,203.600 241.569,203.600 241.232 C 203.600 239.794,198.663 239.625,196.800 241.000 M203.430 241.619 C 204.158 242.069,205.872 242.617,207.238 242.837 C 208.858 243.098,210.290 243.640,211.360 244.398 C 212.262 245.036,213.509 245.681,214.132 245.831 C 214.755 245.980,215.449 246.510,215.676 247.007 C 215.903 247.505,216.507 248.103,217.020 248.336 C 217.583 248.593,218.107 249.325,218.345 250.186 C 218.562 250.970,219.166 252.119,219.688 252.740 C 220.283 253.447,220.821 254.862,221.128 256.530 C 221.398 257.994,222.064 260.031,222.609 261.056 C 223.890 263.465,223.858 264.731,222.451 267.368 C 221.819 268.553,221.178 270.514,221.026 271.727 C 220.829 273.304,220.444 274.271,219.675 275.120 C 219.084 275.773,217.970 277.089,217.200 278.045 L 215.800 279.783 215.582 292.991 C 215.461 300.256,215.326 306.217,215.282 306.239 C 214.649 306.540,213.477 308.535,213.135 309.891 C 212.513 312.362,208.336 316.520,205.844 317.147 C 204.864 317.394,203.819 317.839,203.522 318.135 C 201.736 319.922,197.984 319.996,196.752 318.269 C 196.616 318.078,195.603 317.624,194.501 317.261 C 191.462 316.259,186.800 311.621,186.800 309.600 C 186.800 309.092,186.350 308.086,185.800 307.364 L 184.800 306.053 184.800 293.853 C 184.800 280.404,184.848 280.701,182.123 277.196 C 181.065 275.835,179.985 274.424,179.722 274.061 C 179.459 273.697,179.063 272.270,178.842 270.889 C 178.619 269.489,178.078 267.917,177.620 267.335 C 176.498 265.909,176.469 262.129,177.568 260.731 C 177.991 260.194,178.546 258.599,178.802 257.188 C 179.248 254.727,179.796 253.228,180.404 252.800 C 180.850 252.486,182.000 250.100,182.000 249.487 C 182.000 249.184,182.430 248.705,182.956 248.424 C 183.482 248.142,184.142 247.482,184.424 246.956 C 184.705 246.430,185.184 246.000,185.487 246.000 C 186.100 246.000,188.486 244.850,188.800 244.404 C 189.228 243.796,190.727 243.248,193.188 242.802 C 194.599 242.546,196.194 241.991,196.731 241.568 C 198.103 240.489,201.646 240.516,203.430 241.619 " stroke="none" fill="#8c8c8c" fill-rule="evenodd"></path><path id="path3" d="M294.500 119.589 C 293.565 120.014,292.800 120.620,292.800 120.938 C 292.800 121.635,291.949 122.000,290.321 122.000 C 289.445 122.000,288.751 122.390,287.826 123.400 C 287.120 124.170,286.181 124.800,285.739 124.800 C 285.297 124.800,284.714 125.205,284.444 125.700 C 283.866 126.757,281.394 128.000,279.869 128.000 C 279.067 128.000,278.800 128.200,278.800 128.800 C 278.800 129.898,280.857 129.883,282.086 128.777 C 284.530 126.576,286.904 124.800,287.402 124.800 C 287.706 124.800,288.215 124.428,288.533 123.974 C 288.851 123.520,289.959 122.893,290.994 122.582 C 292.030 122.270,293.462 121.517,294.177 120.907 C 294.892 120.298,295.819 119.586,296.238 119.324 C 297.433 118.576,296.376 118.738,294.500 119.589 M311.800 120.735 C 311.140 120.881,309.993 121.331,309.251 121.735 C 308.399 122.200,306.413 122.608,303.851 122.844 C 300.805 123.125,299.552 123.415,298.800 124.014 C 297.881 124.746,297.270 125.073,294.400 126.366 C 293.850 126.614,292.835 127.218,292.144 127.709 C 290.948 128.558,289.256 129.618,287.383 130.692 C 286.271 131.329,282.400 135.139,282.400 135.595 C 282.400 135.788,282.027 136.065,281.570 136.209 C 281.107 136.357,280.424 137.210,280.025 138.142 C 279.631 139.060,279.015 140.056,278.655 140.355 C 278.295 140.653,277.997 141.101,277.994 141.349 C 277.991 141.597,277.271 142.596,276.394 143.568 C 275.517 144.540,274.800 145.634,274.800 145.999 C 274.800 146.364,274.264 147.473,273.608 148.462 C 272.791 149.696,272.299 151.090,272.043 152.900 C 271.805 154.579,271.329 155.999,270.734 156.803 C 269.194 158.886,269.300 174.286,270.879 177.803 C 271.503 179.194,272.078 181.376,272.242 182.984 C 272.475 185.253,272.721 185.947,273.588 186.781 C 274.171 187.341,274.980 188.565,275.385 189.500 C 275.790 190.435,276.254 191.200,276.415 191.200 C 276.577 191.200,277.020 191.856,277.401 192.658 C 278.141 194.219,279.071 195.303,283.284 199.516 C 287.497 203.729,288.581 204.659,290.142 205.399 C 290.944 205.780,291.600 206.223,291.600 206.385 C 291.600 206.546,292.365 207.010,293.300 207.415 C 294.235 207.820,295.459 208.629,296.019 209.212 C 296.853 210.079,297.547 210.325,299.816 210.558 C 301.424 210.722,303.606 211.297,304.997 211.921 C 308.514 213.500,323.914 213.606,325.997 212.066 C 326.801 211.471,328.221 210.995,329.900 210.757 C 331.710 210.501,333.104 210.009,334.338 209.192 C 335.327 208.536,336.436 208.000,336.801 208.000 C 337.166 208.000,338.260 207.283,339.232 206.406 C 340.204 205.529,341.203 204.809,341.451 204.806 C 341.699 204.803,342.147 204.505,342.445 204.145 C 342.744 203.785,343.740 203.169,344.658 202.775 C 345.590 202.376,346.443 201.693,346.591 201.230 C 346.735 200.773,347.012 200.400,347.205 200.400 C 347.661 200.400,351.471 196.529,352.108 195.417 C 353.182 193.544,354.242 191.852,355.091 190.656 C 355.582 189.965,356.186 188.950,356.434 188.400 C 357.727 185.530,358.054 184.919,358.786 184.000 C 359.387 183.245,359.676 181.990,359.962 178.883 C 360.247 175.796,360.567 174.394,361.242 173.283 C 362.420 171.342,362.644 163.404,361.556 162.145 C 360.677 161.127,360.450 160.099,359.986 155.041 C 359.603 150.868,359.527 150.616,358.193 149.140 C 357.260 148.107,356.800 147.205,356.800 146.408 C 356.800 145.594,356.497 145.020,355.840 144.590 C 355.313 144.244,354.658 143.423,354.385 142.765 C 354.113 142.107,353.581 141.350,353.204 141.084 C 352.828 140.818,352.213 140.005,351.838 139.279 C 350.957 137.569,345.231 131.843,343.521 130.962 C 342.795 130.587,341.982 129.972,341.716 129.596 C 341.450 129.219,340.693 128.687,340.035 128.415 C 339.377 128.142,338.556 127.487,338.210 126.960 C 337.780 126.303,337.206 126.000,336.392 126.000 C 335.595 126.000,334.693 125.540,333.660 124.607 C 332.184 123.273,331.932 123.197,327.759 122.814 C 322.700 122.350,321.671 122.122,320.659 121.244 C 319.860 120.551,314.122 120.221,311.800 120.735 M319.833 121.874 C 320.980 123.111,323.042 123.521,328.400 123.577 C 332.080 123.615,332.629 123.789,332.856 124.982 C 332.965 125.560,333.583 125.906,335.217 126.305 C 336.801 126.691,337.539 127.094,337.815 127.722 C 338.055 128.270,338.630 128.649,339.346 128.731 C 340.079 128.815,340.565 129.144,340.696 129.647 C 340.809 130.079,341.374 130.677,341.952 130.975 C 344.475 132.280,350.520 138.325,351.825 140.848 C 352.123 141.426,352.721 141.991,353.153 142.104 C 353.656 142.235,353.985 142.721,354.069 143.454 C 354.151 144.170,354.530 144.745,355.078 144.985 C 355.706 145.261,356.109 145.999,356.495 147.583 C 356.894 149.217,357.240 149.835,357.818 149.944 C 359.011 150.171,359.185 150.720,359.223 154.400 C 359.279 159.816,359.685 161.816,360.967 163.004 C 362.458 164.387,362.431 170.065,360.924 171.668 C 359.789 172.877,359.223 175.417,359.204 179.400 C 359.187 182.850,359.060 183.238,357.724 183.941 C 357.104 184.268,356.770 184.929,356.577 186.212 C 356.397 187.413,356.041 188.164,355.519 188.443 C 355.086 188.675,354.458 189.521,354.123 190.323 C 353.788 191.125,353.203 192.055,352.822 192.391 C 352.442 192.726,351.811 193.845,351.420 194.878 C 350.917 196.205,350.457 196.792,349.854 196.878 C 349.358 196.949,348.952 197.336,348.885 197.801 C 348.822 198.242,348.235 198.909,347.582 199.285 C 346.928 199.660,346.219 200.424,346.006 200.983 C 345.764 201.621,345.311 202.000,344.790 202.000 C 343.715 202.000,342.000 202.895,341.037 203.959 C 340.618 204.422,340.039 204.800,339.750 204.800 C 339.461 204.800,338.839 205.320,338.370 205.956 C 337.770 206.767,337.037 207.188,335.911 207.368 C 334.840 207.539,333.960 208.019,333.264 208.812 C 332.318 209.891,331.992 210.000,329.730 210.000 C 326.985 210.000,325.330 210.560,325.000 211.600 C 324.522 213.106,308.233 213.051,306.564 211.539 C 305.373 210.459,303.441 210.000,300.093 210.000 C 297.339 210.000,297.159 209.944,296.793 208.981 C 296.558 208.364,295.812 207.717,294.903 207.343 C 294.076 207.004,292.950 206.311,292.400 205.805 C 291.850 205.299,290.855 204.770,290.190 204.630 C 289.484 204.482,288.817 204.006,288.590 203.490 C 288.375 203.002,287.716 202.373,287.124 202.091 C 286.532 201.810,285.943 201.251,285.816 200.850 C 285.689 200.449,285.135 199.917,284.586 199.667 C 284.037 199.416,283.384 198.763,283.133 198.214 C 282.883 197.665,282.351 197.111,281.950 196.984 C 281.549 196.857,280.990 196.268,280.709 195.676 C 280.427 195.084,279.798 194.425,279.310 194.210 C 278.794 193.983,278.318 193.316,278.170 192.610 C 278.030 191.945,277.501 190.950,276.995 190.400 C 276.489 189.850,275.796 188.724,275.457 187.897 C 275.083 186.988,274.436 186.242,273.819 186.007 C 272.856 185.641,272.800 185.461,272.800 182.707 C 272.800 179.359,272.341 177.427,271.261 176.236 C 269.749 174.567,269.694 158.278,271.200 157.800 C 272.240 157.470,272.800 155.815,272.800 153.070 C 272.800 150.808,272.909 150.482,273.988 149.536 C 274.781 148.840,275.261 147.960,275.432 146.889 C 275.612 145.763,276.033 145.030,276.844 144.430 C 277.480 143.961,278.000 143.339,278.000 143.050 C 278.000 142.761,278.378 142.182,278.841 141.763 C 279.905 140.800,280.800 139.085,280.800 138.010 C 280.800 137.489,281.179 137.036,281.817 136.794 C 282.376 136.581,283.140 135.872,283.515 135.218 C 283.891 134.565,284.558 133.978,284.999 133.915 C 285.464 133.848,285.851 133.442,285.922 132.946 C 286.008 132.343,286.595 131.883,287.922 131.380 C 288.955 130.989,290.074 130.358,290.409 129.978 C 290.745 129.597,291.675 129.012,292.477 128.677 C 293.279 128.342,294.125 127.714,294.357 127.281 C 294.636 126.759,295.387 126.403,296.588 126.223 C 297.871 126.030,298.532 125.696,298.859 125.076 C 299.562 123.740,299.950 123.613,303.400 123.596 C 307.207 123.577,309.903 123.021,311.000 122.027 C 312.874 120.329,318.314 120.235,319.833 121.874 M313.927 125.800 C 313.677 126.350,313.253 126.800,312.985 126.800 C 311.491 126.800,311.405 127.670,311.200 144.961 L 311.000 161.800 298.235 161.906 L 285.469 162.011 283.735 163.848 C 281.653 166.052,281.488 167.371,283.100 168.936 C 283.705 169.523,284.515 170.363,284.900 170.802 C 285.756 171.778,319.360 172.080,320.320 171.120 C 321.056 170.384,320.982 128.473,320.243 127.500 C 319.951 127.115,319.578 126.800,319.413 126.800 C 319.249 126.800,318.761 126.350,318.329 125.800 C 317.727 125.035,317.171 124.800,315.962 124.800 C 314.666 124.800,314.301 124.979,313.927 125.800 M319.009 127.554 L 320.400 128.819 320.394 149.310 C 320.390 161.524,320.235 170.042,320.008 170.400 C 319.681 170.918,317.325 171.000,302.812 171.000 L 285.994 171.000 284.414 169.200 C 282.418 166.926,282.428 166.613,284.561 164.300 L 286.313 162.400 298.477 162.400 C 307.404 162.400,310.768 162.272,311.120 161.920 C 311.477 161.563,311.600 157.419,311.600 145.746 C 311.600 128.382,311.547 128.772,314.207 126.699 C 316.312 125.059,316.256 125.049,319.009 127.554 M263.677 166.962 L 263.800 175.125 264.900 176.143 C 265.926 177.093,266.000 177.381,266.000 180.401 C 266.000 183.645,266.489 185.312,267.748 186.357 C 268.079 186.631,268.473 187.842,268.623 189.048 C 268.877 191.080,269.577 192.400,270.400 192.400 C 270.589 192.400,271.031 193.389,271.382 194.598 C 271.790 196.001,272.365 197.021,272.972 197.419 C 273.496 197.762,274.034 198.479,274.168 199.014 C 274.302 199.548,274.949 200.263,275.606 200.603 C 276.263 200.943,276.800 201.480,276.800 201.796 C 276.800 202.113,277.201 202.587,277.692 202.849 C 278.816 203.451,279.349 203.984,279.951 205.108 C 280.213 205.599,280.687 206.000,281.004 206.000 C 281.320 206.000,281.857 206.537,282.197 207.194 C 282.537 207.851,283.252 208.498,283.786 208.632 C 284.321 208.766,285.038 209.304,285.381 209.828 C 285.779 210.435,286.799 211.010,288.202 211.418 C 289.411 211.769,290.400 212.211,290.400 212.400 C 290.400 213.223,291.720 213.923,293.752 214.177 C 294.958 214.327,296.169 214.721,296.443 215.052 C 297.488 216.311,299.155 216.800,302.399 216.800 C 305.419 216.800,305.707 216.874,306.657 217.900 L 307.675 219.000 314.784 219.125 C 322.148 219.254,322.756 219.138,323.297 217.507 C 323.416 217.149,324.928 216.941,328.457 216.800 C 333.115 216.613,333.532 216.530,334.696 215.550 C 335.382 214.972,336.585 214.379,337.370 214.232 C 338.402 214.038,338.967 213.636,339.409 212.782 C 339.858 211.915,340.311 211.599,341.110 211.595 C 343.036 211.585,344.018 211.125,344.626 209.949 C 345.040 209.149,345.524 208.800,346.219 208.800 C 346.825 208.800,347.886 208.184,348.915 207.236 C 349.906 206.322,351.108 205.615,351.803 205.536 C 353.466 205.346,353.726 204.000,352.099 204.000 C 351.272 204.000,350.373 204.529,348.969 205.841 C 347.886 206.854,346.460 207.927,345.800 208.226 C 345.140 208.524,344.199 209.202,343.709 209.732 C 343.196 210.286,342.145 210.802,341.235 210.948 C 340.108 211.128,339.412 211.541,338.810 212.385 C 338.236 213.192,337.493 213.652,336.483 213.827 C 335.668 213.969,334.348 214.503,333.552 215.014 C 332.391 215.758,331.218 216.016,327.643 216.310 C 323.870 216.620,323.035 216.816,322.227 217.575 C 320.925 218.798,309.763 218.718,307.928 217.472 C 307.209 216.985,305.572 216.623,302.958 216.376 C 299.940 216.091,298.865 215.825,298.200 215.200 C 297.728 214.756,296.274 214.120,294.970 213.785 C 293.667 213.451,292.150 212.819,291.600 212.381 C 291.050 211.943,289.794 211.216,288.808 210.767 C 287.822 210.317,286.922 209.816,286.808 209.654 C 286.694 209.491,285.965 208.972,285.189 208.501 C 283.601 207.537,274.000 197.896,274.000 197.265 C 274.000 197.041,273.728 196.586,273.397 196.254 C 273.065 195.922,272.438 194.874,272.004 193.925 C 271.571 192.976,270.857 191.750,270.419 191.200 C 269.981 190.650,269.349 189.133,269.015 187.830 C 268.680 186.526,268.044 185.072,267.600 184.600 C 266.975 183.935,266.709 182.860,266.424 179.842 C 266.177 177.228,265.815 175.591,265.328 174.872 C 264.702 173.950,264.582 172.752,264.469 166.300 C 264.389 161.762,264.183 158.800,263.946 158.800 C 263.699 158.800,263.600 161.819,263.677 166.962 M197.295 239.466 C 197.018 239.578,196.587 240.059,196.337 240.535 C 195.888 241.392,195.891 241.393,196.738 240.642 C 198.091 239.440,201.380 239.287,202.829 240.358 C 204.109 241.305,204.444 240.926,203.269 239.862 C 202.558 239.219,198.566 238.955,197.295 239.466 M189.556 241.865 C 189.201 241.960,188.715 242.469,188.474 242.997 C 188.166 243.673,187.588 244.033,186.518 244.213 C 183.952 244.647,183.567 244.835,183.184 245.841 C 182.981 246.377,182.366 246.985,181.818 247.193 C 180.786 247.585,180.190 248.997,180.518 250.268 C 180.664 250.833,180.718 250.784,180.754 250.057 C 180.825 248.605,184.661 244.985,186.489 244.645 C 187.307 244.493,188.207 244.049,188.489 243.660 C 189.244 242.613,189.997 242.250,192.000 241.964 L 193.800 241.707 192.000 241.700 C 191.010 241.696,189.910 241.770,189.556 241.865 M208.351 241.943 C 210.010 242.166,210.699 242.480,211.366 243.316 C 211.841 243.912,212.365 244.400,212.531 244.400 C 212.696 244.400,212.638 244.175,212.402 243.900 C 212.166 243.625,211.736 243.057,211.446 242.638 C 211.048 242.061,210.347 241.849,208.560 241.765 L 206.200 241.655 208.351 241.943 M214.363 244.803 C 215.113 244.980,215.898 245.432,216.108 245.808 C 216.471 246.455,217.165 247.162,218.569 248.313 C 218.913 248.596,219.310 249.545,219.450 250.422 C 219.590 251.300,219.837 252.100,219.999 252.199 C 220.276 252.370,219.819 249.196,219.409 248.094 C 219.305 247.816,218.763 247.414,218.203 247.201 C 217.643 246.988,217.023 246.386,216.823 245.862 C 216.415 244.787,215.627 244.381,214.067 244.441 C 213.114 244.478,213.145 244.516,214.363 244.803 M179.550 252.017 C 179.192 252.393,178.670 252.777,178.390 252.870 C 178.069 252.977,177.839 253.928,177.771 255.420 C 177.711 256.729,177.743 257.260,177.841 256.600 C 178.205 254.155,178.434 253.601,179.485 252.626 C 180.077 252.077,180.480 251.562,180.381 251.481 C 180.281 251.400,179.908 251.641,179.550 252.017 M221.229 253.035 C 221.518 253.384,221.878 254.419,222.028 255.335 L 222.300 257.000 222.350 255.474 C 222.404 253.831,221.839 252.400,221.137 252.400 C 220.862 252.400,220.896 252.634,221.229 253.035 M222.454 259.077 C 222.424 259.574,222.782 260.222,223.281 260.571 C 224.769 261.614,224.851 266.021,223.406 267.360 C 222.809 267.912,222.415 268.597,222.529 268.882 C 222.662 269.213,222.748 269.147,222.768 268.700 C 222.786 268.315,222.967 268.000,223.171 268.000 C 225.050 268.000,225.600 261.743,223.824 260.579 C 223.287 260.227,222.771 259.548,222.678 259.070 L 222.509 258.200 222.454 259.077 M176.000 260.800 C 174.890 261.910,174.843 266.353,175.931 267.338 C 177.083 268.380,177.307 268.113,176.358 266.829 C 175.304 265.404,175.439 262.082,176.604 260.796 C 177.543 259.758,177.039 259.761,176.000 260.800 M177.714 271.800 C 177.717 272.900,177.795 273.303,177.887 272.695 C 177.979 272.086,177.977 271.186,177.882 270.695 C 177.787 270.203,177.711 270.700,177.714 271.800 M222.000 272.600 C 222.000 273.691,221.648 274.362,220.400 275.648 C 219.520 276.555,218.800 277.427,218.800 277.587 C 218.800 277.747,218.395 278.073,217.900 278.312 C 217.405 278.551,217.233 278.758,217.518 278.773 C 217.803 278.788,218.433 278.363,218.918 277.829 C 220.086 276.543,220.556 276.068,221.560 275.160 C 222.314 274.478,222.844 271.200,222.200 271.200 C 222.090 271.200,222.000 271.830,222.000 272.600 M178.002 274.490 C 178.001 274.869,178.540 275.459,179.200 275.800 C 179.860 276.141,180.400 276.664,180.400 276.961 C 180.400 277.556,181.507 278.627,181.809 278.324 C 181.913 278.220,181.100 277.159,180.002 275.967 C 178.678 274.531,178.004 274.033,178.002 274.490 M183.131 292.872 C 183.245 304.682,183.351 306.698,183.893 307.300 C 184.894 308.411,185.346 308.112,184.429 306.946 C 183.633 305.934,183.598 305.400,183.560 293.446 C 183.538 286.601,183.403 280.583,183.260 280.072 C 183.117 279.562,183.059 285.322,183.131 292.872 M216.893 280.400 C 216.893 281.170,216.975 281.485,217.076 281.100 C 217.176 280.715,217.176 280.085,217.076 279.700 C 216.975 279.315,216.893 279.630,216.893 280.400 M216.494 294.178 L 216.400 306.156 215.300 307.330 C 214.421 308.268,214.367 308.417,215.033 308.074 C 216.808 307.157,216.817 307.080,216.700 294.352 L 216.588 282.200 216.494 294.178 M185.646 310.011 C 185.597 311.521,186.507 313.200,187.374 313.200 C 187.665 313.200,188.127 313.740,188.400 314.400 C 188.673 315.060,189.040 315.600,189.216 315.600 C 189.391 315.600,189.864 315.701,190.267 315.825 C 190.670 315.949,190.505 315.764,189.900 315.413 C 189.295 315.062,188.800 314.590,188.800 314.365 C 188.800 314.139,188.234 313.438,187.542 312.806 C 186.761 312.092,186.171 311.076,185.988 310.128 L 185.692 308.600 185.646 310.011 M214.000 310.674 C 214.000 311.045,213.609 311.765,213.130 312.274 C 212.169 313.297,212.768 313.575,213.771 312.571 C 214.343 312.000,214.677 310.000,214.200 310.000 C 214.090 310.000,214.000 310.303,214.000 310.674 M210.675 314.819 C 210.056 315.469,209.741 316.000,209.975 316.000 C 210.513 316.000,212.000 314.532,212.000 314.000 C 212.000 313.450,211.950 313.481,210.675 314.819 M190.800 316.668 C 190.800 317.458,192.277 318.399,193.431 318.346 C 194.516 318.295,194.528 318.278,193.600 318.110 C 193.050 318.011,192.195 317.554,191.700 317.095 C 191.205 316.636,190.800 316.444,190.800 316.668 M208.220 317.178 C 207.833 317.605,207.130 318.031,206.658 318.123 C 205.954 318.261,205.992 318.301,206.871 318.346 C 207.910 318.398,209.200 317.527,209.200 316.771 C 209.200 316.228,209.007 316.309,208.220 317.178 M196.337 319.500 C 197.972 321.817,202.810 321.386,204.201 318.800 C 204.379 318.470,203.991 318.695,203.340 319.300 C 202.369 320.203,201.789 320.400,200.109 320.400 C 198.462 320.400,197.803 320.185,196.741 319.300 L 195.420 318.200 196.337 319.500 " stroke="none" fill="#444444" fill-rule="evenodd"></path><path id="path4" d="M176.462 23.226 C 175.947 23.433,175.431 23.962,175.316 24.401 C 175.133 25.098,174.767 25.201,172.453 25.204 C 167.847 25.212,166.800 25.517,166.800 26.852 L 166.800 28.000 163.900 28.005 C 159.973 28.013,159.207 28.264,158.933 29.634 C 158.718 30.710,158.589 30.770,156.254 30.882 C 153.937 30.993,153.793 31.059,153.678 32.051 C 153.569 32.993,153.340 33.131,151.488 33.377 C 149.166 33.685,148.400 34.150,148.400 35.249 C 148.400 35.836,148.104 36.000,147.043 36.000 C 145.656 36.000,145.200 36.503,145.200 38.033 C 145.200 38.681,144.904 38.801,143.300 38.806 C 141.125 38.813,140.553 39.080,140.344 40.186 C 140.253 40.664,139.695 41.115,138.918 41.338 C 137.970 41.610,137.576 42.000,137.389 42.852 C 137.181 43.796,136.929 44.000,135.968 44.000 C 134.900 44.000,134.800 44.120,134.800 45.400 C 134.800 46.733,134.733 46.800,133.400 46.800 C 132.111 46.800,132.000 46.895,132.000 48.000 C 132.000 48.986,131.836 49.200,131.080 49.200 C 129.908 49.200,129.200 49.908,129.200 51.080 C 129.200 51.836,128.986 52.000,128.000 52.000 C 126.895 52.000,126.800 52.111,126.800 53.400 C 126.800 54.733,126.733 54.800,125.400 54.800 C 124.120 54.800,124.000 54.900,124.000 55.968 C 124.000 56.929,123.796 57.181,122.852 57.389 C 122.000 57.576,121.610 57.970,121.338 58.918 C 121.115 59.695,120.664 60.253,120.186 60.344 C 119.080 60.553,118.813 61.125,118.806 63.300 C 118.801 64.904,118.681 65.200,118.033 65.200 C 116.503 65.200,116.000 65.656,116.000 67.043 C 116.000 68.104,115.836 68.400,115.249 68.400 C 114.150 68.400,113.685 69.166,113.377 71.488 C 113.131 73.340,112.993 73.569,112.051 73.678 C 111.059 73.793,110.993 73.937,110.882 76.254 C 110.770 78.589,110.710 78.718,109.634 78.933 C 108.264 79.207,108.013 79.973,108.005 83.900 L 108.000 86.800 106.850 86.800 C 105.474 86.800,105.200 87.697,105.200 92.203 C 105.200 94.764,105.106 95.131,104.405 95.315 C 102.852 95.721,102.800 96.786,102.800 128.226 L 102.800 158.800 81.431 158.800 L 60.062 158.800 58.862 160.000 C 58.202 160.660,57.302 161.200,56.863 161.200 C 55.387 161.200,54.800 161.660,54.800 162.817 C 54.800 163.802,54.631 163.966,53.500 164.075 C 52.357 164.185,52.185 164.357,52.075 165.500 C 51.966 166.631,51.802 166.800,50.817 166.800 C 49.660 166.800,49.200 167.387,49.200 168.863 C 49.200 169.302,48.660 170.202,48.000 170.862 L 46.800 172.062 46.800 280.031 C 46.800 370.207,46.889 388.000,47.338 388.000 C 48.163 388.000,49.199 389.350,49.205 390.431 C 49.217 392.474,49.641 393.200,50.821 393.200 C 51.802 393.200,51.966 393.370,52.075 394.500 C 52.185 395.643,52.357 395.815,53.500 395.925 C 54.631 396.034,54.800 396.198,54.800 397.183 C 54.800 398.447,55.374 398.800,57.433 398.800 C 58.381 398.800,58.800 398.984,58.800 399.400 C 58.800 399.932,74.756 400.000,200.000 400.000 C 325.244 400.000,341.200 399.932,341.200 399.400 C 341.200 398.984,341.619 398.800,342.567 398.800 C 344.638 398.800,345.200 398.449,345.200 397.157 C 345.200 396.101,345.323 396.000,346.600 396.000 C 347.933 396.000,348.000 395.933,348.000 394.600 C 348.000 393.323,348.101 393.200,349.157 393.200 C 350.439 393.200,350.800 392.636,350.800 390.629 C 350.800 389.341,351.785 388.000,352.731 388.000 C 353.088 388.000,353.200 366.193,353.200 296.669 L 353.200 205.339 351.900 205.523 C 351.130 205.632,349.911 206.337,348.909 207.253 C 347.891 208.184,346.820 208.800,346.219 208.800 C 345.524 208.800,345.040 209.149,344.626 209.949 C 344.018 211.125,343.036 211.585,341.110 211.595 C 340.311 211.599,339.858 211.915,339.409 212.782 C 338.967 213.636,338.402 214.038,337.370 214.232 C 336.585 214.379,335.382 214.972,334.696 215.550 C 333.532 216.530,333.115 216.613,328.457 216.800 C 324.928 216.941,323.416 217.149,323.297 217.507 C 322.756 219.138,322.148 219.254,314.784 219.125 L 307.675 219.000 306.657 217.900 C 305.707 216.874,305.419 216.800,302.399 216.800 C 299.155 216.800,297.488 216.311,296.443 215.052 C 296.169 214.721,294.958 214.327,293.752 214.177 C 291.720 213.923,290.400 213.223,290.400 212.400 C 290.400 212.211,289.411 211.769,288.202 211.418 C 286.799 211.010,285.779 210.435,285.381 209.828 C 285.038 209.304,284.321 208.766,283.786 208.632 C 283.252 208.498,282.537 207.851,282.197 207.194 C 281.857 206.537,281.320 206.000,281.004 206.000 C 280.687 206.000,280.213 205.599,279.951 205.108 C 279.349 203.984,278.816 203.451,277.692 202.849 C 277.201 202.587,276.800 202.113,276.800 201.796 C 276.800 201.480,276.263 200.943,275.606 200.603 C 274.949 200.263,274.302 199.548,274.168 199.014 C 274.034 198.479,273.496 197.762,272.972 197.419 C 272.365 197.021,271.790 196.001,271.382 194.598 C 271.031 193.389,270.589 192.400,270.400 192.400 C 269.577 192.400,268.877 191.080,268.623 189.048 C 268.473 187.842,268.079 186.631,267.748 186.357 C 266.489 185.312,266.000 183.645,266.000 180.401 C 266.000 177.381,265.926 177.093,264.900 176.143 L 263.800 175.125 263.677 166.962 L 263.554 158.800 192.377 158.800 L 121.200 158.800 121.200 140.088 L 121.200 121.375 122.338 120.946 C 123.835 120.381,123.990 119.353,123.996 109.927 C 124.000 102.698,124.027 102.445,124.837 102.188 C 126.013 101.815,126.800 99.648,126.800 96.782 C 126.800 94.600,126.929 94.210,128.000 93.138 C 129.084 92.054,129.200 91.691,129.200 89.369 C 129.200 87.103,129.291 86.800,129.967 86.800 C 131.744 86.800,132.000 86.420,132.000 83.783 L 132.000 81.251 133.300 81.125 C 134.443 81.015,134.615 80.843,134.725 79.700 C 134.819 78.733,135.046 78.400,135.611 78.400 C 136.643 78.400,137.200 77.218,137.200 75.026 C 137.200 73.206,137.204 73.200,138.600 73.200 C 139.889 73.200,140.000 73.105,140.000 72.000 C 140.000 71.014,140.164 70.800,140.920 70.800 C 142.084 70.800,142.800 70.094,142.800 68.947 C 142.800 68.269,143.066 68.023,143.900 67.927 C 144.812 67.822,145.021 67.582,145.124 66.524 C 145.231 65.412,145.412 65.231,146.524 65.124 C 147.582 65.021,147.822 64.812,147.927 63.900 C 148.023 63.066,148.269 62.800,148.947 62.800 C 150.094 62.800,150.800 62.084,150.800 60.920 C 150.800 60.164,151.014 60.000,152.000 60.000 C 153.105 60.000,153.200 59.889,153.200 58.600 C 153.200 57.204,153.206 57.200,155.026 57.200 C 157.218 57.200,158.400 56.643,158.400 55.611 C 158.400 55.046,158.733 54.819,159.700 54.725 C 160.843 54.615,161.015 54.443,161.125 53.300 L 161.251 52.000 163.783 52.000 C 166.420 52.000,166.800 51.744,166.800 49.967 C 166.800 49.291,167.103 49.200,169.369 49.200 C 171.691 49.200,172.054 49.084,173.138 48.000 C 174.178 46.960,174.629 46.800,176.520 46.800 C 179.081 46.800,181.606 45.862,181.882 44.809 C 182.289 43.254,217.220 43.447,217.931 45.009 C 218.446 46.138,220.500 46.795,223.531 46.798 C 225.363 46.800,225.829 46.968,226.862 48.000 C 227.941 49.080,228.314 49.200,230.586 49.200 L 233.111 49.200 233.374 50.600 L 233.636 52.000 236.193 52.000 L 238.749 52.000 238.875 53.300 C 238.985 54.443,239.157 54.615,240.300 54.725 C 241.267 54.819,241.600 55.046,241.600 55.611 C 241.600 56.643,242.782 57.200,244.974 57.200 C 246.794 57.200,246.800 57.204,246.800 58.600 C 246.800 59.875,246.902 60.000,247.950 60.000 C 248.910 60.000,249.140 60.200,249.342 61.208 C 249.529 62.147,249.848 62.470,250.769 62.654 C 251.678 62.836,251.984 63.138,252.078 63.946 C 252.178 64.807,252.434 65.023,253.476 65.124 C 254.588 65.231,254.769 65.412,254.876 66.524 C 254.977 67.566,255.193 67.822,256.054 67.922 C 256.862 68.016,257.164 68.322,257.346 69.231 C 257.530 70.152,257.853 70.471,258.792 70.658 C 259.800 70.860,260.000 71.090,260.000 72.050 C 260.000 73.098,260.125 73.200,261.400 73.200 L 262.800 73.200 262.800 75.320 C 262.800 77.537,263.271 78.400,264.480 78.400 C 264.923 78.400,265.200 78.695,265.200 79.167 C 265.200 80.623,265.666 81.200,266.843 81.200 C 267.998 81.200,268.000 81.204,268.000 83.757 C 268.000 86.422,268.253 86.800,270.033 86.800 C 270.709 86.800,270.800 87.103,270.800 89.369 C 270.800 91.659,270.924 92.062,271.936 93.075 C 272.940 94.078,273.099 94.585,273.300 97.406 C 273.577 101.284,273.813 101.938,275.044 102.247 L 276.000 102.487 276.004 109.943 C 276.010 119.352,276.165 120.381,277.662 120.946 C 278.787 121.370,278.800 121.415,278.800 124.688 L 278.800 128.000 279.869 128.000 C 281.394 128.000,283.866 126.757,284.444 125.700 C 284.714 125.205,285.297 124.800,285.739 124.800 C 286.181 124.800,287.120 124.170,287.826 123.400 C 288.800 122.336,289.431 121.999,290.454 121.994 C 291.983 121.987,292.550 121.693,292.907 120.724 C 293.044 120.353,294.066 119.725,295.178 119.330 L 297.200 118.612 297.200 108.125 C 297.200 97.263,297.016 95.849,295.539 95.381 C 294.909 95.181,294.800 94.715,294.800 92.223 C 294.800 87.697,294.527 86.800,293.150 86.800 C 292.004 86.800,292.000 86.792,292.000 84.250 C 292.000 80.232,291.681 79.196,290.364 78.933 C 289.291 78.718,289.230 78.588,289.118 76.254 C 289.005 73.908,288.952 73.794,287.900 73.673 C 286.976 73.567,286.800 73.357,286.800 72.361 C 286.800 70.467,285.767 68.400,284.820 68.400 C 284.154 68.400,284.000 68.145,284.000 67.043 C 284.000 65.661,283.496 65.200,281.988 65.200 C 281.370 65.200,281.221 64.840,281.121 63.103 C 281.016 61.292,280.857 60.938,279.950 60.506 C 279.297 60.194,278.813 59.565,278.668 58.838 C 278.489 57.943,278.150 57.609,277.217 57.404 C 276.200 57.180,276.000 56.945,276.000 55.968 C 276.000 54.900,275.880 54.800,274.600 54.800 C 273.267 54.800,273.200 54.733,273.200 53.400 C 273.200 52.111,273.105 52.000,272.000 52.000 C 271.014 52.000,270.800 51.836,270.800 51.080 C 270.800 49.908,270.092 49.200,268.920 49.200 C 268.164 49.200,268.000 48.986,268.000 48.000 C 268.000 46.895,267.889 46.800,266.600 46.800 C 265.267 46.800,265.200 46.733,265.200 45.400 C 265.200 44.125,265.098 44.000,264.050 44.000 C 263.100 44.000,262.859 43.797,262.667 42.836 C 262.489 41.945,262.149 41.609,261.224 41.405 C 260.462 41.238,259.826 40.744,259.504 40.070 C 259.060 39.140,258.719 38.984,256.897 38.879 C 255.160 38.779,254.800 38.630,254.800 38.012 C 254.800 36.504,254.339 36.000,252.957 36.000 C 251.875 36.000,251.600 35.841,251.600 35.214 C 251.600 34.238,250.564 33.662,248.238 33.343 C 246.675 33.129,246.428 32.962,246.322 32.049 C 246.207 31.059,246.061 30.993,243.746 30.882 C 241.412 30.770,241.282 30.709,241.067 29.636 C 240.804 28.319,239.768 28.000,235.750 28.000 C 233.209 28.000,233.200 27.996,233.200 26.852 C 233.200 25.516,232.153 25.212,227.527 25.204 C 225.281 25.201,224.816 25.082,224.619 24.461 C 224.490 24.054,223.930 23.514,223.373 23.261 C 222.107 22.684,177.898 22.651,176.462 23.226 M312.400 121.082 C 312.070 121.203,311.440 121.628,311.000 122.027 C 309.903 123.021,307.207 123.577,303.400 123.596 C 299.950 123.613,299.562 123.740,298.859 125.076 C 298.532 125.696,297.871 126.030,296.588 126.223 C 295.387 126.403,294.636 126.759,294.357 127.281 C 294.125 127.714,293.279 128.342,292.477 128.677 C 291.675 129.012,290.745 129.597,290.409 129.978 C 290.074 130.358,288.955 130.989,287.922 131.380 C 286.595 131.883,286.008 132.343,285.922 132.946 C 285.851 133.442,285.464 133.848,284.999 133.915 C 284.558 133.978,283.891 134.565,283.515 135.218 C 283.140 135.872,282.376 136.581,281.817 136.794 C 281.179 137.036,280.800 137.489,280.800 138.010 C 280.800 139.085,279.905 140.800,278.841 141.763 C 278.378 142.182,278.000 142.761,278.000 143.050 C 278.000 143.339,277.480 143.961,276.844 144.430 C 276.033 145.030,275.612 145.763,275.432 146.889 C 275.261 147.960,274.781 148.840,273.988 149.536 C 272.909 150.482,272.800 150.808,272.800 153.070 C 272.800 155.815,272.240 157.470,271.200 157.800 C 269.694 158.278,269.749 174.567,271.261 176.236 C 272.341 177.427,272.800 179.359,272.800 182.707 C 272.800 185.461,272.856 185.641,273.819 186.007 C 274.436 186.242,275.083 186.988,275.457 187.897 C 275.796 188.724,276.489 189.850,276.995 190.400 C 277.501 190.950,278.030 191.945,278.170 192.610 C 278.318 193.316,278.794 193.983,279.310 194.210 C 279.798 194.425,280.427 195.084,280.709 195.676 C 280.990 196.268,281.549 196.857,281.950 196.984 C 282.351 197.111,282.883 197.665,283.133 198.214 C 283.384 198.763,284.037 199.416,284.586 199.667 C 285.135 199.917,285.689 200.449,285.816 200.850 C 285.943 201.251,286.532 201.810,287.124 202.091 C 287.716 202.373,288.375 203.002,288.590 203.490 C 288.817 204.006,289.484 204.482,290.190 204.630 C 290.855 204.770,291.850 205.299,292.400 205.805 C 292.950 206.311,294.076 207.004,294.903 207.343 C 295.812 207.717,296.558 208.364,296.793 208.981 C 297.159 209.944,297.339 210.000,300.093 210.000 C 303.441 210.000,305.373 210.459,306.564 211.539 C 308.233 213.051,324.522 213.106,325.000 211.600 C 325.330 210.560,326.985 210.000,329.730 210.000 C 331.992 210.000,332.318 209.891,333.264 208.812 C 333.960 208.019,334.840 207.539,335.911 207.368 C 337.037 207.188,337.770 206.767,338.370 205.956 C 338.839 205.320,339.461 204.800,339.750 204.800 C 340.039 204.800,340.618 204.422,341.037 203.959 C 342.000 202.895,343.715 202.000,344.790 202.000 C 345.311 202.000,345.764 201.621,346.006 200.983 C 346.219 200.424,346.928 199.660,347.582 199.285 C 348.235 198.909,348.822 198.242,348.885 197.801 C 348.952 197.336,349.358 196.949,349.854 196.878 C 350.457 196.792,350.917 196.205,351.420 194.878 C 351.811 193.845,352.442 192.726,352.822 192.391 C 353.203 192.055,353.788 191.125,354.123 190.323 C 354.458 189.521,355.086 188.675,355.519 188.443 C 356.041 188.164,356.397 187.413,356.577 186.212 C 356.770 184.929,357.104 184.268,357.724 183.941 C 359.060 183.238,359.187 182.850,359.204 179.400 C 359.223 175.417,359.789 172.877,360.924 171.668 C 362.431 170.065,362.458 164.387,360.967 163.004 C 359.685 161.816,359.279 159.816,359.223 154.400 C 359.185 150.720,359.011 150.171,357.818 149.944 C 357.240 149.835,356.894 149.217,356.495 147.583 C 356.109 145.999,355.706 145.261,355.078 144.985 C 354.530 144.745,354.151 144.170,354.069 143.454 C 353.985 142.721,353.656 142.235,353.153 142.104 C 352.721 141.991,352.123 141.426,351.825 140.848 C 350.520 138.325,344.475 132.280,341.952 130.975 C 341.374 130.677,340.809 130.079,340.696 129.647 C 340.565 129.144,340.079 128.815,339.346 128.731 C 338.630 128.649,338.055 128.270,337.815 127.722 C 337.539 127.094,336.801 126.691,335.217 126.305 C 333.583 125.906,332.965 125.560,332.856 124.982 C 332.629 123.789,332.080 123.615,328.400 123.577 C 323.042 123.521,320.980 123.111,319.833 121.874 C 318.847 120.810,314.431 120.340,312.400 121.082 M318.329 125.800 C 318.761 126.350,319.249 126.800,319.413 126.800 C 319.578 126.800,319.951 127.115,320.243 127.500 C 320.982 128.473,321.056 170.384,320.320 171.120 C 319.360 172.080,285.756 171.778,284.900 170.802 C 284.515 170.363,283.705 169.523,283.100 168.936 C 281.488 167.371,281.653 166.052,283.735 163.848 L 285.469 162.011 298.235 161.906 L 311.000 161.800 311.200 144.961 C 311.405 127.670,311.491 126.800,312.985 126.800 C 313.253 126.800,313.677 126.350,313.927 125.800 C 314.301 124.979,314.666 124.800,315.962 124.800 C 317.171 124.800,317.727 125.035,318.329 125.800 M203.269 239.862 C 203.671 240.226,204.000 240.748,204.000 241.021 C 204.000 241.367,205.040 241.561,207.432 241.659 C 210.318 241.778,210.953 241.927,211.419 242.600 C 212.497 244.156,212.844 244.400,213.983 244.400 C 215.647 244.400,216.415 244.786,216.808 245.822 C 216.999 246.324,217.661 246.976,218.278 247.270 C 219.199 247.709,219.474 248.192,219.814 249.962 C 220.128 251.600,220.438 252.196,221.102 252.442 C 222.074 252.801,222.263 253.425,222.545 257.183 C 222.710 259.379,222.893 259.878,223.770 260.516 C 225.626 261.868,225.166 267.411,223.142 268.086 C 222.857 268.181,222.572 269.562,222.425 271.561 C 222.228 274.245,222.031 274.982,221.391 275.423 C 220.956 275.722,220.449 276.139,220.265 276.348 C 218.720 278.102,218.075 278.708,217.577 278.874 C 217.092 279.035,216.979 281.289,216.868 292.945 L 216.736 306.824 215.568 307.687 C 214.597 308.405,214.400 308.836,214.400 310.247 C 214.400 311.955,213.647 313.200,212.615 313.200 C 212.324 313.200,211.969 313.669,211.825 314.242 C 211.660 314.900,211.129 315.447,210.382 315.729 C 209.732 315.975,209.200 316.393,209.200 316.659 C 209.200 317.650,207.927 318.400,206.247 318.400 C 204.826 318.400,204.406 318.595,203.663 319.600 C 202.827 320.732,202.619 320.800,200.015 320.800 C 197.404 320.800,197.208 320.735,196.400 319.600 C 195.688 318.600,195.271 318.400,193.904 318.400 C 192.232 318.400,190.800 317.545,190.800 316.546 C 190.800 316.254,190.365 315.906,189.834 315.773 C 189.276 315.633,188.665 315.039,188.386 314.365 C 188.120 313.724,187.665 313.200,187.374 313.200 C 186.466 313.200,185.600 311.496,185.600 309.711 C 185.600 308.670,185.416 308.000,185.131 308.000 C 183.299 308.000,183.200 307.331,183.197 294.838 C 183.192 280.454,183.049 278.875,181.702 278.363 C 181.163 278.158,180.627 277.625,180.510 277.179 C 180.394 276.733,179.805 276.113,179.203 275.801 C 177.956 275.157,177.600 273.945,177.600 270.350 C 177.600 268.821,177.436 268.000,177.131 268.000 C 175.164 268.000,174.300 262.500,176.000 260.800 C 176.440 260.360,176.962 260.000,177.159 260.000 C 177.356 260.000,177.582 258.440,177.660 256.533 C 177.762 254.049,177.958 253.014,178.351 252.883 C 179.435 252.522,180.400 251.179,180.400 250.033 C 180.400 248.338,180.785 247.586,181.862 247.177 C 182.386 246.977,182.981 246.377,183.184 245.841 C 183.567 244.835,183.952 244.647,186.518 244.213 C 187.580 244.034,188.166 243.672,188.467 243.012 C 188.994 241.855,189.829 241.612,193.300 241.605 C 194.830 241.602,196.000 241.427,196.000 241.200 C 196.000 239.351,201.570 238.325,203.269 239.862 " stroke="none" fill="#040404" fill-rule="evenodd"></path></g></svg>